<?xml version="1.0" encoding="utf-8"?>
<!-- Generator: Adobe Illustrator 24.0.1, SVG Export Plug-In . SVG Version: 6.00 Build 0)  -->
<svg version="1.1" id="Layer_1" xmlns="http://www.w3.org/2000/svg" xmlns:xlink="http://www.w3.org/1999/xlink" x="0px" y="0px"
	 viewBox="0 0 771.8 521.2" style="enable-background:new 0 0 771.8 521.2;" xml:space="preserve">
<style type="text/css">
	.st0{fill:#00AEEF;}
	.st1{fill:none;stroke:#000000;stroke-width:8;stroke-miterlimit:10;}
	.st2{fill:#FFFFFF;stroke:#000000;stroke-width:2;stroke-miterlimit:10;}
	.st3{fill:#D1D3D4;}
	.st4{fill:none;}
	.st5{fill:#FFFFFF;}
	.st6{font-family:'SignPainter-HouseScriptSemibold';}
	.st7{font-size:71.9962px;}
	.st8{fill-rule:evenodd;clip-rule:evenodd;fill:#010101;}
	.st9{fill-rule:evenodd;clip-rule:evenodd;fill:#FFFFFF;}
	.st10{fill-rule:evenodd;clip-rule:evenodd;fill:url(#SVGID_1_);}
	.st11{fill-rule:evenodd;clip-rule:evenodd;fill:url(#SVGID_2_);}
	.st12{fill:#010101;}
	.st13{fill:#E3414D;}
	.st14{font-family:'Trattatello';}
	.st15{font-size:41.9978px;}
	.st16{fill:none;stroke:#000000;stroke-width:0.9999;stroke-miterlimit:9.9995;}
	.st17{font-family:'Noteworthy-Bold';}
	.st18{font-size:20.9989px;}
	.st19{font-size:39.9979px;}
	.st20{fill:none;stroke:#000000;stroke-width:2;stroke-miterlimit:10;}
</style>
<g>
	
		<image style="overflow:visible;opacity:0.7;enable-background:new    ;" width="3238" height="2033" xlink:href="16B5B955933F7D6.png"  transform="matrix(0.2397 0 0 0.2397 -0.489 -0.3342)">
	</image>
	<g>
		<path class="st0" d="M721.1,428.1L60.3,459.8c-16.5,0.8-30.6-12-31.4-28.5L11.7,73.8c-0.8-16.6,12-30.6,28.6-31.4l660.7-31.7
			c16.6-0.8,30.7,12,31.5,28.6l17.2,357.4C750.4,413.3,737.6,427.3,721.1,428.1z"/>
		<path class="st1" d="M721.1,428.1L60.3,459.8c-16.5,0.8-30.6-12-31.4-28.5L11.7,73.8c-0.8-16.6,12-30.6,28.6-31.4l660.7-31.7
			c16.6-0.8,30.7,12,31.5,28.6l17.2,357.4C750.4,413.3,737.6,427.3,721.1,428.1z"/>
	</g>
</g>
<g id="HGs0R8.tif">
	
		<image style="overflow:visible;opacity:0.75;enable-background:new    ;" width="917" height="967" xlink:href="16B5B955933F7DA.png"  transform="matrix(0.2387 0 0 0.2387 275.271 212.6371)">
	</image>
	<g>
		<g>
			<g>
				<path class="st2" d="M378.1,228.8c1-0.1,2-0.1,3.1-0.1c2.5,1.1,3.5,2.9,3.4,5.6c-0.1,1.7,0.1,3.4,0.2,5.1
					c0.1,2.8,0.3,5.6,0.4,8.9c0.9-0.9,1.4-1.4,1.9-1.9c3.3-3.6,6.5-7.2,9.8-10.8c1.3-1.4,2.8-2.4,4.8-1.9c3.6,0.9,4.5,4.8,1.8,7.8
					c-5.4,6.1-11,12.1-16.4,18.1c-0.5,0.6-1.1,1.3-1.1,2c0,3.4,0.3,6.8,0.5,10.6c0.9-0.9,1.4-1.4,1.9-2c3.4-3.7,6.7-7.4,10.1-11.1
					c1.5-1.6,3.4-2,5.4-1.1c2,0.9,2.7,2.7,2.3,4.8c-0.3,1.1-1.1,2.2-1.9,3.1c-5.3,5.9-10.6,11.8-16,17.6c-0.5,0.5-1.2,1.2-1.2,1.7
					c0.1,4,0.3,8,0.5,12c7.8,1,14.1,4,19.4,9.5c0.4,0.4,1.6,0.5,2.1,0.2c2.5-1.5,4.9-3.2,7.5-4.7c1.4-0.8,2-1.9,2.4-3.4
					c1.6-7.9,3.4-15.7,5.1-23.6c0.6-2.9,2.8-4.5,5.4-3.9c2.5,0.5,3.9,2.9,3.3,5.8c-0.2,1.2-0.6,2.4-0.8,3.6
					c-0.9,4.3-1.8,8.5-2.8,13.2c5.3-3.2,11.1-5.2,11.1-12.5c0-1.2,0.5-2.4,0.7-3.6c1.2-5.4,2.3-10.7,3.6-16.1
					c0.6-2.7,2.8-3.9,5.3-3.4c2.4,0.5,3.7,2.7,3.2,5.4c-0.3,1.6-0.6,3.1-1,4.7c-0.9,4.1-1.7,8.2-2.7,12.7c4.4-2.9,8.4-5.4,12.4-8
					c2.6-1.6,5.1-1.2,6.6,1c1.5,2.2,0.8,4.7-1.7,6.4c-3.5,2.3-7.1,4.6-10.7,6.9c-0.4,0.3-0.8,0.6-1.5,1.2c5.4,1.2,10.5,2.4,15.5,3.4
					c2.3,0.4,4.1,1.3,5.3,3.4c0,0.7,0.1,1.5,0.1,2.2c-1.9,3.6-3,4-7.1,3.1c-7.7-1.7-15.4-3.4-23.2-5c-0.7-0.1-1.6-0.3-2.1,0.1
					c-3,1.8-5.9,3.7-9.1,5.8c5.9,1.3,11.4,2.5,16.9,3.7c3.2,0.7,4.7,2.9,4,5.7c-0.6,2.5-2.9,3.6-6,2.9c-8.1-1.7-16.2-3.5-24.2-5.2
					c-0.6-0.1-1.4-0.2-1.8,0.1c-3.3,2-6.5,4.1-9.9,6.3c3.3,7.5,3.5,15.2,1.1,22.9c3.4,1.8,6.5,3.4,9.7,4.9c0.8,0.4,2,0.5,2.8,0.2
					c8-2.5,15.9-5,23.8-7.6c2.6-0.8,5,0.3,5.8,2.5c0.9,2.5-0.3,4.9-3,5.9c-1.6,0.6-3.4,1.1-5,1.6c-3.8,1.2-7.6,2.5-11.8,3.8
					c3.4,1.7,6.3,3.3,9.2,4.7c0.7,0.3,1.7,0.3,2.5,0c7.5-2.4,15.1-4.8,22.6-7.2c4-1.3,5.1-0.9,7.4,2.5c0,0.7,0.1,1.5,0.1,2.2
					c-0.9,2.1-2.5,3.3-4.7,3.8c-1.1,0.2-2.2,0.7-3.4,1c-3.9,1.3-7.8,2.5-12.1,4c1,0.6,1.7,1,2.3,1.3c3.7,1.9,7.5,3.8,11.1,5.8
					c2.3,1.2,3.1,3.6,2,5.8c-1.1,2.3-3.5,3.2-5.9,2.1c-0.7-0.3-1.3-0.7-2-1c-3.8-1.9-7.6-3.9-11.8-6c1.8,5.6,3.4,10.6,5,15.7
					c0.3,1.1,0.6,2.3,0.5,3.4c-0.2,2.1-1.9,3.6-4,3.7c-2.3,0.2-4-1.1-4.8-3.7c-2.5-7.7-4.9-15.5-7.4-23.2c-0.2-0.7-0.6-1.7-1.1-2
					c-3-1.7-6-3.2-9.4-4.9c0.2,0.9,0.3,1.4,0.4,1.9c1.5,4.8,3.1,9.6,4.6,14.4c0.9,3-0.1,5.5-2.6,6.3c-2.5,0.8-4.8-0.6-5.8-3.6
					c-2.5-7.6-4.9-15.2-7.3-22.8c-0.5-1.5-1.2-2.5-2.7-3.2c-2.5-1.1-4.9-2.4-7.2-3.7c-1.4-0.8-2.1-0.7-3.2,0.6c-1.7,2-3.5,4-5.7,5.4
					c-3.8,2.3-7.8,4.1-12.1,6.2c0.1,3.2,0.3,7,0.6,10.8c0,0.7,0.7,1.4,1.2,1.9c3.4,3.1,6.8,6.2,10.2,9.4c2.8,2.6,5.7,5.1,8.4,7.7
					c1.5,1.5,1.9,3.3,1,5.2c-0.9,1.9-2.6,2.8-4.5,2.3c-1.2-0.2-2.4-1-3.4-1.9c-4-3.6-8-7.2-12.4-11.3c0.2,3.6,0.2,6.7,0.5,9.7
					c0.1,1,0.7,2.2,1.4,2.9c5.8,5.4,11.7,10.7,17.5,16.1c0.9,0.9,1.9,2,2.2,3.1c0.6,1.9,0,3.6-1.8,4.8c-1.9,1.2-3.8,1-5.5-0.5
					c-3.9-3.4-7.6-6.9-11.4-10.3c-0.5-0.5-1-0.8-1.9-1.5c0.3,5.4,0.5,10.3,0.7,15.2c0.1,2.7-1.7,4.5-4.3,4.6
					c-2.4,0.1-4.3-1.6-4.5-4.2c-0.1-0.9-0.1-1.8-0.1-2.6c-0.2-4.1-0.4-8.1-0.6-12.6c-0.9,0.9-1.4,1.4-1.9,1.9
					c-3.3,3.6-6.5,7.2-9.8,10.8c-1.2,1.4-2.7,2.4-4.6,2c-3.6-0.7-4.8-4.8-2.2-7.7c5.5-6.1,11-12.2,16.5-18.3c0.5-0.6,1.2-1.3,1.2-2
					c0-3.4-0.3-6.8-0.5-10.7c-0.8,0.9-1.4,1.4-1.9,2c-3.4,3.7-6.7,7.4-10.1,11.1c-1.5,1.6-3.4,2-5.4,1.1c-2-0.9-2.8-2.7-2.3-4.7
					c0.3-1.1,1-2.2,1.8-3.1c5.3-6,10.7-11.9,16.1-17.8c0.5-0.5,1.1-1.2,1.1-1.8c-0.1-3.9-0.3-7.9-0.5-11.8c-7.7-1-14.1-4-19.4-9.4
					c-0.4-0.4-1.6-0.5-2.1-0.2c-2.5,1.5-4.9,3.2-7.5,4.7c-1.4,0.8-2.1,1.9-2.4,3.4c-1.6,7.8-3.4,15.6-5,23.4
					c-0.7,3.1-2.8,4.7-5.4,4.2c-2.6-0.5-4-2.9-3.3-6c0.8-3.9,1.7-7.9,2.6-11.8c0.3-1.5,0.6-3,0.9-4.8c-9.3,4.7-9.4,4.9-11.4,14.3
					c-0.1,0.6-0.2,1.1-0.4,1.7c-1.2,5.4-2.3,10.7-3.5,16.1c-0.6,2.4-2.2,3.6-4.4,3.5c-2.1,0-3.9-1.4-4.2-3.5c-0.2-1,0-2.2,0.3-3.2
					c1.1-5.3,2.3-10.5,3.5-16.2c-4.5,2.9-8.5,5.5-12.6,8.1c-2.6,1.6-5.1,1.1-6.5-1.2c-1.3-2.2-0.7-4.6,1.8-6.2
					c3.5-2.3,7.1-4.6,10.7-6.9c0.4-0.3,0.8-0.7,1.5-1.2c-5.4-1.2-10.5-2.4-15.5-3.4c-2.3-0.4-4.1-1.3-5.3-3.4c0-0.7-0.1-1.5-0.1-2.2
					c2-3.6,3-4,7.1-3.1c7.7,1.7,15.4,3.4,23.2,5c0.7,0.1,1.6,0.2,2.1-0.1c3-1.8,5.9-3.7,9.1-5.8c-5.9-1.3-11.4-2.5-16.9-3.7
					c-3.2-0.7-4.7-2.9-4-5.7c0.6-2.4,2.9-3.6,6-2.9c8,1.7,16,3.5,24,5.1c0.7,0.1,1.5,0.2,2-0.1c3.3-2,6.5-4.1,9.8-6.2
					c-3.6-12.2-3-13.8-1.1-23c-2.9-1.5-5.9-2.9-8.7-4.5c-1.5-0.9-2.9-0.9-4.5-0.4c-7.6,2.5-15.3,5-23,7.4c-2.7,0.9-5.1-0.4-5.9-2.7
					c-0.8-2.5,0.4-4.7,3.1-5.7c1-0.4,2.1-0.7,3.1-1c4.5-1.4,8.9-2.9,13.7-4.4c-3.4-1.7-6.3-3.3-9.2-4.7c-0.7-0.3-1.7-0.3-2.5,0
					c-7.5,2.4-15.1,4.8-22.6,7.2c-4,1.3-5.1,0.9-7.4-2.4c0-0.7-0.1-1.5-0.1-2.2c0.9-2.2,2.6-3.3,4.9-3.9c2.1-0.5,4.2-1.3,6.3-2
					c2.9-0.9,5.7-1.9,9.1-3c-4.7-2.5-9-4.6-13.2-6.8c-2.6-1.4-3.5-3.9-2.3-6.2c1.2-2.2,3.7-3,6.3-1.7c3.3,1.6,6.5,3.3,9.8,5
					c1,0.5,2.1,1.1,3.5,1.8c-1.9-6.1-3.7-11.6-5.4-17.2c-0.7-2.4,0.5-4.6,2.6-5.4c2.3-0.8,4.6,0.1,5.7,2.4c0.2,0.5,0.4,1,0.5,1.4
					c2.4,7.6,4.9,15.2,7.3,22.8c0.2,0.7,0.5,1.6,1,1.9c3,1.7,6.1,3.2,9.6,5c-0.2-0.9-0.3-1.4-0.5-1.9c-1.5-4.8-3.1-9.6-4.6-14.4
					c-0.9-3,0.1-5.5,2.7-6.3c2.5-0.8,4.8,0.6,5.8,3.6c2.5,7.8,5,15.6,7.6,23.4c0.3,0.9,1,1.7,1.8,2.2c2.6,1.5,5.4,2.7,8,4.2
					c1.4,0.8,2.2,0.5,3-0.7c0.8-1.1,1.8-2.1,2.8-3.1c4.2-4,9.3-6.5,15.1-7.8c-0.2-3.6-0.2-7-0.6-10.4c-0.1-1.1-0.7-2.4-1.5-3.1
					c-5.8-5.4-11.7-10.7-17.5-16.1c-0.9-0.8-1.8-1.8-2.2-2.9c-0.7-2-0.1-3.8,1.8-5c1.9-1.2,3.8-1,5.5,0.5c3.8,3.4,7.6,6.9,11.4,10.3
					c0.5,0.5,1,0.8,1.8,1.5c-0.2-3.5-0.2-6.5-0.5-9.5c-0.1-1-0.6-2.3-1.4-3c-5.9-5.4-11.8-10.8-17.7-16.2c-0.9-0.8-1.8-1.9-2.1-3
					c-0.6-1.9,0-3.6,1.7-4.8c1.8-1.2,3.6-1.1,5.3,0.3c3.9,3.4,7.6,6.9,11.5,10.3c0.6,0.5,1.2,1,2.1,1.7c-0.2-4.7-0.3-9-0.7-13.2
					C375.5,232.7,376,230.5,378.1,228.8z M406.7,327.2c-0.4-11.9-10.8-21.5-22.8-21.1c-12,0.4-21.5,10.7-21.2,22.8
					c0.4,12,10.8,21.7,23,21.2C397.6,349.7,407.1,339.3,406.7,327.2z"/>
			</g>
		</g>
	</g>
</g>
<g id="HGs0R8.tif_1_">
	
		<image style="overflow:visible;opacity:0.75;enable-background:new    ;" width="913" height="967" xlink:href="16B5B955933F7DD.png"  transform="matrix(0.239 0 0 0.239 43.1642 223.7644)">
	</image>
	<g>
		<g>
			<g>
				<path class="st2" d="M145.7,239.9c1-0.1,2.1-0.1,3.1-0.1c2.4,1.1,3.5,2.9,3.4,5.6c-0.1,1.7,0.1,3.4,0.2,5.1
					c0.1,2.8,0.3,5.6,0.4,8.9c0.9-0.9,1.4-1.4,1.9-1.9c3.3-3.6,6.5-7.2,9.8-10.8c1.3-1.4,2.8-2.4,4.8-1.9c3.6,0.9,4.5,4.8,1.8,7.8
					c-5.4,6.1-10.9,12.1-16.4,18.1c-0.5,0.6-1.1,1.3-1.1,2c0,3.4,0.3,6.8,0.4,10.6c0.9-0.9,1.4-1.4,1.9-2c3.4-3.7,6.7-7.4,10.1-11.1
					c1.5-1.6,3.4-2,5.4-1.1c2,0.9,2.7,2.7,2.3,4.8c-0.3,1.1-1.1,2.2-1.9,3.1c-5.3,5.9-10.6,11.8-15.9,17.6c-0.5,0.5-1.2,1.2-1.2,1.7
					c0.1,4,0.3,8,0.5,12c7.8,1,14.1,4,19.4,9.5c0.4,0.4,1.6,0.5,2.1,0.2c2.5-1.5,4.9-3.2,7.4-4.7c1.4-0.8,2-1.9,2.4-3.4
					c1.6-7.9,3.4-15.7,5.1-23.6c0.6-2.9,2.8-4.5,5.4-3.9c2.5,0.5,3.9,2.9,3.3,5.8c-0.2,1.2-0.6,2.4-0.8,3.6
					c-0.9,4.3-1.8,8.5-2.8,13.2c5.3-3.2,11.1-5.2,11.1-12.5c0-1.2,0.5-2.4,0.7-3.6c1.2-5.4,2.3-10.7,3.6-16.1
					c0.6-2.7,2.8-3.9,5.3-3.4c2.4,0.5,3.7,2.7,3.2,5.4c-0.3,1.6-0.6,3.1-1,4.7c-0.9,4.1-1.7,8.2-2.7,12.7c4.4-2.9,8.4-5.4,12.4-8
					c2.6-1.6,5.1-1.2,6.6,1s0.8,4.7-1.7,6.4c-3.6,2.3-7.1,4.6-10.7,6.9c-0.4,0.3-0.8,0.6-1.5,1.2c5.4,1.2,10.5,2.4,15.6,3.4
					c2.3,0.4,4.1,1.3,5.3,3.4c0,0.7,0.1,1.5,0.1,2.2c-1.9,3.6-3,4-7.1,3.1c-7.7-1.7-15.4-3.4-23.2-5c-0.7-0.1-1.6-0.3-2.1,0.1
					c-3,1.8-5.9,3.7-9.1,5.8c5.9,1.3,11.4,2.5,16.9,3.7c3.2,0.7,4.7,2.9,4,5.7c-0.6,2.5-2.9,3.6-6,2.9c-8.1-1.7-16.2-3.5-24.2-5.2
					c-0.6-0.1-1.4-0.2-1.8,0.1c-3.3,2-6.6,4.1-9.9,6.3c3.3,7.5,3.6,15.2,1.1,22.9c3.4,1.8,6.5,3.4,9.7,4.9c0.8,0.4,2,0.5,2.8,0.2
					c8-2.5,15.9-5,23.8-7.6c2.6-0.8,5,0.3,5.8,2.5c0.9,2.5-0.3,4.9-3,5.9c-1.6,0.6-3.4,1.1-5,1.6c-3.8,1.2-7.6,2.5-11.8,3.8
					c3.4,1.7,6.3,3.3,9.2,4.7c0.7,0.3,1.7,0.3,2.5,0c7.5-2.4,15.1-4.8,22.6-7.2c3.9-1.3,5.1-0.9,7.4,2.5c0,0.7,0.1,1.5,0.1,2.2
					c-0.9,2.1-2.5,3.3-4.7,3.8c-1.1,0.2-2.2,0.7-3.4,1c-3.9,1.3-7.8,2.5-12.1,4c1.1,0.6,1.7,1,2.3,1.3c3.7,1.9,7.4,3.8,11.1,5.8
					c2.3,1.2,3.1,3.6,2.1,5.8c-1.1,2.3-3.5,3.2-5.9,2.1c-0.7-0.3-1.3-0.7-2-1c-3.8-1.9-7.6-3.9-11.8-6c1.8,5.6,3.4,10.6,5,15.7
					c0.3,1.1,0.6,2.3,0.6,3.4c-0.2,2.1-1.9,3.6-4,3.7c-2.3,0.2-4-1.1-4.8-3.7c-2.5-7.7-4.9-15.5-7.4-23.2c-0.2-0.7-0.6-1.7-1.1-2
					c-3-1.7-6-3.2-9.4-4.9c0.2,0.9,0.3,1.4,0.4,1.9c1.5,4.8,3.1,9.6,4.6,14.4c0.9,3-0.1,5.5-2.6,6.3c-2.6,0.8-4.8-0.6-5.8-3.6
					c-2.4-7.6-4.9-15.2-7.3-22.8c-0.5-1.5-1.2-2.5-2.7-3.2c-2.5-1.1-4.9-2.4-7.2-3.7c-1.4-0.8-2.1-0.7-3.2,0.6c-1.7,2-3.5,4-5.7,5.4
					c-3.8,2.3-7.8,4.1-12.1,6.2c0.1,3.2,0.3,7,0.6,10.8c0.1,0.7,0.7,1.4,1.2,1.9c3.4,3.1,6.8,6.2,10.2,9.4c2.8,2.6,5.7,5.1,8.4,7.7
					c1.6,1.5,1.9,3.3,0.9,5.2c-0.9,1.9-2.6,2.8-4.5,2.3c-1.2-0.2-2.4-1-3.4-1.9c-4.1-3.6-8-7.2-12.4-11.3c0.2,3.6,0.2,6.7,0.5,9.7
					c0.1,1,0.7,2.2,1.4,2.9c5.8,5.4,11.7,10.7,17.5,16.1c0.9,0.9,1.9,2,2.2,3.1c0.6,1.9,0,3.6-1.8,4.8c-1.9,1.2-3.8,1-5.5-0.5
					c-3.9-3.4-7.6-6.9-11.4-10.3c-0.5-0.5-1-0.8-1.9-1.5c0.3,5.4,0.5,10.3,0.7,15.2c0.1,2.7-1.7,4.5-4.3,4.6
					c-2.4,0.1-4.3-1.6-4.5-4.2c-0.1-0.9-0.1-1.8-0.1-2.6c-0.2-4.1-0.4-8.1-0.6-12.6c-0.9,0.9-1.4,1.4-1.9,1.9
					c-3.3,3.6-6.5,7.2-9.8,10.8c-1.2,1.4-2.7,2.4-4.6,2c-3.6-0.7-4.8-4.8-2.2-7.7c5.5-6.1,11-12.2,16.5-18.3c0.5-0.6,1.2-1.3,1.2-2
					c0-3.4-0.3-6.8-0.4-10.7c-0.8,0.9-1.4,1.4-1.9,2c-3.4,3.7-6.7,7.4-10.1,11.1c-1.5,1.6-3.4,2-5.4,1.1c-2-0.9-2.8-2.7-2.3-4.7
					c0.3-1.1,1-2.2,1.8-3.1c5.3-6,10.7-11.9,16.1-17.8c0.5-0.5,1.1-1.2,1.1-1.8c-0.1-3.9-0.3-7.9-0.5-11.8c-7.7-1-14.1-4-19.4-9.4
					c-0.4-0.4-1.6-0.5-2.1-0.2c-2.5,1.5-4.9,3.2-7.4,4.7c-1.4,0.8-2.1,1.9-2.4,3.4c-1.6,7.8-3.3,15.6-5.1,23.4
					c-0.7,3.1-2.8,4.7-5.4,4.2c-2.6-0.5-4-2.9-3.3-6c0.8-3.9,1.7-7.9,2.6-11.8c0.3-1.5,0.6-3,0.9-4.8c-9.3,4.7-9.4,4.9-11.3,14.3
					c-0.1,0.6-0.2,1.1-0.4,1.7c-1.2,5.4-2.3,10.7-3.6,16.1c-0.6,2.4-2.2,3.6-4.4,3.5c-2.1,0-3.9-1.4-4.2-3.5c-0.2-1,0-2.2,0.3-3.2
					c1.1-5.3,2.3-10.5,3.5-16.2c-4.5,2.9-8.5,5.5-12.6,8.1c-2.6,1.6-5.1,1.1-6.5-1.2c-1.3-2.2-0.7-4.6,1.8-6.2
					c3.6-2.3,7.1-4.6,10.7-6.9c0.4-0.3,0.8-0.7,1.5-1.2c-5.4-1.2-10.4-2.4-15.5-3.4c-2.3-0.4-4.1-1.3-5.3-3.4c0-0.7-0.1-1.5-0.1-2.2
					c2-3.6,3-4,7.1-3.1c7.7,1.7,15.4,3.4,23.2,5c0.7,0.1,1.6,0.2,2.1-0.1c3-1.8,5.9-3.7,9.1-5.8c-5.9-1.3-11.4-2.5-16.9-3.7
					c-3.2-0.7-4.7-2.9-4-5.7c0.6-2.4,2.9-3.6,6-2.9c8,1.7,16,3.5,24,5.1c0.7,0.1,1.5,0.2,2-0.1c3.3-2,6.6-4.1,9.8-6.2
					c-3.6-12.2-3-13.8-1.1-23c-2.9-1.5-5.8-2.9-8.7-4.5c-1.5-0.9-2.9-0.9-4.5-0.4c-7.6,2.5-15.3,5-23,7.4c-2.7,0.9-5.2-0.4-5.9-2.7
					c-0.8-2.5,0.4-4.7,3.1-5.7c1-0.4,2.1-0.7,3.1-1c4.4-1.4,8.9-2.9,13.7-4.4c-3.4-1.7-6.3-3.3-9.2-4.7c-0.7-0.3-1.7-0.3-2.5,0
					c-7.5,2.4-15.1,4.8-22.6,7.2c-4,1.3-5.1,0.9-7.4-2.4c0-0.7-0.1-1.5-0.1-2.2c0.9-2.2,2.6-3.3,4.9-3.9c2.1-0.5,4.2-1.3,6.3-2
					c2.9-0.9,5.7-1.9,9.1-3c-4.7-2.5-9-4.6-13.2-6.8c-2.7-1.4-3.5-3.9-2.3-6.2c1.2-2.2,3.7-3,6.3-1.7c3.3,1.6,6.5,3.3,9.8,5
					c1.1,0.5,2.1,1.1,3.5,1.8c-1.9-6.1-3.7-11.6-5.4-17.2c-0.7-2.4,0.5-4.6,2.6-5.4c2.3-0.8,4.6,0.1,5.7,2.4c0.2,0.5,0.4,1,0.5,1.4
					c2.4,7.6,4.8,15.2,7.3,22.8c0.2,0.7,0.4,1.6,1,1.9c3,1.7,6.2,3.2,9.6,5c-0.2-0.9-0.3-1.4-0.5-1.9c-1.5-4.8-3.1-9.6-4.6-14.4
					c-0.9-3,0.1-5.5,2.7-6.3c2.5-0.8,4.8,0.6,5.8,3.6c2.5,7.8,5,15.6,7.6,23.4c0.3,0.9,1,1.7,1.8,2.2c2.6,1.5,5.4,2.7,8,4.2
					c1.4,0.8,2.2,0.5,3-0.7c0.8-1.1,1.8-2.1,2.8-3.1c4.2-4,9.3-6.5,15.1-7.8c-0.2-3.6-0.2-7-0.6-10.4c-0.1-1.1-0.7-2.4-1.5-3.1
					c-5.8-5.4-11.7-10.7-17.5-16.1c-0.9-0.8-1.8-1.8-2.2-2.9c-0.7-2-0.1-3.8,1.8-5c1.9-1.2,3.8-1,5.5,0.5c3.8,3.4,7.6,6.9,11.4,10.3
					c0.5,0.5,1,0.8,1.8,1.5c-0.2-3.5-0.2-6.5-0.5-9.5c-0.1-1-0.6-2.3-1.4-3c-5.9-5.5-11.8-10.8-17.7-16.2c-0.9-0.8-1.8-1.9-2.1-3
					c-0.6-1.9,0-3.6,1.7-4.8c1.8-1.2,3.7-1.1,5.3,0.3c3.9,3.4,7.6,6.9,11.5,10.3c0.6,0.5,1.2,1,2.1,1.7c-0.2-4.7-0.3-9-0.7-13.2
					C143.1,243.9,143.6,241.7,145.7,239.9z M174.3,338.4c-0.4-11.9-10.8-21.5-22.8-21.1c-11.9,0.4-21.6,10.7-21.2,22.8
					c0.4,12,10.8,21.7,23,21.2C165.2,360.8,174.7,350.5,174.3,338.4z"/>
			</g>
		</g>
	</g>
</g>
<g id="HGs0R8.tif_2_">
	<g>
		<path class="st3" d="M612.9,217.5c1-0.1,2-0.1,3.1-0.1c2.5,1.1,3.5,2.9,3.4,5.6c-0.1,1.7,0.1,3.4,0.2,5.1c0.1,2.8,0.3,5.6,0.4,8.9
			c0.9-0.9,1.4-1.4,1.9-1.9c3.3-3.6,6.5-7.2,9.8-10.8c1.3-1.4,2.8-2.4,4.8-1.9c3.6,0.9,4.5,4.8,1.8,7.8c-5.4,6.1-11,12.1-16.4,18.1
			c-0.5,0.6-1.2,1.3-1.1,2c0,3.4,0.3,6.8,0.5,10.6c0.9-0.9,1.4-1.4,1.9-2c3.4-3.7,6.7-7.4,10.1-11.1c1.5-1.6,3.4-2,5.4-1.1
			c2,0.9,2.7,2.7,2.3,4.8c-0.3,1.1-1.1,2.2-1.9,3.1c-5.3,5.9-10.6,11.8-16,17.6c-0.5,0.5-1.2,1.2-1.2,1.7c0.1,4,0.3,8,0.5,12
			c7.8,1,14.1,4,19.4,9.5c0.4,0.4,1.6,0.5,2.1,0.2c2.5-1.5,4.9-3.2,7.5-4.7c1.4-0.8,2-1.9,2.4-3.4c1.7-7.9,3.4-15.7,5.1-23.6
			c0.6-2.9,2.8-4.5,5.4-3.9c2.5,0.5,3.9,2.9,3.3,5.8c-0.2,1.2-0.6,2.4-0.8,3.6c-0.9,4.3-1.8,8.5-2.8,13.2
			c5.3-3.2,11.1-5.2,11.1-12.5c0-1.2,0.5-2.4,0.7-3.6c1.2-5.4,2.3-10.7,3.6-16.1c0.6-2.7,2.8-3.9,5.3-3.4c2.4,0.5,3.7,2.7,3.2,5.4
			c-0.3,1.6-0.7,3.1-1,4.7c-0.9,4.1-1.7,8.2-2.7,12.7c4.4-2.9,8.4-5.4,12.4-8c2.6-1.6,5.1-1.2,6.6,1s0.8,4.7-1.7,6.4
			c-3.5,2.3-7.1,4.6-10.7,6.9c-0.4,0.3-0.8,0.6-1.5,1.2c5.4,1.2,10.5,2.4,15.5,3.4c2.3,0.4,4.1,1.3,5.3,3.4c0,0.7,0.1,1.5,0.1,2.2
			c-1.9,3.6-3,4-7.1,3.1c-7.7-1.7-15.4-3.4-23.2-5c-0.7-0.1-1.6-0.3-2.1,0.1c-3,1.8-5.9,3.7-9.1,5.8c5.9,1.3,11.4,2.5,16.9,3.7
			c3.2,0.7,4.7,2.9,4,5.7c-0.6,2.5-2.9,3.6-6,2.9c-8.1-1.7-16.2-3.5-24.2-5.2c-0.6-0.1-1.4-0.2-1.8,0.1c-3.3,2-6.5,4.1-9.9,6.3
			c3.3,7.5,3.5,15.2,1.1,22.9c3.4,1.8,6.5,3.4,9.7,4.9c0.8,0.4,2,0.5,2.8,0.2c8-2.5,15.9-5,23.8-7.6c2.6-0.8,5,0.3,5.8,2.5
			c0.9,2.5-0.3,4.9-3,5.9c-1.7,0.6-3.3,1.1-5,1.6c-3.8,1.2-7.6,2.5-11.8,3.8c3.4,1.7,6.3,3.3,9.2,4.7c0.7,0.3,1.7,0.3,2.5,0
			c7.5-2.4,15.1-4.8,22.6-7.2c4-1.3,5.1-0.9,7.4,2.5c0,0.7,0.1,1.5,0.1,2.2c-0.9,2.1-2.5,3.3-4.7,3.8c-1.1,0.2-2.2,0.7-3.3,1
			c-3.9,1.3-7.8,2.5-12.1,4c1,0.6,1.7,1,2.3,1.3c3.7,1.9,7.5,3.8,11.1,5.8c2.3,1.2,3.1,3.6,2,5.8c-1.1,2.3-3.5,3.2-5.9,2.1
			c-0.7-0.3-1.3-0.7-2-1c-3.8-1.9-7.6-3.9-11.8-6c1.8,5.6,3.4,10.6,5,15.7c0.3,1.1,0.7,2.3,0.5,3.4c-0.2,2.1-1.9,3.6-4,3.7
			c-2.3,0.2-4-1.1-4.8-3.7c-2.5-7.7-4.9-15.5-7.4-23.2c-0.2-0.7-0.6-1.7-1.1-2c-3-1.7-6-3.2-9.4-4.9c0.2,0.9,0.3,1.4,0.4,1.9
			c1.5,4.8,3.1,9.6,4.6,14.4c0.9,3-0.1,5.5-2.7,6.3c-2.5,0.8-4.8-0.6-5.8-3.6c-2.5-7.6-4.9-15.2-7.3-22.8c-0.5-1.5-1.2-2.5-2.7-3.2
			c-2.5-1.1-4.9-2.4-7.2-3.7c-1.4-0.8-2.2-0.7-3.2,0.6c-1.7,2-3.5,4-5.7,5.4c-3.8,2.3-7.8,4.1-12.2,6.2c0.2,3.2,0.3,7,0.6,10.8
			c0,0.7,0.7,1.4,1.2,1.9c3.4,3.1,6.8,6.2,10.2,9.4c2.8,2.6,5.7,5.1,8.4,7.7c1.5,1.5,1.8,3.3,1,5.2c-0.9,1.9-2.6,2.8-4.5,2.3
			c-1.2-0.2-2.4-1-3.4-1.9c-4-3.6-8-7.2-12.4-11.3c0.2,3.6,0.2,6.7,0.5,9.7c0.1,1,0.7,2.2,1.4,2.9c5.8,5.4,11.7,10.7,17.5,16.1
			c0.9,0.9,1.8,2,2.2,3.1c0.6,1.9,0,3.6-1.8,4.8c-1.9,1.2-3.8,1-5.5-0.5c-3.8-3.4-7.6-6.9-11.4-10.3c-0.5-0.5-1-0.8-1.9-1.5
			c0.3,5.4,0.5,10.3,0.7,15.2c0.1,2.7-1.7,4.5-4.3,4.6c-2.4,0.1-4.3-1.6-4.5-4.2c-0.1-0.9-0.1-1.8-0.1-2.6
			c-0.2-4.1-0.4-8.1-0.6-12.6c-0.9,0.9-1.4,1.4-1.8,1.9c-3.3,3.6-6.5,7.2-9.8,10.8c-1.2,1.4-2.7,2.4-4.6,2c-3.6-0.7-4.8-4.8-2.2-7.7
			c5.5-6.1,11-12.2,16.5-18.3c0.5-0.6,1.2-1.3,1.2-2c0-3.4-0.3-6.8-0.5-10.7c-0.8,0.9-1.4,1.4-1.9,2c-3.4,3.7-6.7,7.4-10.1,11.1
			c-1.5,1.6-3.4,2-5.4,1.1c-2-0.9-2.8-2.7-2.3-4.7c0.3-1.1,1-2.2,1.8-3.1c5.3-6,10.7-11.9,16.1-17.8c0.5-0.5,1.1-1.2,1.1-1.8
			c-0.1-3.9-0.3-7.9-0.5-11.8c-7.7-1-14.1-4-19.4-9.4c-0.4-0.4-1.6-0.5-2.1-0.2c-2.5,1.5-4.9,3.2-7.5,4.7c-1.4,0.8-2.1,1.9-2.4,3.4
			c-1.6,7.8-3.3,15.6-5,23.4c-0.7,3.1-2.8,4.7-5.4,4.2c-2.6-0.5-4-2.9-3.3-6c0.8-3.9,1.7-7.9,2.6-11.8c0.3-1.5,0.6-3,0.9-4.8
			c-9.3,4.7-9.4,4.9-11.3,14.3c-0.1,0.6-0.2,1.1-0.4,1.7c-1.2,5.4-2.3,10.7-3.5,16.1c-0.6,2.4-2.2,3.6-4.4,3.5
			c-2.1,0-3.9-1.4-4.2-3.5c-0.2-1,0-2.2,0.3-3.2c1.1-5.3,2.3-10.5,3.5-16.2c-4.5,2.9-8.5,5.5-12.6,8.1c-2.6,1.6-5.1,1.1-6.5-1.2
			c-1.3-2.2-0.7-4.6,1.8-6.2c3.5-2.3,7.1-4.6,10.7-6.9c0.4-0.3,0.8-0.7,1.5-1.2c-5.4-1.2-10.5-2.4-15.5-3.4
			c-2.3-0.4-4.1-1.3-5.3-3.4c0-0.7-0.1-1.5-0.1-2.2c2-3.6,3-4,7.1-3.1c7.7,1.7,15.4,3.4,23.2,5c0.7,0.1,1.6,0.2,2.1-0.1
			c3-1.8,5.9-3.7,9.1-5.8c-5.9-1.3-11.4-2.5-16.9-3.7c-3.2-0.7-4.7-2.9-4-5.7c0.6-2.4,2.9-3.6,6-2.9c8,1.7,16,3.5,24,5.1
			c0.7,0.1,1.5,0.2,2-0.1c3.3-2,6.5-4.1,9.8-6.2c-3.6-12.2-3-13.8-1.1-23c-2.9-1.5-5.8-2.9-8.7-4.5c-1.5-0.9-2.9-0.9-4.5-0.4
			c-7.6,2.5-15.3,5-23,7.4c-2.7,0.9-5.2-0.4-5.9-2.7c-0.8-2.5,0.4-4.7,3.1-5.7c1-0.4,2.1-0.7,3.1-1c4.5-1.4,8.9-2.9,13.7-4.4
			c-3.4-1.7-6.3-3.3-9.2-4.7c-0.7-0.3-1.7-0.3-2.5,0c-7.5,2.4-15.1,4.8-22.6,7.2c-4,1.3-5.1,0.9-7.4-2.4c0-0.7-0.1-1.5-0.1-2.2
			c0.9-2.2,2.6-3.3,4.9-3.9c2.1-0.5,4.2-1.3,6.3-2c2.9-0.9,5.7-1.9,9.1-3c-4.7-2.5-9-4.6-13.2-6.8c-2.7-1.4-3.5-3.9-2.3-6.2
			c1.2-2.2,3.7-3,6.3-1.7c3.3,1.6,6.5,3.3,9.8,5c1,0.5,2.1,1.1,3.5,1.8c-1.9-6.1-3.7-11.6-5.4-17.2c-0.7-2.4,0.5-4.6,2.6-5.4
			c2.3-0.8,4.6,0.1,5.7,2.4c0.2,0.5,0.4,1,0.5,1.4c2.4,7.6,4.8,15.2,7.3,22.8c0.2,0.7,0.5,1.6,1,1.9c3,1.7,6.2,3.2,9.6,5
			c-0.2-0.9-0.3-1.4-0.5-1.9c-1.5-4.8-3.1-9.6-4.6-14.4c-0.9-3,0.1-5.5,2.7-6.3c2.5-0.8,4.8,0.6,5.8,3.6c2.5,7.8,5,15.6,7.6,23.4
			c0.3,0.9,1,1.7,1.8,2.2c2.6,1.5,5.4,2.7,8,4.2c1.4,0.8,2.2,0.5,3-0.7c0.8-1.1,1.8-2.1,2.8-3.1c4.2-4,9.3-6.5,15.1-7.8
			c-0.2-3.6-0.2-7-0.6-10.4c-0.1-1.1-0.7-2.4-1.5-3.1c-5.8-5.4-11.7-10.7-17.5-16.1c-0.9-0.8-1.8-1.8-2.2-2.9c-0.7-2-0.1-3.8,1.8-5
			c1.9-1.2,3.8-1,5.5,0.5c3.8,3.4,7.6,6.9,11.4,10.3c0.5,0.5,1,0.8,1.8,1.5c-0.2-3.5-0.2-6.5-0.5-9.4c-0.1-1-0.6-2.3-1.4-3
			c-5.8-5.4-11.8-10.8-17.7-16.2c-0.9-0.8-1.8-1.9-2.1-3c-0.6-1.9,0-3.6,1.7-4.8c1.8-1.2,3.7-1.1,5.3,0.3c3.8,3.4,7.6,6.9,11.5,10.3
			c0.6,0.5,1.2,1,2.1,1.7c-0.2-4.7-0.3-9-0.7-13.2C610.3,221.4,610.8,219.2,612.9,217.5z M641.4,316c-0.4-11.9-10.8-21.5-22.8-21.1
			c-12,0.4-21.5,10.7-21.2,22.8c0.4,12,10.8,21.7,23,21.2C632.3,338.4,641.8,328.1,641.4,316z"/>
	</g>
</g>
<rect x="203.2" y="63.3" transform="matrix(0.9989 -4.790249e-02 4.790249e-02 0.9989 -4.6528 21.1139)" class="st4" width="469.9" height="88.7"/>
<text transform="matrix(0.9989 -4.790249e-02 4.790249e-02 0.9989 203.5645 119.7164)" class="st5 st6 st7">REWARD CARD</text>
<g>
	<g id="WjzJxt_1_">
		<g>
			<path class="st8" d="M116.7,112.9c-0.4,0-0.8,0.1-1.2,0.1c-0.4,0-0.5,0.2-0.6,0.5c-0.5,1.6-1,3.1-1.5,4.7c-0.5,1.5-1,3.1-1.6,4.6
				c-0.4,1.3-0.8,2.6-1.2,3.9c-0.1,0.3-0.2,0.6-0.3,0.9c-0.2,0.5-0.4,0.5-0.8,0.2c-0.5-0.4-1-0.8-1.5-1.2c-0.3-0.2-0.5-0.2-0.7,0.1
				c-1,1.8-2,3.6-3.1,5.5c-0.7,1.3-1.5,2.7-2.2,4c-0.7,1.3-1.5,2.6-2.2,3.9c-0.6,1-1.1,2-1.7,3c-0.5,0.9-1,1.8-1.5,2.7
				c-0.2,0.4-0.4,0.4-0.8,0.1c-0.6-0.5-1.3-1-1.9-1.4c-0.1-0.1-0.4,0-0.5,0.1c-1.4,1.5-2.9,3.1-4.3,4.6c-3.1,3.4-6.2,6.8-9.3,10.1
				c-0.3,0.3-0.5,0.3-0.8,0c-3.4-3.1-6.8-6.1-10.2-9.1c-1.6-1.4-3.2-2.8-4.7-4.2c-0.2-0.2-0.4-0.2-0.6,0c-0.6,0.6-1.2,1.2-1.9,1.8
				c-0.2,0.2-0.4,0-0.5-0.2c-0.3-0.4-0.5-0.8-0.8-1.2c-0.6-0.9-1.3-1.9-1.9-2.8c-0.5-0.8-1-1.5-1.6-2.3c-0.5-0.7-1-1.4-1.5-2.1
				c-0.8-1.2-1.7-2.5-2.6-3.7c-0.7-1-1.3-1.9-2-2.9c-0.5-0.7-1-1.4-1.4-2.1c-0.2-0.4-0.5-0.7-0.7-1.1c-0.2-0.3-0.4-0.3-0.6,0
				c-0.5,0.5-0.9,0.9-1.4,1.4c-0.3,0.3-0.6,0.3-0.8-0.1c-0.1-0.3-0.3-0.6-0.4-0.9c-0.5-1.1-1-2.1-1.4-3.2c-0.5-1.2-1-2.3-1.5-3.5
				c-0.4-1-0.9-2-1.3-3c-0.4-0.9-0.8-1.9-1.2-2.8c-0.2-0.5-0.3-0.6-0.8-0.6c-0.8,0.1-1.5,0.1-2.3,0.2c-0.4,0-0.5-0.1-0.4-0.5
				c0.3-0.7,0.7-1.4,1-2.1c0.4-0.8,0.7-1.6,1.1-2.4c0.3-0.8,0.6-1.6,0.9-2.3c0.1-0.3,0.4-0.5,0.5-0.8c0.3-0.7,0.5-1.3,0.8-2
				c0.1-0.2,0.2-0.4,0.3-0.6c0.4-0.9,0.8-1.7,1.2-2.6c0.2-0.5,0.5-1.1,0.8-1.6c0.1-0.2,0.1-0.4-0.1-0.6c-0.4-0.3-0.8-0.6-1.3-0.8
				c-0.4-0.2-0.3-0.4-0.1-0.7c0.4-0.6,0.8-1.1,1.2-1.6c0.7-0.9,1.3-1.8,2-2.7c0.7-1,1.4-2,2.1-2.9c0.8-1,1.5-2.1,2.2-3.1
				c0.2-0.2,0.2-0.4,0-0.7c-0.8-0.9-1.6-1.8-2.5-2.7c-0.2-0.2-0.3-0.5-0.3-0.8c0.1-0.8,0.1-1.6,0.2-2.3c0.2-1.7,0.4-3.4,0.7-5.1
				c0.2-1.1,0.3-2.2,0.6-3.3c0.3-1.2,0.6-2.4,1-3.6c0.3-0.9,0.6-1.9,1-2.8c0.5-1.2,1-2.4,1.5-3.5c0.5-1,1.1-2,1.7-3
				c0.9-1.3,1.9-2.6,3-3.8c0.2-0.2,0.3-0.3,0.4-0.4c0.2-0.3,0.4-0.2,0.6-0.1c0.8,0.6,1.7,1.2,2.5,1.8c1.4,1.1,2.6,2.5,3.7,3.9
				c0.7,0.9,1.4,1.8,2.1,2.7c0.9,1.4,1.8,2.8,2.6,4.2c0.3,0.6,0.6,1.2,0.9,1.8c0.3,0.6,0.4,0.7,1.1,0.5c0.3-0.1,0.7-0.1,1-0.2
				c2.1-0.4,4.2-0.6,6.4-0.6c1.3,0,2.6,0.2,3.9,0.3c0.5,0,0.6,0,0.8-0.4c0.3-0.8,0.6-1.6,1-2.4c0.5-1.1,1-2.3,1.6-3.4
				c0.9-1.6,1.8-3.2,2.9-4.7c1.2-1.8,2.6-3.4,4.3-4.8c0.2-0.2,0.4-0.3,0.6-0.5c0.2-0.2,0.4-0.2,0.7,0c1.3,1.1,2.5,2.2,3.6,3.5
				c1.1,1.3,2,2.6,2.8,4c0.6,1,1.2,2,1.6,3c0.6,1.3,1.1,2.6,1.6,3.8c0.3,0.9,0.7,1.8,1,2.8c0.2,0.6,0.4,1.3,0.5,1.9
				c0.1,0.5,0.3,1.1,0.4,1.6c0.2,0.9,0.5,1.9,0.7,2.8c0.2,1.1,0.4,2.2,0.6,3.4c0,0.2,0,0.4-0.1,0.5c-0.7,1-1.4,2-2.2,2.9
				c-0.3,0.4-0.3,0.6,0,0.9c0.7,0.8,1.3,1.5,2,2.3c1.3,1.5,2.6,2.9,3.9,4.4c0.8,0.9,1.6,1.8,2.4,2.8c0.2,0.3,0.2,0.4-0.1,0.7
				c-0.4,0.3-0.8,0.6-1.2,0.9c-0.2,0.2-0.2,0.4-0.1,0.7c0.6,0.9,1.1,1.9,1.6,2.8c0.4,0.7,0.9,1.3,1.3,2c0.3,0.5,0.5,1,0.7,1.4
				c0.7,1.3,1.5,2.6,2.2,3.9c0.6,1,1.1,1.9,1.6,2.9c0.1,0.2,0.2,0.3,0.3,0.5c0.2,0.4,0.1,0.6-0.3,0.6
				C117.5,113,117.1,113,116.7,112.9C116.7,112.9,116.7,112.9,116.7,112.9z M94.1,99.1c0.1-0.2,0.2-0.4,0.3-0.5
				c0.5-0.6,1-1.1,1.5-1.7c0.4-0.5,0.9-1,1.3-1.5c0.2-0.2,0.2-0.4-0.2-0.6c-0.1,0-0.2-0.1-0.3-0.1c-0.7-0.2-1.5-0.4-2.2-0.7
				c-0.7-0.2-1.5-0.5-2.2-0.7c-0.7-0.2-1.4-0.4-2.1-0.7c-0.8-0.2-1.5-0.5-2.2-0.7c-0.5-0.2-1-0.3-1.4-0.6c-0.5-0.3-1-0.7-1.5-1.1
				c-1-0.8-2-1.5-3-2.3c-0.2-0.2-0.4-0.2-0.5,0.1c-0.1,0.2-0.2,0.4-0.3,0.6c-0.7,1.1-1.4,2.2-2.1,3.3c-0.2,0.4-0.4,0.8-0.4,1.2
				c0,1.2,0.2,2.3,0.2,3.5c0,0.7,0.3,1.3,0.7,1.8c0.8,0.9,1.5,1.8,2.3,2.6c0.2,0.2,0.3,0.2,0.5,0c0.6-0.8,1.3-1.6,2-2.4
				c1-1.2,1.9-2.3,2.9-3.4c0.1-0.1,0.2-0.1,0.4-0.2c0,0.1,0.1,0.2,0.1,0.4c0,0.3,0.1,0.5,0.4,0.6c0.6,0.1,1.2,0.3,1.7,0.5
				c0.6,0.2,1.1,0.3,1.7,0.4c0.5,0.1,1.1,0.3,1.6,0.4c0.2,0.1,0.4,0.1,0.6,0.2c-0.1,0.2-0.2,0.4-0.3,0.7c0,0,0,0,0,0
				c-0.8,1.1-1.6,2.1-2.4,3.2c-0.2,0.2-0.1,0.5,0.2,0.5c0.1,0,0.2,0,0.2,0s0.1,0.1,0.2,0.2c0,0.1-0.1,0.1-0.2,0.2
				c-0.4,0.1-0.8,0.2-1.2,0.2c-0.6,0.1-1.2,0-1.9,0.1c-1.7,0.2-3.3,0.4-5-0.2c-0.1,0-0.2,0-0.3,0c0.1,0.2,0.2,0.4,0.3,0.5
				c0.5,0.5,0.9,1,1.4,1.5c0.4,0.5,0.8,1.1,1.3,1.6c0.6,0.7,1.2,1.4,1.8,2.1c0.1,0.1,0.1,0.2,0.1,0.2c-0.1,0-0.2,0.1-0.3,0.1
				c-0.3-0.1-0.7-0.2-1-0.3c-0.8-0.3-1.7-0.7-2.6-1c-0.3-0.1-0.7-0.2-1.1-0.3c-0.8-0.3-1.6-0.8-2.5-1c-0.2,0-0.4-0.1-0.5,0
				c-0.1,0.1-0.1,0.4,0,0.6c0,0.2,0.2,0.5,0.2,0.7c0.2,0.7,0.3,1.5,0.5,2.2c0.1,0.5,0.3,1.1,0.4,1.6c0.2,0.8,0.4,1.5,0.6,2.3
				c0.2,0.8,0.4,1.5,0.5,2.3c0,0.1,0,0.2,0,0.3c-0.1,0-0.3,0-0.4,0c-0.1,0-0.2-0.2-0.4-0.2c-0.8-0.3-1.5-0.6-2.3-0.9
				c-0.8-0.3-1.7-0.4-2.6-0.3c-1.6,0.2-3,0.9-4.3,1.8c-0.1,0.1-0.2,0.1-0.3,0.2c-0.2,0-0.3,0-0.2-0.2c0.1-0.8,0.2-1.5,0.4-2.2
				c0.2-0.9,0-1.8,0.4-2.7c0-0.1,0-0.2,0-0.2c0.1-0.7,0.1-1.4,0.2-2.2c0-0.1,0-0.1,0.1-0.2c0.2-0.7,0.3-1.3,0.4-2
				c0.1-0.4-0.1-0.6-0.5-0.4c-0.4,0.1-0.8,0.3-1.1,0.5c-0.7,0.4-1.4,0.7-2.1,1.1c-0.7,0.4-1.5,0.7-2.2,1.1c-0.5,0.3-1,0.6-1.5,0.8
				c-0.1,0.1-0.3,0-0.4,0c0-0.1,0-0.3,0.1-0.4c0.5-0.7,1.1-1.4,1.6-2.1c0.2-0.2,0.3-0.6,0.4-0.8c0.7-0.9,1.4-1.8,2-2.7
				c0.1-0.1,0.1-0.3,0.2-0.5c-0.5,0.1-0.9,0.2-1.3,0.4c-1.1,0.4-2.3,0.4-3.4,0.4c-0.8,0-1.6-0.1-2.4-0.1c-0.2,0-0.3,0-0.4,0
				c-0.2,0-0.4,0.1-0.6,0.1c-0.2,0-0.5,0-0.7,0c0.2-0.4,0.4-0.6,0.8-0.6c0.1,0,0.2-0.1,0.4-0.2c-0.1-0.1-0.1-0.3-0.2-0.4
				c-0.1-0.1-0.2-0.1-0.2-0.2c-0.4-0.4-0.7-0.9-1.1-1.3c-0.5-0.6-1-1.1-1.5-1.7c-0.2-0.3-0.2-0.4,0.2-0.6c0.4-0.1,0.8-0.2,1.1-0.4
				c1.2-0.4,2.5-0.8,3.7-1.2c0.7-0.2,0.8-0.4,0.8-0.9c0-0.1,0.1-0.2,0.1-0.3c0.1,0.1,0.3,0.1,0.4,0.2c0.2,0.2,0.4,0.4,0.6,0.6
				c0.9,0.8,1.7,1.7,2.6,2.5c0.7,0.7,1.4,1.4,2.2,2.2c0.2,0.2,0.4,0.2,0.6-0.1c0.8-1.1,1.5-2.1,2.3-3.2c0.2-0.3,0.3-0.6,0.3-0.9
				c0-1.3-0.1-2.7-0.2-4c0-0.3-0.1-0.6-0.3-0.8c-0.4-0.5-0.8-1-1.2-1.5c-0.6-0.8-1.2-1.5-1.8-2.3c-0.3-0.4-0.4-0.4-0.8-0.1
				c-1.1,1.1-2.3,2.1-3.4,3.2c-0.5,0.5-1.2,0.8-1.8,1.1c-0.7,0.3-1.4,0.6-2.1,0.9c-0.7,0.3-1.5,0.6-2.2,0.9c-0.7,0.3-1.3,0.6-2,0.8
				c-0.8,0.3-1.5,0.7-2.3,1c-0.5,0.2-0.5,0.4-0.2,0.8c1,0.9,2,1.9,3.1,2.8c0.1,0.1,0.2,0.3,0.2,0.5c0,0.1-0.2,0.2-0.4,0.2
				c-1,0.3-2,0.6-3,0.9c-1,0.3-2,0.7-3.1,1c-0.4,0.1-0.9,0.3-1.3,0.4c-0.5,0.1-0.9,0.4-1.2,0.8c-0.5,0.8-1.1,1.6-1.7,2.4
				c-0.3,0.4-0.6,0.7-0.9,1.1c-0.6,0.9-1.2,1.8-1.9,2.8c-0.3,0.4-0.6,0.8-0.9,1.2c-0.3,0.3-0.6,0.6-0.8,1c-0.2,0.3-0.1,0.6,0.3,0.6
				c0.7,0.1,1.4,0.1,2.2,0.2c0.4,0.1,0.8,0.2,1.2,0.2c0.4,0,0.6,0.2,0.6,0.6c0.1,0.6,0.2,1.2,0.2,1.8c0.3,2.5,0.5,5,0.8,7.6
				c0,0.1,0.1,0.3,0.2,0.3c0.1,0,0.2-0.1,0.3-0.2c0.5-0.6,1.1-1.2,1.6-1.8c0.2-0.2,0.4-0.2,0.6,0c0.3,0.4,0.6,0.8,0.9,1.2
				c0.7,1,1.5,2.1,2.2,3.1c0.9,1.2,1.7,2.4,2.6,3.6c0.2,0.2,0.3,0.4,0.5,0.6c0,0,0.1,0,0.1,0c0-0.2,0-0.4,0-0.5
				c-0.1-0.7-0.2-1.3-0.3-2c-0.2-1.1-0.3-2.1-0.5-3.2c-0.3-1.7-0.5-3.4-0.8-5.2c-0.1-0.7-0.2-1.4-0.3-2c0-0.1,0-0.3,0.1-0.4
				c0,0,0.1,0,0.2,0c0,0.1,0.1,0.3,0.2,0.4c0,0.2,0.1,0.4,0.1,0.6c0.3,0.9,0.7,1.8,1,2.7c0.3,0.9,0.5,1.7,0.8,2.6
				c0.4,1.2,0.9,2.5,1.3,3.7c0.4,1.1,0.7,2.1,1.1,3.2c0.4,1.3,0.8,2.6,1.3,3.8c0.5,1.4,1,2.7,1.4,4.1c0.1,0.3,0.3,0.3,0.5,0.2
				c0.4-0.2,0.7-0.5,1.1-0.8c0.2-0.2,0.4-0.2,0.6,0c0.3,0.4,0.7,0.8,1,1.2c1.2,1.4,2.4,2.8,3.6,4.3c0.7,0.8,1.5,1.7,2.2,2.5
				c1.3,1.5,2.5,3,3.8,4.6c0.7,0.8,1.4,1.6,2,2.4c0.2,0.2,0.4,0.2,0.6,0c0.4-0.6,0.7-1.1,1.1-1.6c0.9-1.2,1.7-2.4,2.6-3.7
				c0.8-1.2,1.6-2.3,2.4-3.5c0.8-1.1,1.6-2.2,2.3-3.3c0.9-1.3,1.8-2.5,2.6-3.8c0.2-0.3,0.4-0.3,0.6-0.1c0.4,0.2,0.7,0.4,1.1,0.7
				c0.3,0.2,0.5,0.1,0.6-0.2c0.1-0.5,0.2-1,0.3-1.5c0.2-0.9,0.5-1.8,0.7-2.7c0.2-0.9,0.4-1.9,0.6-2.8c0.3-1.5,0.7-2.9,1.1-4.4
				c0.1-0.4,0.2-0.8,0.3-1.2c0.2-0.9,0.5-1.9,0.7-2.8c0.2-1,0.5-1.9,0.7-2.9c0.1-0.5,0.2-1,0.4-1.5c0.1-0.6,0.2-1.1,0.3-1.7
				c0-0.1,0.1-0.1,0.1-0.2c0.3,0.2,0.2,0.4,0.2,0.6c-0.1,1.6-0.2,3.2-0.3,4.8c0,0.4-0.1,0.7-0.1,1.1c-0.1,1.4-0.2,2.9-0.2,4.3
				c0,0.1,0,0.2,0,0.3c0,0.7-0.1,1.4-0.1,2.1c0,0.1,0.1,0.2,0.1,0.3c0,0,0.1,0,0.1,0c0,0,0-0.1,0.1-0.1c0.4-0.7,0.8-1.4,1.2-2.1
				c1-1.7,2-3.4,3-5.2c0.3-0.5,0.7-1.1,1-1.6c0.2-0.3,0.4-0.2,0.6,0c0.6,0.5,1.2,1.1,1.8,1.6c0.1,0.1,0.2,0.1,0.4,0.2
				c0.1-0.2,0.2-0.3,0.2-0.4c0.1-2.8,0.1-5.6,0.1-8.4c0-0.3,0.1-0.7,0-1c-0.1-0.4,0.1-0.6,0.4-0.6c0.4-0.1,0.9-0.2,1.4-0.3
				c0.7-0.2,1.4-0.4,2.1-0.6c0.2-0.1,0.3-0.2,0.2-0.4c-0.3-0.4-0.7-0.9-1-1.3c-0.9-1-1.9-2.1-2.8-3.1c-0.8-0.9-1.7-1.9-2.4-2.9
				c-0.6-0.7-1.2-1.4-2.2-1.4c-0.1,0-0.1,0-0.2-0.1c-0.5-0.1-1.1-0.2-1.6-0.3c-1-0.2-2-0.4-3-0.6c-0.8-0.2-1.6-0.3-2.4-0.5
				C94.4,99.1,94.3,99.1,94.1,99.1z M99.9,79.4c0.1,0.2,0.2,0.3,0.2,0.4c0.2,0.8,0.3,1.6,0.5,2.3c0.2,1.1,0.5,2.2,0.7,3.2
				c0,0.1,0.1,0.2,0.2,0.4c0.1-0.1,0.3-0.1,0.4-0.2c0.8-1,1.5-2,2.3-2.9c0.5-0.6,0.5-1.2,0.3-1.8c-0.1-0.3-0.2-0.6-0.2-0.9
				c-0.2-0.8-0.3-1.5-0.5-2.3c-0.1-0.4-0.2-0.9-0.4-1.3c-0.2-0.6-0.4-1.3-0.6-1.9c-0.3-0.9-0.5-1.8-0.9-2.7
				c-0.4-1.1-0.8-2.1-1.3-3.2c-0.5-1.1-1-2.1-1.6-3.2c-0.5-0.9-1.1-1.7-1.7-2.5c-1.1-1.5-2.4-2.9-4-4c-0.2-0.1-0.4-0.2-0.6,0
				c-0.2,0.2-0.5,0.5-0.7,0.7c-1.4,1.3-2.6,2.8-3.5,4.4c-0.5,0.9-1,1.9-1.5,2.9c-0.4,0.8-0.7,1.6-1,2.4c-0.1,0.1-0.1,0.4,0,0.5
				c0.6,0.9,1.2,1.9,1.8,2.8c0.4,0.7,0.9,1.4,1.3,2.1c0.1,0.1,0.1,0.2,0.1,0.4c-0.1,0-0.1,0-0.1,0c-1.2-0.6-2.3-1.2-3.5-1.8
				c-0.2-0.1-0.4-0.1-0.5-0.1c0.1,0.2,0.1,0.3,0.2,0.4c0.7,0.8,1.4,1.6,2.1,2.5c0.7,0.8,1.3,1.5,1.9,2.3c0.5,0.6,1.1,1.3,1.6,1.9
				c0.2,0.2,0.5,0.2,0.5-0.1c0.1-0.4,0.2-0.8,0.3-1.2c0.1-0.6,0.2-1.1,0.4-1.7c0.2-0.9,0.5-1.8,0.7-2.6c0.2-0.9,0.4-1.9,0.6-2.8
				c0.2-1.1,0.5-2.1,0.7-3.2c0.1-0.3,0.1-0.5,0.5-0.6c0.1,0.2,0.1,0.5,0.2,0.7c0.1,0.3,0.1,0.7,0.2,1c0.2,0.9,0.4,1.9,0.7,2.8
				c0.2,1,0.5,2.1,0.7,3.1c0.2,0.7,0.3,1.5,0.5,2.2c0.3,1.2,0.6,2.5,0.8,3.7c0,0.1,0.1,0.2,0.2,0.2c0.1,0,0.2-0.1,0.3-0.2
				c0.2-0.2,0.3-0.4,0.4-0.6C98.9,80.6,99.4,80,99.9,79.4z M56,70c0,0,0.1,0,0.1-0.1c0.1,0.2,0.3,0.3,0.3,0.5
				c0.3,0.9,0.6,1.8,0.9,2.7c0.1,0.4,0.3,0.8,0.4,1.2c0.2,0.7,0.5,1.3,0.7,1.9c0.3,0.8,0.5,1.6,0.8,2.4c0.3,1,0.7,1.9,1,2.9
				c0,0.1,0.2,0.3,0.2,0.3c0.1,0,0.3-0.1,0.4-0.2c0.2-0.2,0.3-0.5,0.5-0.8c0.4-0.6,0.9-1.2,1.3-1.8c0.6-0.8,1.2-1.7,1.7-2.5
				c0.5-0.7,1-1.4,1.5-2.1c0.1-0.1,0.1-0.2,0.1-0.4c-0.1,0-0.3,0-0.4,0c-0.3,0.2-0.6,0.4-0.8,0.5c-0.9,0.6-1.8,1.2-2.8,1.8
				c0-0.2,0-0.4,0.1-0.5c0.1-0.2,0.3-0.5,0.4-0.8c0.3-0.7,0.7-1.3,1-2c0.4-0.8,0.9-1.6,1.3-2.4c0.1-0.1,0.1-0.3,0-0.4
				c-0.3-0.7-0.7-1.4-1.1-2.1c-0.5-0.8-1-1.7-1.6-2.4c-0.7-0.9-1.4-1.9-2.2-2.7c-0.8-0.8-1.7-1.5-2.6-2.3c-0.5-0.4-0.5-0.4-1,0
				c-1.3,1-2.3,2.3-3.2,3.7c-0.8,1.3-1.6,2.7-2.1,4.2c-0.4,1.2-0.9,2.4-1.3,3.6c-0.4,1.2-0.6,2.4-0.9,3.6c-0.1,0.4-0.2,0.9-0.3,1.3
				c-0.2,0.7-0.3,1.4-0.4,2.2c-0.1,0.7-0.2,1.4-0.3,2.1c-0.1,0.8-0.2,1.7-0.4,2.6c-0.1,0.4,0.1,0.8,0.4,1.1c0.7,0.7,1.4,1.4,2.1,2.1
				c0.2,0.2,0.4,0.5,0.6,0.7c0.1,0.1,0.2,0.1,0.4,0.1c0,0,0.1-0.1,0.1-0.2c0.1-0.6,0.2-1.2,0.2-1.8c0.2-1.4,0.3-2.8,0.5-4.2
				c0-0.1,0.1-0.2,0.2-0.3c0.7,0.7,1.3,1.4,2,2.1c0.1,0.1,0.3,0.2,0.4,0.2c0,0,0.1-0.1,0.1-0.2c0.2-1.2,0.3-2.4,0.5-3.6
				c0.1-0.8,0.2-1.7,0.3-2.6c0.1-0.9,0.2-1.8,0.4-2.7c0.1-0.6,0.2-1.3,0.2-1.9c0.1-0.9,0.2-1.8,0.3-2.7C55.9,70.2,56,70.1,56,70z
				 M63,100.6C63.1,100.6,63.1,100.6,63,100.6c0.1,1.3,1.1,2,2.3,1.8c0.4-0.1,0.8-0.1,1.1-0.2c0.7-0.3,0.9-1.1,0.9-1.8
				c0-0.7-0.3-1.1-1-1.1c-0.3,0-0.6-0.1-0.8-0.1c-0.5,0-1.1-0.1-1.6-0.1c-0.2,0-0.4,0.2-0.5,0.3C63.2,99.9,63.2,100.2,63,100.6z
				 M90.4,99.4c0-0.2,0-0.4-0.1-0.6c-0.1-0.3-0.3-0.8-0.7-0.8c-0.5,0-1.1,0.1-1.6,0.2c-0.1,0-0.2,0.2-0.2,0.3c0,0.2,0.1,0.4,0.2,0.5
				c0.1,0.1,0.3-0.1,0.5-0.2c0.2-0.1,0.5-0.1,0.5,0.1c0,0.2-0.2,0.8-0.4,0.8c-0.3,0.1-0.7,0.2-1-0.1c-0.3-0.3-0.4-0.6-0.3-1
				c0.1-0.3,0-0.4-0.3-0.4c-0.7,0.1-1,0.6-0.8,1.5c0.1,0.7,0.5,1.3,1.1,1.4c0.6,0.1,1.3,0,2,0c0.1,0,0.1-0.1,0.2-0.1
				C90,100.7,90.4,100.2,90.4,99.4z"/>
			<path class="st9" d="M94.1,99.1c0.2,0.1,0.3,0.1,0.4,0.1c0.8,0.2,1.6,0.4,2.4,0.5c1,0.2,2,0.4,3,0.6c0.5,0.1,1.1,0.2,1.6,0.3
				c0.1,0,0.1,0.1,0.2,0.1c1,0,1.6,0.7,2.2,1.4c0.8,1,1.6,1.9,2.4,2.9c0.9,1.1,1.9,2.1,2.8,3.1c0.4,0.4,0.7,0.9,1,1.3
				c0.2,0.2,0,0.4-0.2,0.4c-0.7,0.2-1.4,0.4-2.1,0.6c-0.4,0.1-0.9,0.2-1.4,0.3c-0.3,0.1-0.5,0.2-0.4,0.6c0.1,0.3,0,0.7,0,1
				c0,2.8-0.1,5.6-0.1,8.4c0,0.2-0.1,0.3-0.2,0.4c-0.1-0.1-0.3-0.1-0.4-0.2c-0.6-0.5-1.2-1.1-1.8-1.6c-0.2-0.2-0.4-0.2-0.6,0
				c-0.3,0.5-0.7,1.1-1,1.6c-1,1.7-2,3.4-3,5.2c-0.4,0.7-0.8,1.4-1.2,2.1c0,0-0.1,0.1-0.1,0.1c0,0-0.1,0-0.1,0
				c0-0.1-0.1-0.2-0.1-0.3c0-0.7,0.1-1.4,0.1-2.1c0-0.1,0-0.2,0-0.3c0.1-1.4,0.2-2.9,0.2-4.3c0-0.4,0.1-0.7,0.1-1.1
				c0.1-1.6,0.2-3.2,0.3-4.8c0-0.2,0.1-0.5-0.2-0.6C98,114.9,98,115,98,115c-0.1,0.6-0.2,1.1-0.3,1.7c-0.1,0.5-0.2,1-0.4,1.5
				c-0.2,1-0.5,1.9-0.7,2.9c-0.2,0.9-0.5,1.9-0.7,2.8c-0.1,0.4-0.2,0.8-0.3,1.2c-0.3,1.5-0.7,2.9-1.1,4.4c-0.2,0.9-0.4,1.9-0.6,2.8
				c-0.2,0.9-0.5,1.8-0.7,2.7c-0.1,0.5-0.2,1-0.3,1.5c-0.1,0.4-0.2,0.4-0.6,0.2c-0.3-0.2-0.7-0.4-1.1-0.7c-0.2-0.1-0.4-0.1-0.6,0.1
				c-0.9,1.3-1.8,2.6-2.6,3.8c-0.8,1.1-1.6,2.2-2.3,3.3c-0.8,1.2-1.6,2.3-2.4,3.5c-0.8,1.2-1.7,2.5-2.6,3.7
				c-0.4,0.5-0.8,1.1-1.1,1.6c-0.2,0.2-0.4,0.2-0.6,0c-0.7-0.8-1.4-1.6-2-2.4c-1.3-1.5-2.5-3-3.8-4.6c-0.7-0.9-1.5-1.7-2.2-2.5
				c-1.2-1.4-2.4-2.8-3.6-4.3c-0.3-0.4-0.6-0.8-1-1.2c-0.2-0.2-0.4-0.2-0.6,0c-0.3,0.3-0.7,0.6-1.1,0.8c-0.2,0.1-0.4,0.1-0.5-0.2
				c-0.5-1.4-1-2.7-1.4-4.1c-0.4-1.3-0.8-2.6-1.3-3.8c-0.4-1.1-0.7-2.1-1.1-3.2c-0.4-1.2-0.9-2.5-1.3-3.7c-0.3-0.9-0.5-1.7-0.8-2.6
				c-0.3-0.9-0.7-1.8-1-2.7c-0.1-0.2-0.1-0.4-0.1-0.6c0-0.1-0.1-0.3-0.2-0.4c0,0-0.1,0-0.2,0c0,0.2-0.1,0.3-0.1,0.4
				c0.1,0.7,0.2,1.4,0.3,2c0.3,1.7,0.5,3.4,0.8,5.2c0.2,1.1,0.3,2.1,0.5,3.2c0.1,0.7,0.2,1.3,0.3,2c0,0.2,0,0.4,0,0.5
				c0,0-0.1,0-0.1,0c-0.2-0.2-0.3-0.4-0.5-0.6c-0.9-1.2-1.7-2.4-2.6-3.6c-0.7-1-1.5-2.1-2.2-3.1c-0.3-0.4-0.6-0.8-0.9-1.2
				c-0.2-0.2-0.4-0.2-0.6,0c-0.5,0.6-1.1,1.2-1.6,1.8c-0.1,0.1-0.3,0.2-0.3,0.2c-0.1-0.1-0.2-0.2-0.2-0.3c-0.3-2.5-0.6-5-0.8-7.6
				c-0.1-0.6-0.2-1.2-0.2-1.8c0-0.4-0.2-0.5-0.6-0.6c-0.4,0-0.8-0.2-1.2-0.2c-0.7-0.1-1.4-0.2-2.2-0.2c-0.4,0-0.6-0.3-0.3-0.6
				c0.2-0.3,0.5-0.7,0.8-1c0.3-0.4,0.6-0.8,0.9-1.2c0.6-0.9,1.2-1.9,1.9-2.8c0.3-0.4,0.6-0.7,0.9-1.1c0.6-0.8,1.1-1.6,1.7-2.4
				c0.3-0.4,0.6-0.7,1.2-0.8c0.4-0.1,0.9-0.2,1.3-0.4c1-0.3,2-0.7,3.1-1c1-0.3,2-0.6,3-0.9c0.1,0,0.4-0.2,0.4-0.2
				c0-0.2-0.1-0.3-0.2-0.5c-1-0.9-2-1.9-3.1-2.8c-0.4-0.3-0.3-0.6,0.2-0.8c0.8-0.3,1.5-0.7,2.3-1c0.7-0.3,1.3-0.6,2-0.8
				c0.7-0.3,1.5-0.6,2.2-0.9c0.7-0.3,1.4-0.6,2.1-0.9c0.7-0.3,1.3-0.6,1.8-1.1c1.1-1.1,2.3-2.1,3.4-3.2c0.4-0.4,0.5-0.3,0.8,0.1
				c0.6,0.8,1.2,1.5,1.8,2.3c0.4,0.5,0.8,1,1.2,1.5c0.2,0.2,0.2,0.5,0.3,0.8c0.1,1.3,0.2,2.7,0.2,4c0,0.3-0.1,0.7-0.3,0.9
				c-0.7,1.1-1.5,2.2-2.3,3.2c-0.2,0.3-0.4,0.3-0.6,0.1c-0.7-0.7-1.4-1.4-2.2-2.2c-0.8-0.8-1.7-1.7-2.6-2.5
				c-0.2-0.2-0.4-0.4-0.6-0.6c-0.1-0.1-0.3-0.1-0.4-0.2c0,0.1-0.1,0.2-0.1,0.3c0,0.5-0.1,0.6-0.8,0.9c-1.2,0.4-2.4,0.8-3.7,1.2
				c-0.4,0.1-0.7,0.2-1.1,0.4c-0.3,0.1-0.4,0.3-0.2,0.6c0.5,0.6,1,1.1,1.5,1.7c0.4,0.4,0.7,0.8,1.1,1.3c0.1,0.1,0.2,0.1,0.2,0.2
				c0.1,0.1,0.2,0.3,0.2,0.4c-0.1,0.1-0.2,0.2-0.4,0.2c-0.4,0-0.6,0.2-0.8,0.6c0.3,0,0.5,0,0.7,0c0.2,0,0.4-0.1,0.6-0.1
				c0.2,0,0.3,0,0.4,0c0.8,0,1.6,0.1,2.4,0.1c1.2-0.1,2.3,0,3.4-0.4c0.4-0.2,0.8-0.2,1.3-0.4c-0.1,0.2-0.1,0.4-0.2,0.5
				c-0.7,0.9-1.4,1.8-2,2.7c-0.2,0.2-0.3,0.6-0.4,0.8c-0.5,0.7-1.1,1.4-1.6,2.1c-0.1,0.1-0.1,0.2-0.1,0.4c0.1,0,0.3,0,0.4,0
				c0.5-0.3,1-0.6,1.5-0.8c0.7-0.4,1.4-0.7,2.2-1.1c0.7-0.4,1.4-0.7,2.1-1.1c0.4-0.2,0.7-0.4,1.1-0.5c0.4-0.1,0.6,0.1,0.5,0.4
				c-0.1,0.7-0.3,1.3-0.4,2c0,0.1,0,0.1-0.1,0.2c-0.1,0.7-0.1,1.4-0.2,2.2c0,0.1,0,0.2,0,0.2c-0.5,0.8-0.2,1.8-0.4,2.7
				c-0.2,0.7-0.2,1.5-0.4,2.2c-0.1,0.3,0.1,0.3,0.2,0.2c0.1,0,0.2-0.1,0.3-0.2c1.3-0.9,2.7-1.6,4.3-1.8c0.9-0.1,1.8,0,2.6,0.3
				c0.8,0.3,1.5,0.6,2.3,0.9c0.1,0.1,0.2,0.2,0.4,0.2c0.1,0,0.2,0,0.4,0c0-0.1,0-0.2,0-0.3c-0.2-0.8-0.3-1.5-0.5-2.3
				c-0.2-0.8-0.4-1.5-0.6-2.3c-0.1-0.5-0.3-1.1-0.4-1.6c-0.2-0.7-0.3-1.5-0.5-2.2c-0.1-0.2-0.2-0.5-0.2-0.7c0-0.2-0.1-0.4,0-0.6
				c0.1-0.1,0.4,0,0.5,0c0.9,0.2,1.6,0.7,2.5,1c0.4,0.1,0.7,0.2,1.1,0.3c0.8,0.3,1.7,0.7,2.6,1c0.3,0.1,0.6,0.2,1,0.3
				c0.1,0,0.2-0.1,0.3-0.1c0-0.1,0-0.2-0.1-0.2c-0.6-0.7-1.2-1.4-1.8-2.1c-0.4-0.5-0.8-1.1-1.3-1.6c-0.4-0.5-0.9-1-1.4-1.5
				c-0.1-0.1-0.2-0.3-0.3-0.5c0.2,0,0.3-0.1,0.3,0c1.7,0.6,3.3,0.4,5,0.2c0.6-0.1,1.2,0,1.9-0.1c0.4,0,0.8-0.1,1.2-0.2
				c0.1,0,0.2-0.1,0.2-0.2c0-0.1-0.1-0.2-0.2-0.2s-0.2,0-0.2,0c-0.3,0-0.4-0.3-0.2-0.5c0.8-1.1,1.6-2.1,2.4-3.2c0,0,0,0,0,0
				c0.1-0.2,0.2-0.4,0.3-0.7c-0.2-0.1-0.4-0.2-0.6-0.2c-0.5-0.1-1.1-0.3-1.6-0.4c-0.6-0.1-1.2-0.3-1.7-0.4c-0.6-0.2-1.2-0.3-1.7-0.5
				c-0.3-0.1-0.4-0.3-0.4-0.6c0-0.1-0.1-0.2-0.1-0.4c-0.1,0.1-0.3,0.1-0.4,0.2c-1,1.1-1.9,2.3-2.9,3.4c-0.7,0.8-1.3,1.6-2,2.4
				c-0.2,0.2-0.4,0.2-0.5,0c-0.8-0.9-1.5-1.8-2.3-2.6c-0.5-0.5-0.7-1.1-0.7-1.8c0-1.2-0.2-2.3-0.2-3.5c0-0.4,0.2-0.8,0.4-1.2
				c0.7-1.1,1.4-2.2,2.1-3.3c0.1-0.2,0.2-0.4,0.3-0.6c0.1-0.3,0.3-0.3,0.5-0.1c1,0.8,2,1.5,3,2.3c0.5,0.4,1,0.8,1.5,1.1
				c0.4,0.3,0.9,0.4,1.4,0.6c0.7,0.3,1.5,0.5,2.2,0.7c0.7,0.2,1.4,0.4,2.1,0.7c0.7,0.2,1.5,0.5,2.2,0.7c0.7,0.2,1.5,0.5,2.2,0.7
				c0.1,0,0.2,0,0.3,0.1c0.3,0.1,0.4,0.3,0.2,0.6c-0.4,0.5-0.9,1-1.3,1.5c-0.5,0.6-1,1.1-1.5,1.7C94.2,98.7,94.2,98.8,94.1,99.1z
				 M79,146.9c0.9,0,1.9-0.2,2.7-0.8c1.3-0.8,2.2-2,2.8-3.3c0.4-0.8,0.7-1.7,1-2.6c0.2-0.4,0.3-0.9,0.4-1.4c0.1-0.6,0.2-1.2,0.3-1.8
				c0.1-0.7,0.3-1.3,0.4-2c0.2-0.8,0.3-1.6,0.5-2.3c0.2-1.1,0.8-2.2,1.3-3.2c0.7-1.2,1.4-2.4,2-3.6c0.6-1.3,1.1-2.6,1.6-3.9
				c0.2-0.6,0.4-1.3,0.8-1.9c0.4-0.9,1-1.8,1.4-2.7c0.3-0.6,0.6-1.3,0.5-2c-0.1-0.5-0.3-0.7-0.7-0.8c-1.1-0.1-1.6,0.4-1.9,1.3
				c-0.4,1.2-0.5,2.5-0.5,3.8c0,0.7-0.1,1.5-0.3,2.2c-0.4,1.5-1,2.8-1.9,4.1c-0.6,0.9-1.3,1.6-2.1,2.4c-0.5,0.5-1.2,0.9-1.9,1
				c-1.8,0.2-3.5,0.2-5.2-0.4c-0.6-0.2-1.1-0.6-1.3-1.3s-0.2-1.3-0.4-1.9c-0.1-0.5,0.1-0.8,0.5-1.1c0.9-0.6,1.8-1.2,2.7-1.8
				c0.8-0.5,1.1-1.3,1.2-2.2c0.1-0.8,0-1.6,0.1-2.4c0-0.3-0.1-0.5-0.4-0.7c-0.4-0.2-0.8-0.5-1.3-0.7c-1.1-0.5-2.3-1-3.6-1
				c-1.1,0-2.1,0.2-3.1,0.7c-0.8,0.4-1.5,0.8-2.2,1.3c-0.6,0.4-0.7,0.5-0.6,1.2c0.1,0.5,0.2,1.1,0.2,1.6c0.1,1.4,0.8,2.3,2,2.9
				c0.8,0.4,1.6,0.8,2.4,1.2c0.4,0.2,0.7,0.5,0.6,1c0,0.3,0.1,0.5,0,0.8c-0.1,0.5-0.1,1-0.3,1.4c-0.4,0.8-1.1,1.2-1.9,1.4
				c-1.2,0.3-2.5,0.5-3.8,0.6c-0.6,0-1.1-0.1-1.6-0.3c-1.3-0.6-2.2-1.5-3.1-2.6c-0.6-0.7-1-1.5-1.5-2.2c-0.4-0.6-0.7-1.2-0.9-1.9
				c-0.4-1.4-0.6-2.9-0.9-4.3c-0.2-0.9-0.4-1.8-1.2-2.3c-0.4-0.2-1.2-0.3-1.5-0.1c-0.4,0.3-0.4,0.7-0.3,1.1c0.1,0.8,0.6,1.4,1,2
				c0.5,0.8,1.1,1.5,1.5,2.3c0.6,1.1,1.1,2.3,1.7,3.5c0.4,0.8,0.9,1.7,1.4,2.4c0.8,1.3,1.8,2.5,2.6,3.8c0.8,1.3,1.4,2.6,1.7,4.1
				c0,0.2,0.1,0.3,0.2,0.5c0.2,0.6,0.4,1.2,0.6,1.9c0.2,0.6,0.3,1.2,0.5,1.7c0.3,0.8,0.6,1.5,1,2.2c0.4,1,1,1.9,1.8,2.7
				C75.4,146.2,77,147.1,79,146.9z"/>
			<path class="st9" d="M99.9,79.4c-0.5,0.7-0.9,1.2-1.4,1.8c-0.2,0.2-0.3,0.4-0.4,0.6C98,81.9,97.9,82,97.8,82
				c-0.1,0-0.2-0.1-0.2-0.2c-0.3-1.2-0.6-2.5-0.8-3.7c-0.2-0.7-0.3-1.5-0.5-2.2c-0.2-1-0.5-2.1-0.7-3.1c-0.2-0.9-0.4-1.9-0.7-2.8
				c-0.1-0.3-0.1-0.7-0.2-1c0-0.2-0.1-0.5-0.2-0.7c-0.3,0.1-0.4,0.3-0.5,0.6c-0.2,1.1-0.5,2.1-0.7,3.2c-0.2,0.9-0.4,1.9-0.6,2.8
				c-0.2,0.9-0.4,1.8-0.7,2.6c-0.1,0.6-0.2,1.1-0.4,1.7c-0.1,0.4-0.2,0.8-0.3,1.2c-0.1,0.2-0.3,0.3-0.5,0.1
				c-0.5-0.6-1.1-1.3-1.6-1.9c-0.7-0.8-1.3-1.5-1.9-2.3c-0.7-0.8-1.4-1.6-2.1-2.5c-0.1-0.1-0.1-0.3-0.2-0.4c0.2,0,0.4,0,0.5,0.1
				c1.2,0.6,2.3,1.2,3.5,1.8c0,0,0.1,0,0.1,0c-0.1-0.2-0.1-0.3-0.1-0.4c-0.4-0.7-0.9-1.4-1.3-2.1c-0.6-0.9-1.2-1.9-1.8-2.8
				c-0.1-0.1-0.1-0.3,0-0.5c0.3-0.8,0.7-1.6,1-2.4c0.5-1,0.9-1.9,1.5-2.9c0.9-1.6,2.1-3.1,3.5-4.4c0.2-0.2,0.5-0.4,0.7-0.7
				c0.2-0.2,0.3-0.2,0.6,0c1.6,1,2.9,2.4,4,4c0.6,0.8,1.2,1.6,1.7,2.5c0.6,1,1.1,2.1,1.6,3.2c0.5,1,0.9,2.1,1.3,3.2
				c0.3,0.9,0.6,1.8,0.9,2.7c0.2,0.6,0.4,1.3,0.6,1.9c0.1,0.4,0.3,0.9,0.4,1.3c0.2,0.8,0.3,1.5,0.5,2.3c0.1,0.3,0.2,0.6,0.2,0.9
				c0.2,0.7,0.2,1.2-0.3,1.8c-0.8,0.9-1.5,1.9-2.3,2.9c-0.1,0.1-0.3,0.2-0.4,0.2c-0.1-0.1-0.1-0.2-0.2-0.4c-0.2-1.1-0.5-2.2-0.7-3.2
				c-0.2-0.8-0.3-1.6-0.5-2.3C100.1,79.7,100,79.5,99.9,79.4z"/>
			<path class="st9" d="M56,70c0,0.1-0.1,0.2-0.1,0.3c-0.1,0.9-0.2,1.8-0.3,2.7c-0.1,0.6-0.2,1.3-0.2,1.9c-0.1,0.9-0.2,1.8-0.4,2.7
				c-0.1,0.8-0.2,1.7-0.3,2.6c-0.2,1.2-0.3,2.4-0.5,3.6c0,0.1-0.1,0.2-0.1,0.2c-0.1-0.1-0.3-0.1-0.4-0.2c-0.6-0.7-1.3-1.4-2-2.1
				c-0.1,0.1-0.2,0.2-0.2,0.3c-0.2,1.4-0.3,2.8-0.5,4.2c-0.1,0.6-0.1,1.2-0.2,1.8c0,0.1-0.1,0.2-0.1,0.2c-0.1,0-0.3,0-0.4-0.1
				c-0.2-0.2-0.4-0.5-0.6-0.7c-0.7-0.7-1.4-1.4-2.1-2.1c-0.3-0.3-0.5-0.6-0.4-1.1c0.1-0.8,0.2-1.7,0.4-2.6c0.1-0.7,0.2-1.4,0.3-2.1
				c0.1-0.7,0.3-1.4,0.4-2.2c0.1-0.4,0.2-0.9,0.3-1.3c0.3-1.2,0.5-2.4,0.9-3.6c0.4-1.2,0.8-2.4,1.3-3.6c0.5-1.5,1.3-2.9,2.1-4.2
				c0.9-1.4,1.8-2.7,3.2-3.7c0.5-0.4,0.5-0.4,1,0c0.9,0.7,1.8,1.4,2.6,2.3c0.8,0.8,1.5,1.8,2.2,2.7c0.6,0.8,1.1,1.6,1.6,2.4
				c0.4,0.7,0.7,1.4,1.1,2.1c0.1,0.1,0,0.3,0,0.4c-0.4,0.8-0.8,1.6-1.3,2.4c-0.3,0.7-0.7,1.3-1,2c-0.1,0.2-0.3,0.5-0.4,0.8
				c0,0.1-0.1,0.2-0.1,0.5c1-0.6,1.9-1.2,2.8-1.8c0.3-0.2,0.5-0.4,0.8-0.5c0.1-0.1,0.2,0,0.4,0c0,0.1,0,0.3-0.1,0.4
				c-0.5,0.7-1,1.4-1.5,2.1c-0.6,0.8-1.1,1.7-1.7,2.5c-0.4,0.6-0.9,1.2-1.3,1.8c-0.2,0.2-0.3,0.5-0.5,0.8c-0.1,0.1-0.2,0.2-0.4,0.2
				c-0.1,0-0.2-0.2-0.2-0.3c-0.3-1-0.7-1.9-1-2.9c-0.3-0.8-0.5-1.6-0.8-2.4c-0.2-0.7-0.5-1.3-0.7-1.9c-0.1-0.4-0.3-0.8-0.4-1.2
				c-0.3-0.9-0.6-1.8-0.9-2.7c-0.1-0.2-0.2-0.3-0.3-0.5C56.1,70,56,70,56,70z"/>
			
				<linearGradient id="SVGID_1_" gradientUnits="userSpaceOnUse" x1="63.5291" y1="442.1559" x2="67.8324" y2="442.1559" gradientTransform="matrix(0.9989 -4.790000e-02 -4.790000e-02 -0.9989 20.7643 545.6305)">
				<stop  offset="0" style="stop-color:#CCE0F4"/>
				<stop  offset="6.410000e-02" style="stop-color:#C3DDF2"/>
				<stop  offset="0.1706" style="stop-color:#A9D1EC"/>
				<stop  offset="0.3066" style="stop-color:#82C2E7"/>
				<stop  offset="0.4649" style="stop-color:#47ACDC"/>
				<stop  offset="0.5674" style="stop-color:#1F9CD8"/>
				<stop  offset="0.8652" style="stop-color:#0C75BC"/>
				<stop  offset="0.9944" style="stop-color:#005C97"/>
			</linearGradient>
			<path class="st10" d="M63,100.6c0.1-0.4,0.2-0.8,0.4-1.1c0.1-0.1,0.3-0.3,0.5-0.3c0.5,0,1.1,0,1.6,0.1c0.3,0,0.6,0.1,0.8,0.1
				c0.8,0,1,0.4,1,1.1c0,0.7-0.2,1.4-0.9,1.8c-0.3,0.2-0.7,0.2-1.1,0.2C64.1,102.7,63.2,101.9,63,100.6
				C63.1,100.7,63.1,100.6,63,100.6z M64.8,99.4c-0.1,0.2-0.2,0.3-0.3,0.4c-0.2,0.4,0,0.9,0.4,1.1c0.5,0.2,1,0,1.3-0.5
				c0.1-0.2,0-0.4,0-0.6c-0.2,0-0.3,0.1-0.5,0.1c0,0-0.1,0.1-0.1,0.1c-0.2,0.2-0.5,0.1-0.6-0.2C64.9,99.8,64.9,99.7,64.8,99.4z"/>
			
				<linearGradient id="SVGID_2_" gradientUnits="userSpaceOnUse" x1="86.674" y1="439.6048" x2="90.9093" y2="439.6048" gradientTransform="matrix(0.9989 -4.790000e-02 4.790000e-02 0.9989 -21.4506 -335.1709)">
				<stop  offset="0" style="stop-color:#CCE0F4"/>
				<stop  offset="6.410000e-02" style="stop-color:#C3DDF2"/>
				<stop  offset="0.1706" style="stop-color:#A9D1EC"/>
				<stop  offset="0.3066" style="stop-color:#82C2E7"/>
				<stop  offset="0.4649" style="stop-color:#47ACDC"/>
				<stop  offset="0.5674" style="stop-color:#1F9CD8"/>
				<stop  offset="0.8652" style="stop-color:#0C75BC"/>
				<stop  offset="0.9944" style="stop-color:#005C97"/>
			</linearGradient>
			<path class="st11" d="M90.4,99.4c0.1,0.8-0.3,1.3-0.9,1.8c-0.1,0.1-0.1,0.1-0.2,0.1c-0.7,0-1.3,0.1-2,0c-0.7-0.2-1-0.8-1.1-1.4
				C86,99,86.3,98.5,87,98.4c0.3-0.1,0.3,0,0.3,0.4c-0.2,0.4,0,0.8,0.3,1c0.3,0.3,0.7,0.2,1,0.1c0.2-0.1,0.5-0.6,0.4-0.8
				c0-0.2-0.3-0.2-0.5-0.1c-0.2,0.1-0.4,0.2-0.5,0.2c-0.8-0.3-0.7-0.1-0.7-0.7c0-0.1,0.6-0.1,0.7-0.2c0.5-0.1,1.1-0.2,1.6-0.2
				c0.4,0,0.6,0.4,0.7,0.8C90.4,99,90.4,99.2,90.4,99.4z"/>
			<path class="st8" d="M79,146.9c-2.1,0.2-3.6-0.7-4.9-2.1c-0.7-0.8-1.3-1.7-1.8-2.7c-0.3-0.7-0.7-1.5-1-2.2
				c-0.2-0.6-0.3-1.1-0.5-1.7c-0.2-0.6-0.4-1.2-0.6-1.9c-0.1-0.2-0.1-0.3-0.2-0.5c-0.3-1.5-0.8-2.9-1.7-4.1
				c-0.8-1.3-1.8-2.5-2.6-3.8c-0.5-0.8-1-1.6-1.4-2.4c-0.6-1.2-1.1-2.4-1.7-3.5c-0.4-0.8-1-1.5-1.5-2.3c-0.4-0.6-0.9-1.2-1-2
				c0-0.4-0.1-0.8,0.3-1.1c0.3-0.2,1.1-0.2,1.5,0.1c0.8,0.5,1,1.4,1.2,2.3c0.3,1.4,0.5,2.9,0.9,4.3c0.2,0.7,0.5,1.3,0.9,1.9
				c0.4,0.8,0.9,1.5,1.5,2.2c0.9,1.1,1.9,2,3.1,2.6c0.5,0.2,1,0.4,1.6,0.3c1.3-0.1,2.5-0.3,3.8-0.6c0.8-0.2,1.5-0.6,1.9-1.4
				c0.2-0.4,0.2-0.9,0.3-1.4c0-0.2,0-0.5,0-0.8c0.1-0.5-0.2-0.8-0.6-1c-0.8-0.4-1.6-0.8-2.4-1.2c-1.2-0.6-1.9-1.5-2-2.9
				c0-0.5-0.1-1.1-0.2-1.6c-0.1-0.7,0.1-0.8,0.6-1.2c0.7-0.5,1.5-0.9,2.2-1.3c1-0.5,2-0.7,3.1-0.7c1.3,0,2.4,0.5,3.6,1
				c0.4,0.2,0.9,0.5,1.3,0.7c0.3,0.2,0.4,0.4,0.4,0.7c0,0.8,0,1.6-0.1,2.4c-0.1,0.9-0.4,1.7-1.2,2.2c-0.9,0.6-1.8,1.2-2.7,1.8
				c-0.4,0.3-0.6,0.6-0.5,1.1c0.1,0.6,0.2,1.3,0.4,1.9c0.2,0.6,0.7,1.1,1.3,1.3c1.7,0.6,3.5,0.6,5.2,0.4c0.7-0.1,1.4-0.5,1.9-1
				c0.7-0.8,1.5-1.5,2.1-2.4c0.9-1.2,1.5-2.6,1.9-4.1c0.2-0.7,0.2-1.4,0.3-2.2c0.1-1.3,0.1-2.5,0.5-3.8c0.3-0.9,0.8-1.4,1.9-1.3
				c0.4,0,0.7,0.3,0.7,0.8c0.1,0.7-0.1,1.4-0.5,2c-0.5,0.9-1,1.8-1.4,2.7c-0.3,0.6-0.5,1.3-0.8,1.9c-0.5,1.3-1,2.6-1.6,3.9
				c-0.6,1.2-1.4,2.4-2,3.6c-0.6,1-1.1,2-1.3,3.2c-0.2,0.8-0.3,1.6-0.5,2.3c-0.1,0.7-0.3,1.3-0.4,2c-0.1,0.6-0.2,1.2-0.3,1.8
				c-0.1,0.5-0.2,0.9-0.4,1.4c-0.3,0.9-0.6,1.8-1,2.6c-0.7,1.3-1.5,2.5-2.8,3.3C80.9,146.7,79.9,146.9,79,146.9z"/>
			<path class="st8" d="M64.8,99.4c0.1,0.2,0.2,0.4,0.2,0.5c0.1,0.3,0.3,0.3,0.6,0.2c0,0,0.1-0.1,0.1-0.1c0.2-0.1,0.3-0.1,0.5-0.1
				c0,0.2,0.1,0.4,0,0.6c-0.2,0.5-0.8,0.7-1.3,0.5c-0.3-0.2-0.5-0.6-0.4-1.1C64.5,99.7,64.6,99.6,64.8,99.4z"/>
		</g>
		<g>
			<g>
				<path class="st12" d="M78.4,134.8c0.4,2.2,0.4,4.4,0.5,6.6c0,0.3,0.5,0.3,0.4,0c-0.1-2.2-0.1-4.4-0.5-6.6
					C78.8,134.5,78.3,134.5,78.4,134.8L78.4,134.8z"/>
			</g>
		</g>
		<g>
			<g>
				<path class="st12" d="M77.4,135.1c0.1,1.6,0.2,3.1,0.2,4.7c0,0.3,0.5,0.3,0.4,0c-0.1-1.6-0.2-3.1-0.2-4.7
					C77.8,134.8,77.3,134.8,77.4,135.1L77.4,135.1z"/>
			</g>
		</g>
		<g id="j1qhMu_1_">
			<g>
				<path class="st13" d="M70.2,133.2c0-0.3,0-0.5,0-0.8c0.1-0.1,0.1-0.3,0.2-0.4c0.1-0.4,0.3-0.6,0.8-0.6c0.4,0.1,0.8,0.2,1.2,0.4
					c0.6,0.4,1.2,0.5,1.8,0.7c0.4,0.1,0.8,0.2,1.2,0.3c0.2,0,0.3,0,0.4,0.1c0.5,0.1,1,0.3,1.5,0.5c0.2,0.1,0.4,0.2,0.4,0.5
					c0.1,0.6,0.2,1.2,0.3,1.9c0.1,0.7,0.1,1.4,0.2,2.1c0.1,0.5,0.2,0.9,0.2,1.4c0,0.2,0.2,0.2,0.4,0.2c0-0.9,0.1-1.7,0.1-2.6
					c0-0.9,0.1-1.8,0.1-2.7c0-0.7,0.4-1,1-1.2c0.8-0.3,1.7-0.4,2.5-0.8c0.3-0.2,0.7-0.3,1-0.4c0.5-0.3,0.9-0.6,1.4-0.9
					c0.5-0.3,1-0.2,1.2,0.4c0.1,0.2,0.2,0.4,0.2,0.6c0,0.1,0,0.2,0,0.3c0,0.1-0.1,0.1-0.1,0.2c-0.1,0.6-0.1,1.2-0.1,1.7
					c-0.1,0.4-0.2,0.9-0.3,1.3c0,1.2-0.4,2.3-0.7,3.4c-0.2,0.9-0.6,1.7-0.8,2.5c-0.2,0.7-0.6,1.4-1,2c-0.5,0.7-1,1.3-1.7,1.8
					c-0.7,0.5-1.3,0.9-2.2,1c-1.7,0.3-3.2-0.2-4.4-1.4c-0.5-0.4-0.8-1-1.3-1.4c-0.5-0.5-0.8-1.1-1.1-1.8c-0.2-0.4-0.3-0.8-0.6-1.2
					c-0.2-0.4-0.4-0.9-0.5-1.4c-0.1-0.3-0.2-0.6-0.3-1c-0.1-0.2-0.2-0.4-0.2-0.5c-0.2-0.6-0.3-1.3-0.4-1.9c-0.1-0.5-0.3-0.9-0.4-1.4
					C70.3,133.9,70.3,133.6,70.2,133.2z"/>
			</g>
		</g>
		<circle class="st9" cx="65.3" cy="99.9" r="0.5"/>
		<circle class="st9" cx="88.1" cy="98.8" r="0.5"/>
	</g>
</g>
<g>
	
		<image style="overflow:visible;opacity:0.75;enable-background:new    ;" width="250" height="763" xlink:href="16B5B955933F7DE.png"  transform="matrix(0.2362 0 0 0.2362 126.231 297.7094)">
	</image>
	<g>
		
			<rect x="142.6" y="312.7" transform="matrix(0.9989 -4.790249e-02 4.790249e-02 0.9989 -15.6918 7.8518)" class="st4" width="26.7" height="37.3"/>
		<text transform="matrix(0.9989 -4.790249e-02 4.790249e-02 0.9989 143.5611 350.423)" class="st5 st14 st15">1</text>
		<text transform="matrix(0.9989 -4.790249e-02 4.790249e-02 0.9989 143.5611 350.423)" class="st16 st14 st15">1</text>
	</g>
</g>
<g>
	
		<image style="overflow:visible;opacity:0.75;enable-background:new    ;" width="250" height="758" xlink:href="16B5B955933F7DC.png"  transform="matrix(0.2362 0 0 0.2362 358.791 288.6998)">
	</image>
	<g>
		
			<rect x="375.2" y="303.1" transform="matrix(0.9989 -4.790249e-02 4.790249e-02 0.9989 -14.9641 18.9794)" class="st4" width="26.7" height="37.3"/>
		<text transform="matrix(0.9989 -4.790249e-02 4.790249e-02 0.9989 376.1041 340.7921)" class="st5 st14 st15">2</text>
		<text transform="matrix(0.9989 -4.790249e-02 4.790249e-02 0.9989 376.1041 340.7921)" class="st16 st14 st15">2</text>
	</g>
</g>
<rect x="609.1" y="291.8" transform="matrix(0.9989 -4.790249e-02 4.790249e-02 0.9989 -14.1582 30.1723)" class="st4" width="26.7" height="37.3"/>
<text transform="matrix(0.9989 -4.790249e-02 4.790249e-02 0.9989 610.0417 329.5622)" class="st5 st14 st15">3</text>
<rect x="175.5" y="139.6" transform="matrix(0.9989 -4.790249e-02 4.790249e-02 0.9989 -8.3139 21.0562)" class="st4" width="519.2" height="88.7"/>
<text transform="matrix(0.9989 -4.790249e-02 4.790249e-02 0.9989 174.581 169.714)" class="st5 st17 st18">Order 3 snow clearings, get the 4th for FREE</text>
<rect x="293.9" y="460.1" transform="matrix(0.9989 -4.790249e-02 4.790249e-02 0.9989 -23.5928 24.4401)" class="st4" width="408.5" height="88.7"/>
<text transform="matrix(0.9989 -4.790249e-02 4.790249e-02 0.9989 293.6427 503.4865)" class="st17 st19">1 more to go!</text>
<line class="st20" x1="175.7" y1="136.9" x2="574.2" y2="116.8"/>
</svg>
