<?xml version="1.0" encoding="utf-8"?>
<!-- Generator: Adobe Illustrator 23.0.1, SVG Export Plug-In . SVG Version: 6.00 Build 0)  -->
<svg version="1.1" id="Layer_1" xmlns="http://www.w3.org/2000/svg" xmlns:xlink="http://www.w3.org/1999/xlink" x="0px" y="0px"
	 viewBox="0 0 594.8 594.8" style="enable-background:new 0 0 594.8 594.8;" xml:space="preserve">
<style type="text/css">
	.st0{fill:url(#SVGID_1_);}
	.st1{fill:none;stroke:#231F20;stroke-width:6;stroke-miterlimit:10;}
	.st2{fill:#EDEDED;}
	.st3{fill:none;stroke:#231F20;stroke-width:4;stroke-miterlimit:10;}
	.st4{fill:#FEFEFE;stroke:#231F20;stroke-width:4;stroke-miterlimit:10;}
	.st5{fill:#EDEDED;stroke:#231F20;stroke-width:4;stroke-miterlimit:10;}
	.st6{fill:#ADADAD;stroke:#231F20;stroke-width:3;stroke-miterlimit:10;}
	.st7{fill-rule:evenodd;clip-rule:evenodd;}
	.st8{fill-rule:evenodd;clip-rule:evenodd;fill:#FFFFFF;}
	.st9{fill-rule:evenodd;clip-rule:evenodd;fill:url(#SVGID_2_);}
	.st10{fill-rule:evenodd;clip-rule:evenodd;fill:url(#SVGID_3_);}
	.st11{fill:#E2404C;}
</style>
<g>
	<g>
		
			<image style="overflow:visible;opacity:0.8;" width="632" height="631" xlink:href="346AB66D63D3C3CC.png"  transform="matrix(1 0 0 1 -11.5971 -6.5971)">
		</image>
		<g>
			<radialGradient id="SVGID_1_" cx="297.5386" cy="297.8955" r="279.2137" gradientUnits="userSpaceOnUse">
				<stop  offset="0" style="stop-color:#FFFFFF"/>
				<stop  offset="2.049065e-02" style="stop-color:#F4FAFE"/>
				<stop  offset="0.1353" style="stop-color:#BCE1F6"/>
				<stop  offset="0.2536" style="stop-color:#8ACAF0"/>
				<stop  offset="0.3728" style="stop-color:#5FB7EA"/>
				<stop  offset="0.493" style="stop-color:#3DA7E6"/>
				<stop  offset="0.6147" style="stop-color:#229BE2"/>
				<stop  offset="0.7382" style="stop-color:#0F93E0"/>
				<stop  offset="0.865" style="stop-color:#048EDE"/>
				<stop  offset="1" style="stop-color:#008CDE"/>
			</radialGradient>
			<path class="st0" d="M285.1,18.7c8.4,0,16.7,0,25.1,0c3.6,0.7,7.2,0.4,10.8,0.5c19.2,0.3,37.8,4.4,56.1,9.7
				c18.3,5.2,35.8,12.6,52.6,21.5c17.5,9.3,33.8,20.5,49,33.3c5.8,4.9,11.4,9.9,16.6,15.3c17.9,18,33.4,38,46,60.1
				c14.6,25.6,24.8,52.9,30.9,81.7c2.3,11,3.8,22.1,4,33.4c0.1,3.9-0.2,7.8,0.5,11.6c0,8,0,16,0,24c-0.7,3.8-0.4,7.6-0.5,11.3
				c-0.2,17.7-3.9,34.8-8.4,51.7c-4.9,18-11.7,35.3-20.2,51.9c-9.2,18-20.3,34.8-33,50.5c-8.5,10.6-18.1,20.2-27.9,29.4
				c-12.9,12.1-27.2,22.6-42.3,31.9c-18,11-36.8,20-56.8,26.8c-16.6,5.6-33.7,9.6-51.1,12.1c-7.9,1.1-15.9,1.2-23.9,1.5
				c-7.4,0.2-14.9,0.2-22.3,0.2c-25.2,0.3-49.9-3.6-74-11c-16.6-5.1-32.7-11.6-48.1-19.6c-17.5-9.1-33.9-20-49.1-32.6
				c-6.9-5.7-13.4-11.7-19.7-17.9c-17.8-17.8-33-37.6-45.5-59.5c-9.1-16-16.6-32.7-22.4-50.1c-6.1-18.2-10.3-36.9-12.4-56
				c-0.4-4-0.4-8.1-0.6-12.2c-0.4-10.3-0.3-20.5-0.3-30.8c-0.1-28.2,5.3-55.4,14.5-81.9c9.9-28.7,24.4-55.1,42.9-79.1
				c6-7.8,12.5-15,19.2-22.2c17-18.2,36.4-33.5,57.7-46.5c22.7-13.8,46.9-24.2,72.7-30.9c11.3-3,22.8-5.5,34.4-6.8
				c7.4-0.8,14.8-1,22.2-1.1C283,18.9,284.1,19.2,285.1,18.7z"/>
			<path class="st1" d="M285.1,18.7c8.4,0,16.7,0,25.1,0c3.6,0.7,7.2,0.4,10.8,0.5c19.2,0.3,37.8,4.4,56.1,9.7
				c18.3,5.2,35.8,12.6,52.6,21.5c17.5,9.3,33.8,20.5,49,33.3c5.8,4.9,11.4,9.9,16.6,15.3c17.9,18,33.4,38,46,60.1
				c14.6,25.6,24.8,52.9,30.9,81.7c2.3,11,3.8,22.1,4,33.4c0.1,3.9-0.2,7.8,0.5,11.6c0,8,0,16,0,24c-0.7,3.8-0.4,7.6-0.5,11.3
				c-0.2,17.7-3.9,34.8-8.4,51.7c-4.9,18-11.7,35.3-20.2,51.9c-9.2,18-20.3,34.8-33,50.5c-8.5,10.6-18.1,20.2-27.9,29.4
				c-12.9,12.1-27.2,22.6-42.3,31.9c-18,11-36.8,20-56.8,26.8c-16.6,5.6-33.7,9.6-51.1,12.1c-7.9,1.1-15.9,1.2-23.9,1.5
				c-7.4,0.2-14.9,0.2-22.3,0.2c-25.2,0.3-49.9-3.6-74-11c-16.6-5.1-32.7-11.6-48.1-19.6c-17.5-9.1-33.9-20-49.1-32.6
				c-6.9-5.7-13.4-11.7-19.7-17.9c-17.8-17.8-33-37.6-45.5-59.5c-9.1-16-16.6-32.7-22.4-50.1c-6.1-18.2-10.3-36.9-12.4-56
				c-0.4-4-0.4-8.1-0.6-12.2c-0.4-10.3-0.3-20.5-0.3-30.8c-0.1-28.2,5.3-55.4,14.5-81.9c9.9-28.7,24.4-55.1,42.9-79.1
				c6-7.8,12.5-15,19.2-22.2c17-18.2,36.4-33.5,57.7-46.5c22.7-13.8,46.9-24.2,72.7-30.9c11.3-3,22.8-5.5,34.4-6.8
				c7.4-0.8,14.8-1,22.2-1.1C283,18.9,284.1,19.2,285.1,18.7z"/>
		</g>
	</g>
	<g id="LxEKhu.tif">
		<g>
			<path d="M120.6,385.2c-1.8-0.2-3.6-0.3-5.4-0.6c-15.6-2.8-26.3-15.8-25.8-31.6c0.4-13.7,6.7-24.1,18.2-31.6c4-2.6,8.4-3.8,13-4.3
				c17.3-1.9,34.6-3.8,51.8-5.5c25.6-2.6,51.2-5.2,76.8-7.8c5.3-0.5,10.6-0.9,15.9-1.3c1.9-0.1,3.3,0.8,4.2,2.4
				c0.9,1.6,0.7,3.2-0.3,4.7c-0.9,1.5-2,2.3-3.9,2.5c-29.7,2.8-59.4,5.7-89.1,8.7c-17.5,1.8-34.9,3.8-52.4,5.8
				c-13.4,1.5-22.7,10.8-24.3,24c-1.5,12.3,6.4,22.7,18.3,24.4c9,1.2,17.1-4.8,18.3-13.5c0.7-5.3-1.4-10.2-5.4-12.5
				c-3.4-1.9-7-2-10.6-0.7c-1,0.4-1.9,1.2-2.7,2c-0.8,0.7-1.4,1.7-2.1,2.5c-1.4,1.7-3.4,2.2-5.4,1.3c-1.9-0.9-3.3-3-2.8-5
				c0.4-1.5,1-3.1,2-4.4c3.8-4.8,8.9-7,15-7.1c14.7-0.1,25.1,13.2,21.2,27.7c-2.7,10-9.1,16.4-19.2,19.1c-0.2,0-0.3,0.2-0.5,0.2
				C123.8,384.8,122.2,385,120.6,385.2z"/>
			<path d="M281.3,289c-0.1,0.4-0.2,0.8-0.4,1.2c-0.8,1.9-1.7,3.2-4.1,3.4c-38.1,3.7-76.1,7.5-114.2,11.2c-7.7,0.8-15.5,1.4-23.2,2
				c-2.2,0.2-4.5,0.3-6.7,0c-7.5-1-13.8-4.4-18.6-10.2c-6.2-7.5-8.9-16-6.5-25.7c2.7-10.7,12-18.3,23-18.7
				c8.9-0.3,15.2,4.2,19.4,11.9c1.2,2.3,2.1,4.7,2.2,7.4c0,2.5-1.6,4.6-3.9,5c-2.4,0.4-4.7-1-5.5-3.4c-0.3-0.8-0.4-1.7-0.7-2.5
				c-2.1-6.6-7.3-9.5-14-8c-7.8,1.8-12.6,9.3-11.3,17.5c1.4,8.7,8.5,15.8,17.2,16.9c1.8,0.2,3.7,0,5.6-0.1
				c13.3-1.2,26.6-2.4,39.9-3.6c26.7-2.6,53.4-5.2,80.2-7.7c5.5-0.5,11.1-0.8,16.6-1.3c2.4-0.2,4,0.7,5,2.9
				C281.1,287.8,281.2,288.4,281.3,289z"/>
			<path d="M206.2,325.9c16.2-1.4,31.6-2.8,47-4.2c1.9-0.2,3.4,0.3,4.3,2c1,1.9,0.8,3.9-0.4,5.6c-0.4,0.6-1.4,1-2.1,1.1
				c-4.3,0.7-8.6,1.4-12.9,1.8c-26.1,2.6-52.3,5.2-78.4,7.7c-2.1,0.2-4.2,2.7-4.2,4.8c0.1,3,1.6,4.7,4.8,5c1.6,0.2,3,0.5,4.3,1.6
				c1.6,1.4,2,2.9,1.3,4.9c-0.6,1.9-1.8,3.2-4,3.4c-8.7,0.8-16-5.9-16.1-14.6c-0.1-6.4,3.3-10.7,8.6-13.7c0.6-0.3,1.3-0.5,2-0.5
				C175.9,329.1,191.4,327.4,206.2,325.9z"/>
			<path d="M89.1,314.9c-5,0.3-9.9,0.8-14.9,0.9c-8.4,0-14.5-4.3-18.7-11.3c-4.8-8.1-3.8-17.7,2.2-24.2c7.8-8.6,21.5-7.7,27.4,1.9
				c1.5,2.4,2.1,5.1,2.1,7.9c0,2.2-1.3,3.3-3.1,4c-1.7,0.7-3.6,0.3-4.7-1.1c-0.7-0.9-1.1-1.9-1.6-2.9c-0.6-1.2-0.9-2.5-1.8-3.5
				c-3.6-4-7.8-2.6-10.9,0.2c-3.7,3.5-3.8,9.8-0.3,14.2c3,3.7,6.8,5.5,11.6,5c7.8-0.8,15.7-1.4,23.5-2.1c1.3-0.1,2.6-0.2,3.8-0.1
				c2.4,0,4.2,1.8,4.4,4.2c0.2,2.5-1.3,4.6-3.7,5c-3,0.5-6,0.8-9,1.1c-2.2,0.3-4.4,0.4-6.6,0.7C89.1,314.8,89.1,314.9,89.1,314.9z"
				/>
		</g>
	</g>
	<g>
		
			<image style="overflow:visible;opacity:0.55;" width="337" height="263" xlink:href="346AB66D63D3C3CD.png"  transform="matrix(1 0 0 1 205.4029 173.4029)">
		</image>
		<g>
			<path class="st2" d="M494,185.8c3.9,5.8,5.5,12.3,6.1,19.2c4.5,47.3,9.2,94.7,13.8,142c0.3,2.9,0.6,5.8,0.5,8.7
				c0.4,3,0.4,6-0.7,8.8c-4.8,11.7-13.3,19-26,20.4c-20.9,2.3-41.9,4.1-62.8,6.2c-58.4,5.7-116.9,11.4-175.3,17.1
				c-7,0.7-13.8,0.1-20.1-3.3c-3.6-2-6.8-4.5-9.5-7.6c-0.6-0.7-1.3-1.4-1.3-2.4c2.1-2.9,4.3-5.7,6.9-8.1
				c14.9-13.7,30-27.2,44.9-40.8c16.4-14.8,32.8-29.7,49.2-44.5c2.4-2.2,3.9-2.1,6.7-0.2c4,2.8,7.7,5.9,11.8,8.5
				c14.3,9,33,5.9,43.8-7.1c2.3-2.8,5-5.2,7.5-7.8c2.1-2.2,3.3-2.3,6-0.6c11.5,6.9,22.9,14,34.3,20.9c23.6,14.4,47.1,28.7,70.7,43.1
				c2.6,1.6,5.1,3.3,6.6,4.4c-11.1-7.4-23-15.8-35-24.2c-11.8-8.2-23.6-16.3-35.3-24.5c-11.8-8.3-23.6-16.5-35.5-24.7
				c-2.7-1.9-2.9-3.6-0.6-5.9c10.5-10.6,20.8-21.3,31.2-31.9c11.1-11.3,22.1-22.6,33.2-34c6.9-7.1,13.8-14.3,20.9-21.3
				c1-1,2-2,3.1-2.9c1.8-1.6,2.8-3.5,3.4-5.7C492.7,186.6,493.1,186,494,185.8z"/>
			<path class="st3" d="M494,185.8c3.9,5.8,5.5,12.3,6.1,19.2c4.5,47.3,9.2,94.7,13.8,142c0.3,2.9,0.6,5.8,0.5,8.7
				c0.4,3,0.4,6-0.7,8.8c-4.8,11.7-13.3,19-26,20.4c-20.9,2.3-41.9,4.1-62.8,6.2c-58.4,5.7-116.9,11.4-175.3,17.1
				c-7,0.7-13.8,0.1-20.1-3.3c-3.6-2-6.8-4.5-9.5-7.6c-0.6-0.7-1.3-1.4-1.3-2.4c2.1-2.9,4.3-5.7,6.9-8.1
				c14.9-13.7,30-27.2,44.9-40.8c16.4-14.8,32.8-29.7,49.2-44.5c2.4-2.2,3.9-2.1,6.7-0.2c4,2.8,7.7,5.9,11.8,8.5
				c14.3,9,33,5.9,43.8-7.1c2.3-2.8,5-5.2,7.5-7.8c2.1-2.2,3.3-2.3,6-0.6c11.5,6.9,22.9,14,34.3,20.9c23.6,14.4,47.1,28.7,70.7,43.1
				c2.6,1.6,5.1,3.3,6.6,4.4c-11.1-7.4-23-15.8-35-24.2c-11.8-8.2-23.6-16.3-35.3-24.5c-11.8-8.3-23.6-16.5-35.5-24.7
				c-2.7-1.9-2.9-3.6-0.6-5.9c10.5-10.6,20.8-21.3,31.2-31.9c11.1-11.3,22.1-22.6,33.2-34c6.9-7.1,13.8-14.3,20.9-21.3
				c1-1,2-2,3.1-2.9c1.8-1.6,2.8-3.5,3.4-5.7C492.7,186.6,493.1,186,494,185.8z"/>
		</g>
	</g>
	<path class="st4" d="M494,185.8c0.1,0.8-0.4,1.4-0.8,2c-0.4,2-2,3.3-3.3,4.6c-14.7,14.2-30.1,27.6-45.3,41.4
		c-16.7,15.2-33.5,30.2-50.2,45.5c-0.9,0.9-2,1.5-2.9,2.4c-2.5,2.3-4.9,4.7-7.6,6.7c-12.4,16.4-38.8,19-54.1,5.3
		c-3.1-1.4-5.9-3.4-8.8-5.1c-13.5-8.2-27.1-16.4-40.6-24.6c-15.6-9.5-31.2-19-46.9-28.3c-9.1-5.5-17.9-11.5-27.1-16.8
		c-1.4-0.8-2.9-1.5-3.8-3c-0.2-0.6-0.3-1.1,0-1.7c4.2-8.7,11.1-13.9,20.6-15.7c3.7-0.7,7.5-1,11.2-1.4c76.9-7.5,153.7-15,230.6-22.5
		c7.4-0.7,14.6-0.1,21.1,4.1C489.2,180.4,491.9,182.7,494,185.8z"/>
	<path class="st5" d="M202.6,214c0.2,0.5,0.4,1,0.7,1.5c1.2,2,3.3,2.9,5.1,4.1c9.2,6,18.3,11.9,27.3,18.3c8.6,6.1,17.3,12.1,26,18.1
		c7.7,5.4,15.4,10.8,23.1,16.2c7.5,5.3,15,10.5,22.5,15.8c2.7,1.9,5.7,3.4,7.8,6c0.1,0.2,0.1,0.4,0.1,0.7c-0.4,2.1-2.3,3.2-3.6,4.5
		c-10.6,10.7-21,21.5-31.6,32.2c-10.2,10.4-20.4,20.8-30.7,31.2c-7.5,7.6-14.9,15.3-22.4,22.8c-2.2,2.2-4.5,4.4-6.2,7
		c-0.5,0.8-1.3,1.4-2.3,1.3c-1.2-0.4-1.6-1.4-2-2.4c-0.7-2.1-1.4-4.2-1.4-6.5c-0.7-2.7-0.9-5.6-1.2-8.4
		c-4.7-48.8-9.5-97.5-14.2-146.3C199,224.5,199.7,219,202.6,214z"/>
	<path class="st6" d="M219.1,393.8c-0.1-0.1-0.2-0.3-0.3-0.4c3.1-4.1,6.5-8,10.2-11.7c8.6-8.6,17-17.3,25.6-26
		c7.6-7.7,15.1-15.5,22.7-23.2c7.5-7.7,15.1-15.3,22.6-22.9c5-5,9.9-10,14.9-15c1.8-0.9,2.9,0.6,4.1,1.4c3.8,2.6,3.7,2.7,7.2-0.2
		c1.3-1.1,2.4-2.4,4.1-3c5.4,4.1,11.2,7.2,18,8.1c13.7,1.9,25.2-2.1,34.5-12.3c0.3-0.3,0.7-0.6,1-1c2.5,0.5,4.4,2.2,6.6,3.4
		c1.4,0.8,2.4,0.6,3.5-0.5c3.7-3.6,3.7-3.6-0.3-6.8c-0.9-0.7-2.3-1.2-2.4-2.7c13.8-12.5,27.5-25,41.3-37.5
		c19.2-17.4,38.4-34.7,57.6-52.1c1.2-1.1,2.2-2.4,3.3-3.6c0.2,2.4-1.6,3.8-3,5.2c-10.8,11.2-21.7,22.4-32.6,33.5
		c-10.5,10.8-21.1,21.5-31.6,32.2c-8.4,8.6-16.7,17.2-25.1,25.7c-1.4,1.4-1.3,2.4,0.4,3.5c11.9,8.2,23.7,16.4,35.6,24.6
		c11.8,8.2,23.5,16.4,35.3,24.6c10.7,7.4,21.4,14.8,32.1,22.2c2.2,1.5,4.5,3.1,5.6,5.9c-2.5-1.5-4.9-3-7.4-4.5
		c-15.3-9.4-30.6-18.7-46-28.1c-20.7-12.6-41.4-25.2-62.1-37.9c-1.5-0.9-2.5-1.1-3.8,0.3c-3.8,4.1-7.5,8.3-11.5,12.1
		c-12.1,11.2-31.7,11.7-44.6,1.4c-3.1-2.5-6.5-4.7-9.7-7.1c-1.4-1-2.4-1.1-3.9,0.2c-20.2,18.4-40.4,36.7-60.7,55
		c-11.9,10.8-23.9,21.5-35.8,32.3c-1.3,1.2-2.4,2.6-3.6,4C220.4,393.7,219.9,394.1,219.1,393.8z"/>
	<path class="st6" d="M314.6,294.1c-3.5-1.8-6.5-4.3-9.7-6.6c-7.7-5.3-15.3-10.6-23-16c-7.6-5.3-15.3-10.7-22.9-16.1
		c-7.5-5.3-15-10.5-22.5-15.8c-7.7-5.4-15.4-10.8-23.1-16.2c-3-2.1-5.9-4.1-8.8-6.2c-0.6-0.4-1.8-0.6-1.3-1.8
		c8.2,5.9,17.1,10.8,25.8,16c30.6,18.6,61.2,37.1,91.8,55.6c0.3,0.2,0.5,0.4,0.7,0.6C320.6,290.8,316.9,294.1,314.6,294.1z"/>
	<path class="st6" d="M314.6,294.1c2.7-1.8,4.3-4.7,7-6.4c2.8,1.7,5.6,3.3,8.4,5c-1.5,3-4.6,4.6-6.9,6.8c-0.6,0.5-1.2-0.1-1.7-0.4
		c-2.3-1.5-4.6-3-6.8-4.6C314.6,294.4,314.6,294.3,314.6,294.1z"/>
	<path class="st6" d="M391,281c2.5,1.1,4.4,2.9,6.6,4.4c1,0.6,1.2,1.5,0.3,2.3c-2,1.8-3.4,5.4-5.9,5.1c-3-0.5-6.1-2.5-8.2-5.2
		C386.1,285.3,388.5,283.2,391,281z"/>
</g>
<g>
	<g id="WjzJxt_1_">
		<g>
			<path class="st7" d="M383.2,247.8c-0.3,0-0.6,0.1-0.9,0.1c-0.3,0-0.4,0.2-0.5,0.4c-0.3,1.2-0.6,2.3-1,3.5c-0.3,1.2-0.7,2.3-1,3.5
				c-0.3,1-0.5,1.9-0.8,2.9c-0.1,0.2-0.1,0.4-0.2,0.7c-0.1,0.3-0.3,0.4-0.5,0.2c-0.4-0.3-0.8-0.6-1.1-0.9c-0.2-0.2-0.4-0.1-0.5,0.1
				c-0.7,1.4-1.4,2.8-2.1,4.2c-0.5,1-1,2-1.5,3c-0.5,1-1,2-1.5,3c-0.4,0.8-0.7,1.5-1.1,2.3c-0.3,0.7-0.7,1.4-1,2
				c-0.2,0.3-0.3,0.3-0.6,0.1c-0.5-0.3-1-0.7-1.5-1c-0.1,0-0.3,0-0.4,0.1c-1,1.2-2,2.4-3,3.6c-2.2,2.6-4.4,5.2-6.5,7.9
				c-0.2,0.3-0.3,0.3-0.6,0c-2.6-2.1-5.2-4.3-7.9-6.4c-1.2-1-2.4-2-3.7-3c-0.2-0.1-0.3-0.1-0.4,0c-0.4,0.5-0.9,0.9-1.3,1.4
				c-0.2,0.2-0.3,0-0.4-0.1c-0.2-0.3-0.4-0.6-0.6-0.8c-0.5-0.7-1-1.3-1.5-2c-0.4-0.5-0.8-1.1-1.3-1.6c-0.4-0.5-0.8-1-1.2-1.5
				c-0.7-0.9-1.4-1.8-2-2.6c-0.5-0.7-1.1-1.4-1.6-2c-0.4-0.5-0.8-1-1.1-1.5c-0.2-0.3-0.4-0.5-0.6-0.8c-0.2-0.2-0.3-0.2-0.5,0
				c-0.3,0.4-0.6,0.7-1,1.1c-0.2,0.2-0.4,0.2-0.6-0.1c-0.1-0.2-0.2-0.4-0.3-0.7c-0.4-0.8-0.8-1.5-1.2-2.3c-0.4-0.8-0.8-1.7-1.2-2.6
				c-0.4-0.7-0.7-1.4-1.1-2.1c-0.3-0.7-0.7-1.4-1-2c-0.2-0.4-0.2-0.4-0.6-0.4c-0.6,0.1-1.1,0.1-1.7,0.2c-0.3,0-0.4-0.1-0.3-0.4
				c0.2-0.5,0.4-1.1,0.7-1.6c0.2-0.6,0.5-1.2,0.7-1.8c0.2-0.6,0.4-1.2,0.6-1.8c0.1-0.2,0.2-0.4,0.3-0.6c0.2-0.5,0.3-1,0.5-1.5
				c0.1-0.2,0.2-0.3,0.2-0.4c0.3-0.7,0.5-1.3,0.8-2c0.2-0.4,0.3-0.8,0.5-1.2c0.1-0.2,0.1-0.3-0.1-0.4c-0.3-0.2-0.6-0.4-1-0.5
				c-0.3-0.1-0.2-0.3-0.1-0.5c0.3-0.4,0.5-0.8,0.8-1.2c0.4-0.7,0.9-1.4,1.3-2.1c0.5-0.8,1-1.5,1.5-2.3c0.5-0.8,1-1.6,1.6-2.4
				c0.1-0.2,0.1-0.3,0-0.5c-0.6-0.6-1.3-1.3-1.9-1.9c-0.2-0.2-0.3-0.4-0.3-0.6c0-0.6,0-1.2,0.1-1.7c0.1-1.3,0.2-2.5,0.3-3.8
				c0.1-0.8,0.2-1.6,0.3-2.4c0.2-0.9,0.4-1.8,0.6-2.7c0.2-0.7,0.4-1.4,0.6-2.1c0.3-0.9,0.6-1.8,1-2.7c0.3-0.8,0.7-1.6,1.2-2.3
				c0.6-1,1.3-2,2.1-2.9c0.1-0.1,0.2-0.2,0.3-0.3c0.1-0.2,0.3-0.2,0.5-0.1c0.6,0.4,1.3,0.8,1.9,1.3c1.1,0.8,2,1.7,2.9,2.7
				c0.6,0.6,1.1,1.3,1.6,2c0.7,1,1.4,2,2.1,3c0.3,0.4,0.5,0.9,0.7,1.3c0.2,0.5,0.4,0.5,0.8,0.3c0.2-0.1,0.5-0.1,0.7-0.2
				c1.5-0.4,3.1-0.6,4.7-0.7c1,0,1.9,0,2.9,0.1c0.3,0,0.4,0,0.6-0.3c0.2-0.6,0.4-1.2,0.6-1.8c0.3-0.9,0.7-1.7,1.1-2.6
				c0.6-1.2,1.2-2.4,2-3.6c0.9-1.4,1.8-2.6,3-3.7c0.1-0.1,0.3-0.3,0.4-0.4c0.2-0.1,0.3-0.2,0.5,0c1,0.8,1.9,1.6,2.8,2.5
				c0.8,0.9,1.6,1.9,2.2,2.9c0.5,0.7,0.9,1.4,1.3,2.2c0.5,0.9,0.9,1.9,1.3,2.8c0.3,0.7,0.6,1.3,0.8,2c0.2,0.5,0.3,0.9,0.5,1.4
				c0.1,0.4,0.2,0.8,0.4,1.2c0.2,0.7,0.4,1.4,0.6,2.1c0.2,0.8,0.4,1.7,0.5,2.5c0,0.1,0,0.3-0.1,0.4c-0.5,0.8-1,1.5-1.5,2.3
				c-0.2,0.3-0.2,0.4,0.1,0.7c0.5,0.5,1.1,1.1,1.6,1.6c1,1,2,2.1,3,3.1c0.6,0.6,1.3,1.3,1.9,2c0.2,0.2,0.2,0.3,0,0.5
				c-0.3,0.2-0.6,0.5-0.8,0.7c-0.2,0.2-0.1,0.3,0,0.5c0.4,0.7,0.9,1.4,1.3,2c0.3,0.5,0.7,1,1,1.4c0.2,0.3,0.4,0.7,0.6,1
				c0.6,1,1.2,1.9,1.8,2.8c0.4,0.7,0.9,1.4,1.3,2.1c0.1,0.1,0.2,0.3,0.3,0.4c0.2,0.3,0.1,0.4-0.2,0.4
				C383.8,247.8,383.5,247.8,383.2,247.8C383.2,247.8,383.2,247.8,383.2,247.8z M365.9,238.4c0.1-0.2,0.1-0.3,0.2-0.4
				c0.3-0.4,0.7-0.9,1.1-1.3c0.3-0.4,0.6-0.8,0.9-1.2c0.1-0.2,0.1-0.3-0.1-0.4c-0.1,0-0.1,0-0.2,0c-0.6-0.1-1.1-0.3-1.7-0.4
				c-0.6-0.1-1.1-0.3-1.7-0.5c-0.5-0.1-1-0.3-1.6-0.4c-0.6-0.2-1.1-0.3-1.7-0.5c-0.4-0.1-0.7-0.2-1.1-0.4c-0.4-0.2-0.8-0.5-1.1-0.8
				c-0.8-0.5-1.5-1.1-2.3-1.6c-0.2-0.1-0.3-0.1-0.4,0.1c-0.1,0.1-0.2,0.3-0.2,0.4c-0.5,0.8-1,1.7-1.4,2.5c-0.1,0.3-0.3,0.6-0.3,0.9
				c0,0.9,0.2,1.7,0.2,2.6c0,0.6,0.2,0.9,0.6,1.3c0.6,0.6,1.2,1.2,1.8,1.9c0.1,0.1,0.3,0.2,0.4,0c0.4-0.6,0.9-1.2,1.4-1.8
				c0.7-0.9,1.4-1.8,2-2.7c0.1-0.1,0.2-0.1,0.3-0.2c0,0.1,0.1,0.2,0.1,0.3c0,0.2,0.1,0.4,0.3,0.4c0.4,0.1,0.9,0.2,1.3,0.3
				c0.4,0.1,0.9,0.2,1.3,0.2c0.4,0.1,0.8,0.2,1.2,0.2c0.2,0,0.3,0.1,0.5,0.1c-0.1,0.2-0.1,0.3-0.2,0.5c0,0,0,0,0,0
				c-0.6,0.8-1.1,1.6-1.7,2.5c-0.1,0.2,0,0.4,0.2,0.4c0.1,0,0.1,0,0.2,0c0.1,0,0.1,0.1,0.1,0.2c0,0-0.1,0.1-0.1,0.1
				c-0.3,0.1-0.6,0.2-0.9,0.2c-0.5,0.1-0.9,0.1-1.4,0.1c-1.2,0.2-2.5,0.4-3.7,0c-0.1,0-0.1,0-0.2,0c0.1,0.2,0.2,0.3,0.3,0.4
				c0.4,0.4,0.7,0.7,1.1,1.1c0.3,0.4,0.7,0.8,1,1.1c0.5,0.5,1,1,1.4,1.5c0,0,0,0.1,0.1,0.2c-0.1,0-0.1,0.1-0.2,0.1
				c-0.2-0.1-0.5-0.1-0.7-0.2c-0.6-0.2-1.3-0.5-1.9-0.7c-0.3-0.1-0.5-0.1-0.8-0.2c-0.6-0.2-1.2-0.6-1.9-0.7c-0.1,0-0.3,0-0.4,0
				c-0.1,0.1,0,0.3,0,0.4c0,0.2,0.1,0.3,0.2,0.5c0.2,0.5,0.3,1.1,0.5,1.6c0.1,0.4,0.2,0.8,0.4,1.2c0.2,0.6,0.4,1.1,0.5,1.7
				c0.2,0.5,0.3,1.1,0.5,1.7c0,0.1,0,0.2,0,0.2c-0.1,0-0.2,0-0.3,0c-0.1,0-0.2-0.1-0.3-0.1c-0.6-0.2-1.1-0.4-1.7-0.6
				c-0.6-0.2-1.3-0.3-2-0.1c-1.2,0.2-2.2,0.8-3.1,1.5c-0.1,0-0.1,0.1-0.2,0.1c-0.1,0-0.2,0-0.2-0.2c0.1-0.6,0.1-1.1,0.2-1.7
				c0.1-0.7-0.1-1.4,0.2-2c0-0.1,0-0.1,0-0.2c0-0.5,0-1.1,0.1-1.6c0-0.1,0-0.1,0-0.2c0.1-0.5,0.2-1,0.3-1.5c0-0.3-0.1-0.4-0.4-0.3
				c-0.3,0.1-0.5,0.3-0.8,0.4c-0.5,0.3-1,0.6-1.5,0.9c-0.5,0.3-1.1,0.6-1.6,0.9c-0.4,0.2-0.7,0.5-1.1,0.7c-0.1,0-0.2,0-0.3,0
				c0-0.1,0-0.2,0-0.3c0.4-0.5,0.8-1.1,1.1-1.6c0.1-0.2,0.2-0.4,0.3-0.6c0.5-0.7,0.9-1.4,1.4-2c0.1-0.1,0.1-0.2,0.1-0.4
				c-0.4,0.1-0.7,0.2-0.9,0.3c-0.8,0.4-1.7,0.4-2.5,0.4c-0.6,0.1-1.2,0-1.8,0c-0.1,0-0.2,0-0.3,0c-0.2,0-0.3,0.1-0.4,0.1
				c-0.2,0-0.3,0-0.5,0.1c0.1-0.3,0.3-0.4,0.5-0.5c0.1,0,0.2-0.1,0.3-0.1c-0.1-0.1-0.1-0.2-0.2-0.3c0-0.1-0.1-0.1-0.2-0.2
				c-0.3-0.3-0.6-0.6-0.9-0.9c-0.4-0.4-0.8-0.8-1.2-1.2c-0.2-0.2-0.2-0.3,0.1-0.4c0.3-0.1,0.5-0.2,0.8-0.3c0.9-0.3,1.8-0.7,2.7-1
				c0.5-0.2,0.6-0.3,0.6-0.7c0-0.1,0-0.2,0-0.3c0.1,0,0.2,0,0.3,0.1c0.2,0.1,0.3,0.3,0.5,0.4c0.7,0.6,1.3,1.2,2,1.8
				c0.6,0.5,1.1,1,1.7,1.5c0.2,0.2,0.3,0.1,0.4-0.1c0.5-0.8,1.1-1.6,1.6-2.5c0.1-0.2,0.2-0.5,0.2-0.7c-0.1-1-0.2-2-0.3-3
				c0-0.2-0.1-0.4-0.2-0.6c-0.3-0.4-0.6-0.7-0.9-1.1c-0.5-0.5-0.9-1.1-1.4-1.6c-0.2-0.3-0.3-0.3-0.6,0c-0.8,0.8-1.6,1.6-2.4,2.5
				c-0.4,0.4-0.8,0.7-1.3,0.9c-0.5,0.2-1,0.5-1.5,0.7c-0.5,0.3-1.1,0.5-1.6,0.8c-0.5,0.2-1,0.5-1.4,0.7c-0.6,0.3-1.1,0.6-1.7,0.8
				c-0.3,0.2-0.4,0.3-0.1,0.6c0.8,0.7,1.6,1.3,2.4,2c0.1,0.1,0.2,0.2,0.2,0.3c0,0-0.2,0.1-0.3,0.2c-0.7,0.3-1.5,0.5-2.2,0.8
				c-0.8,0.3-1.5,0.6-2.2,0.9c-0.3,0.1-0.6,0.3-1,0.3c-0.4,0.1-0.6,0.3-0.8,0.6c-0.4,0.6-0.7,1.2-1.1,1.9c-0.2,0.3-0.4,0.5-0.6,0.8
				c-0.4,0.7-0.9,1.4-1.3,2.1c-0.2,0.3-0.4,0.6-0.6,0.9c-0.2,0.3-0.4,0.5-0.6,0.8c-0.2,0.3,0,0.4,0.3,0.4c0.5,0,1.1,0,1.6,0.1
				c0.3,0,0.6,0.1,0.9,0.1c0.3,0,0.4,0.1,0.5,0.4c0.1,0.5,0.2,0.9,0.2,1.4c0.3,1.9,0.6,3.7,0.9,5.6c0,0.1,0.1,0.2,0.2,0.2
				c0,0,0.2-0.1,0.2-0.1c0.4-0.5,0.8-0.9,1.1-1.4c0.1-0.2,0.3-0.2,0.4,0c0.2,0.3,0.5,0.6,0.7,0.8c0.6,0.7,1.2,1.5,1.7,2.2
				c0.7,0.9,1.4,1.7,2.1,2.6c0.1,0.1,0.3,0.3,0.4,0.4c0,0,0.1,0,0.1,0c0-0.1,0-0.3,0-0.4c-0.1-0.5-0.2-1-0.3-1.5
				c-0.2-0.8-0.3-1.6-0.5-2.4c-0.3-1.3-0.5-2.5-0.8-3.8c-0.1-0.5-0.2-1-0.3-1.5c0-0.1,0-0.2,0-0.3c0,0,0.1,0,0.1,0
				c0,0.1,0.1,0.2,0.1,0.3c0,0.1,0.1,0.3,0.1,0.4c0.3,0.7,0.6,1.3,0.8,2c0.3,0.6,0.5,1.3,0.7,1.9c0.4,0.9,0.7,1.8,1.1,2.7
				c0.3,0.8,0.6,1.5,0.9,2.3c0.4,0.9,0.7,1.9,1.1,2.8c0.4,1,0.8,2,1.2,3c0.1,0.2,0.2,0.2,0.4,0.1c0.3-0.2,0.5-0.4,0.8-0.6
				c0.2-0.1,0.3-0.2,0.5,0c0.3,0.3,0.5,0.5,0.8,0.8c0.9,1,1.9,2,2.8,3c0.6,0.6,1.1,1.2,1.7,1.8c1,1.1,2,2.2,3,3.2
				c0.5,0.6,1.1,1.1,1.6,1.7c0.1,0.1,0.3,0.1,0.4,0c0.3-0.4,0.5-0.8,0.8-1.3c0.6-0.9,1.2-1.9,1.8-2.8c0.6-0.9,1.1-1.8,1.6-2.7
				c0.5-0.9,1.1-1.7,1.6-2.5c0.6-1,1.2-2,1.8-2.9c0.1-0.2,0.3-0.2,0.5-0.1c0.3,0.1,0.5,0.3,0.8,0.4c0.2,0.1,0.4,0.1,0.4-0.2
				c0.1-0.4,0.1-0.7,0.2-1.1c0.1-0.7,0.3-1.4,0.4-2c0.1-0.7,0.2-1.4,0.4-2.1c0.2-1.1,0.4-2.2,0.6-3.3c0.1-0.3,0.1-0.6,0.2-0.9
				c0.1-0.7,0.3-1.4,0.4-2.1c0.1-0.7,0.3-1.4,0.4-2.2c0.1-0.4,0.2-0.8,0.2-1.2c0.1-0.4,0.1-0.8,0.2-1.2c0-0.1,0.1-0.1,0.1-0.2
				c0.2,0.1,0.2,0.3,0.2,0.5c0,1.2,0,2.4,0,3.6c0,0.3,0,0.5,0,0.8c0,1.1,0,2.1,0,3.2c0,0.1,0,0.1,0,0.2c0,0.5,0,1,0,1.6
				c0,0.1,0.1,0.2,0.1,0.2c0,0,0.1,0,0.1,0c0,0,0-0.1,0-0.1c0.3-0.5,0.6-1.1,0.8-1.6c0.7-1.3,1.4-2.6,2.1-3.9
				c0.2-0.4,0.4-0.8,0.7-1.2c0.1-0.2,0.3-0.2,0.4-0.1c0.5,0.4,0.9,0.7,1.4,1.1c0.1,0.1,0.2,0.1,0.3,0.1c0-0.1,0.1-0.2,0.1-0.3
				c-0.1-2.1-0.1-4.2-0.2-6.3c0-0.3,0-0.5,0-0.8c-0.1-0.3,0.1-0.4,0.3-0.5c0.3-0.1,0.7-0.1,1-0.2c0.5-0.2,1-0.3,1.6-0.5
				c0.1,0,0.2-0.2,0.1-0.3c-0.3-0.3-0.5-0.6-0.8-0.9c-0.7-0.7-1.5-1.5-2.2-2.2c-0.6-0.7-1.3-1.3-1.9-2c-0.5-0.5-0.9-1-1.7-1
				c0,0-0.1,0-0.1,0c-0.4-0.1-0.8-0.1-1.2-0.2c-0.8-0.1-1.5-0.2-2.3-0.3c-0.6-0.1-1.2-0.2-1.8-0.3
				C366.1,238.4,366,238.4,365.9,238.4z M369.5,223.6c0.1,0.1,0.1,0.2,0.2,0.3c0.1,0.6,0.3,1.1,0.4,1.7c0.2,0.8,0.4,1.6,0.6,2.4
				c0,0.1,0.1,0.2,0.1,0.3c0.1-0.1,0.2-0.1,0.3-0.2c0.5-0.7,1-1.5,1.6-2.2c0.4-0.5,0.3-0.9,0.1-1.4c-0.1-0.2-0.2-0.4-0.2-0.6
				c-0.2-0.6-0.3-1.1-0.5-1.7c-0.1-0.3-0.2-0.7-0.3-1c-0.2-0.5-0.3-0.9-0.5-1.4c-0.2-0.7-0.5-1.3-0.7-2c-0.3-0.8-0.7-1.5-1.1-2.3
				c-0.4-0.8-0.8-1.6-1.3-2.3c-0.4-0.6-0.9-1.2-1.3-1.8c-0.9-1.1-1.9-2.1-3.1-2.8c-0.2-0.1-0.3-0.1-0.4,0c-0.2,0.2-0.3,0.4-0.5,0.5
				c-1,1-1.8,2.2-2.5,3.4c-0.4,0.7-0.7,1.4-1,2.2c-0.2,0.6-0.5,1.2-0.7,1.8c0,0.1,0,0.3,0,0.4c0.5,0.7,0.9,1.4,1.4,2
				c0.3,0.5,0.7,1,1,1.5c0.1,0.1,0.1,0.2,0.1,0.3c-0.1,0-0.1,0-0.1,0c-0.9-0.4-1.8-0.8-2.7-1.2c-0.1-0.1-0.3,0-0.4,0
				c0.1,0.1,0.1,0.2,0.2,0.3c0.5,0.6,1.1,1.2,1.7,1.7c0.5,0.5,1,1.1,1.5,1.6c0.4,0.5,0.8,0.9,1.3,1.4c0.1,0.1,0.3,0.1,0.4-0.1
				c0.1-0.3,0.1-0.6,0.2-0.9c0.1-0.4,0.1-0.8,0.2-1.3c0.1-0.7,0.3-1.3,0.4-2c0.1-0.7,0.2-1.4,0.4-2.1c0.1-0.8,0.3-1.6,0.4-2.4
				c0-0.2,0.1-0.4,0.3-0.4c0.1,0.2,0.1,0.4,0.2,0.5c0.1,0.2,0.1,0.5,0.2,0.8c0.2,0.7,0.4,1.4,0.6,2c0.2,0.8,0.4,1.5,0.6,2.3
				c0.2,0.5,0.3,1.1,0.5,1.6c0.3,0.9,0.5,1.8,0.8,2.7c0,0.1,0.1,0.2,0.1,0.2c0.1,0,0.2-0.1,0.2-0.1c0.1-0.1,0.2-0.3,0.3-0.5
				C368.8,224.5,369.2,224.1,369.5,223.6z M336.6,218.2C336.6,218.2,336.6,218.2,336.6,218.2c0.2,0.1,0.3,0.2,0.4,0.3
				c0.3,0.7,0.5,1.3,0.8,2c0.1,0.3,0.2,0.6,0.4,0.9c0.2,0.5,0.4,0.9,0.6,1.4c0.2,0.6,0.5,1.2,0.7,1.7c0.3,0.7,0.6,1.4,0.9,2.1
				c0,0.1,0.1,0.2,0.2,0.2c0.1,0,0.2-0.1,0.3-0.2c0.1-0.2,0.2-0.4,0.3-0.6c0.3-0.5,0.6-0.9,0.9-1.4c0.4-0.6,0.8-1.3,1.2-1.9
				c0.3-0.5,0.7-1.1,1-1.6c0-0.1,0-0.2,0-0.3c-0.1,0-0.2,0-0.3,0c-0.2,0.1-0.4,0.3-0.6,0.4c-0.7,0.5-1.3,0.9-2,1.4
				c0-0.2,0-0.3,0.1-0.3c0.1-0.2,0.2-0.4,0.3-0.6c0.2-0.5,0.4-1,0.7-1.5c0.3-0.6,0.6-1.2,0.8-1.9c0-0.1,0-0.2,0-0.3
				c-0.3-0.5-0.6-1-0.9-1.5c-0.4-0.6-0.8-1.2-1.3-1.7c-0.6-0.7-1.1-1.4-1.7-2c-0.6-0.6-1.3-1.1-2-1.6c-0.4-0.3-0.4-0.3-0.7,0
				c-0.9,0.8-1.6,1.8-2.2,2.9c-0.6,1-1.1,2.1-1.4,3.2c-0.3,0.9-0.6,1.8-0.8,2.7c-0.2,0.9-0.4,1.8-0.5,2.7c-0.1,0.3-0.1,0.7-0.2,1
				c-0.1,0.5-0.2,1.1-0.2,1.6c-0.1,0.5-0.1,1-0.2,1.6c-0.1,0.6-0.1,1.3-0.2,1.9c0,0.3,0.1,0.6,0.4,0.8c0.6,0.5,1.1,1,1.6,1.5
				c0.2,0.2,0.3,0.3,0.5,0.5c0.1,0.1,0.2,0.1,0.3,0.1c0,0,0.1-0.1,0.1-0.2c0-0.4,0.1-0.9,0.1-1.3c0.1-1,0.1-2.1,0.2-3.1
				c0-0.1,0.1-0.1,0.1-0.2c0.5,0.5,1,1,1.5,1.5c0.1,0.1,0.2,0.1,0.3,0.2c0,0,0.1-0.1,0.1-0.2c0.1-0.9,0.1-1.8,0.2-2.7
				c0-0.6,0.1-1.3,0.1-1.9c0.1-0.7,0.1-1.4,0.2-2c0-0.5,0.1-0.9,0.1-1.4c0-0.7,0.1-1.3,0.1-2C336.5,218.4,336.6,218.3,336.6,218.2z
				 M342.9,240.7C343,240.7,343,240.7,342.9,240.7c0.2,0.9,0.9,1.5,1.8,1.3c0.3-0.1,0.6-0.1,0.8-0.2c0.5-0.3,0.6-0.8,0.6-1.3
				c0-0.5-0.2-0.8-0.8-0.8c-0.2,0-0.4,0-0.6,0c-0.4,0-0.8,0-1.2,0c-0.1,0-0.3,0.1-0.3,0.2C343.1,240.1,343,240.4,342.9,240.7z
				 M363.2,238.7c0-0.1,0-0.3-0.1-0.4c-0.1-0.3-0.3-0.6-0.5-0.6c-0.4,0-0.8,0.1-1.2,0.2c-0.1,0-0.2,0.2-0.1,0.3
				c0,0.1,0.1,0.3,0.2,0.3c0.1,0,0.3-0.1,0.4-0.1c0.2-0.1,0.3-0.1,0.4,0.1c0,0.2-0.1,0.6-0.3,0.6c-0.2,0.1-0.5,0.2-0.8,0
				c-0.2-0.2-0.3-0.4-0.2-0.8c0.1-0.2,0-0.3-0.2-0.3c-0.5,0.1-0.7,0.5-0.6,1.1c0.1,0.5,0.4,0.9,0.9,1c0.5,0.1,1,0,1.5,0
				c0,0,0.1,0,0.1-0.1C363,239.7,363.3,239.3,363.2,238.7z"/>
			<path class="st8" d="M365.9,238.4c0.2,0,0.2,0,0.3,0.1c0.6,0.1,1.2,0.2,1.8,0.3c0.8,0.1,1.5,0.2,2.3,0.3c0.4,0.1,0.8,0.1,1.2,0.2
				c0,0,0.1,0,0.1,0c0.8,0,1.2,0.4,1.7,1c0.6,0.7,1.3,1.4,1.9,2c0.7,0.7,1.5,1.5,2.2,2.2c0.3,0.3,0.5,0.6,0.8,0.9
				c0.1,0.2,0,0.3-0.1,0.3c-0.5,0.2-1,0.3-1.6,0.5c-0.3,0.1-0.7,0.2-1,0.2c-0.2,0.1-0.4,0.2-0.3,0.5c0.1,0.2,0,0.5,0,0.8
				c0.1,2.1,0.2,4.2,0.2,6.3c0,0.1-0.1,0.2-0.1,0.3c-0.1,0-0.2-0.1-0.3-0.1c-0.5-0.4-0.9-0.7-1.4-1.1c-0.2-0.1-0.3-0.2-0.4,0.1
				c-0.2,0.4-0.5,0.8-0.7,1.2c-0.7,1.3-1.4,2.6-2.1,3.9c-0.3,0.5-0.6,1.1-0.8,1.6c0,0,0,0.1,0,0.1c0,0-0.1,0-0.1,0
				c0-0.1-0.1-0.2-0.1-0.2c0-0.5,0-1,0-1.6c0-0.1,0-0.1,0-0.2c0-1.1,0-2.1,0-3.2c0-0.3,0-0.5,0-0.8c0-1.2,0-2.4,0-3.6
				c0-0.2,0.1-0.4-0.2-0.5c0,0.1-0.1,0.1-0.1,0.2c-0.1,0.4-0.1,0.8-0.2,1.2c-0.1,0.4-0.1,0.8-0.2,1.2c-0.1,0.7-0.3,1.5-0.4,2.2
				c-0.1,0.7-0.3,1.4-0.4,2.1c-0.1,0.3-0.1,0.6-0.2,0.9c-0.2,1.1-0.4,2.2-0.6,3.3c-0.1,0.7-0.2,1.4-0.4,2.1c-0.1,0.7-0.3,1.4-0.4,2
				c-0.1,0.4-0.1,0.7-0.2,1.1c0,0.3-0.2,0.3-0.4,0.2c-0.3-0.2-0.5-0.3-0.8-0.4c-0.2-0.1-0.3-0.1-0.5,0.1c-0.6,1-1.2,2-1.8,2.9
				c-0.5,0.9-1.1,1.7-1.6,2.5c-0.6,0.9-1.1,1.8-1.6,2.7c-0.6,0.9-1.2,1.9-1.8,2.8c-0.3,0.4-0.5,0.8-0.8,1.3c-0.1,0.2-0.3,0.2-0.4,0
				c-0.5-0.6-1.1-1.1-1.6-1.7c-1-1.1-2-2.2-3-3.2c-0.6-0.6-1.1-1.2-1.7-1.8c-0.9-1-1.9-2-2.8-3c-0.3-0.3-0.5-0.6-0.8-0.8
				c-0.1-0.2-0.3-0.1-0.5,0c-0.3,0.2-0.5,0.4-0.8,0.6c-0.1,0.1-0.3,0.1-0.4-0.1c-0.4-1-0.8-2-1.2-3c-0.4-0.9-0.7-1.9-1.1-2.8
				c-0.3-0.8-0.6-1.5-0.9-2.3c-0.4-0.9-0.8-1.8-1.1-2.7c-0.3-0.6-0.5-1.3-0.7-1.9c-0.3-0.7-0.6-1.3-0.8-2c-0.1-0.1-0.1-0.3-0.1-0.4
				c0-0.1-0.1-0.2-0.1-0.3c0,0-0.1,0-0.1,0c0,0.1,0,0.2,0,0.3c0.1,0.5,0.2,1,0.3,1.5c0.3,1.3,0.5,2.5,0.8,3.8
				c0.2,0.8,0.3,1.6,0.5,2.4c0.1,0.5,0.2,1,0.3,1.5c0,0.1,0,0.3,0,0.4c0,0-0.1,0-0.1,0c-0.1-0.1-0.3-0.3-0.4-0.4
				c-0.7-0.9-1.4-1.7-2.1-2.6c-0.6-0.7-1.2-1.5-1.7-2.2c-0.2-0.3-0.5-0.6-0.7-0.8c-0.1-0.2-0.3-0.2-0.4,0c-0.4,0.5-0.8,0.9-1.1,1.4
				c-0.1,0.1-0.2,0.2-0.2,0.1c-0.1,0-0.2-0.1-0.2-0.2c-0.3-1.9-0.6-3.7-0.9-5.6c-0.1-0.5-0.2-0.9-0.2-1.4c0-0.3-0.2-0.4-0.5-0.4
				c-0.3,0-0.6-0.1-0.9-0.1c-0.5,0-1.1-0.1-1.6-0.1c-0.3,0-0.4-0.2-0.3-0.4c0.2-0.3,0.4-0.5,0.6-0.8c0.2-0.3,0.4-0.6,0.6-0.9
				c0.4-0.7,0.9-1.4,1.3-2.1c0.2-0.3,0.4-0.5,0.6-0.8c0.4-0.6,0.8-1.2,1.1-1.9c0.2-0.3,0.4-0.6,0.8-0.6c0.3-0.1,0.6-0.2,1-0.3
				c0.7-0.3,1.5-0.6,2.2-0.9c0.7-0.3,1.5-0.5,2.2-0.8c0.1,0,0.3-0.1,0.3-0.2c0-0.1-0.1-0.3-0.2-0.3c-0.8-0.7-1.6-1.3-2.4-2
				c-0.3-0.2-0.2-0.4,0.1-0.6c0.6-0.3,1.1-0.6,1.7-0.8c0.5-0.2,1-0.5,1.4-0.7c0.5-0.3,1.1-0.5,1.6-0.8c0.5-0.2,1-0.5,1.5-0.7
				c0.5-0.2,0.9-0.5,1.3-0.9c0.8-0.8,1.6-1.7,2.4-2.5c0.3-0.3,0.4-0.3,0.6,0c0.5,0.6,0.9,1.1,1.4,1.6c0.3,0.4,0.6,0.7,0.9,1.1
				c0.1,0.2,0.2,0.4,0.2,0.6c0.1,1,0.2,2,0.3,3c0,0.2-0.1,0.5-0.2,0.7c-0.5,0.8-1,1.7-1.6,2.5c-0.1,0.2-0.3,0.2-0.4,0.1
				c-0.6-0.5-1.1-1-1.7-1.5c-0.7-0.6-1.3-1.2-2-1.8c-0.2-0.1-0.3-0.3-0.5-0.4c-0.1-0.1-0.2-0.1-0.3-0.1c0,0.1,0,0.2,0,0.3
				c0,0.4,0,0.5-0.6,0.7c-0.9,0.4-1.8,0.7-2.7,1c-0.3,0.1-0.5,0.2-0.8,0.3c-0.3,0.1-0.3,0.2-0.1,0.4c0.4,0.4,0.8,0.8,1.2,1.2
				c0.3,0.3,0.6,0.6,0.9,0.9c0.1,0.1,0.1,0.1,0.2,0.2c0.1,0.1,0.1,0.2,0.2,0.3c-0.1,0.1-0.2,0.1-0.3,0.1c-0.3,0-0.4,0.2-0.5,0.5
				c0.2,0,0.4,0,0.5-0.1c0.2,0,0.3-0.1,0.4-0.1c0.1,0,0.2,0,0.3,0c0.6,0,1.2,0,1.8,0c0.9-0.1,1.7-0.1,2.5-0.4
				c0.3-0.1,0.6-0.2,0.9-0.3c0,0.2,0,0.3-0.1,0.4c-0.5,0.7-1,1.4-1.4,2c-0.1,0.2-0.2,0.4-0.3,0.6c-0.4,0.6-0.8,1.1-1.1,1.6
				c0,0.1,0,0.2,0,0.3c0.1,0,0.2,0,0.3,0c0.4-0.2,0.7-0.5,1.1-0.7c0.5-0.3,1.1-0.6,1.6-0.9c0.5-0.3,1-0.6,1.5-0.9
				c0.3-0.1,0.5-0.3,0.8-0.4c0.3-0.1,0.4,0,0.4,0.3c-0.1,0.5-0.2,1-0.3,1.5c0,0.1,0,0.1,0,0.2c0,0.5,0,1.1-0.1,1.6
				c0,0.1,0,0.1,0,0.2c-0.3,0.6-0.1,1.3-0.2,2c-0.1,0.6-0.1,1.1-0.2,1.7c0,0.2,0.1,0.2,0.2,0.2c0.1,0,0.1-0.1,0.2-0.1
				c0.9-0.7,1.9-1.3,3.1-1.5c0.7-0.1,1.3-0.1,2,0.1c0.6,0.2,1.2,0.4,1.7,0.6c0.1,0,0.2,0.1,0.3,0.1c0.1,0,0.2,0,0.3,0
				c0-0.1,0-0.2,0-0.2c-0.2-0.6-0.3-1.1-0.5-1.7c-0.2-0.6-0.4-1.1-0.5-1.7c-0.1-0.4-0.2-0.8-0.4-1.2c-0.2-0.5-0.3-1.1-0.5-1.6
				c-0.1-0.2-0.1-0.3-0.2-0.5c0-0.1-0.1-0.3,0-0.4c0.1-0.1,0.3,0,0.4,0c0.7,0.1,1.2,0.5,1.9,0.7c0.3,0.1,0.5,0.1,0.8,0.2
				c0.6,0.2,1.3,0.5,1.9,0.7c0.2,0.1,0.5,0.2,0.7,0.2c0.1,0,0.1,0,0.2-0.1c0-0.1,0-0.1-0.1-0.2c-0.5-0.5-1-1-1.4-1.5
				c-0.3-0.4-0.7-0.8-1-1.1c-0.4-0.4-0.7-0.7-1.1-1.1c-0.1-0.1-0.2-0.2-0.3-0.4c0.1,0,0.2,0,0.2,0c1.2,0.4,2.5,0.2,3.7,0
				c0.5-0.1,0.9-0.1,1.4-0.1c0.3,0,0.6-0.1,0.9-0.2c0,0,0.1-0.1,0.1-0.1c0-0.1-0.1-0.1-0.1-0.2c-0.1,0-0.1,0-0.2,0
				c-0.2,0-0.3-0.2-0.2-0.4c0.6-0.8,1.1-1.6,1.7-2.5c0,0,0,0,0,0c0.1-0.2,0.1-0.3,0.2-0.5c-0.2,0-0.3-0.1-0.5-0.1
				c-0.4-0.1-0.8-0.2-1.2-0.2c-0.4-0.1-0.9-0.2-1.3-0.2c-0.4-0.1-0.9-0.2-1.3-0.3c-0.2,0-0.3-0.2-0.3-0.4c0-0.1-0.1-0.2-0.1-0.3
				c-0.1,0.1-0.2,0.1-0.3,0.2c-0.7,0.9-1.4,1.8-2,2.7c-0.5,0.6-0.9,1.2-1.4,1.8c-0.1,0.2-0.3,0.1-0.4,0c-0.6-0.6-1.2-1.3-1.8-1.9
				c-0.4-0.4-0.6-0.8-0.6-1.3c0-0.9-0.2-1.7-0.2-2.6c0-0.3,0.1-0.6,0.3-0.9c0.4-0.9,0.9-1.7,1.4-2.5c0.1-0.1,0.2-0.3,0.2-0.4
				c0.1-0.2,0.2-0.2,0.4-0.1c0.8,0.5,1.5,1.1,2.3,1.6c0.4,0.3,0.7,0.5,1.1,0.8c0.3,0.2,0.7,0.3,1.1,0.4c0.6,0.2,1.1,0.3,1.7,0.5
				c0.5,0.1,1,0.3,1.6,0.4c0.6,0.2,1.1,0.3,1.7,0.5c0.6,0.1,1.1,0.3,1.7,0.4c0.1,0,0.1,0,0.2,0c0.2,0.1,0.3,0.2,0.1,0.4
				c-0.3,0.4-0.6,0.8-0.9,1.2c-0.4,0.4-0.7,0.9-1.1,1.3C366,238.1,366,238.2,365.9,238.4z M356.5,274.4c0.7,0,1.4-0.2,2-0.7
				c0.9-0.6,1.5-1.5,2-2.5c0.3-0.6,0.5-1.3,0.7-2c0.1-0.3,0.2-0.7,0.2-1c0.1-0.4,0.1-0.9,0.2-1.3c0.1-0.5,0.2-1,0.2-1.5
				c0.1-0.6,0.2-1.2,0.3-1.7c0.1-0.9,0.5-1.6,0.9-2.4c0.4-0.9,1-1.8,1.4-2.7c0.4-1,0.7-2,1-3c0.2-0.5,0.3-1,0.5-1.5
				c0.3-0.7,0.6-1.3,1-2c0.2-0.5,0.4-1,0.3-1.5c-0.1-0.3-0.3-0.5-0.6-0.5c-0.8,0-1.2,0.3-1.4,1.1c-0.2,0.9-0.3,1.9-0.3,2.8
				c0,0.5,0,1.1-0.1,1.6c-0.2,1.1-0.6,2.1-1.2,3.1c-0.4,0.7-0.9,1.3-1.4,1.8c-0.4,0.4-0.8,0.7-1.4,0.8c-1.3,0.2-2.6,0.3-3.9-0.1
				c-0.4-0.1-0.8-0.4-1-0.9c-0.2-0.5-0.2-0.9-0.3-1.4c-0.1-0.4,0.1-0.6,0.4-0.8c0.7-0.5,1.3-0.9,1.9-1.4c0.6-0.4,0.8-1,0.8-1.7
				c0-0.6,0-1.2,0-1.8c0-0.2-0.1-0.4-0.3-0.5c-0.3-0.2-0.7-0.3-1-0.5c-0.9-0.3-1.7-0.7-2.7-0.6c-0.8,0-1.6,0.2-2.3,0.6
				c-0.6,0.3-1.1,0.7-1.6,1c-0.4,0.3-0.5,0.4-0.4,0.9c0.1,0.4,0.1,0.8,0.2,1.2c0.1,1,0.7,1.7,1.6,2.1c0.6,0.3,1.2,0.5,1.8,0.8
				c0.3,0.1,0.5,0.4,0.5,0.7c0,0.2,0.1,0.4,0,0.6c0,0.4,0,0.7-0.2,1.1c-0.2,0.6-0.8,1-1.4,1.1c-0.9,0.3-1.8,0.5-2.8,0.6
				c-0.4,0-0.8,0-1.2-0.2c-1-0.4-1.7-1.1-2.4-1.8c-0.4-0.5-0.8-1-1.2-1.6c-0.3-0.4-0.6-0.9-0.7-1.4c-0.3-1-0.5-2.1-0.8-3.2
				c-0.2-0.6-0.4-1.3-1-1.7c-0.3-0.2-0.9-0.2-1.1,0c-0.3,0.2-0.2,0.5-0.2,0.9c0.1,0.6,0.5,1,0.8,1.5c0.4,0.5,0.8,1.1,1.2,1.6
				c0.5,0.8,0.9,1.7,1.4,2.5c0.4,0.6,0.7,1.2,1.2,1.8c0.7,0.9,1.4,1.8,2.1,2.7c0.6,0.9,1.1,1.9,1.4,3c0,0.1,0.1,0.2,0.1,0.4
				c0.2,0.5,0.3,0.9,0.5,1.4c0.1,0.4,0.3,0.9,0.4,1.3c0.2,0.5,0.5,1.1,0.8,1.6c0.4,0.7,0.8,1.4,1.4,1.9
				C353.8,274,355,274.6,356.5,274.4z"/>
			<path class="st8" d="M369.5,223.6c-0.3,0.5-0.7,0.9-1,1.4c-0.1,0.1-0.2,0.3-0.3,0.5c0,0.1-0.1,0.1-0.2,0.1c0,0-0.1-0.1-0.1-0.2
				c-0.3-0.9-0.5-1.8-0.8-2.7c-0.1-0.5-0.3-1.1-0.5-1.6c-0.2-0.8-0.4-1.5-0.6-2.3c-0.2-0.7-0.4-1.4-0.6-2c-0.1-0.2-0.1-0.5-0.2-0.8
				c0-0.2-0.1-0.3-0.2-0.5c-0.3,0.1-0.3,0.3-0.3,0.4c-0.1,0.8-0.3,1.6-0.4,2.4c-0.1,0.7-0.2,1.4-0.4,2.1c-0.1,0.7-0.3,1.3-0.4,2
				c-0.1,0.4-0.1,0.8-0.2,1.3c-0.1,0.3-0.1,0.6-0.2,0.9c0,0.2-0.2,0.2-0.4,0.1c-0.4-0.5-0.8-0.9-1.3-1.4c-0.5-0.5-1-1.1-1.5-1.6
				c-0.6-0.6-1.1-1.2-1.7-1.7c-0.1-0.1-0.1-0.2-0.2-0.3c0.1,0,0.3,0,0.4,0c0.9,0.4,1.8,0.8,2.7,1.2c0,0,0,0,0.1,0
				c0-0.1-0.1-0.2-0.1-0.3c-0.3-0.5-0.7-1-1-1.5c-0.5-0.7-1-1.4-1.4-2c-0.1-0.1-0.1-0.3,0-0.4c0.2-0.6,0.4-1.2,0.7-1.8
				c0.3-0.7,0.6-1.5,1-2.2c0.6-1.3,1.5-2.4,2.5-3.4c0.2-0.2,0.4-0.3,0.5-0.5c0.1-0.1,0.3-0.1,0.4,0c1.2,0.7,2.2,1.7,3.1,2.8
				c0.5,0.6,0.9,1.2,1.3,1.8c0.5,0.7,0.9,1.5,1.3,2.3c0.4,0.8,0.7,1.5,1.1,2.3c0.3,0.6,0.5,1.3,0.7,2c0.2,0.5,0.4,0.9,0.5,1.4
				c0.1,0.3,0.2,0.7,0.3,1c0.2,0.6,0.3,1.1,0.5,1.7c0.1,0.2,0.1,0.4,0.2,0.6c0.2,0.5,0.2,0.9-0.1,1.4c-0.6,0.7-1.1,1.5-1.6,2.2
				c-0.1,0.1-0.2,0.1-0.3,0.2c0-0.1-0.1-0.2-0.1-0.3c-0.2-0.8-0.4-1.6-0.6-2.4c-0.1-0.6-0.3-1.1-0.4-1.7
				C369.6,223.8,369.6,223.7,369.5,223.6z"/>
			<path class="st8" d="M336.6,218.2c0,0.1,0,0.2,0,0.2c0,0.7-0.1,1.3-0.1,2c0,0.5-0.1,0.9-0.1,1.4c-0.1,0.7-0.1,1.4-0.2,2
				c-0.1,0.6-0.1,1.3-0.1,1.9c-0.1,0.9-0.1,1.8-0.2,2.7c0,0.1-0.1,0.2-0.1,0.2c-0.1,0-0.2-0.1-0.3-0.2c-0.5-0.5-1-1-1.5-1.5
				c0,0.1-0.1,0.2-0.1,0.2c-0.1,1-0.1,2.1-0.2,3.1c0,0.4-0.1,0.9-0.1,1.3c0,0.1-0.1,0.2-0.1,0.2c-0.1,0-0.2,0-0.3-0.1
				c-0.2-0.1-0.3-0.3-0.5-0.5c-0.5-0.5-1.1-1-1.6-1.5c-0.2-0.2-0.4-0.5-0.4-0.8c0.1-0.6,0.1-1.3,0.2-1.9c0.1-0.5,0.1-1.1,0.2-1.6
				c0.1-0.5,0.2-1.1,0.2-1.6c0.1-0.3,0.1-0.7,0.2-1c0.2-0.9,0.3-1.8,0.5-2.7c0.2-0.9,0.5-1.8,0.8-2.7c0.3-1.1,0.8-2.2,1.4-3.2
				c0.6-1,1.3-2,2.2-2.9c0.4-0.3,0.4-0.3,0.7,0c0.7,0.5,1.4,1,2,1.6c0.6,0.6,1.2,1.3,1.7,2c0.5,0.6,0.9,1.1,1.3,1.7
				c0.3,0.5,0.6,1,0.9,1.5c0,0.1,0,0.2,0,0.3c-0.3,0.6-0.6,1.2-0.8,1.9c-0.2,0.5-0.4,1-0.7,1.5c-0.1,0.2-0.2,0.4-0.3,0.6
				c0,0.1,0,0.2-0.1,0.3c0.7-0.5,1.4-1,2-1.4c0.2-0.1,0.4-0.3,0.6-0.4c0.1,0,0.2,0,0.3,0c0,0.1,0,0.2,0,0.3c-0.3,0.6-0.7,1.1-1,1.6
				c-0.4,0.6-0.8,1.3-1.2,1.9c-0.3,0.5-0.6,0.9-0.9,1.4c-0.1,0.2-0.2,0.4-0.3,0.6c-0.1,0.1-0.2,0.2-0.3,0.2c0,0-0.1-0.1-0.2-0.2
				c-0.3-0.7-0.6-1.4-0.9-2.1c-0.2-0.6-0.5-1.2-0.7-1.7c-0.2-0.5-0.4-0.9-0.6-1.4c-0.1-0.3-0.2-0.6-0.4-0.9c-0.3-0.7-0.5-1.3-0.8-2
				C336.9,218.4,336.8,218.3,336.6,218.2C336.6,218.2,336.6,218.2,336.6,218.2z"/>
			
				<linearGradient id="SVGID_2_" gradientUnits="userSpaceOnUse" x1="348.3327" y1="247.7472" x2="351.5271" y2="247.7472" gradientTransform="matrix(0.9953 -9.689990e-02 9.689990e-02 0.9953 -27.7479 28.0659)">
				<stop  offset="0" style="stop-color:#CCE0F4"/>
				<stop  offset="6.410000e-02" style="stop-color:#C3DCF2"/>
				<stop  offset="0.1706" style="stop-color:#A9D2EE"/>
				<stop  offset="0.3066" style="stop-color:#80C2E7"/>
				<stop  offset="0.4649" style="stop-color:#47ACDE"/>
				<stop  offset="0.5674" style="stop-color:#1E9CD7"/>
				<stop  offset="0.8652" style="stop-color:#0075BE"/>
				<stop  offset="0.9944" style="stop-color:#005B97"/>
			</linearGradient>
			<path class="st9" d="M342.9,240.7c0.1-0.3,0.1-0.6,0.2-0.8c0-0.1,0.2-0.2,0.3-0.2c0.4,0,0.8,0,1.2,0c0.2,0,0.4,0,0.6,0
				c0.6,0,0.8,0.3,0.8,0.8c0,0.5-0.1,1.1-0.6,1.3c-0.2,0.1-0.5,0.1-0.8,0.2C343.8,242.2,343.1,241.6,342.9,240.7
				C343,240.7,343,240.7,342.9,240.7z M344.2,239.7c-0.1,0.2-0.2,0.2-0.2,0.3c-0.1,0.3,0,0.7,0.3,0.8c0.4,0.1,0.8,0,0.9-0.4
				c0-0.1,0-0.3,0-0.4c-0.1,0-0.2,0.1-0.3,0.1c0,0-0.1,0-0.1,0.1c-0.2,0.1-0.3,0.1-0.4-0.1C344.3,240,344.3,239.9,344.2,239.7z"/>
			
				<linearGradient id="SVGID_3_" gradientUnits="userSpaceOnUse" x1="365.5205" y1="347.0658" x2="368.6637" y2="347.0658" gradientTransform="matrix(0.9953 -9.689990e-02 -9.689990e-02 -0.9953 29.8887 620.0726)">
				<stop  offset="0" style="stop-color:#CCE0F4"/>
				<stop  offset="6.410000e-02" style="stop-color:#C3DCF2"/>
				<stop  offset="0.1706" style="stop-color:#A9D2EE"/>
				<stop  offset="0.3066" style="stop-color:#80C2E7"/>
				<stop  offset="0.4649" style="stop-color:#47ACDE"/>
				<stop  offset="0.5674" style="stop-color:#1E9CD7"/>
				<stop  offset="0.8652" style="stop-color:#0075BE"/>
				<stop  offset="0.9944" style="stop-color:#005B97"/>
			</linearGradient>
			<path class="st10" d="M363.2,238.7c0.1,0.6-0.2,1-0.6,1.4c0,0-0.1,0.1-0.1,0.1c-0.5,0-1,0.1-1.5,0c-0.5-0.1-0.8-0.5-0.9-1
				c-0.2-0.6,0-1,0.6-1.1c0.2-0.1,0.2,0,0.2,0.3c-0.1,0.3,0,0.6,0.2,0.8c0.2,0.2,0.5,0.1,0.8,0c0.2-0.1,0.3-0.5,0.3-0.6
				c0-0.2-0.2-0.2-0.4-0.1c-0.1,0.1-0.3,0.2-0.4,0.1c-0.6-0.2-0.5,0-0.6-0.5c0-0.1,0.4-0.1,0.5-0.1c0.4-0.1,0.8-0.2,1.2-0.2
				c0.3,0,0.4,0.3,0.5,0.6C363.1,238.5,363.1,238.6,363.2,238.7z"/>
			<path class="st7" d="M356.5,274.4c-1.5,0.2-2.7-0.4-3.7-1.4c-0.6-0.6-1.1-1.2-1.4-1.9c-0.3-0.5-0.6-1.1-0.8-1.6
				c-0.2-0.4-0.3-0.8-0.4-1.3c-0.2-0.5-0.3-0.9-0.5-1.4c0-0.1-0.1-0.2-0.1-0.4c-0.3-1.1-0.7-2.1-1.4-3c-0.7-0.9-1.4-1.8-2.1-2.7
				c-0.4-0.6-0.8-1.1-1.2-1.8c-0.5-0.8-0.9-1.7-1.4-2.5c-0.3-0.6-0.8-1.1-1.2-1.6c-0.3-0.5-0.7-0.9-0.8-1.5c0-0.3-0.1-0.6,0.2-0.9
				c0.2-0.2,0.8-0.2,1.1,0c0.6,0.4,0.8,1,1,1.7c0.3,1.1,0.5,2.1,0.8,3.2c0.2,0.5,0.4,1,0.7,1.4c0.4,0.6,0.7,1.1,1.2,1.6
				c0.7,0.8,1.4,1.4,2.4,1.8c0.4,0.2,0.8,0.2,1.2,0.2c0.9-0.1,1.9-0.3,2.8-0.6c0.6-0.2,1.1-0.5,1.4-1.1c0.1-0.3,0.1-0.7,0.2-1.1
				c0-0.2,0-0.4,0-0.6c0-0.4-0.2-0.6-0.5-0.7c-0.6-0.3-1.2-0.5-1.8-0.8c-0.9-0.4-1.5-1.1-1.6-2.1c0-0.4-0.1-0.8-0.2-1.2
				c-0.1-0.5,0-0.6,0.4-0.9c0.5-0.4,1.1-0.7,1.6-1c0.7-0.4,1.5-0.6,2.3-0.6c1-0.1,1.8,0.3,2.7,0.6c0.3,0.1,0.7,0.3,1,0.5
				c0.2,0.1,0.3,0.3,0.3,0.5c0,0.6,0.1,1.2,0,1.8c0,0.7-0.3,1.2-0.8,1.7c-0.6,0.5-1.3,1-1.9,1.4c-0.3,0.2-0.5,0.4-0.4,0.8
				c0.1,0.5,0.2,1,0.3,1.4c0.2,0.5,0.5,0.8,1,0.9c1.3,0.4,2.6,0.3,3.9,0.1c0.5-0.1,1-0.4,1.4-0.8c0.5-0.6,1-1.2,1.4-1.8
				c0.6-0.9,1-2,1.2-3.1c0.1-0.5,0.1-1.1,0.1-1.6c0-0.9,0-1.9,0.3-2.8c0.2-0.7,0.6-1.1,1.4-1.1c0.3,0,0.5,0.2,0.6,0.5
				c0.1,0.5,0,1-0.3,1.5c-0.3,0.7-0.7,1.3-1,2c-0.2,0.5-0.3,1-0.5,1.5c-0.3,1-0.6,2-1,3c-0.4,0.9-0.9,1.8-1.4,2.7
				c-0.4,0.8-0.7,1.5-0.9,2.4c-0.1,0.6-0.2,1.2-0.3,1.7c-0.1,0.5-0.2,1-0.2,1.5c-0.1,0.4-0.1,0.9-0.2,1.3c-0.1,0.4-0.1,0.7-0.2,1
				c-0.2,0.7-0.4,1.3-0.7,2c-0.4,1-1,1.9-2,2.5C357.8,274.2,357.2,274.4,356.5,274.4z"/>
			<path class="st7" d="M344.2,239.7c0.1,0.2,0.1,0.3,0.2,0.3c0.1,0.2,0.3,0.2,0.4,0.1c0,0,0.1-0.1,0.1-0.1c0.1,0,0.2-0.1,0.3-0.1
				c0,0.1,0.1,0.3,0,0.4c-0.1,0.4-0.5,0.6-0.9,0.4c-0.3-0.1-0.4-0.5-0.3-0.8C344,240,344.1,239.9,344.2,239.7z"/>
		</g>
		<g>
			<g>
				<path d="M355.6,265.4c0.4,1.6,0.4,3.3,0.6,4.9c0,0.2,0.3,0.2,0.3,0c-0.2-1.6-0.2-3.3-0.6-4.9
					C355.8,265.2,355.5,265.2,355.6,265.4L355.6,265.4z"/>
			</g>
		</g>
		<g>
			<g>
				<path d="M354.8,265.7c0.1,1.2,0.2,2.3,0.3,3.5c0,0.2,0.3,0.2,0.3,0c-0.1-1.2-0.2-2.3-0.3-3.5
					C355.1,265.5,354.8,265.5,354.8,265.7L354.8,265.7z"/>
			</g>
		</g>
		<g id="j1qhMu_1_">
			<g>
				<path class="st11" d="M349.4,264.6c0-0.2,0-0.4-0.1-0.6c0-0.1,0.1-0.2,0.1-0.3c0.1-0.3,0.2-0.5,0.6-0.5c0.3,0,0.6,0.1,0.9,0.3
					c0.4,0.3,0.9,0.3,1.4,0.5c0.3,0.1,0.6,0.1,0.9,0.2c0.1,0,0.2,0,0.3,0c0.4,0,0.8,0.2,1.1,0.3c0.2,0.1,0.3,0.2,0.3,0.3
					c0.1,0.5,0.2,0.9,0.3,1.4c0.1,0.5,0.1,1,0.2,1.5c0.1,0.3,0.2,0.7,0.2,1c0,0.1,0.1,0.2,0.3,0.2c0-0.6,0-1.3,0-1.9
					c0-0.7,0-1.4,0-2c0-0.5,0.3-0.7,0.7-0.9c0.6-0.3,1.3-0.3,1.8-0.7c0.2-0.2,0.5-0.2,0.7-0.4c0.3-0.2,0.7-0.5,1-0.7
					c0.4-0.3,0.7-0.2,0.9,0.2c0.1,0.2,0.1,0.3,0.2,0.5c0,0.1,0,0.1,0,0.2c0,0.1,0,0.1,0,0.2c0,0.4,0,0.9,0,1.3c0,0.3-0.2,0.7-0.1,1
					c0,0.9-0.3,1.7-0.4,2.6c-0.1,0.6-0.4,1.2-0.5,1.9c-0.1,0.5-0.4,1.1-0.7,1.5c-0.3,0.5-0.7,1-1.2,1.4c-0.5,0.4-0.9,0.7-1.6,0.8
					c-1.3,0.3-2.4,0-3.3-0.8c-0.4-0.3-0.6-0.7-1-1c-0.4-0.4-0.6-0.8-0.9-1.3c-0.2-0.3-0.3-0.6-0.5-0.9c-0.2-0.3-0.3-0.6-0.4-1
					c-0.1-0.2-0.2-0.5-0.3-0.7c-0.1-0.1-0.1-0.3-0.2-0.4c-0.1-0.5-0.3-0.9-0.4-1.4c-0.1-0.3-0.2-0.7-0.3-1
					C349.6,265.1,349.5,264.8,349.4,264.6z"/>
			</g>
		</g>
		<circle class="st8" cx="344.6" cy="240" r="0.4"/>
		<circle class="st8" cx="361.4" cy="238.4" r="0.4"/>
	</g>
</g>
</svg>
