<?xml version="1.0" encoding="utf-8"?>
<!-- Generator: Adobe Illustrator 16.0.0, SVG Export Plug-In . SVG Version: 6.00 Build 0)  -->
<!DOCTYPE svg PUBLIC "-//W3C//DTD SVG 1.1//EN" "http://www.w3.org/Graphics/SVG/1.1/DTD/svg11.dtd">
<svg version="1.1" xmlns="http://www.w3.org/2000/svg" xmlns:xlink="http://www.w3.org/1999/xlink" x="0px" y="0px"
	 width="1476.147px" height="1509.901px" viewBox="0 0 1476.147 1509.901" enable-background="new 0 0 1476.147 1509.901"
	 xml:space="preserve">
<g id="Layer_1">
	<g id="JGHUlX.tif">
		<g>
			<path fill-rule="evenodd" clip-rule="evenodd" d="M792.344,354.231c1.518-12.951,10.686-21.6,18.247-30.852
				c76.634-93.823,153.465-187.496,230.35-281.116c31.136-37.915,42.779-38.642,78.749-4.687
				c105.792,99.856,211.519,199.791,317.153,299.82c35.42,33.542,35.484,45.875,0.1,79.885
				c-87.439,84.027-174.993,167.933-262.71,251.672c-32.14,30.684-43.615,30.628-76.04,0.267
				c-31.845-29.817-62.793-60.613-95.173-89.826c-11.963-10.786-12.451-16.938-0.021-27.608
				c25.789-22.13,49.207-46.865,67.503-75.709c13.13-20.708,19.983-43.804,0.022-63.383c-20.623-20.233-43.028-9.676-62.961,3.559
				c-26.514,17.598-48.634,40.435-67.515,65.69c-14.122,18.902-23.491,17.292-39.077,1.224
				c-29.502-30.434-61.494-58.438-92.226-87.683C797.088,384.387,786.46,372.479,792.344,354.231z"/>
			<path fill-rule="evenodd" clip-rule="evenodd" fill="#42210B" d="M285.658,1218.673
				c-14.481-19.625,212.188-244.17,223.604-255.958c122.938-127,245.581-254.287,368.956-380.86
				c30.562-31.354,56.25-66.268,82.739-100.823c13.829-18.042,31.532-33.361,48.722-48.513
				c13.671-12.057,31.127-17.396,46.278-4.332c16.428,14.163,7.49,32.488-0.949,46.51c-9.208,15.313-21.257,29.946-34.993,41.348
				C882.432,630.228,772.374,771.135,647.9,898.022c-34.735,35.404-68.047,72.219-101.645,108.727
				c-9.812,10.661-227.239,239.114-243.79,233.078C291.261,1239.338,284.952,1228.917,285.658,1218.673z"/>
			<path fill-rule="evenodd" clip-rule="evenodd" fill="#010101" d="M285.658,1218.673c4.74,5.785,9.475,11.572,14.214,17.357
				c13.852,17.767-2.354,26.304-12.019,35.361c-24.732,23.189-36.827,47.554-15.566,79.82c9.551,14.495,5.727,30.963-0.239,45.709
				c-19.474,48.138-57.256,80.182-98.37,108.969c-14.348,10.044-21.399-0.75-29.946-10.751
				c31.372-22.601,61.735-44.762,78.743-80.095c18.017-37.41,12.24-69.345-18.636-98.552c-28.788-27.24-62.002-31.999-96.515-11.79
				c-21.965,12.859-43.109,27.535-52.315,53.365c1.197,16.094-2.44,28.757-21.552,30.49c-18.997-7.695-22.744-20.404-11.459-37.134
				c21.801-32.312,45.751-62.816,78.339-85.155c24.103-16.521,48.384-25.814,77.777-9.294c26.076,14.659,45.887-0.281,63.404-19.653
				C253.073,1224.538,263.202,1206.446,285.658,1218.673z"/>
			<path fill-rule="evenodd" clip-rule="evenodd" fill="#050505" d="M33.457,1388.558c7.18-10.161,14.365-20.324,21.552-30.49
				c31.242,28.352,62.617,56.548,93.605,85.17c6.381,5.895,18.793,12.698,5.998,22.604c-10.213,7.906-20.368,23.323-36.595,6.729
				C90.238,1444.166,61.682,1416.521,33.457,1388.558z"/>
			<path fill-rule="evenodd" clip-rule="evenodd" fill="#B3B3B3" d="M1087.339,102.448
				c-29.704,89.028-93.459,153.35-159.142,216.293C977.773,244.255,1033.708,174.4,1087.339,102.448z"/>
			<path fill-rule="evenodd" clip-rule="evenodd" fill="#B3B3B3" d="M1362.713,386.709
				c-56.366,46.433-112.735,92.86-169.106,139.289c-2.578-3.054-5.157-6.114-7.734-9.169
				c50.714-53.41,103.148-104.799,169.579-139.736C1357.875,380.299,1360.294,383.502,1362.713,386.709z"/>
			<path fill-rule="evenodd" clip-rule="evenodd" fill="#B3B3B3" d="M1025.974,317.803c35.638-48.338,71.283-96.674,106.921-145.012
				c2.856,2.157,5.709,4.316,8.566,6.476c-27.953,54.119-64.885,101.473-106.111,145.598
				C1032.224,322.51,1029.099,320.154,1025.974,317.803z"/>
			<path fill-rule="evenodd" clip-rule="evenodd" fill="#B3B3B3" d="M1150.639,440.849c43.615-43.59,88.504-85.615,143.156-115.624
				c2.154,2.595,4.301,5.194,6.45,7.794c-47.322,38.903-94.646,77.812-141.973,116.718
				C1155.726,446.776,1153.182,443.811,1150.639,440.849z"/>
		</g>
	</g>
	<g id="JGHUlX.tif_1_">
		<g>
			<path fill-rule="evenodd" clip-rule="evenodd" d="M682.786,354.231c-1.518-12.951-10.686-21.6-18.247-30.852
				c-76.634-93.823-153.465-187.496-230.35-281.116C403.053,4.348,391.41,3.621,355.44,37.576
				c-105.792,99.856-211.519,199.791-317.153,299.82c-35.42,33.542-35.484,45.875-0.1,79.885
				c87.439,84.027,174.993,167.933,262.71,251.672c32.14,30.684,43.615,30.628,76.04,0.267
				c31.845-29.817,62.793-60.613,95.173-89.826c11.963-10.786,12.451-16.938,0.021-27.608
				c-25.789-22.129-49.207-46.865-67.503-75.708c-13.13-20.708-19.983-43.804-0.022-63.383c20.623-20.233,43.028-9.676,62.961,3.559
				c26.514,17.598,48.634,40.435,67.515,65.69c14.122,18.902,23.491,17.292,39.077,1.224c29.502-30.434,61.494-58.438,92.226-87.683
				C678.042,384.387,688.669,372.479,682.786,354.231z"/>
			<path fill-rule="evenodd" clip-rule="evenodd" fill="#42210B" d="M1189.472,1218.673
				c14.481-19.625-212.188-244.17-223.604-255.958c-122.938-127-245.581-254.287-368.956-380.86
				c-30.562-31.354-56.25-66.268-82.739-100.822c-13.829-18.042-31.532-33.361-48.722-48.513
				c-13.671-12.057-31.127-17.396-46.278-4.332c-16.428,14.163-7.49,32.488,0.949,46.51c9.208,15.313,21.257,29.946,34.993,41.348
				C592.698,630.228,702.756,771.135,827.23,898.022c34.735,35.404,68.047,72.219,101.645,108.727
				c9.812,10.661,227.239,239.114,243.79,233.078C1183.869,1239.338,1190.178,1228.917,1189.472,1218.673z"/>
			<path fill-rule="evenodd" clip-rule="evenodd" fill="#010101" d="M1189.472,1218.673c-4.74,5.785-9.475,11.572-14.214,17.357
				c-13.852,17.767,2.354,26.304,12.019,35.361c24.732,23.189,36.827,47.554,15.566,79.82c-9.551,14.495-5.727,30.963,0.239,45.709
				c19.474,48.138,57.256,80.182,98.37,108.969c14.348,10.044,21.399-0.75,29.946-10.751
				c-31.372-22.601-61.735-44.762-78.743-80.095c-18.017-37.41-12.24-69.345,18.636-98.552c28.788-27.24,62.002-31.999,96.515-11.79
				c21.965,12.859,43.109,27.535,52.315,53.365c-1.197,16.094,2.44,28.757,21.552,30.49c18.997-7.695,22.744-20.404,11.459-37.134
				c-21.801-32.312-45.751-62.816-78.339-85.155c-24.103-16.521-48.384-25.814-77.777-9.294
				c-26.076,14.659-45.887-0.281-63.404-19.653C1222.057,1224.538,1211.928,1206.446,1189.472,1218.673z"/>
			<path fill-rule="evenodd" clip-rule="evenodd" fill="#050505" d="M1441.673,1388.558c-7.18-10.161-14.365-20.324-21.552-30.49
				c-31.242,28.352-62.617,56.548-93.605,85.17c-6.381,5.895-18.793,12.698-5.998,22.604c10.213,7.906,20.368,23.323,36.595,6.729
				C1384.892,1444.166,1413.448,1416.521,1441.673,1388.558z"/>
			<path fill-rule="evenodd" clip-rule="evenodd" fill="#B3B3B3" d="M387.791,102.448c29.704,89.028,93.459,153.35,159.142,216.293
				C497.357,244.255,441.422,174.4,387.791,102.448z"/>
			<path fill-rule="evenodd" clip-rule="evenodd" fill="#B3B3B3" d="M112.417,386.709c56.366,46.433,112.735,92.86,169.106,139.289
				c2.578-3.054,5.157-6.113,7.734-9.168c-50.714-53.41-103.148-104.8-169.579-139.736
				C117.255,380.299,114.835,383.502,112.417,386.709z"/>
			<path fill-rule="evenodd" clip-rule="evenodd" fill="#B3B3B3" d="M449.156,317.803c-35.638-48.338-71.283-96.674-106.921-145.012
				c-2.856,2.157-5.709,4.316-8.566,6.476c27.953,54.119,64.885,101.473,106.111,145.598
				C442.906,322.51,446.031,320.154,449.156,317.803z"/>
			<path fill-rule="evenodd" clip-rule="evenodd" fill="#B3B3B3" d="M324.491,440.849c-43.615-43.59-88.504-85.615-143.156-115.624
				c-2.154,2.595-4.301,5.194-6.45,7.794c47.322,38.903,94.646,77.812,141.973,116.718
				C319.404,446.776,321.948,443.811,324.491,440.849z"/>
		</g>
	</g>
</g>
<g id="Layer_2">
	<g id="WjzJxt_1_">
		<g>
			<path fill-rule="evenodd" clip-rule="evenodd" d="M1086.529,1029.79c-3.45,0-6.909,0.138-10.351-0.04
				c-3.147-0.163-4.808,1.463-5.81,4.115c-5.058,13.385-10.028,26.803-15.163,40.157c-5.086,13.224-10.404,26.357-15.483,39.583
				c-4.237,11.026-8.274,22.129-12.396,33.198c-0.934,2.511-1.82,5.04-2.781,7.542c-1.513,3.943-3.551,4.515-6.627,1.749
				c-4.168-3.747-8.246-7.595-12.361-11.399c-2.531-2.341-4.065-2.095-5.864,0.792c-9.672,15.506-19.39,30.983-29.054,46.494
				c-7.048,11.312-14.014,22.677-21.061,33.989c-6.875,11.039-13.842,22.018-20.705,33.063c-5.33,8.579-10.545,17.228-15.844,25.825
				c-4.684,7.598-9.393,15.181-14.134,22.743c-2.17,3.462-3.542,3.494-6.688,0.796c-5.308-4.553-10.661-9.064-16.2-13.327
				c-0.864-0.665-3.381-0.512-4.173,0.254c-13.298,12.864-26.46,25.869-39.622,38.875c-28.606,28.265-57.189,56.553-85.803,84.813
				c-2.881,2.846-4.191,2.717-7.289-0.349c-28.349-28.06-56.682-56.136-85.063-84.164c-13.169-13.003-26.457-25.89-39.636-38.886
				c-1.709-1.685-3.165-1.901-4.997-0.338c-5.723,4.889-11.452,9.77-17.245,14.574c-2.3,1.907-3.688-0.192-4.69-1.658
				c-2.365-3.455-4.413-7.127-6.605-10.699c-5.121-8.336-10.232-16.679-15.384-24.996c-4.244-6.85-8.541-13.669-12.814-20.499
				c-3.938-6.293-7.875-12.584-11.812-18.877c-6.953-11.111-13.887-22.236-20.864-33.333c-5.431-8.634-10.964-17.202-16.363-25.854
				c-3.982-6.382-7.805-12.864-11.731-19.28c-1.958-3.201-3.972-6.368-5.995-9.527c-1.616-2.524-3.24-2.688-5.455-0.615
				c-4.169,3.907-8.298,7.855-12.517,11.706c-2.905,2.65-5.039,2.104-6.517-1.604c-1.071-2.69-1.983-5.445-3.025-8.149
				c-3.66-9.508-7.396-18.986-11.008-28.513c-3.961-10.446-7.755-20.956-11.735-31.396c-3.366-8.828-6.938-17.576-10.338-26.393
				c-3.212-8.331-6.392-16.677-9.439-25.069c-1.7-4.688-2.308-5.383-7.117-5.29c-6.684,0.127-13.366,0.361-20.046,0.639
				c-3.478,0.146-4.788-1.326-3.259-4.481c2.999-6.19,6.349-12.21,9.483-18.338c3.474-6.785,6.976-13.562,10.267-20.435
				c3.191-6.665,6.015-13.504,9.242-20.149c1.152-2.371,3.332-4.242,4.488-6.611c2.727-5.584,5.05-11.364,7.689-16.994
				c0.808-1.722,2.251-3.138,3.153-4.826c3.938-7.368,7.777-14.787,11.661-22.186c2.392-4.555,4.765-9.122,7.21-13.65
				c1.105-2.048,1.369-3.732-0.919-5.249c-3.666-2.43-7.084-5.258-10.859-7.494c-3.056-1.812-2.368-3.757-0.802-5.8
				c3.537-4.612,7.227-9.104,10.855-13.645c6.045-7.562,12.105-15.111,18.133-22.688c6.559-8.246,13.069-16.529,19.628-24.774
				c6.971-8.763,13.972-17.502,20.959-26.249c1.533-1.922,1.729-3.676-0.01-5.758c-6.834-8.181-13.462-16.531-20.334-24.677
				c-1.905-2.258-2.718-4.576-2.353-7.405c0.868-6.727,1.536-13.487,2.66-20.17c2.482-14.752,5.021-29.499,7.878-44.182
				c1.848-9.489,3.97-18.955,6.569-28.263c2.949-10.548,6.367-20.978,9.961-31.327c2.853-8.218,5.938-16.39,9.532-24.304
				c4.616-10.169,9.492-20.258,14.916-30.014c4.894-8.8,10.224-17.441,16.177-25.552c8.407-11.454,17.688-22.249,28.271-31.824
				c1.359-1.229,2.929-2.282,4.062-3.688c1.816-2.252,3.678-1.985,5.585-0.444c6.932,5.601,14.084,10.969,20.646,16.978
				c11.55,10.575,21.369,22.75,30.603,35.351c5.907,8.062,11.726,16.24,16.862,24.8c7.463,12.438,14.427,25.186,21.289,37.969
				c2.834,5.276,4.982,10.938,7.206,16.518c2.238,5.619,3.534,6.309,9.254,4.824c2.794-0.727,5.727-0.921,8.595-1.363
				c18.518-2.854,37.181-3.322,55.814-2.335c11.357,0.603,22.652,2.597,33.939,4.224c4.054,0.583,5.137,0.485,6.904-3.326
				c3.198-6.902,6.012-13.993,9.461-20.765c4.975-9.764,9.855-19.641,15.711-28.877c8.564-13.516,17.403-26.933,27.139-39.611
				c11.545-15.034,24.416-28.994,39.753-40.409c1.81-1.347,3.564-2.771,5.406-4.071c2.079-1.466,3.868-1.533,5.983,0.451
				c10.707,10.046,20.795,20.635,29.627,32.388c8.673,11.539,16.353,23.704,22.812,36.611c4.467,8.927,9.209,17.759,12.952,26.989
				c4.558,11.24,8.346,22.806,12.188,34.322c2.717,8.146,5.123,16.404,7.386,24.688c1.528,5.594,2.603,11.313,3.815,16.991
				c1.011,4.73,1.973,9.475,2.877,14.228c1.59,8.358,3.364,16.69,4.608,25.101c1.467,9.906,2.528,19.873,3.554,29.836
				c0.146,1.432-0.527,3.281-1.449,4.436c-6.654,8.319-13.427,16.546-20.253,24.727c-2.92,3.501-2.992,4.636-0.043,8.249
				c5.578,6.839,11.144,13.69,16.659,20.579c10.691,13.353,21.359,26.723,32.002,40.113c6.624,8.336,13.188,16.721,19.771,25.088
				c2.072,2.634,1.94,4.075-0.782,6.058c-3.47,2.524-7.02,4.941-10.561,7.368c-2.294,1.571-2.066,3.422-0.93,5.607
				c4.406,8.482,8.625,17.063,13.139,25.488c3.273,6.11,7.071,11.943,10.316,18.068c2.2,4.159,3.667,8.701,5.776,12.914
				c5.923,11.83,12.018,23.57,18.026,35.354c4.399,8.625,8.76,17.27,13.156,25.893c0.831,1.63,1.849,3.166,2.616,4.82
				c1.522,3.285,0.356,5.007-3.204,4.859c-3.554-0.148-7.109-0.316-10.663-0.476
				C1086.532,1029.876,1086.532,1029.834,1086.529,1029.79z M894.671,899.133c1.111-1.854,1.7-3.389,2.745-4.487
				c4.609-4.836,9.359-9.537,14.038-14.307c4.151-4.232,8.339-8.435,12.388-12.763c1.974-2.109,1.538-3.801-1.053-5.051
				c-0.767-0.37-1.654-0.482-2.464-0.775c-6.364-2.301-12.743-4.566-19.077-6.946c-6.333-2.379-12.61-4.907-18.933-7.317
				c-5.923-2.257-11.874-4.438-17.807-6.665c-6.427-2.411-12.885-4.745-19.256-7.292c-4.17-1.668-8.507-3.198-12.233-5.615
				c-4.488-2.913-8.447-6.655-12.564-10.122c-8.316-6.995-16.567-14.066-24.885-21.058c-1.791-1.504-3.454-1.479-4.793,0.801
				c-0.974,1.655-2.193,3.167-3.292,4.751c-6.487,9.361-13.137,18.615-19.359,28.151c-1.982,3.035-3.835,6.766-3.999,10.261
				c-0.477,10.22,0.4,20.508-0.181,30.717c-0.371,6.494,1.73,11.407,5.639,16.18c6.468,7.896,12.658,16.022,19.052,23.982
				c1.285,1.6,2.83,2.119,4.581,0.168c5.968-6.651,12.007-13.239,18.087-19.788c8.939-9.631,17.915-19.231,26.959-28.765
				c0.785-0.827,2.195-1.062,3.314-1.572c0.316,1.057,0.962,2.139,0.887,3.168c-0.202,2.796,0.789,4.424,3.561,5.24
				c5.038,1.486,9.99,3.248,15.009,4.795c4.921,1.517,9.882,2.906,14.821,4.363c4.641,1.366,9.287,2.71,13.906,4.143
				c1.872,0.58,3.678,1.366,5.515,2.06c-0.982,1.855-1.964,3.712-2.949,5.565c-0.049,0.09-0.157,0.146-0.226,0.229
				c-7.584,8.938-15.188,17.857-22.732,26.828c-1.776,2.112-0.931,4.155,1.755,4.604c0.74,0.123,1.615,0.059,2.179,0.444
				c0.607,0.415,1.196,1.231,1.259,1.922c0.037,0.403-0.919,1.199-1.52,1.306c-3.474,0.621-6.961,1.387-10.468,1.539
				c-5.454,0.237-10.947-0.286-16.391,0.058c-14.746,0.933-29.455,1.969-43.635-3.688c-0.596-0.238-1.395,0.04-2.871,0.118
				c1.088,1.912,1.717,3.491,2.747,4.74c3.824,4.638,7.923,9.055,11.646,13.771c3.64,4.612,6.803,9.602,10.434,14.222
				c4.977,6.337,10.209,12.47,15.285,18.731c0.396,0.49,0.408,1.293,0.599,1.952c-0.773,0.192-1.671,0.734-2.303,0.515
				c-2.837-0.981-5.646-2.072-8.375-3.321c-7.303-3.341-14.524-6.858-21.85-10.149c-2.995-1.345-6.173-2.284-9.266-3.417
				c-7.333-2.684-13.458-7.976-21.148-9.854c-1.566-0.382-3.923-0.938-4.715-0.172c-0.894,0.86-0.704,3.165-0.483,4.774
				c0.285,2.101,1.195,4.109,1.604,6.203c1.274,6.537,2.4,13.104,3.66,19.644c0.916,4.746,1.921,9.472,2.943,14.196
				c1.476,6.822,3.081,13.619,4.486,20.457c1.362,6.63,2.565,13.294,3.778,19.956c0.156,0.858-0.054,1.784-0.093,2.679
				c-1.119-0.061-2.329,0.126-3.334-0.245c-1.174-0.437-2.098-1.509-3.251-2.044c-6.523-3.031-12.98-6.246-19.66-8.895
				c-7.251-2.875-14.891-4.507-22.74-3.724c-13.888,1.387-26.33,6.915-38.191,13.952c-0.818,0.484-1.669,1.077-2.569,1.226
				c-1.633,0.271-2.608,0.011-2.076-2.271c1.509-6.477,2.3-13.142,4.132-19.515c2.193-7.632,0.648-16.034,4.988-23.182
				c0.359-0.59,0.235-1.471,0.339-2.216c0.868-6.248,1.73-12.494,2.618-18.739c0.091-0.635,0.339-1.246,0.512-1.87
				c1.562-5.644,3.241-11.259,4.643-16.943c0.82-3.333-0.839-4.962-4.035-3.961c-3.379,1.06-6.665,2.465-9.902,3.917
				c-6.352,2.845-12.612,5.894-18.965,8.737c-6.457,2.89-13.023,5.537-19.46,8.476c-4.474,2.041-8.766,4.482-13.235,6.533
				c-0.963,0.441-2.343-0.027-3.53-0.075c0.269-1.045,0.229-2.348,0.854-3.092c5.03-6,10.281-11.812,15.25-17.862
				c1.726-2.1,2.562-4.931,4.292-7.023c6.203-7.508,12.648-14.811,18.9-22.278c0.785-0.937,0.963-2.384,1.678-4.271
				c-4.363,0.989-7.973,1.478-11.353,2.637c-9.956,3.414-20.229,2.248-30.377,2.213c-7.071-0.022-14.136-1.114-21.205-1.723
				c-1.289-0.11-2.584-0.302-3.869-0.253c-1.794,0.067-3.576,0.402-5.371,0.48c-2.022,0.09-4.051,0.021-6.43,0.021
				c1.619-3.351,3.665-4.84,6.846-4.952c1.077-0.037,2.125-0.932,3.185-1.436c-0.592-1.176-1.089-2.412-1.808-3.506
				c-0.514-0.783-1.399-1.313-1.987-2.06c-3.05-3.866-5.98-7.828-9.097-11.641c-4.156-5.085-8.508-10.013-12.651-15.107
				c-2.056-2.527-1.395-4.048,1.682-4.841c3.326-0.855,6.622-1.828,9.93-2.761c10.851-3.062,21.719-6.068,32.546-9.215
				c6.555-1.903,7.346-2.845,7.457-7.19c0.024-0.981,0.505-1.95,0.775-2.924c1.135,0.477,2.516,0.692,3.353,1.484
				c1.873,1.771,3.429,3.87,5.193,5.759c7.126,7.62,14.316,15.178,21.415,22.822c6.082,6.55,12.039,13.217,18.122,19.768
				c2.007,2.163,3.533,1.996,5.246-0.194c7.087-9.066,14.325-18.02,21.179-27.259c1.672-2.251,2.873-5.405,2.958-8.186
				c0.358-11.744,0.317-23.508,0.163-35.261c-0.031-2.379-0.691-5.041-1.916-7.056c-2.893-4.761-6.294-9.215-9.501-13.785
				c-4.88-6.95-9.862-13.831-14.618-20.864c-2.517-3.722-3.486-3.927-7.053-0.908c-10.433,8.824-21.045,17.44-31.323,26.44
				c-4.905,4.294-10.517,6.896-16.491,9.06c-6.145,2.227-12.261,4.538-18.383,6.825c-6.528,2.438-13.048,4.896-19.576,7.337
				c-5.834,2.179-11.68,4.328-17.51,6.52c-6.919,2.6-13.78,5.365-20.758,7.799c-4.218,1.47-4.994,3.519-1.899,6.668
				c8.524,8.674,17.132,17.263,25.599,25.99c1.011,1.044,1.718,2.706,1.814,4.134c0.035,0.494-2.152,1.369-3.421,1.688
				c-8.856,2.211-17.767,4.207-26.603,6.494c-9.144,2.363-18.216,4.999-27.334,7.465c-3.836,1.038-7.665,2.466-11.572,2.787
				c-4.863,0.398-7.838,2.94-10.504,6.557c-5.065,6.876-10.168,13.729-15.457,20.434c-2.52,3.192-5.738,5.835-8.226,9.047
				c-5.984,7.727-11.672,15.684-17.59,23.462c-2.597,3.412-5.405,6.672-8.233,9.901c-2.456,2.805-5.326,5.279-7.55,8.246
				c-2.126,2.837-0.818,4.916,2.723,5.402c6.26,0.861,12.52,1.764,18.739,2.87c3.6,0.639,7.084,1.95,10.689,2.512
				c3.173,0.496,4.885,1.883,5.089,5.134c0.338,5.38,0.803,10.751,1.134,16.13c1.365,22.16,2.678,44.321,4.108,66.477
				c0.07,1.086,0.844,2.514,1.727,3.017c0.545,0.312,2.12-0.614,2.885-1.349c5.061-4.85,10.077-9.748,14.998-14.741
				c1.901-1.93,3.472-1.92,4.99,0.229c2.477,3.505,4.969,7.004,7.301,10.604c6.002,9.269,11.887,18.611,17.877,27.886
				c7.056,10.922,14.155,21.814,21.283,32.689c1.191,1.817,2.633,3.471,3.957,5.199c0.369-0.102,0.737-0.202,1.106-0.304
				c0.152-1.515,0.553-3.053,0.414-4.542c-0.548-5.887-1.276-11.757-1.918-17.635c-1.025-9.423-2.071-18.843-3.044-28.271
				c-1.559-15.111-3.048-30.231-4.601-45.345c-0.614-5.989-1.388-11.963-1.931-17.958c-0.114-1.269,0.46-2.6,0.716-3.901
				c0.434-0.005,0.867-0.011,1.3-0.014c0.415,1.239,0.927,2.457,1.22,3.727c0.387,1.674,0.426,3.438,0.921,5.073
				c2.455,8.116,5.113,16.172,7.501,24.308c2.237,7.619,4.104,15.347,6.351,22.962c3.247,11.014,6.736,21.956,10.032,32.953
				c2.805,9.362,5.531,18.746,8.205,28.146c3.232,11.359,6.303,22.768,9.577,34.115c3.513,12.179,7.213,24.304,10.763,36.472
				c0.723,2.476,2.359,2.839,4.159,1.747c3.288-1.996,6.363-4.345,9.546-6.518c1.925-1.314,3.85-1.502,5.418,0.501
				c2.716,3.471,5.334,7.016,8.003,10.521c9.83,12.914,19.618,25.861,29.512,38.726c5.899,7.671,12.063,15.14,17.938,22.827
				c10.502,13.746,20.846,27.613,31.316,41.385c5.533,7.277,11.203,14.451,16.787,21.688c1.403,1.819,3.396,1.84,4.792-0.013
				c3.496-4.632,6.972-9.279,10.514-13.877c7.999-10.392,16.081-20.72,24.038-31.144c7.5-9.823,14.818-19.784,22.339-29.593
				c7.196-9.386,14.594-18.616,21.818-27.983c8.272-10.724,16.485-21.493,24.64-32.31c1.719-2.279,3.637-2.137,5.626-0.887
				c3.089,1.939,6.063,4.069,9.032,6.191c2.519,1.799,4.073,1.254,4.862-1.736c1.123-4.261,2.216-8.531,3.491-12.748
				c2.363-7.81,4.964-15.548,7.253-23.378c2.349-8.029,4.359-16.154,6.667-24.196c3.613-12.595,7.346-25.156,11.041-37.729
				c1.059-3.598,2.159-7.183,3.242-10.772c2.42-8.024,4.87-16.041,7.256-24.076c2.477-8.338,4.896-16.691,7.336-25.039
				c1.297-4.439,2.652-8.864,3.857-13.327c1.287-4.763,2.402-9.573,3.66-14.345c0.173-0.658,0.736-1.213,1.181-1.914
				c2.577,1.493,1.687,3.754,1.499,5.59c-1.426,14.024-2.978,28.039-4.499,42.056c-0.337,3.105-0.743,6.203-1.056,9.312
				c-1.266,12.54-2.505,25.081-3.768,37.621c-0.075,0.749-0.338,1.479-0.41,2.228c-0.599,6.104-1.223,12.207-1.703,18.321
				c-0.076,0.953,0.525,1.961,0.814,2.943c0.293,0.048,0.586,0.096,0.879,0.143c0.216-0.375,0.412-0.763,0.65-1.123
				c3.916-5.906,7.866-11.789,11.749-17.718c9.593-14.644,19.136-29.319,28.738-43.957c3.001-4.573,6.1-9.086,9.213-13.585
				c1.563-2.26,3.216-1.94,5.026-0.11c4.854,4.91,9.757,9.771,14.721,14.566c0.827,0.799,2.062,1.174,3.109,1.746
				c0.646-1.269,1.786-2.504,1.87-3.808c1.608-24.52,3.086-49.049,4.608-73.574c0.186-3.008,1.072-6.117,0.555-8.985
				c-0.661-3.665,1.155-4.822,3.9-5.331c4.013-0.745,8.121-0.971,12.128-1.731c6.331-1.203,12.632-2.58,18.9-4.08
				c1.697-0.405,2.914-1.658,1.487-3.638c-2.833-3.926-5.52-7.974-8.561-11.733c-7.701-9.519-15.678-18.815-23.328-28.374
				c-6.848-8.55-13.607-17.185-20.031-26.056c-4.721-6.52-9.449-12.618-18.365-13.084c-0.518-0.026-1.016-0.355-1.535-0.495
				c-4.673-1.244-9.33-2.55-14.028-3.698c-8.761-2.142-17.561-4.118-26.312-6.298c-6.973-1.735-13.896-3.667-20.84-5.521
				C897.512,899.995,896.504,899.673,894.671,899.133z M954.069,729.638c0.592,1.397,1.328,2.503,1.52,3.698
				c1.087,6.802,1.97,13.635,3.062,20.436c1.537,9.559,3.18,19.101,4.834,28.64c0.191,1.102,0.754,2.14,1.143,3.207
				c1.205-0.597,2.736-0.903,3.562-1.835c7.148-8.044,13.839-16.524,21.348-24.206c4.889-5.002,4.802-10.154,3.231-16.05
				c-0.691-2.593-1.281-5.222-1.79-7.858c-1.285-6.646-2.446-13.314-3.756-19.955c-0.788-3.993-1.667-7.974-2.671-11.919
				c-1.426-5.607-3.011-11.175-4.513-16.762c-2.146-7.973-3.988-16.044-6.496-23.901c-3.037-9.508-6.4-18.931-10.056-28.221
				c-3.765-9.565-7.649-19.125-12.23-28.314c-3.911-7.843-8.577-15.363-13.456-22.659c-9.253-13.841-19.714-26.661-33.525-36.348
				c-1.71-1.199-3.17-1.482-4.864,0.112c-2.105,1.979-4.384,3.777-6.614,5.62c-12.888,10.64-23.626,23.219-32.66,37.192
				c-5.106,7.896-9.592,16.212-14.06,24.502c-3.553,6.589-6.735,13.384-9.874,20.184c-0.548,1.185-0.573,3.125,0.033,4.243
				c4.663,8.582,9.532,17.053,14.362,25.545c3.493,6.146,7.062,12.251,10.506,18.426c0.548,0.986,0.612,2.242,0.946,3.548
				c-0.779-0.085-1.025-0.044-1.194-0.14c-9.974-5.653-19.916-11.369-29.948-16.92c-1.312-0.727-3.088-0.618-4.649-0.895
				c0.492,1.31,0.704,2.832,1.519,3.896c5.744,7.51,11.639,14.905,17.434,22.378c5.399,6.962,10.758,13.958,16.093,20.973
				c4.425,5.815,8.775,11.688,13.187,17.517c1.426,1.884,3.926,1.784,4.59-0.25c1.097-3.368,1.989-6.805,2.935-10.222
				c1.345-4.868,2.571-9.771,4.007-14.611c2.26-7.613,4.732-15.166,6.961-22.788c2.348-8.033,4.496-16.128,6.772-24.183
				c2.595-9.183,5.25-18.35,7.846-27.532c0.626-2.219,1.313-4.306,4.446-4.872c0.408,2.205,0.869,4.277,1.157,6.376
				c0.409,2.988,0.529,6.024,1.058,8.989c1.471,8.249,3.129,16.466,4.633,24.711c1.658,9.096,3.22,18.208,4.841,27.311
				c1.149,6.458,2.354,12.907,3.479,19.368c1.919,11.025,3.771,22.059,5.737,33.074c0.145,0.804,0.962,2.061,1.521,2.09
				c0.907,0.048,2.1-0.524,2.745-1.228c1.433-1.56,2.527-3.424,3.891-5.056C945.228,740.014,949.41,735.133,954.069,729.638z
				 M574.024,629.417c0.378-0.165,0.758-0.33,1.137-0.496c0.938,1.412,2.289,2.704,2.741,4.257
				c2.342,8.042,4.433,16.157,6.649,24.235c0.996,3.623,2.062,7.227,3.13,10.828c1.707,5.763,3.472,11.506,5.162,17.273
				c2.053,7.006,4.038,14.03,6.083,21.038c2.497,8.552,5,17.105,7.583,25.631c0.304,1.005,1.174,2.635,1.718,2.609
				c1.188-0.054,2.663-0.712,3.435-1.62c1.731-2.035,2.999-4.457,4.646-6.572c4.026-5.176,8.212-10.229,12.238-15.402
				c5.413-6.959,10.709-14.008,16.107-20.977c4.678-6.036,9.469-11.984,14.098-18.056c0.608-0.8,0.556-2.102,0.81-3.169
				c-1.089,0.036-2.348-0.268-3.235,0.174c-2.579,1.283-4.993,2.891-7.5,4.322c-8.167,4.662-16.346,9.301-25.411,14.456
				c0.521-1.959,0.624-3.095,1.112-4.027c1.139-2.18,2.506-4.236,3.703-6.387c3.183-5.72,6.261-11.5,9.495-17.19
				c3.979-6.997,8.123-13.903,12.062-20.922c0.514-0.915,0.675-2.46,0.267-3.393c-2.754-6.292-5.44-12.637-8.66-18.693
				c-3.963-7.459-8.085-14.876-12.754-21.901c-5.694-8.562-11.476-17.185-18.243-24.881c-6.644-7.557-14.538-14.018-21.946-20.896
				c-4.132-3.837-4.197-3.79-8.762-0.534c-11.744,8.376-20.808,19.331-29.077,30.929c-7.992,11.206-14.866,23.121-20.237,35.832
				c-4.348,10.286-8.977,20.481-12.714,30.99c-3.66,10.291-6.375,20.921-9.451,31.419c-1.113,3.804-2.119,7.644-3.092,11.487
				c-1.575,6.237-3.163,12.475-4.594,18.747c-1.383,6.066-2.597,12.171-3.839,18.266c-1.503,7.378-2.937,14.769-4.441,22.145
				c-0.79,3.872,0.683,6.802,3.284,9.602c5.936,6.387,11.696,12.938,17.47,19.472c1.778,2.011,3.263,4.289,5.105,6.23
				c0.719,0.756,2.038,1.037,3.139,1.256c0.225,0.047,0.901-1.121,1.024-1.793c0.93-5.085,1.829-10.177,2.636-15.281
				c1.895-12.018,3.712-24.045,5.644-36.054c0.142-0.872,0.96-1.636,1.55-2.59c5.598,6.754,10.82,13.133,16.161,19.412
				c0.835,0.983,2.174,1.572,3.369,2.163c0.106,0.053,1.159-1.185,1.294-1.912c1.924-10.367,3.783-20.748,5.622-31.133
				c1.311-7.407,2.534-14.832,3.858-22.237c1.42-7.944,2.946-15.871,4.366-23.814c0.984-5.504,1.911-11.017,2.784-16.539
				c1.244-7.855,2.4-15.724,3.636-23.582C573.331,631.212,573.738,630.324,574.024,629.417z M622.816,899.906
				c0.27,0.109,0.539,0.218,0.81,0.327c-0.065,10.979,7.768,18.075,18.618,16.811c3.169-0.369,6.56-0.322,9.429-1.493
				c6.511-2.655,8.532-8.87,8.771-14.989c0.243-6.228-1.77-10.083-8.322-10.307c-2.457-0.083-4.891-0.713-7.348-0.988
				c-4.646-0.52-9.292-1.177-13.952-1.306c-1.398-0.039-3.479,1.137-4.139,2.354C625.052,893.327,624.063,896.687,622.816,899.906z
				 M862.395,900.445c-0.114-1.608,0.053-3.301-0.4-4.807c-0.932-3.1-2.301-6.804-5.649-7.146c-4.599-0.47-9.366,0.367-14.013,0.996
				c-0.82,0.111-2.007,1.966-1.964,2.97c0.063,1.461,0.753,3.644,1.799,4.104c1.075,0.475,3.024-0.529,4.365-1.285
				c2.015-1.136,4.11-0.736,4.354,1.143c0.286,2.185-2.169,6.46-4.233,7.074c-3.033,0.901-6.266,1.742-8.818-0.863
				c-2.485-2.535-3.414-5.541-1.823-9.155c1.161-2.64,0.278-3.634-2.609-3.255c-6.311,0.824-8.867,4.977-7.794,12.383
				c0.83,5.734,3.511,11.348,9.348,12.916c5.41,1.455,11.376,0.872,17.1,1.106c0.568,0.024,1.235-0.419,1.729-0.808
				C858.782,911.901,862.727,907.383,862.395,900.445z"/>
			<path fill-rule="evenodd" clip-rule="evenodd" fill="#FFFFFF" d="M894.671,899.133c1.833,0.54,2.841,0.861,3.86,1.133
				c6.943,1.854,13.867,3.785,20.84,5.521c8.751,2.18,17.551,4.156,26.312,6.298c4.698,1.148,9.355,2.454,14.028,3.698
				c0.52,0.14,1.018,0.469,1.535,0.495c8.916,0.466,13.645,6.564,18.365,13.084c6.424,8.871,13.184,17.506,20.031,26.056
				c7.65,9.559,15.627,18.855,23.328,28.374c3.041,3.76,5.728,7.808,8.561,11.733c1.427,1.979,0.21,3.232-1.487,3.638
				c-6.269,1.5-12.569,2.877-18.9,4.08c-4.007,0.761-8.115,0.986-12.128,1.731c-2.745,0.509-4.562,1.666-3.9,5.331
				c0.518,2.868-0.369,5.978-0.555,8.985c-1.522,24.525-3,49.055-4.608,73.574c-0.084,1.304-1.224,2.539-1.87,3.808
				c-1.047-0.572-2.282-0.947-3.109-1.746c-4.964-4.796-9.867-9.656-14.721-14.566c-1.811-1.83-3.463-2.149-5.026,0.11
				c-3.113,4.499-6.212,9.012-9.213,13.585c-9.603,14.638-19.146,29.313-28.738,43.957c-3.883,5.929-7.833,11.812-11.749,17.718
				c-0.238,0.36-0.435,0.748-0.65,1.123c-0.293-0.047-0.586-0.095-0.879-0.143c-0.289-0.982-0.891-1.99-0.814-2.943
				c0.48-6.114,1.104-12.217,1.703-18.321c0.072-0.748,0.335-1.479,0.41-2.228c1.263-12.54,2.502-25.081,3.768-37.621
				c0.312-3.108,0.719-6.206,1.056-9.312c1.521-14.017,3.073-28.031,4.499-42.056c0.188-1.836,1.078-4.097-1.499-5.59
				c-0.444,0.701-1.008,1.256-1.181,1.914c-1.258,4.771-2.373,9.582-3.66,14.345c-1.205,4.463-2.561,8.888-3.857,13.327
				c-2.439,8.348-4.859,16.701-7.336,25.039c-2.386,8.035-4.836,16.052-7.256,24.076c-1.083,3.59-2.184,7.175-3.242,10.772
				c-3.695,12.573-7.428,25.135-11.041,37.729c-2.308,8.042-4.318,16.167-6.667,24.196c-2.289,7.83-4.89,15.568-7.253,23.378
				c-1.275,4.217-2.368,8.487-3.491,12.748c-0.789,2.99-2.344,3.535-4.862,1.736c-2.969-2.122-5.943-4.252-9.032-6.191
				c-1.989-1.25-3.907-1.393-5.626,0.887c-8.154,10.816-16.367,21.586-24.64,32.31c-7.225,9.367-14.622,18.598-21.818,27.983
				c-7.521,9.809-14.839,19.77-22.339,29.593c-7.957,10.424-16.039,20.752-24.038,31.144c-3.542,4.598-7.018,9.245-10.514,13.877
				c-1.396,1.853-3.389,1.832-4.792,0.013c-5.584-7.236-11.254-14.41-16.787-21.688c-10.471-13.771-20.814-27.639-31.316-41.385
				c-5.875-7.688-12.039-15.156-17.938-22.827c-9.894-12.864-19.682-25.812-29.512-38.726c-2.669-3.506-5.287-7.051-8.003-10.521
				c-1.568-2.003-3.493-1.815-5.418-0.501c-3.183,2.173-6.258,4.521-9.546,6.518c-1.8,1.092-3.437,0.729-4.159-1.747
				c-3.55-12.168-7.25-24.293-10.763-36.472c-3.274-11.348-6.345-22.756-9.577-34.115c-2.674-9.399-5.4-18.783-8.205-28.146
				c-3.296-10.997-6.785-21.939-10.032-32.953c-2.246-7.615-4.113-15.343-6.351-22.962c-2.388-8.136-5.046-16.191-7.501-24.308
				c-0.495-1.635-0.534-3.399-0.921-5.073c-0.293-1.27-0.805-2.487-1.22-3.727c-0.433,0.003-0.866,0.009-1.3,0.014
				c-0.256,1.302-0.83,2.633-0.716,3.901c0.543,5.995,1.316,11.969,1.931,17.958c1.553,15.113,3.042,30.233,4.601,45.345
				c0.973,9.428,2.019,18.848,3.044,28.271c0.642,5.878,1.37,11.748,1.918,17.635c0.139,1.489-0.262,3.027-0.414,4.542
				c-0.369,0.102-0.737,0.202-1.106,0.304c-1.324-1.729-2.766-3.382-3.957-5.199c-7.128-10.875-14.228-21.768-21.283-32.689
				c-5.99-9.274-11.875-18.617-17.877-27.886c-2.332-3.601-4.824-7.1-7.301-10.604c-1.519-2.149-3.089-2.159-4.99-0.229
				c-4.921,4.993-9.938,9.892-14.998,14.741c-0.765,0.734-2.34,1.66-2.885,1.349c-0.883-0.503-1.656-1.931-1.727-3.017
				c-1.431-22.155-2.743-44.316-4.108-66.477c-0.331-5.379-0.796-10.75-1.134-16.13c-0.204-3.251-1.916-4.638-5.089-5.134
				c-3.605-0.562-7.09-1.873-10.689-2.512c-6.22-1.106-12.479-2.009-18.739-2.87c-3.541-0.486-4.849-2.565-2.723-5.402
				c2.224-2.967,5.094-5.441,7.55-8.246c2.828-3.229,5.637-6.489,8.233-9.901c5.918-7.778,11.605-15.735,17.59-23.462
				c2.487-3.212,5.706-5.854,8.226-9.047c5.289-6.704,10.392-13.558,15.457-20.434c2.666-3.616,5.641-6.158,10.504-6.557
				c3.907-0.321,7.736-1.749,11.572-2.787c9.118-2.466,18.19-5.102,27.334-7.465c8.836-2.287,17.746-4.283,26.603-6.494
				c1.269-0.318,3.456-1.193,3.421-1.688c-0.097-1.428-0.804-3.09-1.814-4.134c-8.467-8.728-17.074-17.316-25.599-25.99
				c-3.095-3.149-2.318-5.198,1.899-6.668c6.978-2.434,13.839-5.199,20.758-7.799c5.83-2.191,11.676-4.341,17.51-6.52
				c6.528-2.44,13.048-4.898,19.576-7.337c6.122-2.287,12.238-4.599,18.383-6.825c5.975-2.164,11.586-4.766,16.491-9.06
				c10.278-9,20.891-17.616,31.323-26.44c3.566-3.019,4.536-2.813,7.053,0.908c4.756,7.033,9.738,13.914,14.618,20.864
				c3.207,4.57,6.608,9.024,9.501,13.785c1.225,2.015,1.885,4.677,1.916,7.056c0.154,11.753,0.195,23.517-0.163,35.261
				c-0.085,2.78-1.286,5.935-2.958,8.186c-6.854,9.239-14.092,18.192-21.179,27.259c-1.713,2.19-3.239,2.357-5.246,0.194
				c-6.083-6.551-12.04-13.218-18.122-19.768c-7.099-7.645-14.289-15.202-21.415-22.822c-1.765-1.889-3.32-3.988-5.193-5.759
				c-0.837-0.792-2.218-1.008-3.353-1.484c-0.271,0.974-0.751,1.942-0.775,2.924c-0.111,4.346-0.902,5.287-7.457,7.19
				c-10.827,3.146-21.695,6.153-32.546,9.215c-3.308,0.933-6.604,1.905-9.93,2.761c-3.076,0.793-3.737,2.313-1.682,4.841
				c4.144,5.095,8.495,10.022,12.651,15.107c3.116,3.812,6.047,7.774,9.097,11.641c0.588,0.746,1.474,1.276,1.987,2.06
				c0.719,1.094,1.216,2.33,1.808,3.506c-1.06,0.504-2.107,1.398-3.185,1.436c-3.181,0.112-5.227,1.602-6.846,4.952
				c2.379,0,4.407,0.068,6.43-0.021c1.795-0.078,3.577-0.413,5.371-0.48c1.285-0.049,2.58,0.143,3.869,0.253
				c7.069,0.608,14.134,1.7,21.205,1.723c10.148,0.035,20.421,1.201,30.377-2.213c3.38-1.159,6.989-1.647,11.353-2.637
				c-0.715,1.887-0.893,3.334-1.678,4.271c-6.252,7.468-12.697,14.771-18.9,22.278c-1.729,2.093-2.566,4.924-4.292,7.023
				c-4.969,6.05-10.22,11.862-15.25,17.862c-0.625,0.744-0.586,2.047-0.854,3.092c1.188,0.048,2.567,0.517,3.53,0.075
				c4.47-2.051,8.762-4.492,13.235-6.533c6.437-2.938,13.003-5.586,19.46-8.476c6.353-2.844,12.613-5.893,18.965-8.737
				c3.237-1.452,6.523-2.857,9.902-3.917c3.196-1.001,4.855,0.628,4.035,3.961c-1.401,5.685-3.08,11.3-4.643,16.943
				c-0.173,0.624-0.421,1.235-0.512,1.87c-0.888,6.245-1.75,12.491-2.618,18.739c-0.104,0.745,0.021,1.626-0.339,2.216
				c-4.34,7.147-2.795,15.55-4.988,23.182c-1.832,6.373-2.623,13.038-4.132,19.515c-0.532,2.282,0.443,2.542,2.076,2.271
				c0.9-0.148,1.751-0.741,2.569-1.226c11.861-7.037,24.304-12.565,38.191-13.952c7.85-0.783,15.489,0.849,22.74,3.724
				c6.68,2.648,13.137,5.863,19.66,8.895c1.153,0.535,2.077,1.607,3.251,2.044c1.005,0.371,2.215,0.185,3.334,0.245
				c0.039-0.895,0.249-1.82,0.093-2.679c-1.213-6.662-2.416-13.326-3.778-19.956c-1.405-6.838-3.011-13.635-4.486-20.457
				c-1.022-4.725-2.027-9.45-2.943-14.196c-1.26-6.539-2.386-13.106-3.66-19.644c-0.409-2.094-1.319-4.103-1.604-6.203
				c-0.221-1.609-0.41-3.914,0.483-4.774c0.792-0.767,3.148-0.21,4.715,0.172c7.69,1.878,13.815,7.17,21.148,9.854
				c3.093,1.133,6.271,2.072,9.266,3.417c7.325,3.291,14.547,6.809,21.85,10.149c2.729,1.249,5.538,2.34,8.375,3.321
				c0.632,0.22,1.529-0.322,2.303-0.515c-0.19-0.659-0.202-1.462-0.599-1.952c-5.076-6.262-10.309-12.395-15.285-18.731
				c-3.631-4.62-6.794-9.609-10.434-14.222c-3.723-4.717-7.821-9.134-11.646-13.771c-1.03-1.249-1.659-2.828-2.747-4.74
				c1.477-0.078,2.275-0.356,2.871-0.118c14.18,5.656,28.889,4.62,43.635,3.688c5.443-0.344,10.937,0.18,16.391-0.058
				c3.507-0.152,6.994-0.918,10.468-1.539c0.601-0.106,1.557-0.902,1.52-1.306c-0.062-0.69-0.651-1.507-1.259-1.922
				c-0.563-0.386-1.438-0.321-2.179-0.444c-2.686-0.448-3.531-2.491-1.755-4.604c7.545-8.971,15.148-17.891,22.732-26.828
				c0.068-0.083,0.177-0.139,0.226-0.229c0.985-1.854,1.967-3.71,2.949-5.565c-1.837-0.693-3.643-1.479-5.515-2.06
				c-4.619-1.433-9.266-2.776-13.906-4.143c-4.939-1.457-9.9-2.847-14.821-4.363c-5.019-1.547-9.971-3.309-15.009-4.795
				c-2.771-0.816-3.763-2.444-3.561-5.24c0.075-1.029-0.57-2.111-0.887-3.168c-1.119,0.51-2.529,0.745-3.314,1.572
				c-9.044,9.533-18.02,19.134-26.959,28.765c-6.08,6.549-12.119,13.137-18.087,19.788c-1.751,1.951-3.296,1.432-4.581-0.168
				c-6.394-7.96-12.584-16.086-19.052-23.982c-3.908-4.772-6.01-9.686-5.639-16.18c0.581-10.209-0.296-20.497,0.181-30.717
				c0.164-3.495,2.017-7.226,3.999-10.261c6.223-9.536,12.872-18.79,19.359-28.151c1.099-1.584,2.318-3.096,3.292-4.751
				c1.339-2.28,3.002-2.305,4.793-0.801c8.317,6.991,16.568,14.062,24.885,21.058c4.117,3.467,8.076,7.209,12.564,10.122
				c3.727,2.417,8.063,3.947,12.233,5.615c6.371,2.547,12.829,4.881,19.256,7.292c5.933,2.228,11.884,4.408,17.807,6.665
				c6.322,2.41,12.6,4.938,18.933,7.317c6.334,2.38,12.713,4.646,19.077,6.946c0.81,0.293,1.697,0.405,2.464,0.775
				c2.591,1.25,3.026,2.941,1.053,5.051c-4.049,4.328-8.236,8.53-12.388,12.763c-4.679,4.77-9.429,9.471-14.038,14.307
				C896.372,895.745,895.783,897.279,894.671,899.133z M743.04,1311.137c8.271,0.446,16.487-1.256,24.265-5.626
				c11.592-6.513,19.78-16.195,26.049-27.531c3.925-7.096,7.025-14.668,10.192-22.156c1.623-3.837,2.727-7.916,3.799-11.958
				c1.352-5.083,2.371-10.254,3.644-15.359c1.429-5.729,2.992-11.425,4.471-17.142c1.741-6.732,3.405-13.485,5.188-20.205
				c2.625-9.888,7.896-18.547,13.101-27.173c6.203-10.286,13.362-20.029,19.073-30.569c5.857-10.804,10.495-22.271,15.605-33.476
				c2.494-5.469,4.465-11.213,7.358-16.456c4.249-7.699,9.098-15.072,13.724-22.566c3.23-5.234,5.494-10.742,4.943-17.054
				c-0.354-4.047-2.485-6.584-5.929-7.025c-9.382-1.203-14.042,2.735-17.079,10.866c-3.889,10.414-5.18,21.485-6.209,32.568
				c-0.584,6.304-1.497,12.701-3.321,18.736c-3.818,12.631-9.911,24.351-17.957,34.744c-5.614,7.252-12.337,13.72-19.046,20.024
				c-4.647,4.365-10.545,7.761-16.855,8.271c-15.555,1.258-31.062,0.098-45.729-5.749c-5.016-2-9.25-6.035-10.601-11.531
				c-1.347-5.477-1.508-11.237-2.366-16.844c-0.687-4.48,1.544-6.989,5.146-9.067c8.177-4.721,16.255-9.613,24.353-14.474
				c6.97-4.185,10.519-10.768,11.637-18.451c1.004-6.915,1.046-13.971,1.495-20.965c0.164-2.546-0.587-4.716-2.856-6.105
				c-3.659-2.24-7.248-4.624-11.049-6.594c-9.739-5.05-19.511-9.921-30.881-10.367c-9.512-0.373-18.744,0.672-27.41,4.575
				c-6.848,3.084-13.533,6.589-20.028,10.361c-4.953,2.875-6.406,3.888-5.771,10.295c0.456,4.612,0.861,9.245,0.944,13.876
				c0.221,12.186,6.131,20.655,16.565,26.429c6.759,3.74,13.368,7.747,20.117,11.507c3.684,2.053,5.593,4.782,4.941,9.18
				c-0.328,2.218,0.239,4.587-0.19,6.773c-0.824,4.198-1.389,8.66-3.289,12.387c-3.488,6.84-10.009,10.388-17.253,11.878
				c-10.871,2.235-21.878,3.516-33.056,3.412c-5.071-0.048-9.645-1.409-13.883-3.633c-10.791-5.653-19.062-14.356-26.172-23.985
				c-4.631-6.272-8.455-13.205-12.062-20.144c-2.855-5.491-5.781-11.247-6.994-17.228c-2.562-12.639-3.781-25.544-6.03-38.255
				c-1.355-7.673-2.785-15.555-9.94-20.602c-3.014-2.128-9.909-2.955-12.884-1.041c-3.65,2.347-3.497,6.095-3.313,9.836
				c0.349,7.038,4.407,12.44,7.842,18.133c4.104,6.804,8.678,13.386,12.119,20.513c4.939,10.228,8.807,20.967,13.57,31.286
				c3.451,7.475,7.334,14.784,11.521,21.872c6.82,11.542,14.338,22.678,21.022,34.293c6.579,11.435,10.924,23.784,12.762,36.936
				c0.207,1.48,0.732,2.917,1.1,4.376c1.389,5.514,2.8,11.021,4.148,16.546c1.248,5.106,2.089,10.341,3.72,15.32
				c2.195,6.704,4.901,13.247,7.521,19.806c3.535,8.852,8.34,16.993,14.49,24.271C712.081,1303.62,725.069,1312.009,743.04,1311.137
				z"/>
			<path fill-rule="evenodd" clip-rule="evenodd" fill="#FFFFFF" d="M954.069,729.638c-4.659,5.495-8.841,10.376-12.96,15.311
				c-1.363,1.632-2.458,3.496-3.891,5.056c-0.646,0.703-1.838,1.275-2.745,1.228c-0.56-0.029-1.377-1.286-1.521-2.09
				c-1.967-11.016-3.818-22.049-5.737-33.074c-1.125-6.461-2.329-12.91-3.479-19.368c-1.621-9.103-3.183-18.215-4.841-27.311
				c-1.504-8.245-3.162-16.462-4.633-24.711c-0.528-2.965-0.648-6.001-1.058-8.989c-0.288-2.099-0.749-4.171-1.157-6.376
				c-3.133,0.566-3.82,2.653-4.446,4.872c-2.596,9.182-5.251,18.349-7.846,27.532c-2.276,8.055-4.425,16.149-6.772,24.183
				c-2.229,7.622-4.701,15.175-6.961,22.788c-1.436,4.841-2.662,9.743-4.007,14.611c-0.945,3.417-1.838,6.854-2.935,10.222
				c-0.664,2.034-3.164,2.134-4.59,0.25c-4.411-5.828-8.762-11.701-13.187-17.517c-5.335-7.015-10.693-14.011-16.093-20.973
				c-5.795-7.473-11.689-14.868-17.434-22.378c-0.814-1.064-1.026-2.587-1.519-3.896c1.562,0.276,3.337,0.168,4.649,0.895
				c10.032,5.551,19.975,11.267,29.948,16.92c0.169,0.096,0.415,0.055,1.194,0.14c-0.334-1.306-0.398-2.562-0.946-3.548
				c-3.444-6.175-7.013-12.279-10.506-18.426c-4.83-8.492-9.699-16.963-14.362-25.545c-0.606-1.117-0.581-3.058-0.033-4.243
				c3.139-6.8,6.321-13.594,9.874-20.184c4.468-8.29,8.953-16.606,14.06-24.502c9.034-13.973,19.772-26.552,32.66-37.192
				c2.23-1.842,4.509-3.64,6.614-5.62c1.694-1.594,3.154-1.311,4.864-0.112c13.812,9.687,24.272,22.506,33.525,36.348
				c4.879,7.296,9.545,14.816,13.456,22.659c4.581,9.188,8.466,18.749,12.23,28.314c3.655,9.29,7.019,18.713,10.056,28.221
				c2.508,7.857,4.35,15.929,6.496,23.901c1.502,5.587,3.087,11.154,4.513,16.762c1.004,3.945,1.883,7.926,2.671,11.919
				c1.31,6.641,2.471,13.31,3.756,19.955c0.509,2.637,1.099,5.266,1.79,7.858c1.57,5.896,1.657,11.048-3.231,16.05
				c-7.509,7.682-14.199,16.162-21.348,24.206c-0.826,0.932-2.357,1.238-3.562,1.835c-0.389-1.067-0.951-2.105-1.143-3.207
				c-1.654-9.539-3.297-19.081-4.834-28.64c-1.093-6.801-1.976-13.634-3.062-20.436
				C955.397,732.141,954.661,731.036,954.069,729.638z"/>
			<path fill-rule="evenodd" clip-rule="evenodd" fill="#FFFFFF" d="M574.024,629.417c-0.286,0.907-0.693,1.794-0.839,2.722
				c-1.235,7.858-2.392,15.726-3.636,23.582c-0.873,5.522-1.8,11.035-2.784,16.539c-1.42,7.943-2.946,15.87-4.366,23.814
				c-1.324,7.405-2.548,14.83-3.858,22.237c-1.839,10.385-3.698,20.766-5.622,31.133c-0.135,0.728-1.188,1.965-1.294,1.912
				c-1.195-0.591-2.534-1.18-3.369-2.163c-5.341-6.279-10.563-12.658-16.161-19.412c-0.59,0.954-1.408,1.718-1.55,2.59
				c-1.932,12.009-3.749,24.036-5.644,36.054c-0.807,5.104-1.706,10.196-2.636,15.281c-0.123,0.672-0.8,1.84-1.024,1.793
				c-1.101-0.219-2.42-0.5-3.139-1.256c-1.843-1.941-3.327-4.22-5.105-6.23c-5.773-6.534-11.534-13.085-17.47-19.472
				c-2.602-2.8-4.074-5.729-3.284-9.602c1.505-7.376,2.938-14.767,4.441-22.145c1.242-6.095,2.456-12.199,3.839-18.266
				c1.431-6.272,3.019-12.51,4.594-18.747c0.973-3.844,1.979-7.684,3.092-11.487c3.076-10.498,5.791-21.128,9.451-31.419
				c3.737-10.508,8.366-20.704,12.714-30.99c5.371-12.711,12.245-24.625,20.237-35.832c8.27-11.599,17.333-22.553,29.077-30.929
				c4.564-3.256,4.63-3.304,8.762,0.534c7.408,6.877,15.303,13.338,21.946,20.896c6.768,7.696,12.549,16.319,18.243,24.881
				c4.669,7.025,8.791,14.442,12.754,21.901c3.22,6.057,5.906,12.401,8.66,18.693c0.408,0.933,0.247,2.478-0.267,3.393
				c-3.939,7.019-8.083,13.925-12.062,20.922c-3.234,5.69-6.312,11.471-9.495,17.19c-1.197,2.15-2.564,4.207-3.703,6.387
				c-0.488,0.933-0.591,2.068-1.112,4.027c9.065-5.155,17.244-9.794,25.411-14.456c2.507-1.432,4.921-3.039,7.5-4.322
				c0.888-0.441,2.146-0.138,3.235-0.174c-0.254,1.067-0.201,2.369-0.81,3.169c-4.629,6.071-9.42,12.02-14.098,18.056
				c-5.398,6.969-10.694,14.018-16.107,20.977c-4.026,5.174-8.212,10.227-12.238,15.402c-1.646,2.115-2.914,4.537-4.646,6.572
				c-0.771,0.908-2.246,1.566-3.435,1.62c-0.544,0.025-1.414-1.604-1.718-2.609c-2.583-8.525-5.086-17.079-7.583-25.631
				c-2.045-7.008-4.03-14.032-6.083-21.038c-1.69-5.768-3.455-11.511-5.162-17.273c-1.067-3.602-2.134-7.205-3.13-10.828
				c-2.217-8.078-4.308-16.192-6.649-24.235c-0.452-1.554-1.804-2.845-2.741-4.257C574.782,629.087,574.402,629.252,574.024,629.417
				z"/>
			<linearGradient id="SVGID_1_" gradientUnits="userSpaceOnUse" x1="622.8159" y1="902.5737" x2="660.4624" y2="902.5737">
				<stop  offset="0" style="stop-color:#CCE0F4"/>
				<stop  offset="0.0641" style="stop-color:#C3DCF2"/>
				<stop  offset="0.1706" style="stop-color:#A9D2EE"/>
				<stop  offset="0.3066" style="stop-color:#80C2E7"/>
				<stop  offset="0.4649" style="stop-color:#47ACDE"/>
				<stop  offset="0.5674" style="stop-color:#1E9CD7"/>
				<stop  offset="0.8652" style="stop-color:#0075BE"/>
				<stop  offset="0.9944" style="stop-color:#005B97"/>
			</linearGradient>
			<path fill-rule="evenodd" clip-rule="evenodd" fill="url(#SVGID_1_)" d="M622.816,899.906c1.247-3.219,2.236-6.579,3.866-9.591
				c0.66-1.218,2.74-2.394,4.139-2.354c4.66,0.129,9.307,0.786,13.952,1.306c2.457,0.275,4.891,0.905,7.348,0.988
				c6.553,0.224,8.565,4.079,8.322,10.307c-0.238,6.119-2.26,12.334-8.771,14.989c-2.869,1.171-6.26,1.124-9.429,1.493
				c-10.851,1.265-18.684-5.832-18.618-16.811C623.355,900.124,623.085,900.015,622.816,899.906z M638.497,890.32
				c-1.238,1.657-2.117,2.445-2.511,3.428c-1.541,3.834-0.213,8.192,2.79,9.64c4.396,2.119,9.029,0.659,11.224-3.885
				c0.643-1.331,0.241-3.165,0.319-4.769c-1.367,0.276-2.745,0.513-4.097,0.852c-0.386,0.098-0.681,0.518-1.047,0.74
				c-2.256,1.365-4.176,0.709-5.091-1.731C639.682,893.521,639.286,892.445,638.497,890.32z"/>
			<linearGradient id="SVGID_2_" gradientUnits="userSpaceOnUse" x1="825.3716" y1="902.4897" x2="862.4146" y2="902.4897">
				<stop  offset="0" style="stop-color:#CCE0F4"/>
				<stop  offset="0.0641" style="stop-color:#C3DCF2"/>
				<stop  offset="0.1706" style="stop-color:#A9D2EE"/>
				<stop  offset="0.3066" style="stop-color:#80C2E7"/>
				<stop  offset="0.4649" style="stop-color:#47ACDE"/>
				<stop  offset="0.5674" style="stop-color:#1E9CD7"/>
				<stop  offset="0.8652" style="stop-color:#0075BE"/>
				<stop  offset="0.9944" style="stop-color:#005B97"/>
			</linearGradient>
			<path fill-rule="evenodd" clip-rule="evenodd" fill="url(#SVGID_2_)" d="M862.395,900.445c0.332,6.938-3.613,11.456-8.609,15.373
				c-0.494,0.389-1.161,0.832-1.729,0.808c-5.724-0.234-11.689,0.349-17.1-1.106c-5.837-1.568-8.518-7.182-9.348-12.916
				c-1.073-7.406,1.483-11.559,7.794-12.383c2.888-0.379,2.921,0.039,2.609,3.255c-1.591,3.614-0.662,6.62,1.823,9.155
				c2.553,2.605,5.785,1.765,8.818,0.863c2.064-0.614,4.52-4.89,4.233-7.074c-0.244-1.879-2.34-2.278-4.354-1.143
				c-1.341,0.756-3.29,1.76-4.365,1.285c-7.048-3.11-5.854-0.973-6.069-5.97c-0.043-1.004,5.414-0.993,6.234-1.104
				c4.646-0.629,9.414-1.466,14.013-0.996c3.349,0.343,4.718,4.047,5.649,7.146C862.448,897.144,862.281,898.836,862.395,900.445z"
				/>
			<path fill-rule="evenodd" clip-rule="evenodd" d="M743.04,1311.137c-17.971,0.872-30.959-7.518-41.729-20.26
				c-6.15-7.278-10.955-15.42-14.49-24.271c-2.619-6.559-5.325-13.102-7.521-19.806c-1.631-4.979-2.472-10.214-3.72-15.32
				c-1.349-5.525-2.76-11.032-4.148-16.546c-0.367-1.459-0.893-2.896-1.1-4.376c-1.838-13.151-6.183-25.501-12.762-36.936
				c-6.685-11.615-14.202-22.751-21.022-34.293c-4.188-7.088-8.07-14.397-11.521-21.872c-4.764-10.319-8.631-21.059-13.57-31.286
				c-3.441-7.127-8.015-13.709-12.119-20.513c-3.435-5.692-7.493-11.095-7.842-18.133c-0.184-3.741-0.337-7.489,3.313-9.836
				c2.975-1.914,9.87-1.087,12.884,1.041c7.155,5.047,8.585,12.929,9.94,20.602c2.249,12.711,3.469,25.616,6.03,38.255
				c1.213,5.98,4.139,11.736,6.994,17.228c3.607,6.938,7.432,13.871,12.062,20.144c7.11,9.629,15.381,18.332,26.172,23.985
				c4.238,2.224,8.812,3.585,13.883,3.633c11.178,0.104,22.185-1.177,33.056-3.412c7.244-1.49,13.765-5.038,17.253-11.878
				c1.9-3.727,2.465-8.188,3.289-12.387c0.43-2.187-0.138-4.556,0.19-6.773c0.651-4.397-1.258-7.127-4.941-9.18
				c-6.749-3.76-13.358-7.767-20.117-11.507c-10.435-5.773-16.345-14.243-16.565-26.429c-0.083-4.631-0.488-9.264-0.944-13.876
				c-0.636-6.407,0.817-7.42,5.771-10.295c6.495-3.772,13.181-7.277,20.028-10.361c8.666-3.903,17.898-4.948,27.41-4.575
				c11.37,0.446,21.142,5.317,30.881,10.367c3.801,1.97,7.39,4.354,11.049,6.594c2.27,1.39,3.021,3.56,2.856,6.105
				c-0.449,6.994-0.491,14.05-1.495,20.965c-1.118,7.684-4.667,14.267-11.637,18.451c-8.098,4.86-16.176,9.753-24.353,14.474
				c-3.602,2.078-5.832,4.587-5.146,9.067c0.858,5.606,1.02,11.367,2.366,16.844c1.351,5.496,5.585,9.531,10.601,11.531
				c14.667,5.847,30.174,7.007,45.729,5.749c6.311-0.511,12.208-3.906,16.855-8.271c6.709-6.305,13.432-12.772,19.046-20.024
				c8.046-10.394,14.139-22.113,17.957-34.744c1.824-6.035,2.737-12.433,3.321-18.736c1.029-11.083,2.32-22.154,6.209-32.568
				c3.037-8.131,7.697-12.069,17.079-10.866c3.443,0.441,5.575,2.979,5.929,7.025c0.551,6.312-1.713,11.819-4.943,17.054
				c-4.626,7.494-9.475,14.867-13.724,22.566c-2.894,5.243-4.864,10.987-7.358,16.456c-5.11,11.205-9.748,22.672-15.605,33.476
				c-5.711,10.54-12.87,20.283-19.073,30.569c-5.204,8.626-10.476,17.285-13.101,27.173c-1.783,6.72-3.447,13.473-5.188,20.205
				c-1.479,5.717-3.042,11.412-4.471,17.142c-1.272,5.105-2.292,10.276-3.644,15.359c-1.072,4.042-2.176,8.121-3.799,11.958
				c-3.167,7.488-6.268,15.061-10.192,22.156c-6.269,11.336-14.457,21.019-26.049,27.531
				C759.527,1309.881,751.311,1311.583,743.04,1311.137z"/>
			<path fill-rule="evenodd" clip-rule="evenodd" d="M638.497,890.32c0.789,2.125,1.186,3.201,1.588,4.274
				c0.915,2.44,2.835,3.097,5.091,1.731c0.366-0.223,0.661-0.643,1.047-0.74c1.352-0.339,2.729-0.575,4.097-0.852
				c-0.078,1.604,0.323,3.438-0.319,4.769c-2.194,4.544-6.827,6.004-11.224,3.885c-3.003-1.447-4.331-5.806-2.79-9.64
				C636.379,892.765,637.258,891.977,638.497,890.32z"/>
		</g>
		<g>
			<g>
				<path d="M742.701,1204.761c2.455,19.345,1.335,38.815,1.294,58.25c-0.006,2.505,3.878,2.504,3.883,0
					c0.042-19.435,1.161-38.905-1.294-58.25C746.273,1202.312,742.385,1202.282,742.701,1204.761L742.701,1204.761z"/>
			</g>
		</g>
		<g>
			<g>
				<path d="M733.64,1207.351c0,13.808,0,27.614,0,41.422c0,2.504,3.883,2.504,3.883,0c0-13.808,0-27.614,0-41.422
					C737.523,1204.847,733.64,1204.847,733.64,1207.351L733.64,1207.351z"/>
			</g>
		</g>
		<g id="j1qhMu_1_">
			<g>
				<path fill="#E2404C" d="M671.762,1187.684c0-2.302,0-4.604,0-6.907c0.512-1.211,1.098-2.4,1.52-3.644
					c1.277-3.763,3.269-5.509,7.119-4.663c3.53,0.772,7.221,2.088,10.12,4.167c4.863,3.485,10.503,4.926,15.812,7.208
					c3.281,1.409,6.813,2.257,10.265,3.249c1.256,0.357,2.605,0.383,3.907,0.59c4.685,0.746,8.854,2.715,12.996,4.979
					c1.931,1.058,3.223,2.309,3.461,4.238c0.684,5.51,1.232,11.045,1.571,16.584c0.369,6.085,0.297,12.197,0.704,18.277
					c0.27,4.04,1.089,8.042,1.57,12.07c0.216,1.796,1.236,2.203,3.204,2.146c0.577-7.492,1.141-14.866,1.712-22.242
					c0.615-7.985,1.364-15.965,1.814-23.962c0.339-6.045,4.348-8.301,9.278-9.951c7.241-2.427,15.11-2.508,22.048-6.168
					c2.854-1.508,6.206-2.057,9.121-3.476c4.263-2.078,8.328-4.564,12.492-6.85c4.839-2.658,8.779-1.299,10.791,3.799
					c0.737,1.871,1.21,3.846,1.802,5.773c0,0.885,0,1.77,0,2.656c-0.189,0.668-0.468,1.327-0.556,2.012
					c-0.651,5.064-1.07,10.171-1.955,15.193c-0.67,3.809-2.553,7.474-2.784,11.27c-0.626,10.391-4.917,19.851-7.138,29.826
					c-1.648,7.396-5.63,14.251-8.277,21.454c-2.275,6.188-5.376,11.915-9.477,16.972c-4.534,5.59-9.402,10.831-15.391,15.12
					c-5.902,4.229-11.867,7.159-19.211,8.016c-15.126,1.768-27.721-2.921-38.059-13.744c-3.87-4.053-6.798-8.993-10.572-13.153
					c-4.222-4.647-6.156-10.413-8.691-15.891c-1.658-3.578-2.619-7.486-4.334-11.034c-1.869-3.864-3.169-7.773-3.706-12.054
					c-0.368-2.926-1.477-5.764-2.3-8.627c-0.462-1.609-1.177-3.157-1.506-4.788c-1.115-5.536-2.064-11.106-3.166-16.646
					c-0.825-4.15-1.854-8.26-2.664-12.411C672.673,1193.965,672.263,1190.816,671.762,1187.684z"/>
			</g>
		</g>
		<circle fill-rule="evenodd" clip-rule="evenodd" fill="#FFFFFF" cx="643.258" cy="894.297" r="4.759"/>
		<circle fill-rule="evenodd" clip-rule="evenodd" fill="#FFFFFF" cx="842.601" cy="894.297" r="4.759"/>
	</g>
</g>
</svg>
