<?xml version="1.0" encoding="utf-8"?>
<!-- Generator: Adobe Illustrator 23.0.1, SVG Export Plug-In . SVG Version: 6.00 Build 0)  -->
<svg version="1.1" id="Layer_1" xmlns="http://www.w3.org/2000/svg" xmlns:xlink="http://www.w3.org/1999/xlink" x="0px" y="0px"
	 viewBox="0 0 594.8 594.8" style="enable-background:new 0 0 594.8 594.8;" xml:space="preserve">
<style type="text/css">
	.st0{fill:#FFFFFF;}
	.st1{fill:#F2F2F2;}
	.st2{fill:none;stroke:#231F20;stroke-width:4;stroke-miterlimit:10;}
	.st3{fill:#FFFFFF;stroke:#231F20;stroke-width:4;stroke-miterlimit:10;}
	.st4{fill:#F2F2F2;stroke:#231F20;stroke-width:4;stroke-miterlimit:10;}
	.st5{fill:#848484;stroke:#231F20;stroke-width:3;stroke-miterlimit:10;}
	.st6{fill-rule:evenodd;clip-rule:evenodd;}
	.st7{fill-rule:evenodd;clip-rule:evenodd;fill:#FFFFFF;}
	.st8{fill-rule:evenodd;clip-rule:evenodd;fill:url(#SVGID_1_);}
	.st9{fill-rule:evenodd;clip-rule:evenodd;fill:url(#SVGID_2_);}
	.st10{fill:#E2404C;}
</style>
<g>
	<g id="LxEKhu.tif">
		<g>
			<path d="M120.6,385.2c-1.8-0.2-3.6-0.3-5.4-0.6c-15.6-2.8-26.3-15.8-25.8-31.6c0.4-13.7,6.7-24.1,18.2-31.6c4-2.6,8.4-3.8,13-4.3
				c17.3-1.9,34.6-3.8,51.8-5.5c25.6-2.6,51.2-5.2,76.8-7.8c5.3-0.5,10.6-0.9,15.9-1.3c1.9-0.1,3.3,0.8,4.2,2.4
				c0.9,1.6,0.7,3.2-0.3,4.7c-0.9,1.5-2,2.3-3.9,2.5c-29.7,2.8-59.4,5.7-89.1,8.7c-17.5,1.8-34.9,3.8-52.4,5.8
				c-13.4,1.5-22.7,10.8-24.3,24c-1.5,12.3,6.4,22.7,18.3,24.4c9,1.2,17.1-4.8,18.3-13.5c0.7-5.3-1.4-10.2-5.4-12.5
				c-3.4-1.9-7-2-10.6-0.7c-1,0.4-1.9,1.2-2.7,2c-0.8,0.7-1.4,1.7-2.1,2.5c-1.4,1.7-3.4,2.2-5.4,1.3c-1.9-0.9-3.3-3-2.8-5
				c0.4-1.5,1-3.1,2-4.4c3.8-4.8,8.9-7,15-7.1c14.7-0.1,25.1,13.2,21.2,27.7c-2.7,10-9.1,16.4-19.2,19.1c-0.2,0-0.3,0.2-0.5,0.2
				C123.8,384.8,122.2,385,120.6,385.2z"/>
			<path d="M281.3,289c-0.1,0.4-0.2,0.8-0.4,1.2c-0.8,1.9-1.7,3.2-4.1,3.4c-38.1,3.7-76.1,7.5-114.2,11.2c-7.7,0.8-15.5,1.4-23.2,2
				c-2.2,0.2-4.5,0.3-6.7,0c-7.5-1-13.8-4.4-18.6-10.2c-6.2-7.5-8.9-16-6.5-25.7c2.7-10.7,12-18.3,23-18.7
				c8.9-0.3,15.2,4.2,19.4,11.9c1.2,2.3,2.1,4.7,2.2,7.4c0,2.5-1.6,4.6-3.9,5c-2.4,0.4-4.7-1-5.5-3.4c-0.3-0.8-0.4-1.7-0.7-2.5
				c-2.1-6.6-7.3-9.5-14-8c-7.8,1.8-12.6,9.3-11.3,17.5c1.4,8.7,8.5,15.8,17.2,16.9c1.8,0.2,3.7,0,5.6-0.1
				c13.3-1.2,26.6-2.4,39.9-3.6c26.7-2.6,53.4-5.2,80.2-7.7c5.5-0.5,11.1-0.8,16.6-1.3c2.4-0.2,4,0.7,5,2.9
				C281.1,287.8,281.2,288.4,281.3,289z"/>
			<path d="M206.2,325.9c16.2-1.4,31.6-2.8,47-4.2c1.9-0.2,3.4,0.3,4.3,2c1,1.9,0.8,3.9-0.4,5.6c-0.4,0.6-1.4,1-2.1,1.1
				c-4.3,0.7-8.6,1.4-12.9,1.8c-26.1,2.6-52.3,5.2-78.4,7.7c-2.1,0.2-4.2,2.7-4.2,4.8c0.1,3,1.6,4.7,4.8,5c1.6,0.2,3,0.5,4.3,1.6
				c1.6,1.4,2,2.9,1.3,4.9c-0.6,1.9-1.8,3.2-4,3.4c-8.7,0.8-16-5.9-16.1-14.6c-0.1-6.4,3.3-10.7,8.6-13.7c0.6-0.3,1.3-0.5,2-0.5
				C175.9,329.1,191.4,327.4,206.2,325.9z"/>
			<path d="M89.1,314.9c-5,0.3-9.9,0.8-14.9,0.9c-8.4,0-14.5-4.3-18.7-11.3c-4.8-8.1-3.8-17.7,2.2-24.2c7.8-8.6,21.5-7.7,27.4,1.9
				c1.5,2.4,2.1,5.1,2.1,7.9c0,2.2-1.3,3.3-3.1,4c-1.7,0.7-3.6,0.3-4.7-1.1c-0.7-0.9-1.1-1.9-1.6-2.9c-0.6-1.2-0.9-2.5-1.8-3.5
				c-3.6-4-7.8-2.6-10.9,0.2c-3.7,3.5-3.8,9.8-0.3,14.2c3,3.7,6.8,5.5,11.6,5c7.8-0.8,15.7-1.4,23.5-2.1c1.3-0.1,2.6-0.2,3.8-0.1
				c2.4,0,4.2,1.8,4.4,4.2c0.2,2.5-1.3,4.6-3.7,5c-3,0.5-6,0.8-9,1.1c-2.2,0.3-4.4,0.4-6.6,0.7C89.1,314.8,89.1,314.9,89.1,314.9z"
				/>
		</g>
	</g>
	<g id="ysjfnE.tif_3_">
		<g>
			<path class="st0" d="M518.3,184.5c-3-4.2-6-8.4-9.3-13.1c-1.3,4.5-2.5,8.6-3.8,12.9c-2.1-0.6-4-1.1-6.3-1.8
				c1.2-4.3,2.1-8.7,3.6-12.7c1.6-4.1,1.2-7.4-1.9-10.5c-0.8-0.8-1.4-1.9-2.4-3.4c-2.8,8.9-5.4,17.1-8.1,25.6
				c-3.6-1.7-7.1-2.4-10.5,1.2c-4.4-8-8.6-15.7-13.1-23.8c-1.4,3-2.6,5.5-3.6,8.1c-0.3,0.7,0,1.9,0.4,2.6c2.4,5,5,10,7.6,15.3
				c-1.9,1-3.6,1.9-5.7,3c-2.1-4-4.1-7.8-6.4-12.1c-2.3,5.1-4.4,9.7-6.7,14.6c-2-0.9-3.8-1.7-6-2.7c2.1-4.8,4.2-9.5,6.6-14.8
				c-4.7,1.2-8.8,2.2-13.3,3.3c-0.5-2.1-1.1-4.2-1.6-6.4c5-1.3,9.7-2.7,14.5-3.7c2.9-0.6,4.8-1.8,5.7-4.8c0.5-1.7,1.5-3.3,2.4-5.5
				c-8.9,2-17.3,3.9-26.1,5.9c-0.4-4.4-2-7.9-6.9-9.2c4.8-7.8,9.5-15.2,14.3-23c-3.3,0.3-6.2,0.4-9,0.8c-0.8,0.1-1.6,1-2.1,1.8
				c-3.1,4.6-6.2,9.3-9.5,14.1c-1.8-1.2-3.5-2.3-5.5-3.6c2.4-3.8,4.8-7.4,7.5-11.5c-5.7,0.5-10.8,0.9-16.1,1.3
				c-0.2-2.3-0.4-4.3-0.6-6.6c5.3-0.5,10.5-1,16.1-1.5c-3.3-3.5-6.2-6.6-9.4-9.9c1.6-1.5,3.1-2.9,4.8-4.5c3.7,3.8,7.3,7.4,10.7,11.3
				c1.7,1.9,3.6,2.8,6.2,2.2c1.9-0.4,3.8-0.4,6.3-0.6c-6.1-6.8-11.9-13.2-18-20c3.7-2.1,5.2-5.3,4.3-9.6c9,0.3,17.6,0.5,26.9,0.8
				c-2-2.9-3.6-5.3-5.4-7.5c-0.6-0.7-1.9-0.8-2.9-0.9c-5.4-0.4-10.7-0.6-16.4-1c0.1-2.3,0.2-4.4,0.3-6.6c4.4,0.2,8.6,0.4,13.6,0.7
				c-3.2-4.6-6.2-8.7-9.2-13c1.9-1.4,3.6-2.5,5.5-3.9c2.9,4.1,5.9,8.3,9.3,13.1c1.4-4.9,2.7-9.1,3.9-13.3c2.1,0.6,4,1.1,6.3,1.8
				c-1.3,4.7-2.3,9.3-3.9,13.7c-1.3,3.4-0.9,6.1,1.6,8.8c1,1.1,1.7,2.4,3,4.1c2.8-8.8,5.3-17,8-25.5c3.5,1.3,7.2,2.5,10.6-1.4
				c4.4,8,8.6,15.6,12.7,23.2c4.1-4.5,4.6-8.4,2-13.4c-1-2-2-4.1-3-6.1c-1-1.9-1.9-3.8-3.1-6c1.9-1,3.7-1.9,5.8-3
				c2.1,4,4.1,7.8,6.4,12.1c2.3-5.1,4.5-9.7,6.7-14.6c2.1,0.9,3.9,1.7,6,2.7c-2.1,4.8-4.2,9.6-6.6,14.8c4.7-1.2,8.8-2.2,13.3-3.3
				c0.6,2.2,1.1,4.2,1.6,6.4c-5,1.3-9.7,2.7-14.6,3.7c-3,0.6-4.8,1.9-5.6,4.8c-0.5,1.7-1.4,3.3-2.4,5.4c8.9-2,17.3-3.9,26.1-5.9
				c0.4,4.5,2.1,7.9,6.9,9.3c-4.8,7.7-9.4,15.1-14.3,23c3.3-0.3,6-0.4,8.8-0.8c0.9-0.1,1.8-1.1,2.3-1.9c3.2-4.6,6.2-9.2,9.5-14.1
				c1.8,1.2,3.6,2.4,5.5,3.6c-2.5,3.8-4.8,7.5-7.5,11.5c5.6-0.5,10.7-0.9,16.1-1.3c0.2,2.2,0.4,4.3,0.5,6.6
				c-5.3,0.5-10.4,1-16.1,1.5c3.3,3.5,6.1,6.5,9.4,9.9c-1.5,1.5-3,2.9-4.7,4.6c-3.3-3.5-6.6-6.7-9.6-10.2c-2.3-2.6-4.7-4.2-8.3-3.2
				c-1.5,0.4-3.1,0.3-5.3,0.5c6.2,6.8,12,13.2,18.1,20c-3.8,2.1-5.2,5.3-4.4,9.6c-8.9-0.3-17.5-0.5-26.1-0.8
				c1.5,5.3,4.8,8.2,9.9,8.4c4.4,0.2,8.8,0.5,13.2,0.8c0.2,0,0.4,0.2,0.9,0.4c-0.1,2-0.2,4-0.3,6.3c-4.4-0.2-8.7-0.4-13.5-0.7
				c3.3,4.7,6.3,8.9,9.3,13.1C522.2,181.8,520.3,183.2,518.3,184.5z M433.7,155.6c10.1-2.3,19.6-4.5,29.1-6.7
				c0.6-0.1,1.4-0.7,1.6-1.2c3.1-6.7,6.1-13.4,9.3-20.5c-5.7,0.5-11,1.3-16.4,1.3c-5.3-0.1-8.5,2-11,6.7
				C442.5,142,438.1,148.4,433.7,155.6z M484.5,119.5c7.7-0.7,15-1.3,22.2-2c0.8-0.1,1.8-1,2.4-1.7c2.6-4,5.1-8.2,7.7-12.3
				c2.5-4,5-7.9,7.8-12.4c-10,2.3-19.4,4.4-28.8,6.6c-0.8,0.2-1.7,0.9-2,1.6C490.6,105.8,487.7,112.4,484.5,119.5z M484.1,177.2
				c0.4-0.4,0.6-0.5,0.7-0.6c1.7-5.3,3.4-10.6,5-16c1.2-3.8,3.6-7.8,3-11.3c-0.6-3.5-4.1-6.6-6.4-9.9c-2.1-3-4.3-6-6.7-9.4
				c-3.2,7.1-6.2,13.5-8.9,20c-0.4,1-0.1,2.5,0.4,3.5C475.4,161.4,479.7,169.2,484.1,177.2z M478.5,116.6c2.4-5.3,4.2-10.2,6.8-14.6
				c2.6-4.6,2.7-8.4-0.3-13c-4-6.2-7.2-13-11.2-20.2c-3,9.7-5.9,18.7-8.7,27.7c-0.2,0.5,0,1.3,0.4,1.8
				C469.7,104.2,473.9,110.2,478.5,116.6z M429.7,100.5c1.5,1.7,2.5,3,3.5,4.1c4.4,4.9,8.9,9.6,13.1,14.6c2,2.4,4,3.6,7.4,3.1
				c6.2-0.9,12.5-1.2,19.2-1.8c-3.5-4.8-6.9-9-9.6-13.6c-2.6-4.4-5.8-6-10.9-5.8C445.1,101.2,437.7,100.7,429.7,100.5z M528.7,146.1
				c-6.8-7.4-12.9-14.2-19-20.9c-0.5-0.6-1.5-1.1-2.2-1.1c-7.2,0.6-14.4,1.2-22.2,1.9c4.5,6.4,8.7,12.3,13,18.2c0.4,0.5,1.2,1,1.9,1
				C509.3,145.6,518.5,145.8,528.7,146.1z"/>
		</g>
	</g>
	<g>
		
			<image style="overflow:visible;opacity:0.55;" width="337" height="263" xlink:href="E32A154E94497CBE.png"  transform="matrix(1 0 0 1 205.4029 173.4029)">
		</image>
		<g>
			<path class="st1" d="M494,185.8c3.9,5.8,5.5,12.3,6.1,19.2c4.5,47.3,9.2,94.7,13.8,142c0.3,2.9,0.6,5.8,0.5,8.7
				c0.4,3,0.4,6-0.7,8.8c-4.8,11.7-13.3,19-26,20.4c-20.9,2.3-41.9,4.1-62.8,6.2c-58.4,5.7-116.9,11.4-175.3,17.1
				c-7,0.7-13.8,0.1-20.1-3.3c-3.6-2-6.8-4.5-9.5-7.6c-0.6-0.7-1.3-1.4-1.3-2.4c2.1-2.9,4.3-5.7,6.9-8.1
				c14.9-13.7,30-27.2,44.9-40.8c16.4-14.8,32.8-29.7,49.2-44.5c2.4-2.2,3.9-2.1,6.7-0.2c4,2.8,7.7,5.9,11.8,8.5
				c14.3,9,33,5.9,43.8-7.1c2.3-2.8,5-5.2,7.5-7.8c2.1-2.2,3.3-2.3,6-0.6c11.5,6.9,22.9,14,34.3,20.9c23.6,14.4,47.1,28.7,70.7,43.1
				c2.6,1.6,5.1,3.3,6.6,4.4c-11.1-7.4-23-15.8-35-24.2c-11.8-8.2-23.6-16.3-35.3-24.5c-11.8-8.3-23.6-16.5-35.5-24.7
				c-2.7-1.9-2.9-3.6-0.6-5.9c10.5-10.6,20.8-21.3,31.2-31.9c11.1-11.3,22.1-22.6,33.2-34c6.9-7.1,13.8-14.3,20.9-21.3
				c1-1,2-2,3.1-2.9c1.8-1.6,2.8-3.5,3.4-5.7C492.7,186.6,493.1,186,494,185.8z"/>
			<path class="st2" d="M494,185.8c3.9,5.8,5.5,12.3,6.1,19.2c4.5,47.3,9.2,94.7,13.8,142c0.3,2.9,0.6,5.8,0.5,8.7
				c0.4,3,0.4,6-0.7,8.8c-4.8,11.7-13.3,19-26,20.4c-20.9,2.3-41.9,4.1-62.8,6.2c-58.4,5.7-116.9,11.4-175.3,17.1
				c-7,0.7-13.8,0.1-20.1-3.3c-3.6-2-6.8-4.5-9.5-7.6c-0.6-0.7-1.3-1.4-1.3-2.4c2.1-2.9,4.3-5.7,6.9-8.1
				c14.9-13.7,30-27.2,44.9-40.8c16.4-14.8,32.8-29.7,49.2-44.5c2.4-2.2,3.9-2.1,6.7-0.2c4,2.8,7.7,5.9,11.8,8.5
				c14.3,9,33,5.9,43.8-7.1c2.3-2.8,5-5.2,7.5-7.8c2.1-2.2,3.3-2.3,6-0.6c11.5,6.9,22.9,14,34.3,20.9c23.6,14.4,47.1,28.7,70.7,43.1
				c2.6,1.6,5.1,3.3,6.6,4.4c-11.1-7.4-23-15.8-35-24.2c-11.8-8.2-23.6-16.3-35.3-24.5c-11.8-8.3-23.6-16.5-35.5-24.7
				c-2.7-1.9-2.9-3.6-0.6-5.9c10.5-10.6,20.8-21.3,31.2-31.9c11.1-11.3,22.1-22.6,33.2-34c6.9-7.1,13.8-14.3,20.9-21.3
				c1-1,2-2,3.1-2.9c1.8-1.6,2.8-3.5,3.4-5.7C492.7,186.6,493.1,186,494,185.8z"/>
		</g>
	</g>
	<path class="st3" d="M494,185.8c0.1,0.8-0.4,1.4-0.8,2c-0.4,2-2,3.3-3.3,4.6c-14.7,14.2-30.1,27.6-45.3,41.4
		c-16.7,15.2-33.5,30.2-50.2,45.5c-0.9,0.9-2,1.5-2.9,2.4c-2.5,2.3-4.9,4.7-7.6,6.7c-12.4,16.4-38.8,19-54.1,5.3
		c-3.1-1.4-5.9-3.4-8.8-5.1c-13.5-8.2-27.1-16.4-40.6-24.6c-15.6-9.5-31.2-19-46.9-28.3c-9.1-5.5-17.9-11.5-27.1-16.8
		c-1.4-0.8-2.9-1.5-3.8-3c-0.2-0.6-0.3-1.1,0-1.7c4.2-8.7,11.1-13.9,20.6-15.7c3.7-0.7,7.5-1,11.2-1.4c76.9-7.5,153.7-15,230.6-22.5
		c7.4-0.7,14.6-0.1,21.1,4.1C489.2,180.4,491.9,182.7,494,185.8z"/>
	<path class="st4" d="M202.6,214c0.2,0.5,0.4,1,0.7,1.5c1.2,2,3.3,2.9,5.1,4.1c9.2,6,18.3,11.9,27.3,18.3c8.6,6.1,17.3,12.1,26,18.1
		c7.7,5.4,15.4,10.8,23.1,16.2c7.5,5.3,15,10.5,22.5,15.8c2.7,1.9,5.7,3.4,7.8,6c0.1,0.2,0.1,0.4,0.1,0.7c-0.4,2.1-2.3,3.2-3.6,4.5
		c-10.6,10.7-21,21.5-31.6,32.2c-10.2,10.4-20.4,20.8-30.7,31.2c-7.5,7.6-14.9,15.3-22.4,22.8c-2.2,2.2-4.5,4.4-6.2,7
		c-0.5,0.8-1.3,1.4-2.3,1.3c-1.2-0.4-1.6-1.4-2-2.4c-0.7-2.1-1.4-4.2-1.4-6.5c-0.7-2.7-0.9-5.6-1.2-8.4
		c-4.7-48.8-9.5-97.5-14.2-146.3C199,224.5,199.7,219,202.6,214z"/>
	<path class="st5" d="M219.1,393.8c-0.1-0.1-0.2-0.3-0.3-0.4c3.1-4.1,6.5-8,10.2-11.7c8.6-8.6,17-17.3,25.6-26
		c7.6-7.7,15.1-15.5,22.7-23.2c7.5-7.7,15.1-15.3,22.6-22.9c5-5,9.9-10,14.9-15c1.8-0.9,2.9,0.6,4.1,1.4c3.8,2.6,3.7,2.7,7.2-0.2
		c1.3-1.1,2.4-2.4,4.1-3c5.4,4.1,11.2,7.2,18,8.1c13.7,1.9,25.2-2.1,34.5-12.3c0.3-0.3,0.7-0.6,1-1c2.5,0.5,4.4,2.2,6.6,3.4
		c1.4,0.8,2.4,0.6,3.5-0.5c3.7-3.6,3.7-3.6-0.3-6.8c-0.9-0.7-2.3-1.2-2.4-2.7c13.8-12.5,27.5-25,41.3-37.5
		c19.2-17.4,38.4-34.7,57.6-52.1c1.2-1.1,2.2-2.4,3.3-3.6c0.2,2.4-1.6,3.8-3,5.2c-10.8,11.2-21.7,22.4-32.6,33.5
		c-10.5,10.8-21.1,21.5-31.6,32.2c-8.4,8.6-16.7,17.2-25.1,25.7c-1.4,1.4-1.3,2.4,0.4,3.5c11.9,8.2,23.7,16.4,35.6,24.6
		c11.8,8.2,23.5,16.4,35.3,24.6c10.7,7.4,21.4,14.8,32.1,22.2c2.2,1.5,4.5,3.1,5.6,5.9c-2.5-1.5-4.9-3-7.4-4.5
		c-15.3-9.4-30.6-18.7-46-28.1c-20.7-12.6-41.4-25.2-62.1-37.9c-1.5-0.9-2.5-1.1-3.8,0.3c-3.8,4.1-7.5,8.3-11.5,12.1
		c-12.1,11.2-31.7,11.7-44.6,1.4c-3.1-2.5-6.5-4.7-9.7-7.1c-1.4-1-2.4-1.1-3.9,0.2c-20.2,18.4-40.4,36.7-60.7,55
		c-11.9,10.8-23.9,21.5-35.8,32.3c-1.3,1.2-2.4,2.6-3.6,4C220.4,393.7,219.9,394.1,219.1,393.8z"/>
	<path class="st5" d="M314.6,294.1c-3.5-1.8-6.5-4.3-9.7-6.6c-7.7-5.3-15.3-10.6-23-16c-7.6-5.3-15.3-10.7-22.9-16.1
		c-7.5-5.3-15-10.5-22.5-15.8c-7.7-5.4-15.4-10.8-23.1-16.2c-3-2.1-5.9-4.1-8.8-6.2c-0.6-0.4-1.8-0.6-1.3-1.8
		c8.2,5.9,17.1,10.8,25.8,16c30.6,18.6,61.2,37.1,91.8,55.6c0.3,0.2,0.5,0.4,0.7,0.6C320.6,290.8,316.9,294.1,314.6,294.1z"/>
	<path class="st5" d="M314.6,294.1c2.7-1.8,4.3-4.7,7-6.4c2.8,1.7,5.6,3.3,8.4,5c-1.5,3-4.6,4.6-6.9,6.8c-0.6,0.5-1.2-0.1-1.7-0.4
		c-1.1-0.7-2.1-1.4-3.2-2.1c-1.2-0.8-2.5-1.6-3.7-2.5C314.6,294.4,314.6,294.3,314.6,294.1z"/>
	<path class="st5" d="M391,281c2.5,1.1,4.4,2.9,6.6,4.4c1,0.6,1.2,1.5,0.3,2.3c-2,1.8-3.4,5.4-5.9,5.1c-3-0.5-6.1-2.5-8.2-5.2
		C386.1,285.3,388.5,283.2,391,281z"/>
</g>
<g>
	<g id="WjzJxt_1_">
		<g>
			<path class="st6" d="M383.2,247.8c-0.3,0-0.6,0.1-0.9,0.1c-0.3,0-0.4,0.2-0.5,0.4c-0.3,1.2-0.6,2.3-1,3.5c-0.3,1.2-0.7,2.3-1,3.5
				c-0.3,1-0.5,1.9-0.8,2.9c-0.1,0.2-0.1,0.4-0.2,0.7c-0.1,0.3-0.3,0.4-0.5,0.2c-0.4-0.3-0.8-0.6-1.1-0.9c-0.2-0.2-0.4-0.1-0.5,0.1
				c-0.7,1.4-1.4,2.8-2.1,4.2c-0.5,1-1,2-1.5,3c-0.5,1-1,2-1.5,3c-0.4,0.8-0.7,1.5-1.1,2.3c-0.3,0.7-0.7,1.4-1,2
				c-0.2,0.3-0.3,0.3-0.6,0.1c-0.5-0.3-1-0.7-1.5-1c-0.1,0-0.3,0-0.4,0.1c-1,1.2-2,2.4-3,3.6c-2.2,2.6-4.4,5.2-6.5,7.9
				c-0.2,0.3-0.3,0.3-0.6,0c-2.6-2.1-5.2-4.3-7.9-6.4c-1.2-1-2.4-2-3.7-3c-0.2-0.1-0.3-0.1-0.4,0c-0.4,0.5-0.9,0.9-1.3,1.4
				c-0.2,0.2-0.3,0-0.4-0.1c-0.2-0.3-0.4-0.6-0.6-0.8c-0.5-0.7-1-1.3-1.5-2c-0.4-0.5-0.8-1.1-1.3-1.6c-0.4-0.5-0.8-1-1.2-1.5
				c-0.7-0.9-1.4-1.8-2-2.6c-0.5-0.7-1.1-1.4-1.6-2c-0.4-0.5-0.8-1-1.1-1.5c-0.2-0.3-0.4-0.5-0.6-0.8c-0.2-0.2-0.3-0.2-0.5,0
				c-0.3,0.4-0.6,0.7-1,1.1c-0.2,0.2-0.4,0.2-0.6-0.1c-0.1-0.2-0.2-0.4-0.3-0.7c-0.4-0.8-0.8-1.5-1.2-2.3c-0.4-0.8-0.8-1.7-1.2-2.6
				c-0.4-0.7-0.7-1.4-1.1-2.1c-0.3-0.7-0.7-1.4-1-2c-0.2-0.4-0.2-0.4-0.6-0.4c-0.6,0.1-1.1,0.1-1.7,0.2c-0.3,0-0.4-0.1-0.3-0.4
				c0.2-0.5,0.4-1.1,0.7-1.6c0.2-0.6,0.5-1.2,0.7-1.8c0.2-0.6,0.4-1.2,0.6-1.8c0.1-0.2,0.2-0.4,0.3-0.6c0.2-0.5,0.3-1,0.5-1.5
				c0.1-0.2,0.2-0.3,0.2-0.4c0.3-0.7,0.5-1.3,0.8-2c0.2-0.4,0.3-0.8,0.5-1.2c0.1-0.2,0.1-0.3-0.1-0.4c-0.3-0.2-0.6-0.4-1-0.5
				c-0.3-0.1-0.2-0.3-0.1-0.5c0.3-0.4,0.5-0.8,0.8-1.2c0.4-0.7,0.9-1.4,1.3-2.1c0.5-0.8,1-1.5,1.5-2.3c0.5-0.8,1-1.6,1.6-2.4
				c0.1-0.2,0.1-0.3,0-0.5c-0.6-0.6-1.3-1.3-1.9-1.9c-0.2-0.2-0.3-0.4-0.3-0.6c0-0.6,0-1.2,0.1-1.7c0.1-1.3,0.2-2.5,0.3-3.8
				c0.1-0.8,0.2-1.6,0.3-2.4c0.2-0.9,0.4-1.8,0.6-2.7c0.2-0.7,0.4-1.4,0.6-2.1c0.3-0.9,0.6-1.8,1-2.7c0.3-0.8,0.7-1.6,1.2-2.3
				c0.6-1,1.3-2,2.1-2.9c0.1-0.1,0.2-0.2,0.3-0.3c0.1-0.2,0.3-0.2,0.5-0.1c0.6,0.4,1.3,0.8,1.9,1.3c1.1,0.8,2,1.7,2.9,2.7
				c0.6,0.6,1.1,1.3,1.6,2c0.7,1,1.4,2,2.1,3c0.3,0.4,0.5,0.9,0.7,1.3c0.2,0.5,0.4,0.5,0.8,0.3c0.2-0.1,0.5-0.1,0.7-0.2
				c1.5-0.4,3.1-0.6,4.7-0.7c1,0,1.9,0,2.9,0.1c0.3,0,0.4,0,0.6-0.3c0.2-0.6,0.4-1.2,0.6-1.8c0.3-0.9,0.7-1.7,1.1-2.6
				c0.6-1.2,1.2-2.4,2-3.6c0.9-1.4,1.8-2.6,3-3.7c0.1-0.1,0.3-0.3,0.4-0.4c0.2-0.1,0.3-0.2,0.5,0c1,0.8,1.9,1.6,2.8,2.5
				c0.8,0.9,1.6,1.9,2.2,2.9c0.5,0.7,0.9,1.4,1.3,2.2c0.5,0.9,0.9,1.9,1.3,2.8c0.3,0.7,0.6,1.3,0.8,2c0.2,0.5,0.3,0.9,0.5,1.4
				c0.1,0.4,0.2,0.8,0.4,1.2c0.2,0.7,0.4,1.4,0.6,2.1c0.2,0.8,0.4,1.7,0.5,2.5c0,0.1,0,0.3-0.1,0.4c-0.5,0.8-1,1.5-1.5,2.3
				c-0.2,0.3-0.2,0.4,0.1,0.7c0.5,0.5,1.1,1.1,1.6,1.6c1,1,2,2.1,3,3.1c0.6,0.6,1.3,1.3,1.9,2c0.2,0.2,0.2,0.3,0,0.5
				c-0.3,0.2-0.6,0.5-0.8,0.7c-0.2,0.2-0.1,0.3,0,0.5c0.4,0.7,0.9,1.4,1.3,2c0.3,0.5,0.7,1,1,1.4c0.2,0.3,0.4,0.7,0.6,1
				c0.6,1,1.2,1.9,1.8,2.8c0.4,0.7,0.9,1.4,1.3,2.1c0.1,0.1,0.2,0.3,0.3,0.4c0.2,0.3,0.1,0.4-0.2,0.4
				C383.8,247.8,383.5,247.8,383.2,247.8C383.2,247.8,383.2,247.8,383.2,247.8z M365.9,238.4c0.1-0.2,0.1-0.3,0.2-0.4
				c0.3-0.4,0.7-0.9,1.1-1.3c0.3-0.4,0.6-0.8,0.9-1.2c0.1-0.2,0.1-0.3-0.1-0.4c-0.1,0-0.1,0-0.2,0c-0.6-0.1-1.1-0.3-1.7-0.4
				c-0.6-0.1-1.1-0.3-1.7-0.5c-0.5-0.1-1-0.3-1.6-0.4c-0.6-0.2-1.1-0.3-1.7-0.5c-0.4-0.1-0.7-0.2-1.1-0.4c-0.4-0.2-0.8-0.5-1.1-0.8
				c-0.8-0.5-1.5-1.1-2.3-1.6c-0.2-0.1-0.3-0.1-0.4,0.1c-0.1,0.1-0.2,0.3-0.2,0.4c-0.5,0.8-1,1.7-1.4,2.5c-0.1,0.3-0.3,0.6-0.3,0.9
				c0,0.9,0.2,1.7,0.2,2.6c0,0.6,0.2,0.9,0.6,1.3c0.6,0.6,1.2,1.2,1.8,1.9c0.1,0.1,0.3,0.2,0.4,0c0.4-0.6,0.9-1.2,1.4-1.8
				c0.7-0.9,1.4-1.8,2-2.7c0.1-0.1,0.2-0.1,0.3-0.2c0,0.1,0.1,0.2,0.1,0.3c0,0.2,0.1,0.4,0.3,0.4c0.4,0.1,0.9,0.2,1.3,0.3
				c0.4,0.1,0.9,0.2,1.3,0.2c0.4,0.1,0.8,0.2,1.2,0.2c0.2,0,0.3,0.1,0.5,0.1c-0.1,0.2-0.1,0.3-0.2,0.5c0,0,0,0,0,0
				c-0.6,0.8-1.1,1.6-1.7,2.5c-0.1,0.2,0,0.4,0.2,0.4c0.1,0,0.1,0,0.2,0c0.1,0,0.1,0.1,0.1,0.2c0,0-0.1,0.1-0.1,0.1
				c-0.3,0.1-0.6,0.2-0.9,0.2c-0.5,0.1-0.9,0.1-1.4,0.1c-1.2,0.2-2.5,0.4-3.7,0c-0.1,0-0.1,0-0.2,0c0.1,0.2,0.2,0.3,0.3,0.4
				c0.4,0.4,0.7,0.7,1.1,1.1c0.3,0.4,0.7,0.8,1,1.1c0.5,0.5,1,1,1.4,1.5c0,0,0,0.1,0.1,0.2c-0.1,0-0.1,0.1-0.2,0.1
				c-0.2-0.1-0.5-0.1-0.7-0.2c-0.6-0.2-1.3-0.5-1.9-0.7c-0.3-0.1-0.5-0.1-0.8-0.2c-0.6-0.2-1.2-0.6-1.9-0.7c-0.1,0-0.3,0-0.4,0
				c-0.1,0.1,0,0.3,0,0.4c0,0.2,0.1,0.3,0.2,0.5c0.2,0.5,0.3,1.1,0.5,1.6c0.1,0.4,0.2,0.8,0.4,1.2c0.2,0.6,0.4,1.1,0.5,1.7
				c0.2,0.5,0.3,1.1,0.5,1.7c0,0.1,0,0.2,0,0.2c-0.1,0-0.2,0-0.3,0c-0.1,0-0.2-0.1-0.3-0.1c-0.6-0.2-1.1-0.4-1.7-0.6
				c-0.6-0.2-1.3-0.3-2-0.1c-1.2,0.2-2.2,0.8-3.1,1.5c-0.1,0-0.1,0.1-0.2,0.1c-0.1,0-0.2,0-0.2-0.2c0.1-0.6,0.1-1.1,0.2-1.7
				c0.1-0.7-0.1-1.4,0.2-2c0-0.1,0-0.1,0-0.2c0-0.5,0-1.1,0.1-1.6c0-0.1,0-0.1,0-0.2c0.1-0.5,0.2-1,0.3-1.5c0-0.3-0.1-0.4-0.4-0.3
				c-0.3,0.1-0.5,0.3-0.8,0.4c-0.5,0.3-1,0.6-1.5,0.9c-0.5,0.3-1.1,0.6-1.6,0.9c-0.4,0.2-0.7,0.5-1.1,0.7c-0.1,0-0.2,0-0.3,0
				c0-0.1,0-0.2,0-0.3c0.4-0.5,0.8-1.1,1.1-1.6c0.1-0.2,0.2-0.4,0.3-0.6c0.5-0.7,0.9-1.4,1.4-2c0.1-0.1,0.1-0.2,0.1-0.4
				c-0.4,0.1-0.7,0.2-0.9,0.3c-0.8,0.4-1.7,0.4-2.5,0.4c-0.6,0.1-1.2,0-1.8,0c-0.1,0-0.2,0-0.3,0c-0.2,0-0.3,0.1-0.4,0.1
				c-0.2,0-0.3,0-0.5,0.1c0.1-0.3,0.3-0.4,0.5-0.5c0.1,0,0.2-0.1,0.3-0.1c-0.1-0.1-0.1-0.2-0.2-0.3c0-0.1-0.1-0.1-0.2-0.2
				c-0.3-0.3-0.6-0.6-0.9-0.9c-0.4-0.4-0.8-0.8-1.2-1.2c-0.2-0.2-0.2-0.3,0.1-0.4c0.3-0.1,0.5-0.2,0.8-0.3c0.9-0.3,1.8-0.7,2.7-1
				c0.5-0.2,0.6-0.3,0.6-0.7c0-0.1,0-0.2,0-0.3c0.1,0,0.2,0,0.3,0.1c0.2,0.1,0.3,0.3,0.5,0.4c0.7,0.6,1.3,1.2,2,1.8
				c0.6,0.5,1.1,1,1.7,1.5c0.2,0.2,0.3,0.1,0.4-0.1c0.5-0.8,1.1-1.6,1.6-2.5c0.1-0.2,0.2-0.5,0.2-0.7c-0.1-1-0.2-2-0.3-3
				c0-0.2-0.1-0.4-0.2-0.6c-0.3-0.4-0.6-0.7-0.9-1.1c-0.5-0.5-0.9-1.1-1.4-1.6c-0.2-0.3-0.3-0.3-0.6,0c-0.8,0.8-1.6,1.6-2.4,2.5
				c-0.4,0.4-0.8,0.7-1.3,0.9c-0.5,0.2-1,0.5-1.5,0.7c-0.5,0.3-1.1,0.5-1.6,0.8c-0.5,0.2-1,0.5-1.4,0.7c-0.6,0.3-1.1,0.6-1.7,0.8
				c-0.3,0.2-0.4,0.3-0.1,0.6c0.8,0.7,1.6,1.3,2.4,2c0.1,0.1,0.2,0.2,0.2,0.3c0,0-0.2,0.1-0.3,0.2c-0.7,0.3-1.5,0.5-2.2,0.8
				c-0.8,0.3-1.5,0.6-2.2,0.9c-0.3,0.1-0.6,0.3-1,0.3c-0.4,0.1-0.6,0.3-0.8,0.6c-0.4,0.6-0.7,1.2-1.1,1.9c-0.2,0.3-0.4,0.5-0.6,0.8
				c-0.4,0.7-0.9,1.4-1.3,2.1c-0.2,0.3-0.4,0.6-0.6,0.9c-0.2,0.3-0.4,0.5-0.6,0.8c-0.2,0.3,0,0.4,0.3,0.4c0.5,0,1.1,0,1.6,0.1
				c0.3,0,0.6,0.1,0.9,0.1c0.3,0,0.4,0.1,0.5,0.4c0.1,0.5,0.2,0.9,0.2,1.4c0.3,1.9,0.6,3.7,0.9,5.6c0,0.1,0.1,0.2,0.2,0.2
				c0,0,0.2-0.1,0.2-0.1c0.4-0.5,0.8-0.9,1.1-1.4c0.1-0.2,0.3-0.2,0.4,0c0.2,0.3,0.5,0.6,0.7,0.8c0.6,0.7,1.2,1.5,1.7,2.2
				c0.7,0.9,1.4,1.7,2.1,2.6c0.1,0.1,0.3,0.3,0.4,0.4c0,0,0.1,0,0.1,0c0-0.1,0-0.3,0-0.4c-0.1-0.5-0.2-1-0.3-1.5
				c-0.2-0.8-0.3-1.6-0.5-2.4c-0.3-1.3-0.5-2.5-0.8-3.8c-0.1-0.5-0.2-1-0.3-1.5c0-0.1,0-0.2,0-0.3c0,0,0.1,0,0.1,0
				c0,0.1,0.1,0.2,0.1,0.3c0,0.1,0.1,0.3,0.1,0.4c0.3,0.7,0.6,1.3,0.8,2c0.3,0.6,0.5,1.3,0.7,1.9c0.4,0.9,0.7,1.8,1.1,2.7
				c0.3,0.8,0.6,1.5,0.9,2.3c0.4,0.9,0.7,1.9,1.1,2.8c0.4,1,0.8,2,1.2,3c0.1,0.2,0.2,0.2,0.4,0.1c0.3-0.2,0.5-0.4,0.8-0.6
				c0.2-0.1,0.3-0.2,0.5,0c0.3,0.3,0.5,0.5,0.8,0.8c0.9,1,1.9,2,2.8,3c0.6,0.6,1.1,1.2,1.7,1.8c1,1.1,2,2.2,3,3.2
				c0.5,0.6,1.1,1.1,1.6,1.7c0.1,0.1,0.3,0.1,0.4,0c0.3-0.4,0.5-0.8,0.8-1.3c0.6-0.9,1.2-1.9,1.8-2.8c0.6-0.9,1.1-1.8,1.6-2.7
				c0.5-0.9,1.1-1.7,1.6-2.5c0.6-1,1.2-2,1.8-2.9c0.1-0.2,0.3-0.2,0.5-0.1c0.3,0.1,0.5,0.3,0.8,0.4c0.2,0.1,0.4,0.1,0.4-0.2
				c0.1-0.4,0.1-0.7,0.2-1.1c0.1-0.7,0.3-1.4,0.4-2c0.1-0.7,0.2-1.4,0.4-2.1c0.2-1.1,0.4-2.2,0.6-3.3c0.1-0.3,0.1-0.6,0.2-0.9
				c0.1-0.7,0.3-1.4,0.4-2.1c0.1-0.7,0.3-1.4,0.4-2.2c0.1-0.4,0.2-0.8,0.2-1.2c0.1-0.4,0.1-0.8,0.2-1.2c0-0.1,0.1-0.1,0.1-0.2
				c0.2,0.1,0.2,0.3,0.2,0.5c0,1.2,0,2.4,0,3.6c0,0.3,0,0.5,0,0.8c0,1.1,0,2.1,0,3.2c0,0.1,0,0.1,0,0.2c0,0.5,0,1,0,1.6
				c0,0.1,0.1,0.2,0.1,0.2c0,0,0.1,0,0.1,0c0,0,0-0.1,0-0.1c0.3-0.5,0.6-1.1,0.8-1.6c0.7-1.3,1.4-2.6,2.1-3.9
				c0.2-0.4,0.4-0.8,0.7-1.2c0.1-0.2,0.3-0.2,0.4-0.1c0.5,0.4,0.9,0.7,1.4,1.1c0.1,0.1,0.2,0.1,0.3,0.1c0-0.1,0.1-0.2,0.1-0.3
				c-0.1-2.1-0.1-4.2-0.2-6.3c0-0.3,0-0.5,0-0.8c-0.1-0.3,0.1-0.4,0.3-0.5c0.3-0.1,0.7-0.1,1-0.2c0.5-0.2,1-0.3,1.6-0.5
				c0.1,0,0.2-0.2,0.1-0.3c-0.3-0.3-0.5-0.6-0.8-0.9c-0.7-0.7-1.5-1.5-2.2-2.2c-0.6-0.7-1.3-1.3-1.9-2c-0.5-0.5-0.9-1-1.7-1
				c0,0-0.1,0-0.1,0c-0.4-0.1-0.8-0.1-1.2-0.2c-0.8-0.1-1.5-0.2-2.3-0.3c-0.6-0.1-1.2-0.2-1.8-0.3
				C366.1,238.4,366,238.4,365.9,238.4z M369.5,223.6c0.1,0.1,0.1,0.2,0.2,0.3c0.1,0.6,0.3,1.1,0.4,1.7c0.2,0.8,0.4,1.6,0.6,2.4
				c0,0.1,0.1,0.2,0.1,0.3c0.1-0.1,0.2-0.1,0.3-0.2c0.5-0.7,1-1.5,1.6-2.2c0.4-0.5,0.3-0.9,0.1-1.4c-0.1-0.2-0.2-0.4-0.2-0.6
				c-0.2-0.6-0.3-1.1-0.5-1.7c-0.1-0.3-0.2-0.7-0.3-1c-0.2-0.5-0.3-0.9-0.5-1.4c-0.2-0.7-0.5-1.3-0.7-2c-0.3-0.8-0.7-1.5-1.1-2.3
				c-0.4-0.8-0.8-1.6-1.3-2.3c-0.4-0.6-0.9-1.2-1.3-1.8c-0.9-1.1-1.9-2.1-3.1-2.8c-0.2-0.1-0.3-0.1-0.4,0c-0.2,0.2-0.3,0.4-0.5,0.5
				c-1,1-1.8,2.2-2.5,3.4c-0.4,0.7-0.7,1.4-1,2.2c-0.2,0.6-0.5,1.2-0.7,1.8c0,0.1,0,0.3,0,0.4c0.5,0.7,0.9,1.4,1.4,2
				c0.3,0.5,0.7,1,1,1.5c0.1,0.1,0.1,0.2,0.1,0.3c-0.1,0-0.1,0-0.1,0c-0.9-0.4-1.8-0.8-2.7-1.2c-0.1-0.1-0.3,0-0.4,0
				c0.1,0.1,0.1,0.2,0.2,0.3c0.5,0.6,1.1,1.2,1.7,1.7c0.5,0.5,1,1.1,1.5,1.6c0.4,0.5,0.8,0.9,1.3,1.4c0.1,0.1,0.3,0.1,0.4-0.1
				c0.1-0.3,0.1-0.6,0.2-0.9c0.1-0.4,0.1-0.8,0.2-1.3c0.1-0.7,0.3-1.3,0.4-2c0.1-0.7,0.2-1.4,0.4-2.1c0.1-0.8,0.3-1.6,0.4-2.4
				c0-0.2,0.1-0.4,0.3-0.4c0.1,0.2,0.1,0.4,0.2,0.5c0.1,0.2,0.1,0.5,0.2,0.8c0.2,0.7,0.4,1.4,0.6,2c0.2,0.8,0.4,1.5,0.6,2.3
				c0.2,0.5,0.3,1.1,0.5,1.6c0.3,0.9,0.5,1.8,0.8,2.7c0,0.1,0.1,0.2,0.1,0.2c0.1,0,0.2-0.1,0.2-0.1c0.1-0.1,0.2-0.3,0.3-0.5
				C368.8,224.5,369.2,224.1,369.5,223.6z M336.6,218.2C336.6,218.2,336.6,218.2,336.6,218.2c0.2,0.1,0.3,0.2,0.4,0.3
				c0.3,0.7,0.5,1.3,0.8,2c0.1,0.3,0.2,0.6,0.4,0.9c0.2,0.5,0.4,0.9,0.6,1.4c0.2,0.6,0.5,1.2,0.7,1.7c0.3,0.7,0.6,1.4,0.9,2.1
				c0,0.1,0.1,0.2,0.2,0.2c0.1,0,0.2-0.1,0.3-0.2c0.1-0.2,0.2-0.4,0.3-0.6c0.3-0.5,0.6-0.9,0.9-1.4c0.4-0.6,0.8-1.3,1.2-1.9
				c0.3-0.5,0.7-1.1,1-1.6c0-0.1,0-0.2,0-0.3c-0.1,0-0.2,0-0.3,0c-0.2,0.1-0.4,0.3-0.6,0.4c-0.7,0.5-1.3,0.9-2,1.4
				c0-0.2,0-0.3,0.1-0.3c0.1-0.2,0.2-0.4,0.3-0.6c0.2-0.5,0.4-1,0.7-1.5c0.3-0.6,0.6-1.2,0.8-1.9c0-0.1,0-0.2,0-0.3
				c-0.3-0.5-0.6-1-0.9-1.5c-0.4-0.6-0.8-1.2-1.3-1.7c-0.6-0.7-1.1-1.4-1.7-2c-0.6-0.6-1.3-1.1-2-1.6c-0.4-0.3-0.4-0.3-0.7,0
				c-0.9,0.8-1.6,1.8-2.2,2.9c-0.6,1-1.1,2.1-1.4,3.2c-0.3,0.9-0.6,1.8-0.8,2.7c-0.2,0.9-0.4,1.8-0.5,2.7c-0.1,0.3-0.1,0.7-0.2,1
				c-0.1,0.5-0.2,1.1-0.2,1.6c-0.1,0.5-0.1,1-0.2,1.6c-0.1,0.6-0.1,1.3-0.2,1.9c0,0.3,0.1,0.6,0.4,0.8c0.6,0.5,1.1,1,1.6,1.5
				c0.2,0.2,0.3,0.3,0.5,0.5c0.1,0.1,0.2,0.1,0.3,0.1c0,0,0.1-0.1,0.1-0.2c0-0.4,0.1-0.9,0.1-1.3c0.1-1,0.1-2.1,0.2-3.1
				c0-0.1,0.1-0.1,0.1-0.2c0.5,0.5,1,1,1.5,1.5c0.1,0.1,0.2,0.1,0.3,0.2c0,0,0.1-0.1,0.1-0.2c0.1-0.9,0.1-1.8,0.2-2.7
				c0-0.6,0.1-1.3,0.1-1.9c0.1-0.7,0.1-1.4,0.2-2c0-0.5,0.1-0.9,0.1-1.4c0-0.7,0.1-1.3,0.1-2C336.5,218.4,336.6,218.3,336.6,218.2z
				 M342.9,240.7C343,240.7,343,240.7,342.9,240.7c0.2,0.9,0.9,1.5,1.8,1.3c0.3-0.1,0.6-0.1,0.8-0.2c0.5-0.3,0.6-0.8,0.6-1.3
				c0-0.5-0.2-0.8-0.8-0.8c-0.2,0-0.4,0-0.6,0c-0.4,0-0.8,0-1.2,0c-0.1,0-0.3,0.1-0.3,0.2C343.1,240.1,343,240.4,342.9,240.7z
				 M363.2,238.7c0-0.1,0-0.3-0.1-0.4c-0.1-0.3-0.3-0.6-0.5-0.6c-0.4,0-0.8,0.1-1.2,0.2c-0.1,0-0.2,0.2-0.1,0.3
				c0,0.1,0.1,0.3,0.2,0.3c0.1,0,0.3-0.1,0.4-0.1c0.2-0.1,0.3-0.1,0.4,0.1c0,0.2-0.1,0.6-0.3,0.6c-0.2,0.1-0.5,0.2-0.8,0
				c-0.2-0.2-0.3-0.4-0.2-0.8c0.1-0.2,0-0.3-0.2-0.3c-0.5,0.1-0.7,0.5-0.6,1.1c0.1,0.5,0.4,0.9,0.9,1c0.5,0.1,1,0,1.5,0
				c0,0,0.1,0,0.1-0.1C363,239.7,363.3,239.3,363.2,238.7z"/>
			<path class="st7" d="M365.9,238.4c0.2,0,0.2,0,0.3,0.1c0.6,0.1,1.2,0.2,1.8,0.3c0.8,0.1,1.5,0.2,2.3,0.3c0.4,0.1,0.8,0.1,1.2,0.2
				c0,0,0.1,0,0.1,0c0.8,0,1.2,0.4,1.7,1c0.6,0.7,1.3,1.4,1.9,2c0.7,0.7,1.5,1.5,2.2,2.2c0.3,0.3,0.5,0.6,0.8,0.9
				c0.1,0.2,0,0.3-0.1,0.3c-0.5,0.2-1,0.3-1.6,0.5c-0.3,0.1-0.7,0.2-1,0.2c-0.2,0.1-0.4,0.2-0.3,0.5c0.1,0.2,0,0.5,0,0.8
				c0.1,2.1,0.2,4.2,0.2,6.3c0,0.1-0.1,0.2-0.1,0.3c-0.1,0-0.2-0.1-0.3-0.1c-0.5-0.4-0.9-0.7-1.4-1.1c-0.2-0.1-0.3-0.2-0.4,0.1
				c-0.2,0.4-0.5,0.8-0.7,1.2c-0.7,1.3-1.4,2.6-2.1,3.9c-0.3,0.5-0.6,1.1-0.8,1.6c0,0,0,0.1,0,0.1c0,0-0.1,0-0.1,0
				c0-0.1-0.1-0.2-0.1-0.2c0-0.5,0-1,0-1.6c0-0.1,0-0.1,0-0.2c0-1.1,0-2.1,0-3.2c0-0.3,0-0.5,0-0.8c0-1.2,0-2.4,0-3.6
				c0-0.2,0.1-0.4-0.2-0.5c0,0.1-0.1,0.1-0.1,0.2c-0.1,0.4-0.1,0.8-0.2,1.2c-0.1,0.4-0.1,0.8-0.2,1.2c-0.1,0.7-0.3,1.5-0.4,2.2
				c-0.1,0.7-0.3,1.4-0.4,2.1c-0.1,0.3-0.1,0.6-0.2,0.9c-0.2,1.1-0.4,2.2-0.6,3.3c-0.1,0.7-0.2,1.4-0.4,2.1c-0.1,0.7-0.3,1.4-0.4,2
				c-0.1,0.4-0.1,0.7-0.2,1.1c0,0.3-0.2,0.3-0.4,0.2c-0.3-0.2-0.5-0.3-0.8-0.4c-0.2-0.1-0.3-0.1-0.5,0.1c-0.6,1-1.2,2-1.8,2.9
				c-0.5,0.9-1.1,1.7-1.6,2.5c-0.6,0.9-1.1,1.8-1.6,2.7c-0.6,0.9-1.2,1.9-1.8,2.8c-0.3,0.4-0.5,0.8-0.8,1.3c-0.1,0.2-0.3,0.2-0.4,0
				c-0.5-0.6-1.1-1.1-1.6-1.7c-1-1.1-2-2.2-3-3.2c-0.6-0.6-1.1-1.2-1.7-1.8c-0.9-1-1.9-2-2.8-3c-0.3-0.3-0.5-0.6-0.8-0.8
				c-0.1-0.2-0.3-0.1-0.5,0c-0.3,0.2-0.5,0.4-0.8,0.6c-0.1,0.1-0.3,0.1-0.4-0.1c-0.4-1-0.8-2-1.2-3c-0.4-0.9-0.7-1.9-1.1-2.8
				c-0.3-0.8-0.6-1.5-0.9-2.3c-0.4-0.9-0.8-1.8-1.1-2.7c-0.3-0.6-0.5-1.3-0.7-1.9c-0.3-0.7-0.6-1.3-0.8-2c-0.1-0.1-0.1-0.3-0.1-0.4
				c0-0.1-0.1-0.2-0.1-0.3c0,0-0.1,0-0.1,0c0,0.1,0,0.2,0,0.3c0.1,0.5,0.2,1,0.3,1.5c0.3,1.3,0.5,2.5,0.8,3.8
				c0.2,0.8,0.3,1.6,0.5,2.4c0.1,0.5,0.2,1,0.3,1.5c0,0.1,0,0.3,0,0.4c0,0-0.1,0-0.1,0c-0.1-0.1-0.3-0.3-0.4-0.4
				c-0.7-0.9-1.4-1.7-2.1-2.6c-0.6-0.7-1.2-1.5-1.7-2.2c-0.2-0.3-0.5-0.6-0.7-0.8c-0.1-0.2-0.3-0.2-0.4,0c-0.4,0.5-0.8,0.9-1.1,1.4
				c-0.1,0.1-0.2,0.2-0.2,0.1c-0.1,0-0.2-0.1-0.2-0.2c-0.3-1.9-0.6-3.7-0.9-5.6c-0.1-0.5-0.2-0.9-0.2-1.4c0-0.3-0.2-0.4-0.5-0.4
				c-0.3,0-0.6-0.1-0.9-0.1c-0.5,0-1.1-0.1-1.6-0.1c-0.3,0-0.4-0.2-0.3-0.4c0.2-0.3,0.4-0.5,0.6-0.8c0.2-0.3,0.4-0.6,0.6-0.9
				c0.4-0.7,0.9-1.4,1.3-2.1c0.2-0.3,0.4-0.5,0.6-0.8c0.4-0.6,0.8-1.2,1.1-1.9c0.2-0.3,0.4-0.6,0.8-0.6c0.3-0.1,0.6-0.2,1-0.3
				c0.7-0.3,1.5-0.6,2.2-0.9c0.7-0.3,1.5-0.5,2.2-0.8c0.1,0,0.3-0.1,0.3-0.2c0-0.1-0.1-0.3-0.2-0.3c-0.8-0.7-1.6-1.3-2.4-2
				c-0.3-0.2-0.2-0.4,0.1-0.6c0.6-0.3,1.1-0.6,1.7-0.8c0.5-0.2,1-0.5,1.4-0.7c0.5-0.3,1.1-0.5,1.6-0.8c0.5-0.2,1-0.5,1.5-0.7
				c0.5-0.2,0.9-0.5,1.3-0.9c0.8-0.8,1.6-1.7,2.4-2.5c0.3-0.3,0.4-0.3,0.6,0c0.5,0.6,0.9,1.1,1.4,1.6c0.3,0.4,0.6,0.7,0.9,1.1
				c0.1,0.2,0.2,0.4,0.2,0.6c0.1,1,0.2,2,0.3,3c0,0.2-0.1,0.5-0.2,0.7c-0.5,0.8-1,1.7-1.6,2.5c-0.1,0.2-0.3,0.2-0.4,0.1
				c-0.6-0.5-1.1-1-1.7-1.5c-0.7-0.6-1.3-1.2-2-1.8c-0.2-0.1-0.3-0.3-0.5-0.4c-0.1-0.1-0.2-0.1-0.3-0.1c0,0.1,0,0.2,0,0.3
				c0,0.4,0,0.5-0.6,0.7c-0.9,0.4-1.8,0.7-2.7,1c-0.3,0.1-0.5,0.2-0.8,0.3c-0.3,0.1-0.3,0.2-0.1,0.4c0.4,0.4,0.8,0.8,1.2,1.2
				c0.3,0.3,0.6,0.6,0.9,0.9c0.1,0.1,0.1,0.1,0.2,0.2c0.1,0.1,0.1,0.2,0.2,0.3c-0.1,0.1-0.2,0.1-0.3,0.1c-0.3,0-0.4,0.2-0.5,0.5
				c0.2,0,0.4,0,0.5-0.1c0.2,0,0.3-0.1,0.4-0.1c0.1,0,0.2,0,0.3,0c0.6,0,1.2,0,1.8,0c0.9-0.1,1.7-0.1,2.5-0.4
				c0.3-0.1,0.6-0.2,0.9-0.3c0,0.2,0,0.3-0.1,0.4c-0.5,0.7-1,1.4-1.4,2c-0.1,0.2-0.2,0.4-0.3,0.6c-0.4,0.6-0.8,1.1-1.1,1.6
				c0,0.1,0,0.2,0,0.3c0.1,0,0.2,0,0.3,0c0.4-0.2,0.7-0.5,1.1-0.7c0.5-0.3,1.1-0.6,1.6-0.9c0.5-0.3,1-0.6,1.5-0.9
				c0.3-0.1,0.5-0.3,0.8-0.4c0.3-0.1,0.4,0,0.4,0.3c-0.1,0.5-0.2,1-0.3,1.5c0,0.1,0,0.1,0,0.2c0,0.5,0,1.1-0.1,1.6
				c0,0.1,0,0.1,0,0.2c-0.3,0.6-0.1,1.3-0.2,2c-0.1,0.6-0.1,1.1-0.2,1.7c0,0.2,0.1,0.2,0.2,0.2c0.1,0,0.1-0.1,0.2-0.1
				c0.9-0.7,1.9-1.3,3.1-1.5c0.7-0.1,1.3-0.1,2,0.1c0.6,0.2,1.2,0.4,1.7,0.6c0.1,0,0.2,0.1,0.3,0.1c0.1,0,0.2,0,0.3,0
				c0-0.1,0-0.2,0-0.2c-0.2-0.6-0.3-1.1-0.5-1.7c-0.2-0.6-0.4-1.1-0.5-1.7c-0.1-0.4-0.2-0.8-0.4-1.2c-0.2-0.5-0.3-1.1-0.5-1.6
				c-0.1-0.2-0.1-0.3-0.2-0.5c0-0.1-0.1-0.3,0-0.4c0.1-0.1,0.3,0,0.4,0c0.7,0.1,1.2,0.5,1.9,0.7c0.3,0.1,0.5,0.1,0.8,0.2
				c0.6,0.2,1.3,0.5,1.9,0.7c0.2,0.1,0.5,0.2,0.7,0.2c0.1,0,0.1,0,0.2-0.1c0-0.1,0-0.1-0.1-0.2c-0.5-0.5-1-1-1.4-1.5
				c-0.3-0.4-0.7-0.8-1-1.1c-0.4-0.4-0.7-0.7-1.1-1.1c-0.1-0.1-0.2-0.2-0.3-0.4c0.1,0,0.2,0,0.2,0c1.2,0.4,2.5,0.2,3.7,0
				c0.5-0.1,0.9-0.1,1.4-0.1c0.3,0,0.6-0.1,0.9-0.2c0,0,0.1-0.1,0.1-0.1c0-0.1-0.1-0.1-0.1-0.2c-0.1,0-0.1,0-0.2,0
				c-0.2,0-0.3-0.2-0.2-0.4c0.6-0.8,1.1-1.6,1.7-2.5c0,0,0,0,0,0c0.1-0.2,0.1-0.3,0.2-0.5c-0.2,0-0.3-0.1-0.5-0.1
				c-0.4-0.1-0.8-0.2-1.2-0.2c-0.4-0.1-0.9-0.2-1.3-0.2c-0.4-0.1-0.9-0.2-1.3-0.3c-0.2,0-0.3-0.2-0.3-0.4c0-0.1-0.1-0.2-0.1-0.3
				c-0.1,0.1-0.2,0.1-0.3,0.2c-0.7,0.9-1.4,1.8-2,2.7c-0.5,0.6-0.9,1.2-1.4,1.8c-0.1,0.2-0.3,0.1-0.4,0c-0.6-0.6-1.2-1.3-1.8-1.9
				c-0.4-0.4-0.6-0.8-0.6-1.3c0-0.9-0.2-1.7-0.2-2.6c0-0.3,0.1-0.6,0.3-0.9c0.4-0.9,0.9-1.7,1.4-2.5c0.1-0.1,0.2-0.3,0.2-0.4
				c0.1-0.2,0.2-0.2,0.4-0.1c0.8,0.5,1.5,1.1,2.3,1.6c0.4,0.3,0.7,0.5,1.1,0.8c0.3,0.2,0.7,0.3,1.1,0.4c0.6,0.2,1.1,0.3,1.7,0.5
				c0.5,0.1,1,0.3,1.6,0.4c0.6,0.2,1.1,0.3,1.7,0.5c0.6,0.1,1.1,0.3,1.7,0.4c0.1,0,0.1,0,0.2,0c0.2,0.1,0.3,0.2,0.1,0.4
				c-0.3,0.4-0.6,0.8-0.9,1.2c-0.4,0.4-0.7,0.9-1.1,1.3C366,238.1,366,238.2,365.9,238.4z M356.5,274.4c0.7,0,1.4-0.2,2-0.7
				c0.9-0.6,1.5-1.5,2-2.5c0.3-0.6,0.5-1.3,0.7-2c0.1-0.3,0.2-0.7,0.2-1c0.1-0.4,0.1-0.9,0.2-1.3c0.1-0.5,0.2-1,0.2-1.5
				c0.1-0.6,0.2-1.2,0.3-1.7c0.1-0.9,0.5-1.6,0.9-2.4c0.4-0.9,1-1.8,1.4-2.7c0.4-1,0.7-2,1-3c0.2-0.5,0.3-1,0.5-1.5
				c0.3-0.7,0.6-1.3,1-2c0.2-0.5,0.4-1,0.3-1.5c-0.1-0.3-0.3-0.5-0.6-0.5c-0.8,0-1.2,0.3-1.4,1.1c-0.2,0.9-0.3,1.9-0.3,2.8
				c0,0.5,0,1.1-0.1,1.6c-0.2,1.1-0.6,2.1-1.2,3.1c-0.4,0.7-0.9,1.3-1.4,1.8c-0.4,0.4-0.8,0.7-1.4,0.8c-1.3,0.2-2.6,0.3-3.9-0.1
				c-0.4-0.1-0.8-0.4-1-0.9c-0.2-0.5-0.2-0.9-0.3-1.4c-0.1-0.4,0.1-0.6,0.4-0.8c0.7-0.5,1.3-0.9,1.9-1.4c0.6-0.4,0.8-1,0.8-1.7
				c0-0.6,0-1.2,0-1.8c0-0.2-0.1-0.4-0.3-0.5c-0.3-0.2-0.7-0.3-1-0.5c-0.9-0.3-1.7-0.7-2.7-0.6c-0.8,0-1.6,0.2-2.3,0.6
				c-0.6,0.3-1.1,0.7-1.6,1c-0.4,0.3-0.5,0.4-0.4,0.9c0.1,0.4,0.1,0.8,0.2,1.2c0.1,1,0.7,1.7,1.6,2.1c0.6,0.3,1.2,0.5,1.8,0.8
				c0.3,0.1,0.5,0.4,0.5,0.7c0,0.2,0.1,0.4,0,0.6c0,0.4,0,0.7-0.2,1.1c-0.2,0.6-0.8,1-1.4,1.1c-0.9,0.3-1.8,0.5-2.8,0.6
				c-0.4,0-0.8,0-1.2-0.2c-1-0.4-1.7-1.1-2.4-1.8c-0.4-0.5-0.8-1-1.2-1.6c-0.3-0.4-0.6-0.9-0.7-1.4c-0.3-1-0.5-2.1-0.8-3.2
				c-0.2-0.6-0.4-1.3-1-1.7c-0.3-0.2-0.9-0.2-1.1,0c-0.3,0.2-0.2,0.5-0.2,0.9c0.1,0.6,0.5,1,0.8,1.5c0.4,0.5,0.8,1.1,1.2,1.6
				c0.5,0.8,0.9,1.7,1.4,2.5c0.4,0.6,0.7,1.2,1.2,1.8c0.7,0.9,1.4,1.8,2.1,2.7c0.6,0.9,1.1,1.9,1.4,3c0,0.1,0.1,0.2,0.1,0.4
				c0.2,0.5,0.3,0.9,0.5,1.4c0.1,0.4,0.3,0.9,0.4,1.3c0.2,0.5,0.5,1.1,0.8,1.6c0.4,0.7,0.8,1.4,1.4,1.9
				C353.8,274,355,274.6,356.5,274.4z"/>
			<path class="st7" d="M369.5,223.6c-0.3,0.5-0.7,0.9-1,1.4c-0.1,0.1-0.2,0.3-0.3,0.5c0,0.1-0.1,0.1-0.2,0.1c0,0-0.1-0.1-0.1-0.2
				c-0.3-0.9-0.5-1.8-0.8-2.7c-0.1-0.5-0.3-1.1-0.5-1.6c-0.2-0.8-0.4-1.5-0.6-2.3c-0.2-0.7-0.4-1.4-0.6-2c-0.1-0.2-0.1-0.5-0.2-0.8
				c0-0.2-0.1-0.3-0.2-0.5c-0.3,0.1-0.3,0.3-0.3,0.4c-0.1,0.8-0.3,1.6-0.4,2.4c-0.1,0.7-0.2,1.4-0.4,2.1c-0.1,0.7-0.3,1.3-0.4,2
				c-0.1,0.4-0.1,0.8-0.2,1.3c-0.1,0.3-0.1,0.6-0.2,0.9c0,0.2-0.2,0.2-0.4,0.1c-0.4-0.5-0.8-0.9-1.3-1.4c-0.5-0.5-1-1.1-1.5-1.6
				c-0.6-0.6-1.1-1.2-1.7-1.7c-0.1-0.1-0.1-0.2-0.2-0.3c0.1,0,0.3,0,0.4,0c0.9,0.4,1.8,0.8,2.7,1.2c0,0,0,0,0.1,0
				c0-0.1-0.1-0.2-0.1-0.3c-0.3-0.5-0.7-1-1-1.5c-0.5-0.7-1-1.4-1.4-2c-0.1-0.1-0.1-0.3,0-0.4c0.2-0.6,0.4-1.2,0.7-1.8
				c0.3-0.7,0.6-1.5,1-2.2c0.6-1.3,1.5-2.4,2.5-3.4c0.2-0.2,0.4-0.3,0.5-0.5c0.1-0.1,0.3-0.1,0.4,0c1.2,0.7,2.2,1.7,3.1,2.8
				c0.5,0.6,0.9,1.2,1.3,1.8c0.5,0.7,0.9,1.5,1.3,2.3c0.4,0.8,0.7,1.5,1.1,2.3c0.3,0.6,0.5,1.3,0.7,2c0.2,0.5,0.4,0.9,0.5,1.4
				c0.1,0.3,0.2,0.7,0.3,1c0.2,0.6,0.3,1.1,0.5,1.7c0.1,0.2,0.1,0.4,0.2,0.6c0.2,0.5,0.2,0.9-0.1,1.4c-0.6,0.7-1.1,1.5-1.6,2.2
				c-0.1,0.1-0.2,0.1-0.3,0.2c0-0.1-0.1-0.2-0.1-0.3c-0.2-0.8-0.4-1.6-0.6-2.4c-0.1-0.6-0.3-1.1-0.4-1.7
				C369.6,223.8,369.6,223.7,369.5,223.6z"/>
			<path class="st7" d="M336.6,218.2c0,0.1,0,0.2,0,0.2c0,0.7-0.1,1.3-0.1,2c0,0.5-0.1,0.9-0.1,1.4c-0.1,0.7-0.1,1.4-0.2,2
				c-0.1,0.6-0.1,1.3-0.1,1.9c-0.1,0.9-0.1,1.8-0.2,2.7c0,0.1-0.1,0.2-0.1,0.2c-0.1,0-0.2-0.1-0.3-0.2c-0.5-0.5-1-1-1.5-1.5
				c0,0.1-0.1,0.2-0.1,0.2c-0.1,1-0.1,2.1-0.2,3.1c0,0.4-0.1,0.9-0.1,1.3c0,0.1-0.1,0.2-0.1,0.2c-0.1,0-0.2,0-0.3-0.1
				c-0.2-0.1-0.3-0.3-0.5-0.5c-0.5-0.5-1.1-1-1.6-1.5c-0.2-0.2-0.4-0.5-0.4-0.8c0.1-0.6,0.1-1.3,0.2-1.9c0.1-0.5,0.1-1.1,0.2-1.6
				c0.1-0.5,0.2-1.1,0.2-1.6c0.1-0.3,0.1-0.7,0.2-1c0.2-0.9,0.3-1.8,0.5-2.7c0.2-0.9,0.5-1.8,0.8-2.7c0.3-1.1,0.8-2.2,1.4-3.2
				c0.6-1,1.3-2,2.2-2.9c0.4-0.3,0.4-0.3,0.7,0c0.7,0.5,1.4,1,2,1.6c0.6,0.6,1.2,1.3,1.7,2c0.5,0.6,0.9,1.1,1.3,1.7
				c0.3,0.5,0.6,1,0.9,1.5c0,0.1,0,0.2,0,0.3c-0.3,0.6-0.6,1.2-0.8,1.9c-0.2,0.5-0.4,1-0.7,1.5c-0.1,0.2-0.2,0.4-0.3,0.6
				c0,0.1,0,0.2-0.1,0.3c0.7-0.5,1.4-1,2-1.4c0.2-0.1,0.4-0.3,0.6-0.4c0.1,0,0.2,0,0.3,0c0,0.1,0,0.2,0,0.3c-0.3,0.6-0.7,1.1-1,1.6
				c-0.4,0.6-0.8,1.3-1.2,1.9c-0.3,0.5-0.6,0.9-0.9,1.4c-0.1,0.2-0.2,0.4-0.3,0.6c-0.1,0.1-0.2,0.2-0.3,0.2c0,0-0.1-0.1-0.2-0.2
				c-0.3-0.7-0.6-1.4-0.9-2.1c-0.2-0.6-0.5-1.2-0.7-1.7c-0.2-0.5-0.4-0.9-0.6-1.4c-0.1-0.3-0.2-0.6-0.4-0.9c-0.3-0.7-0.5-1.3-0.8-2
				C336.9,218.4,336.8,218.3,336.6,218.2C336.6,218.2,336.6,218.2,336.6,218.2z"/>
			
				<linearGradient id="SVGID_1_" gradientUnits="userSpaceOnUse" x1="348.3327" y1="247.7472" x2="351.5271" y2="247.7472" gradientTransform="matrix(0.9953 -9.689990e-02 9.689990e-02 0.9953 -27.7479 28.0659)">
				<stop  offset="0" style="stop-color:#CCE0F4"/>
				<stop  offset="6.410000e-02" style="stop-color:#C3DCF2"/>
				<stop  offset="0.1706" style="stop-color:#A9D2EE"/>
				<stop  offset="0.3066" style="stop-color:#80C2E7"/>
				<stop  offset="0.4649" style="stop-color:#47ACDE"/>
				<stop  offset="0.5674" style="stop-color:#1E9CD7"/>
				<stop  offset="0.8652" style="stop-color:#0075BE"/>
				<stop  offset="0.9944" style="stop-color:#005B97"/>
			</linearGradient>
			<path class="st8" d="M342.9,240.7c0.1-0.3,0.1-0.6,0.2-0.8c0-0.1,0.2-0.2,0.3-0.2c0.4,0,0.8,0,1.2,0c0.2,0,0.4,0,0.6,0
				c0.6,0,0.8,0.3,0.8,0.8c0,0.5-0.1,1.1-0.6,1.3c-0.2,0.1-0.5,0.1-0.8,0.2C343.8,242.2,343.1,241.6,342.9,240.7
				C343,240.7,343,240.7,342.9,240.7z M344.2,239.7c-0.1,0.2-0.2,0.2-0.2,0.3c-0.1,0.3,0,0.7,0.3,0.8c0.4,0.1,0.8,0,0.9-0.4
				c0-0.1,0-0.3,0-0.4c-0.1,0-0.2,0.1-0.3,0.1c0,0-0.1,0-0.1,0.1c-0.2,0.1-0.3,0.1-0.4-0.1C344.3,240,344.3,239.9,344.2,239.7z"/>
			
				<linearGradient id="SVGID_2_" gradientUnits="userSpaceOnUse" x1="365.5205" y1="347.0658" x2="368.6637" y2="347.0658" gradientTransform="matrix(0.9953 -9.689990e-02 -9.689990e-02 -0.9953 29.8887 620.0726)">
				<stop  offset="0" style="stop-color:#CCE0F4"/>
				<stop  offset="6.410000e-02" style="stop-color:#C3DCF2"/>
				<stop  offset="0.1706" style="stop-color:#A9D2EE"/>
				<stop  offset="0.3066" style="stop-color:#80C2E7"/>
				<stop  offset="0.4649" style="stop-color:#47ACDE"/>
				<stop  offset="0.5674" style="stop-color:#1E9CD7"/>
				<stop  offset="0.8652" style="stop-color:#0075BE"/>
				<stop  offset="0.9944" style="stop-color:#005B97"/>
			</linearGradient>
			<path class="st9" d="M363.2,238.7c0.1,0.6-0.2,1-0.6,1.4c0,0-0.1,0.1-0.1,0.1c-0.5,0-1,0.1-1.5,0c-0.5-0.1-0.8-0.5-0.9-1
				c-0.2-0.6,0-1,0.6-1.1c0.2-0.1,0.2,0,0.2,0.3c-0.1,0.3,0,0.6,0.2,0.8c0.2,0.2,0.5,0.1,0.8,0c0.2-0.1,0.3-0.5,0.3-0.6
				c0-0.2-0.2-0.2-0.4-0.1c-0.1,0.1-0.3,0.2-0.4,0.1c-0.6-0.2-0.5,0-0.6-0.5c0-0.1,0.4-0.1,0.5-0.1c0.4-0.1,0.8-0.2,1.2-0.2
				c0.3,0,0.4,0.3,0.5,0.6C363.1,238.5,363.1,238.6,363.2,238.7z"/>
			<path class="st6" d="M356.5,274.4c-1.5,0.2-2.7-0.4-3.7-1.4c-0.6-0.6-1.1-1.2-1.4-1.9c-0.3-0.5-0.6-1.1-0.8-1.6
				c-0.2-0.4-0.3-0.8-0.4-1.3c-0.2-0.5-0.3-0.9-0.5-1.4c0-0.1-0.1-0.2-0.1-0.4c-0.3-1.1-0.7-2.1-1.4-3c-0.7-0.9-1.4-1.8-2.1-2.7
				c-0.4-0.6-0.8-1.1-1.2-1.8c-0.5-0.8-0.9-1.7-1.4-2.5c-0.3-0.6-0.8-1.1-1.2-1.6c-0.3-0.5-0.7-0.9-0.8-1.5c0-0.3-0.1-0.6,0.2-0.9
				c0.2-0.2,0.8-0.2,1.1,0c0.6,0.4,0.8,1,1,1.7c0.3,1.1,0.5,2.1,0.8,3.2c0.2,0.5,0.4,1,0.7,1.4c0.4,0.6,0.7,1.1,1.2,1.6
				c0.7,0.8,1.4,1.4,2.4,1.8c0.4,0.2,0.8,0.2,1.2,0.2c0.9-0.1,1.9-0.3,2.8-0.6c0.6-0.2,1.1-0.5,1.4-1.1c0.1-0.3,0.1-0.7,0.2-1.1
				c0-0.2,0-0.4,0-0.6c0-0.4-0.2-0.6-0.5-0.7c-0.6-0.3-1.2-0.5-1.8-0.8c-0.9-0.4-1.5-1.1-1.6-2.1c0-0.4-0.1-0.8-0.2-1.2
				c-0.1-0.5,0-0.6,0.4-0.9c0.5-0.4,1.1-0.7,1.6-1c0.7-0.4,1.5-0.6,2.3-0.6c1-0.1,1.8,0.3,2.7,0.6c0.3,0.1,0.7,0.3,1,0.5
				c0.2,0.1,0.3,0.3,0.3,0.5c0,0.6,0.1,1.2,0,1.8c0,0.7-0.3,1.2-0.8,1.7c-0.6,0.5-1.3,1-1.9,1.4c-0.3,0.2-0.5,0.4-0.4,0.8
				c0.1,0.5,0.2,1,0.3,1.4c0.2,0.5,0.5,0.8,1,0.9c1.3,0.4,2.6,0.3,3.9,0.1c0.5-0.1,1-0.4,1.4-0.8c0.5-0.6,1-1.2,1.4-1.8
				c0.6-0.9,1-2,1.2-3.1c0.1-0.5,0.1-1.1,0.1-1.6c0-0.9,0-1.9,0.3-2.8c0.2-0.7,0.6-1.1,1.4-1.1c0.3,0,0.5,0.2,0.6,0.5
				c0.1,0.5,0,1-0.3,1.5c-0.3,0.7-0.7,1.3-1,2c-0.2,0.5-0.3,1-0.5,1.5c-0.3,1-0.6,2-1,3c-0.4,0.9-0.9,1.8-1.4,2.7
				c-0.4,0.8-0.7,1.5-0.9,2.4c-0.1,0.6-0.2,1.2-0.3,1.7c-0.1,0.5-0.2,1-0.2,1.5c-0.1,0.4-0.1,0.9-0.2,1.3c-0.1,0.4-0.1,0.7-0.2,1
				c-0.2,0.7-0.4,1.3-0.7,2c-0.4,1-1,1.9-2,2.5C357.8,274.2,357.2,274.4,356.5,274.4z"/>
			<path class="st6" d="M344.2,239.7c0.1,0.2,0.1,0.3,0.2,0.3c0.1,0.2,0.3,0.2,0.4,0.1c0,0,0.1-0.1,0.1-0.1c0.1,0,0.2-0.1,0.3-0.1
				c0,0.1,0.1,0.3,0,0.4c-0.1,0.4-0.5,0.6-0.9,0.4c-0.3-0.1-0.4-0.5-0.3-0.8C344,240,344.1,239.9,344.2,239.7z"/>
		</g>
		<g>
			<g>
				<path d="M355.6,265.4c0.4,1.6,0.4,3.3,0.6,4.9c0,0.2,0.3,0.2,0.3,0c-0.2-1.6-0.2-3.3-0.6-4.9
					C355.8,265.2,355.5,265.2,355.6,265.4L355.6,265.4z"/>
			</g>
		</g>
		<g>
			<g>
				<path d="M354.8,265.7c0.1,1.2,0.2,2.3,0.3,3.5c0,0.2,0.3,0.2,0.3,0c-0.1-1.2-0.2-2.3-0.3-3.5
					C355.1,265.5,354.8,265.5,354.8,265.7L354.8,265.7z"/>
			</g>
		</g>
		<g id="j1qhMu_1_">
			<g>
				<path class="st10" d="M349.4,264.6c0-0.2,0-0.4-0.1-0.6c0-0.1,0.1-0.2,0.1-0.3c0.1-0.3,0.2-0.5,0.6-0.5c0.3,0,0.6,0.1,0.9,0.3
					c0.4,0.3,0.9,0.3,1.4,0.5c0.3,0.1,0.6,0.1,0.9,0.2c0.1,0,0.2,0,0.3,0c0.4,0,0.8,0.2,1.1,0.3c0.2,0.1,0.3,0.2,0.3,0.3
					c0.1,0.5,0.2,0.9,0.3,1.4c0.1,0.5,0.1,1,0.2,1.5c0.1,0.3,0.2,0.7,0.2,1c0,0.1,0.1,0.2,0.3,0.2c0-0.6,0-1.3,0-1.9
					c0-0.7,0-1.4,0-2c0-0.5,0.3-0.7,0.7-0.9c0.6-0.3,1.3-0.3,1.8-0.7c0.2-0.2,0.5-0.2,0.7-0.4c0.3-0.2,0.7-0.5,1-0.7
					c0.4-0.3,0.7-0.2,0.9,0.2c0.1,0.2,0.1,0.3,0.2,0.5c0,0.1,0,0.1,0,0.2c0,0.1,0,0.1,0,0.2c0,0.4,0,0.9,0,1.3c0,0.3-0.2,0.7-0.1,1
					c0,0.9-0.3,1.7-0.4,2.6c-0.1,0.6-0.4,1.2-0.5,1.9c-0.1,0.5-0.4,1.1-0.7,1.5c-0.3,0.5-0.7,1-1.2,1.4c-0.5,0.4-0.9,0.7-1.6,0.8
					c-1.3,0.3-2.4,0-3.3-0.8c-0.4-0.3-0.6-0.7-1-1c-0.4-0.4-0.6-0.8-0.9-1.3c-0.2-0.3-0.3-0.6-0.5-0.9c-0.2-0.3-0.3-0.6-0.4-1
					c-0.1-0.2-0.2-0.5-0.3-0.7c-0.1-0.1-0.1-0.3-0.2-0.4c-0.1-0.5-0.3-0.9-0.4-1.4c-0.1-0.3-0.2-0.7-0.3-1
					C349.6,265.1,349.5,264.8,349.4,264.6z"/>
			</g>
		</g>
		<circle class="st7" cx="344.6" cy="240" r="0.4"/>
		<circle class="st7" cx="361.4" cy="238.4" r="0.4"/>
	</g>
</g>
<g id="ysjfnE.tif_6_">
	<g>
		<path class="st0" d="M49.4,156.4c1.6-4.8,3.1-9.7,4.8-15.1c-4.3,1.6-8.3,3.1-12.5,4.6c-0.8-2-1.5-3.8-2.3-6
			c4.1-1.6,8.1-3.5,12.2-4.6c4.2-1.1,6.6-3.4,7.2-7.7c0.2-1.1,0.7-2.2,1.2-3.9c-8.7,3-16.7,5.9-25,8.8c-0.8-3.9-2.3-7-7.2-7.6
			c3.7-8.2,7.3-16.1,11.1-24.4c-3.2,0.7-5.9,1.2-8.5,1.9c-0.7,0.2-1.5,1.1-1.8,1.9c-2.5,4.9-5,9.8-7.6,15.1
			c-1.9-0.9-3.6-1.7-5.8-2.8c1.9-4,3.7-7.9,5.8-12.2c-5.4,1.2-10.3,2.2-15.5,3.3c-0.5-2.1-0.9-4-1.4-6.3c5.1-1.1,10-2.3,15.6-3.5
			c-3.7-3-6.9-5.6-10.5-8.5c1.4-1.7,2.7-3.3,4.1-5.1c3.9,3.2,7.8,6.1,11.5,9.3c2.2,2,4.3,2.8,7.1,1.7c1.7-0.6,3.5-0.8,5.7-1.3
			c-6.8-5.9-13.3-11.4-20.1-17.2c3.2-2.9,5.1-6.3,3.2-10.9c9-0.8,17.6-1.5,26.7-2.2c-2.2-2.4-4-4.6-6-6.6c-0.5-0.5-1.7-0.6-2.6-0.6
			c-5.5,0.2-11,0.5-16.8,0.8c-0.1-2.1-0.3-4.2-0.4-6.5c4.4-0.3,8.7-0.6,13.5-0.9c-3.7-4.2-7.1-8-10.6-12c1.7-1.5,3.2-2.8,4.8-4.3
			c3.5,3.9,7,7.7,10.7,11.8c0.8-4.7,1.5-8.8,2.3-13.3c2.2,0.4,4.1,0.7,6.4,1.1c-0.9,5.1-1.6,10.2-2.6,15.1c-0.5,2.5-0.1,4.5,1.9,6.2
			c1.4,1.2,2.6,2.8,4.2,4.6c1.8-8.9,3.4-17.2,5.1-26.1c3.8,1.7,7.2,1,10.1-2.2c5.1,7.3,10,14.2,15.3,21.7c1.1-3.3,2.1-6,2.7-8.7
			c0.2-0.8-0.5-2-1-2.8c-2.9-4.4-5.8-8.8-9-13.6c1.8-1.3,3.6-2.4,5.4-3.7c2.4,3.6,4.8,7.1,7.5,11.1c1.7-5.3,3.2-10,4.8-15
			c2.2,0.7,4.1,1.3,6.3,2c-1.5,4.8-3.1,9.6-4.9,15.1c4.7-1.8,8.7-3.2,12.8-4.8c0.8,2,1.5,3.8,2.3,6c-4.5,1.7-8.7,3.7-13.1,5
			c-3.5,1-5.4,2.9-6,6.4c-0.2,1.4-0.9,2.8-1.5,4.8c8.6-3,16.6-5.8,24.9-8.7c1.1,3.5,2.3,7.1,7.3,7.5c-3.7,8.2-7.3,16-10.8,23.8
			c6,0.5,9.3-1.3,11.7-6.3c1-2,2-4,3-6c0.9-1.9,1.9-3.8,2.9-6c1.9,0.9,3.7,1.8,5.8,2.8c-1.9,4-3.7,7.9-5.8,12.2
			c5.4-1.2,10.3-2.2,15.5-3.3c0.5,2.2,0.9,4.1,1.4,6.3c-5.1,1.2-10.1,2.3-15.6,3.5c3.7,3,6.9,5.7,10.4,8.5c-1.4,1.7-2.7,3.3-4.1,5.1
			c-4-3.2-7.9-6.1-11.5-9.3c-2.2-2-4.3-2.6-7.1-1.6c-1.7,0.6-3.5,0.8-5.7,1.3c6.8,5.9,13.3,11.4,20.1,17.2c-3.3,2.9-5,6.3-3.3,10.9
			c-9,0.7-17.5,1.5-26.6,2.2c2.1,2.4,3.9,4.6,5.8,6.5c0.6,0.6,1.9,0.8,2.9,0.7c5.5-0.2,11-0.5,16.7-0.8c0.1,2.2,0.2,4.2,0.4,6.5
			c-4.5,0.3-8.8,0.6-13.5,0.9c3.7,4.1,7,7.9,10.6,12c-1.7,1.5-3.2,2.8-4.9,4.3c-3.5-3.9-6.9-7.6-10.7-11.8
			c-0.8,4.6-1.5,8.7-2.3,13.2c-2.1-0.3-4.1-0.7-6.4-1c0.8-4.7,1.4-9.2,2.4-13.6c0.7-3.4,0.5-6.2-2.4-8.4c-1.2-1-2.1-2.3-3.5-3.9
			c-1.8,8.9-3.4,17.3-5.2,26.1c-3.9-1.8-7.3-0.9-10.2,2.2c-5.1-7.2-9.9-14.1-14.8-21.1c-3.4,4.3-3.6,8.6-0.9,12.8
			c2.4,3.6,4.8,7.3,7.2,10.9c0.1,0.2,0.1,0.4,0.2,0.9c-1.6,1.1-3.3,2.2-5.1,3.5c-2.4-3.6-4.8-7.1-7.4-11.1
			c-1.7,5.4-3.3,10.3-4.9,15.1C53.8,157.8,51.6,157.1,49.4,156.4z M22.3,72.3c7.8,6.6,15.1,12.9,22.5,19.1c0.5,0.4,1.4,0.7,1.9,0.6
			c7.1-1.5,14.2-3.1,21.7-4.8c-3.8-4.2-7.6-7.9-10.7-12.2c-3.1-4.3-6.6-5.5-11.8-4.8C38.3,71.3,30.6,71.6,22.3,72.3z M80.9,91.2
			c5.1,5.7,9.8,11.1,14.7,16.4c0.6,0.6,1.8,0.9,2.8,0.8c4.8-0.3,9.5-0.8,14.2-1.2c4.6-0.4,9.2-0.8,14.4-1.2
			c-7.7-6.6-15-12.8-22.3-18.9c-0.6-0.5-1.7-0.8-2.5-0.7C95.3,88,88.4,89.5,80.9,91.2z M34.9,125c0.5,0.1,0.7,0.2,0.9,0.2
			c5.2-1.8,10.4-3.6,15.6-5.5c3.7-1.3,8.3-1.8,10.7-4.3c2.5-2.5,2.8-7.2,4-10.9c1.1-3.4,2.2-6.9,3.5-10.8
			c-7.5,1.7-14.3,3.1-21.1,4.8c-1,0.2-2.1,1.4-2.6,2.4C42.3,108.7,38.7,116.7,34.9,125z M79.6,84.7c5.7-1.2,10.6-2.7,15.6-3.3
			c5.1-0.7,8.2-2.8,10.1-7.9c2.6-6.9,6-13.4,9.4-20.7c-9.5,3.3-18.3,6.4-27,9.5c-0.5,0.2-1,0.8-1.2,1.3C84.2,70.5,82,77.3,79.6,84.7
			z M63.5,36.6c-0.5,2.2-0.9,3.7-1.2,5.2c-1.2,6.3-2.4,12.7-3.8,19c-0.7,3-0.5,5.3,1.9,7.7c4.4,4.4,8.3,9.1,12.8,14.1
			C75,77,76.3,71.8,78.4,67c2-4.7,1.3-8.2-1.8-12.1C72,49.3,68.1,43.1,63.5,36.6z M85.8,141.9c1.9-9.7,3.6-18.6,5.3-27.4
			c0.1-0.7,0-1.8-0.4-2.3c-4.7-5.4-9.5-10.7-14.6-16.4c-2.4,7.3-4.6,14.2-6.7,21c-0.2,0.6,0,1.5,0.3,2
			C74.8,126.2,80.1,133.7,85.8,141.9z"/>
	</g>
</g>
<g id="ysjfnE.tif_8_">
	<g>
		<path class="st0" d="M537.6,562.5c0-3.2,0-6.3,0-9.8c-2.3,1.8-4.3,3.4-6.5,5.1c-0.8-1-1.6-2-2.5-3.1c2.1-1.7,4.1-3.6,6.3-5
			c2.3-1.5,3.2-3.3,2.8-5.9c-0.1-0.7,0-1.4,0-2.5c-4.6,3.4-8.8,6.6-13.1,9.9c-1.2-2.1-2.7-3.7-5.7-3.1c0.6-5.6,1.3-10.9,1.9-16.5
			c-1.8,1-3.3,1.8-4.7,2.7c-0.4,0.3-0.6,0.9-0.7,1.5c-0.6,3.4-1.1,6.7-1.6,10.4c-1.3-0.2-2.5-0.3-3.9-0.5c0.4-2.7,0.7-5.4,1.1-8.3
			c-3,1.7-5.7,3.3-8.5,4.9c-0.7-1.2-1.3-2.2-2-3.5c2.8-1.6,5.5-3.2,8.5-5c-2.7-1.1-5.1-2-7.8-3.1c0.5-1.3,1-2.4,1.5-3.8
			c2.9,1.1,5.8,2.1,8.5,3.3c1.7,0.7,3.1,0.8,4.5-0.4c0.9-0.7,1.9-1.1,3.1-1.9c-5.1-2.2-10-4.2-15.1-6.4c1.3-2.3,1.8-4.7-0.2-7.1
			c5.2-2.2,10.1-4.2,15.3-6.4c-1.7-1-3.2-2-4.8-2.8c-0.4-0.2-1.1,0-1.7,0.2c-3.2,1.2-6.4,2.4-9.8,3.7c-0.5-1.2-0.9-2.4-1.5-3.8
			c2.6-1,5-2,7.8-3.1c-3-1.8-5.7-3.4-8.5-5.1c0.7-1.2,1.3-2.3,2-3.5c2.8,1.6,5.6,3.2,8.6,5c-0.4-2.9-0.8-5.5-1.2-8.3
			c1.3-0.2,2.6-0.4,4-0.6c0.5,3.2,1,6.3,1.4,9.4c0.2,1.6,0.8,2.6,2.3,3.3c1.1,0.5,2,1.1,3.4,1.9c-0.6-5.6-1.3-10.8-1.9-16.4
			c2.6,0.3,4.5-0.8,5.6-3.2c4.4,3.3,8.6,6.5,13.2,9.9c0-2.2,0.1-3.9-0.1-5.7c0-0.5-0.7-1.1-1.2-1.5c-2.5-2.1-5.1-4.1-7.9-6.3
			c0.9-1.1,1.6-2.1,2.5-3.2c2.1,1.7,4.2,3.3,6.5,5.2c0-3.4,0-6.5,0-9.8c1.5,0,2.7,0,4.1,0c0,3.1,0,6.2,0,9.9
			c2.5-1.9,4.5-3.6,6.7-5.3c0.8,1,1.6,2,2.5,3.1c-2.3,1.9-4.4,3.8-6.8,5.4c-1.9,1.3-2.6,2.8-2.3,4.9c0.1,0.9,0,1.8,0,3.1
			c4.5-3.4,8.7-6.6,13.1-9.9c1.3,1.9,2.7,3.8,5.8,3c-0.7,5.6-1.3,10.8-1.9,16.1c3.6-0.8,5.3-2.5,5.7-6c0.2-1.4,0.4-2.7,0.7-4.1
			c0.2-1.3,0.4-2.6,0.6-4.1c1.3,0.2,2.5,0.3,3.9,0.6c-0.4,2.7-0.7,5.3-1.1,8.3c3-1.7,5.7-3.3,8.6-4.9c0.7,1.2,1.3,2.2,2,3.5
			c-2.8,1.6-5.5,3.3-8.5,5c2.8,1.1,5.2,2,7.8,3.1c-0.5,1.3-1,2.5-1.5,3.8c-3-1.1-5.8-2.1-8.6-3.3c-1.7-0.8-3.1-0.7-4.5,0.4
			c-0.9,0.7-1.9,1.1-3.1,1.8c5.1,2.2,10,4.2,15.1,6.4c-1.4,2.3-1.8,4.7,0.1,7.1c-5.2,2.1-10.1,4.2-15.3,6.4c1.7,1,3.2,2,4.7,2.7
			c0.5,0.2,1.3,0.1,1.8-0.1c3.2-1.2,6.4-2.4,9.7-3.7c0.5,1.3,0.9,2.5,1.5,3.8c-2.6,1-5.1,2-7.8,3.1c3,1.8,5.6,3.4,8.5,5.1
			c-0.7,1.2-1.4,2.3-2.1,3.5c-2.8-1.6-5.5-3.2-8.6-5c0.4,2.9,0.8,5.4,1.1,8.3c-1.3,0.2-2.5,0.4-4,0.6c-0.4-2.9-0.9-5.7-1.2-8.5
			c-0.2-2.1-0.8-3.7-3-4.5c-0.9-0.3-1.7-1-2.8-1.6c0.7,5.6,1.3,10.9,1.9,16.4c-2.6-0.3-4.5,0.8-5.6,3.2c-4.4-3.3-8.5-6.5-12.7-9.6
			c-1.2,3.2-0.5,5.8,1.9,7.7c2.1,1.7,4.2,3.4,6.3,5.1c0.1,0.1,0.1,0.2,0.3,0.5c-0.7,0.9-1.5,2-2.4,3c-2.1-1.7-4.2-3.3-6.5-5.1
			c0,3.5,0,6.7,0,9.9C540.5,562.5,539,562.5,537.6,562.5z M505.6,518c5.9,2.4,11.4,4.7,16.9,7c0.4,0.1,0.9,0.1,1.3,0
			c3.9-2.2,7.8-4.5,11.9-6.9c-3-1.8-6-3.3-8.6-5.2c-2.6-1.9-5-2-7.9-0.6C514.9,514.3,510.4,516,505.6,518z M543.8,518
			c4.1,2.4,7.9,4.7,11.8,6.9c0.5,0.3,1.3,0.2,1.8,0c2.8-1.1,5.5-2.2,8.2-3.4c2.7-1.1,5.3-2.2,8.3-3.4c-5.8-2.4-11.3-4.7-16.7-7
			c-0.5-0.2-1.2-0.1-1.6,0.1C551.7,513.4,547.9,515.6,543.8,518z M523.1,546.7c0.3,0,0.5,0,0.6-0.1c2.7-2.1,5.5-4.1,8.2-6.2
			c1.9-1.5,4.6-2.6,5.5-4.6c1-2,0.3-4.8,0.3-7.2c0-2.2,0-4.5,0-7.1c-4.1,2.4-7.9,4.5-11.6,6.8c-0.5,0.3-1,1.2-1.1,1.9
			C524.4,535.7,523.8,541.1,523.1,546.7z M541.8,514.4c3.1-1.8,5.7-3.6,8.6-4.9c2.9-1.4,4.3-3.2,4.5-6.6c0.2-4.5,1-9.1,1.6-14
			c-5,3.8-9.6,7.2-14.2,10.7c-0.3,0.2-0.5,0.7-0.5,1C541.8,505.2,541.8,509.6,541.8,514.4z M523.2,489.1c0.1,1.4,0.2,2.4,0.3,3.3
			c0.5,4,1,7.9,1.4,11.9c0.2,1.9,0.7,3.2,2.6,4.2c3.4,1.8,6.7,3.8,10.2,5.9c0-3.6-0.2-7,0.1-10.2c0.3-3.1-0.8-5.1-3.4-6.8
			C530.6,494.9,527.2,492,523.2,489.1z M556.4,547c-0.7-6.1-1.4-11.6-2.1-17.2c-0.1-0.5-0.3-1.1-0.7-1.3c-3.8-2.3-7.6-4.5-11.8-6.9
			c0,4.8,0,9.2,0,13.7c0,0.4,0.3,0.9,0.6,1.1C546.9,539.9,551.4,543.3,556.4,547z"/>
	</g>
</g>
<g id="ysjfnE.tif_1_">
	<g>
		<path class="st0" d="M130.2,575.5c1.4-4.5,2.9-9,4.5-14.1c-4,1.5-7.8,2.9-11.6,4.3c-0.7-1.8-1.4-3.6-2.2-5.6
			c3.9-1.5,7.5-3.3,11.4-4.3c3.9-1.1,6.1-3.2,6.7-7.2c0.2-1,0.6-2,1.1-3.6c-8.1,2.8-15.6,5.5-23.3,8.2c-0.7-3.6-2.1-6.5-6.7-7.1
			c3.5-7.7,6.8-15,10.3-22.7c-3,0.6-5.5,1.1-8,1.8c-0.7,0.2-1.4,1.1-1.7,1.8c-2.4,4.6-4.6,9.2-7.1,14.1c-1.7-0.8-3.4-1.6-5.4-2.6
			c1.8-3.7,3.5-7.3,5.4-11.4c-5,1.1-9.6,2.1-14.5,3.1c-0.4-2-0.9-3.8-1.3-5.9c4.7-1.1,9.4-2.1,14.5-3.3c-3.4-2.8-6.4-5.3-9.7-8
			c1.3-1.6,2.5-3.1,3.8-4.7c3.7,3,7.3,5.7,10.7,8.7c2.1,1.8,4,2.6,6.7,1.6c1.5-0.6,3.2-0.8,5.4-1.2c-6.4-5.5-12.4-10.6-18.7-16.1
			c3-2.7,4.7-5.8,3-10.2c8.4-0.7,16.4-1.4,24.8-2.1c-2-2.3-3.7-4.3-5.6-6.2c-0.5-0.5-1.6-0.6-2.4-0.5c-5.1,0.2-10.2,0.5-15.6,0.8
			c-0.1-2-0.2-3.9-0.4-6.1c4.1-0.3,8.1-0.5,12.6-0.8c-3.5-3.9-6.6-7.5-9.9-11.1c1.6-1.4,3-2.6,4.5-4c3.3,3.7,6.5,7.2,10,11
			c0.8-4.4,1.4-8.2,2.2-12.4c2,0.3,3.8,0.7,5.9,1c-0.8,4.8-1.5,9.5-2.4,14.1c-0.5,2.4-0.1,4.2,1.8,5.8c1.3,1.1,2.4,2.6,3.9,4.3
			c1.6-8.3,3.2-16.1,4.8-24.3c3.6,1.6,6.7,0.9,9.4-2.1c4.8,6.8,9.3,13.3,14.2,20.3c1-3.1,1.9-5.6,2.5-8.1c0.2-0.8-0.5-1.8-1-2.6
			c-2.7-4.1-5.4-8.2-8.3-12.7c1.7-1.2,3.3-2.3,5-3.4c2.2,3.4,4.4,6.6,7,10.4c1.6-4.9,3-9.3,4.5-14c2.1,0.7,3.8,1.2,5.9,1.9
			c-1.4,4.4-2.9,8.9-4.5,14.1c4.4-1.6,8.1-3,12-4.4c0.7,1.9,1.4,3.6,2.1,5.6c-4.2,1.6-8.1,3.4-12.2,4.7c-3.2,1-5,2.7-5.6,6
			c-0.2,1.3-0.8,2.6-1.4,4.5c8-2.8,15.5-5.4,23.2-8.1c1,3.3,2.1,6.6,6.8,7c-3.5,7.7-6.8,14.9-10.1,22.2c5.6,0.5,8.7-1.2,10.9-5.9
			c0.9-1.9,1.9-3.7,2.8-5.6c0.9-1.8,1.7-3.5,2.7-5.6c1.8,0.9,3.4,1.7,5.4,2.6c-1.8,3.7-3.5,7.3-5.4,11.4c5.1-1.1,9.6-2.1,14.5-3.1
			c0.5,2,0.9,3.8,1.3,5.9c-4.7,1.1-9.4,2.1-14.5,3.3c3.4,2.8,6.5,5.3,9.7,8c-1.3,1.6-2.5,3.1-3.8,4.7c-3.7-3-7.4-5.7-10.7-8.7
			c-2.1-1.9-4-2.5-6.7-1.5c-1.6,0.6-3.2,0.8-5.3,1.2c6.4,5.5,12.4,10.6,18.7,16.1c-3.1,2.7-4.7,5.9-3,10.2
			c-8.4,0.7-16.4,1.4-24.8,2.1c2,2.3,3.6,4.3,5.4,6c0.6,0.6,1.8,0.7,2.7,0.7c5.1-0.2,10.2-0.5,15.6-0.8c0.1,2,0.2,3.9,0.3,6.1
			c-4.2,0.3-8.2,0.5-12.6,0.8c3.4,3.9,6.5,7.4,9.9,11.1c-1.5,1.4-3,2.6-4.5,4c-3.3-3.6-6.4-7.1-10-11c-0.8,4.3-1.4,8.1-2.2,12.4
			c-1.9-0.3-3.8-0.6-6-1c0.7-4.4,1.3-8.6,2.2-12.7c0.7-3.1,0.5-5.7-2.2-7.9c-1.1-0.9-2-2.1-3.3-3.6c-1.6,8.3-3.2,16.1-4.8,24.3
			c-3.6-1.7-6.8-0.9-9.5,2c-4.7-6.7-9.2-13.2-13.8-19.6c-3.1,4-3.4,8.1-0.8,11.9c2.2,3.4,4.5,6.8,6.7,10.2c0.1,0.2,0.1,0.4,0.2,0.9
			c-1.5,1-3.1,2.1-4.8,3.2c-2.3-3.4-4.5-6.6-6.9-10.3c-1.6,5-3.1,9.6-4.5,14.1C134.4,576.8,132.3,576.1,130.2,575.5z M105,497.1
			c7.3,6.2,14.1,12,21,17.8c0.4,0.4,1.3,0.6,1.8,0.5c6.6-1.4,13.3-2.9,20.2-4.4c-3.5-3.9-7.1-7.4-10-11.4c-2.9-4-6.2-5.2-11-4.5
			C119.9,496.1,112.7,496.4,105,497.1z M159.6,514.7c4.7,5.3,9.2,10.3,13.7,15.3c0.5,0.6,1.7,0.8,2.6,0.8c4.4-0.3,8.9-0.7,13.3-1.1
			c4.3-0.4,8.6-0.7,13.4-1.1c-7.2-6.1-13.9-11.9-20.7-17.6c-0.6-0.5-1.6-0.8-2.3-0.6C173,511.6,166.6,513.1,159.6,514.7z
			 M116.8,546.2c0.5,0.1,0.7,0.2,0.8,0.2c4.9-1.7,9.7-3.4,14.5-5.1c3.4-1.2,7.7-1.7,10-4c2.3-2.4,2.6-6.7,3.8-10.1
			c1.1-3.2,2.1-6.4,3.3-10.1c-7,1.6-13.4,2.9-19.7,4.4c-0.9,0.2-1.9,1.3-2.4,2.3C123.6,531,120.3,538.5,116.8,546.2z M158.4,508.6
			c5.3-1.2,9.9-2.5,14.5-3.1c4.8-0.6,7.7-2.6,9.4-7.3c2.4-6.4,5.6-12.5,8.7-19.3c-8.8,3.1-17,6-25.2,8.9c-0.5,0.2-1,0.8-1.1,1.2
			C162.7,495.4,160.6,501.7,158.4,508.6z M143.4,463.8c-0.5,2.1-0.8,3.5-1.1,4.9c-1.2,5.9-2.2,11.8-3.5,17.7
			c-0.6,2.8-0.4,4.9,1.8,7.2c4.1,4.1,7.8,8.5,11.9,13.1c1.7-5.2,2.9-10.1,4.8-14.6c1.9-4.3,1.2-7.6-1.7-11.2
			C151.3,475.6,147.7,469.9,143.4,463.8z M164.2,561.9c1.8-9.1,3.4-17.3,4.9-25.5c0.1-0.7,0-1.7-0.4-2.2c-4.4-5-8.9-10-13.6-15.3
			c-2.2,6.8-4.3,13.2-6.2,19.6c-0.2,0.6,0,1.4,0.3,1.9C154,547.3,158.9,554.3,164.2,561.9z"/>
	</g>
</g>
</svg>
