<?xml version="1.0" encoding="utf-8"?>
<!-- Generator: Adobe Illustrator 24.0.1, SVG Export Plug-In . SVG Version: 6.00 Build 0)  -->
<svg version="1.1" id="Layer_1" xmlns="http://www.w3.org/2000/svg" xmlns:xlink="http://www.w3.org/1999/xlink" x="0px" y="0px"
	 viewBox="0 0 1752.9 2093" style="enable-background:new 0 0 1752.9 2093;" xml:space="preserve">
<style type="text/css">
	.st0{fill-rule:evenodd;clip-rule:evenodd;}
	.st1{fill-rule:evenodd;clip-rule:evenodd;fill:#42210B;}
	.st2{fill-rule:evenodd;clip-rule:evenodd;fill:#010101;}
	.st3{fill-rule:evenodd;clip-rule:evenodd;fill:#050505;}
	.st4{fill-rule:evenodd;clip-rule:evenodd;fill:#E6E6E6;}
	.st5{fill:none;}
	.st6{enable-background:new    ;}
	.st7{fill-rule:evenodd;clip-rule:evenodd;fill:#FFFFFF;}
	.st8{fill-rule:evenodd;clip-rule:evenodd;fill:url(#SVGID_1_);}
	.st9{fill-rule:evenodd;clip-rule:evenodd;fill:url(#SVGID_2_);}
	.st10{fill:#E2404C;}
</style>
<g id="Layer_1_1_">
	<g id="JGHUlX.tif">
		<g>
			<path class="st0" d="M927.9,392.6c1.6-13.9,11.5-23.2,19.6-33.1c82.2-100.7,164.7-201.2,247.2-301.7c33.4-40.7,45.9-41.5,84.5-5
				c113.5,107.2,227,214.4,340.4,321.8c38,36,38.1,49.2,0.1,85.7c-93.8,90.2-187.8,180.2-281.9,270.1c-34.5,32.9-46.8,32.9-81.6,0.3
				c-34.2-32-67.4-65-102.1-96.4c-12.8-11.6-13.4-18.2,0-29.6c27.7-23.8,52.8-50.3,72.4-81.2c14.1-22.2,21.4-47,0-68
				c-22.1-21.7-46.2-10.4-67.6,3.8c-28.5,18.9-52.2,43.4-72.5,70.5c-15.2,20.3-25.2,18.6-41.9,1.3c-31.7-32.7-66-62.7-99-94.1
				C933,425,921.5,412.2,927.9,392.6z"/>
			<path class="st1" d="M384.1,1320.3c-15.5-21.1,227.7-262,240-274.7c131.9-136.3,263.6-272.9,396-408.7
				c32.8-33.6,60.4-71.1,88.8-108.2c14.8-19.4,33.8-35.8,52.3-52.1c14.7-12.9,33.4-18.7,49.7-4.6c17.6,15.2,8,34.9-1,49.9
				c-9.9,16.4-22.8,32.1-37.6,44.4C1024.5,688.8,906.4,840,772.8,976.2c-37.3,38-73,77.5-109.1,116.7
				c-10.5,11.4-243.9,256.6-261.6,250.1C390.1,1342.5,383.3,1331.3,384.1,1320.3z"/>
			<path class="st2" d="M384.1,1320.3c5.1,6.2,10.2,12.4,15.3,18.6c14.9,19.1-2.5,28.2-12.9,37.9c-26.5,24.9-39.5,51-16.7,85.7
				c10.2,15.6,6.1,33.2-0.3,49.1c-20.9,51.7-61.4,86-105.6,116.9c-15.4,10.8-23-0.8-32.1-11.5c33.7-24.3,66.3-48,84.5-86
				c19.3-40.1,13.1-74.4-20-105.8c-30.9-29.2-66.5-34.3-103.6-12.7c-23.6,13.8-46.3,29.6-56.1,57.3c1.3,17.3-2.6,30.9-23.1,32.7
				c-20.4-8.3-24.4-21.9-12.3-39.9c23.4-34.7,49.1-67.4,84.1-91.4c25.9-17.7,51.9-27.7,83.5-10c28,15.7,49.2-0.3,68-21.1
				C349.1,1326.6,360,1307.2,384.1,1320.3z"/>
			<path class="st3" d="M113.4,1502.6c7.7-10.9,15.4-21.8,23.1-32.7c33.5,30.4,67.2,60.7,100.5,91.4c6.8,6.3,20.2,13.6,6.4,24.3
				c-11,8.5-21.9,25-39.3,7.2C174.4,1562.3,143.7,1532.7,113.4,1502.6z"/>
			<path class="st4" d="M1244.4,122.4c-31.8,95.6-100.3,164.6-170.7,232.1C1126.9,274.6,1186.9,199.6,1244.4,122.4z"/>
			<path class="st4" d="M1540,427.5c-60.5,49.8-121,99.7-181.5,149.5c-2.8-3.3-5.5-6.6-8.3-9.8c54.4-57.3,110.7-112.5,182-150
				C1534.8,420.6,1537.4,424,1540,427.5z"/>
			<path class="st4" d="M1178.6,353.5c38.2-51.9,76.5-103.8,114.7-155.6c3.1,2.3,6.1,4.6,9.2,6.9c-30,58.1-69.6,108.9-113.9,156.3
				C1185.3,358.6,1181.9,356,1178.6,353.5z"/>
			<path class="st4" d="M1312.4,485.6c46.8-46.8,95-91.9,153.6-124.1c2.3,2.8,4.6,5.6,6.9,8.4c-50.8,41.8-101.6,83.5-152.4,125.3
				C1317.8,491.9,1315.1,488.8,1312.4,485.6z"/>
		</g>
	</g>
	<g id="JGHUlX.tif_1_">
		<g>
			<path class="st0" d="M814.5,392.6c-1.6-13.9-11.5-23.2-19.6-33.1C712.7,258.8,630.3,158.3,547.8,57.8
				c-33.4-40.7-45.9-41.5-84.5-5C349.7,160,236.2,267.2,122.9,374.5c-38,36-38.1,49.2-0.1,85.7c93.8,90.2,187.8,180.2,281.9,270.1
				c34.5,32.9,46.8,32.9,81.6,0.3c34.2-32,67.4-65,102.1-96.4c12.8-11.6,13.4-18.2,0-29.6c-27.7-23.7-52.8-50.3-72.4-81.2
				c-14.1-22.2-21.4-47,0-68c22.1-21.7,46.2-10.4,67.6,3.8c28.5,18.9,52.2,43.4,72.5,70.5c15.2,20.3,25.2,18.6,41.9,1.3
				c31.7-32.7,66-62.7,99-94.1C809.5,425,820.9,412.2,814.5,392.6z"/>
			<path class="st1" d="M1358.3,1320.3c15.5-21.1-227.7-262-240-274.7c-131.9-136.3-263.6-272.9-396-408.7
				c-32.8-33.6-60.4-71.1-88.8-108.2c-14.8-19.4-33.8-35.8-52.3-52.1c-14.7-12.9-33.4-18.7-49.7-4.6c-17.6,15.2-8,34.9,1,49.9
				c9.9,16.4,22.8,32.1,37.6,44.4C717.9,688.8,836,840,969.6,976.2c37.3,38,73,77.5,109.1,116.7c10.5,11.4,243.9,256.6,261.6,250.1
				C1352.3,1342.5,1359.1,1331.3,1358.3,1320.3z"/>
			<path class="st2" d="M1358.3,1320.3c-5.1,6.2-10.2,12.4-15.3,18.6c-14.9,19.1,2.5,28.2,12.9,37.9c26.5,24.9,39.5,51,16.7,85.7
				c-10.2,15.6-6.1,33.2,0.3,49.1c20.9,51.7,61.4,86,105.6,116.9c15.4,10.8,23-0.8,32.1-11.5c-33.7-24.3-66.3-48-84.5-86
				c-19.3-40.1-13.1-74.4,20-105.8c30.9-29.2,66.5-34.3,103.6-12.7c23.6,13.8,46.3,29.6,56.1,57.3c-1.3,17.3,2.6,30.9,23.1,32.7
				c20.4-8.3,24.4-21.9,12.3-39.9c-23.4-34.7-49.1-67.4-84.1-91.4c-25.9-17.7-51.9-27.7-83.5-10c-28,15.7-49.2-0.3-68-21.1
				C1393.3,1326.6,1382.4,1307.2,1358.3,1320.3z"/>
			<path class="st3" d="M1629,1502.6c-7.7-10.9-15.4-21.8-23.1-32.7c-33.5,30.4-67.2,60.7-100.5,91.4c-6.8,6.3-20.2,13.6-6.4,24.3
				c11,8.5,21.9,25,39.3,7.2C1568,1562.3,1598.7,1532.7,1629,1502.6z"/>
			<path class="st4" d="M498,122.4C529.8,218,598.3,287,668.7,354.5C615.5,274.6,555.5,199.6,498,122.4z"/>
			<path class="st4" d="M202.4,427.5c60.5,49.8,121,99.7,181.5,149.5c2.8-3.3,5.5-6.6,8.3-9.8c-54.4-57.3-110.7-112.5-182-150
				C207.6,420.6,205,424,202.4,427.5z"/>
			<path class="st4" d="M563.8,353.5c-38.2-51.9-76.5-103.8-114.7-155.6c-3.1,2.3-6.1,4.6-9.2,6.9c30,58.1,69.6,108.9,113.9,156.3
				C557.1,358.6,560.5,356,563.8,353.5z"/>
			<path class="st4" d="M430,485.6c-46.8-46.8-95-91.9-153.6-124.1c-2.3,2.8-4.6,5.6-6.9,8.4c50.8,41.8,101.6,83.5,152.4,125.3
				C424.6,491.9,427.3,488.8,430,485.6z"/>
		</g>
	</g>
	<rect x="-89.9" y="1679.3" class="st5" width="1922.3" height="463.7"/>
	<g class="st6">
		<path d="M200.4,1730.6c0,9.3-1.6,17.2-4.8,23.7c-3.2,6.5-7.6,11.8-13.2,15.9c-5.6,4-12.1,7-19.6,8.9c-7.5,1.9-15.5,2.8-24.1,2.8
			v32.1h-43v-134.7h43c8.6,0,16.7,0.9,24.1,2.8c7.5,1.9,14,4.8,19.6,8.9c5.6,4,10,9.3,13.2,15.9
			C198.8,1713.4,200.4,1721.3,200.4,1730.6z M180.8,1730.6c0-6.1-1-11.3-3.1-15.8c-2.1-4.4-5-8.1-8.8-10.9
			c-3.8-2.8-8.3-4.9-13.4-6.4c-5.2-1.4-10.8-2.1-16.9-2.1h-22.8v102.4h5.3v-32.1h17.6c6.1,0,11.7-0.7,16.9-2.1
			c5.2-1.4,9.7-3.5,13.4-6.4c3.8-2.8,6.7-6.5,8.8-10.9C179.8,1741.9,180.8,1736.7,180.8,1730.6z M175.2,1730.6c0,5.8-1,10.6-3,14.5
			c-2,3.9-4.7,7-8.1,9.3c-3.4,2.3-7.2,3.9-11.6,4.9c-4.4,1-9,1.5-13.8,1.5h-17.6v-60.6h17.6c4.8,0,9.5,0.5,13.8,1.5
			c4.4,1,8.2,2.7,11.6,4.9c3.4,2.3,6.1,5.4,8.1,9.3C174.2,1720,175.2,1724.8,175.2,1730.6z M138.6,1745.6h1.8
			c5.7,0,9.7-1.3,12.2-3.9c2.5-2.6,3.7-6.3,3.7-11c0-4.7-1.2-8.4-3.7-11c-2.5-2.6-6.6-3.9-12.2-3.9h-1.8V1745.6z"/>
		<path d="M207.5,1746.8c0-9.7,1.8-18.9,5.6-27.5c3.7-8.6,8.8-16.1,15.1-22.5c6.4-6.4,13.9-11.4,22.5-15.2
			c8.6-3.7,17.8-5.6,27.5-5.6c9.7,0,18.9,1.9,27.5,5.6c8.6,3.7,16.1,8.8,22.5,15.2c6.4,6.4,11.4,13.9,15.1,22.5
			c3.7,8.6,5.6,17.8,5.6,27.5c0,9.7-1.9,18.9-5.6,27.5c-3.7,8.6-8.8,16.1-15.1,22.5c-6.4,6.4-13.9,11.4-22.5,15.2
			c-8.6,3.7-17.8,5.6-27.5,5.6c-9.7,0-18.9-1.9-27.5-5.6c-8.6-3.7-16.1-8.8-22.5-15.2c-6.4-6.4-11.4-13.9-15.1-22.5
			C209.4,1765.7,207.5,1756.5,207.5,1746.8z M226.5,1746.8c0,7.1,1.3,13.8,4,20.1c2.7,6.3,6.4,11.8,11.1,16.5
			c4.7,4.7,10.2,8.4,16.5,11.1c6.3,2.7,13,4,20.1,4c7.1,0,13.8-1.3,20.1-4c6.3-2.7,11.7-6.4,16.5-11.1c4.7-4.7,8.4-10.2,11.1-16.5
			c2.7-6.3,4-13,4-20.1c0-7.1-1.3-13.8-4-20.1c-2.7-6.3-6.4-11.7-11.1-16.5c-4.7-4.7-10.2-8.4-16.5-11.1c-6.3-2.7-13-4-20.1-4
			c-7.1,0-13.8,1.3-20.1,4c-6.3,2.7-11.8,6.4-16.5,11.1c-4.7,4.7-8.4,10.2-11.1,16.5C227.8,1733,226.5,1739.7,226.5,1746.8z
			 M278.2,1793.3c-6.5,0-12.5-1.2-18.1-3.6c-5.6-2.4-10.5-5.8-14.7-10s-7.6-9.2-10-14.7c-2.4-5.6-3.6-11.6-3.6-18.1
			c0-6.5,1.2-12.5,3.6-18.1c2.4-5.6,5.8-10.5,10-14.7s9.2-7.6,14.7-10c5.6-2.4,11.6-3.6,18.1-3.6c6.5,0,12.5,1.2,18.1,3.6
			c5.6,2.4,10.5,5.8,14.7,10c4.2,4.2,7.6,9.2,10,14.7c2.4,5.6,3.6,11.6,3.6,18.1c0,6.5-1.2,12.5-3.6,18.1c-2.4,5.6-5.8,10.5-10,14.7
			c-4.2,4.2-9.2,7.6-14.7,10C290.7,1792,284.7,1793.3,278.2,1793.3z M249.9,1746.8c0,3.9,0.7,7.6,2.2,11c1.5,3.4,3.5,6.4,6.1,9
			c2.6,2.6,5.6,4.6,9,6.1c3.4,1.5,7.1,2.2,11,2.2c3.9,0,7.6-0.7,11-2.2c3.4-1.5,6.4-3.5,9-6.1c2.6-2.6,4.6-5.6,6.1-9
			c1.5-3.4,2.2-7.1,2.2-11c0-3.9-0.7-7.6-2.2-11c-1.5-3.4-3.5-6.4-6.1-9c-2.6-2.6-5.6-4.6-9-6.1c-3.4-1.5-7.1-2.2-11-2.2
			c-3.9,0-7.6,0.7-11,2.2c-3.4,1.5-6.4,3.5-9,6.1c-2.6,2.6-4.6,5.6-6.1,9C250.7,1739.2,249.9,1742.9,249.9,1746.8z"/>
		<path d="M348.9,1679.3h45.7l15.6,47.1l15.6-47.1h29.5l15.6,47.1l15.6-47.1h45.7l-44.4,134.7h-33.5l-13.5-40.8l-13.5,40.8h-33.5
			L348.9,1679.3z M413.5,1797.9l26.9-84.6l26.9,84.6h5l33.7-102.4h-5.5l-30.7,93.1l-29.5-93.1l-29.5,93.1l-30.7-93.1h-5.5
			l33.7,102.4H413.5z"/>
		<path d="M534.9,1814.1v-134.7h37.4c12.7,0,23.9,1.4,33.8,4.2c9.9,2.8,18.2,7.1,25,12.7c6.8,5.7,12,12.7,15.6,21.1
			c3.6,8.4,5.4,18.1,5.4,29.2c0,11-1.8,20.8-5.4,29.2c-3.6,8.4-8.8,15.5-15.6,21.1c-6.8,5.7-15.2,9.9-25,12.8
			c-9.9,2.9-21.2,4.3-33.8,4.3H534.9z M555.1,1797.9h17.2c19.7,0,34.5-4.5,44.5-13.4c10-9,15-21.6,15-37.9c0-16.3-5-28.9-15-37.8
			c-10-8.9-24.9-13.3-44.5-13.3h-17.2V1797.9z M560.4,1793.1v-92.7h11.9c17.1,0,30.4,3.9,39.9,11.6c9.5,7.7,14.2,19.3,14.2,34.6
			s-4.7,26.9-14.2,34.7c-9.5,7.8-22.8,11.7-39.9,11.7H560.4z M578,1775.7c10.1,0,17.9-2.4,23.4-7.2c5.5-4.8,8.3-12.1,8.3-21.9
			c0-9.8-2.8-17.1-8.3-21.8c-5.5-4.7-13.3-7.1-23.4-7.1V1775.7z"/>
		<path d="M663.2,1679.3h79.4v35.3h-36.4v14.9H742v33.5h-35.8v15.6H744v35.3h-80.8V1679.3z M729.1,1797.9v-4.8h-40.4v-44.2h38.4
			v-4.8h-38.4v-43.6h40.4v-4.8h-45.7v102.4H729.1z"/>
		<path d="M756.1,1679.3h46.5c8.6,0,16.6,1.1,23.9,3.4c7.3,2.3,13.7,5.7,19.1,10.1c5.4,4.4,9.6,9.9,12.6,16.5c3,6.5,4.5,14,4.5,22.5
			c0,6.7-0.9,12.5-2.8,17.2c-1.9,4.7-4,8.6-6.3,11.7c-2.7,3.5-5.7,6.5-9.1,8.9l25.3,44.4h-50.5l-20.2-34.1v34.1h-43V1679.3z
			 M798.2,1767.2c5.3,0,10.4-0.5,15.4-1.6l19.2,32.3h6.3l-20.2-33.9c7.3-2.6,13.1-6.5,17.4-11.8c4.3-5.3,6.5-12.2,6.5-20.7
			c0-5.9-1.1-11.1-3.4-15.6c-2.3-4.4-5.4-8.2-9.4-11.2c-4-3-8.7-5.3-14-6.9c-5.4-1.5-11.2-2.3-17.6-2.3h-21.8v102.4h5.3v-30.7H798.2
			z M781.6,1762.4v-62h16.6c12.3,0,21.8,2.7,28.8,8.1c6.9,5.4,10.4,13.1,10.4,23c0,10-3.5,17.6-10.4,22.9c-6.9,5.3-16.5,8-28.8,8
			H781.6z M799.2,1745.6h2.2c5.1,0,9.5-1.1,13-3.4c3.6-2.3,5.4-6.1,5.4-11.5c0-5.4-1.8-9.2-5.4-11.5c-3.6-2.3-7.9-3.4-13-3.4h-2.2
			V1745.6z"/>
		<path d="M914.3,1679.3h43v45.9h24v-45.9h43.2v134.7h-43.2v-49.9h-24v49.9h-43V1679.3z M939.8,1797.9v-51.1h59.4v51.1h5.3v-102.4
			h-5.3v46.5h-59.4v-46.5h-5.3v102.4H939.8z"/>
		<path d="M1035.7,1746.8c0-9.7,1.8-18.9,5.6-27.5c3.7-8.6,8.8-16.1,15.2-22.5c6.4-6.4,13.9-11.4,22.5-15.2
			c8.6-3.7,17.8-5.6,27.5-5.6s18.9,1.9,27.5,5.6c8.6,3.7,16.1,8.8,22.5,15.2c6.4,6.4,11.4,13.9,15.1,22.5c3.7,8.6,5.6,17.8,5.6,27.5
			c0,9.7-1.9,18.9-5.6,27.5c-3.7,8.6-8.8,16.1-15.1,22.5c-6.4,6.4-13.9,11.4-22.5,15.2c-8.6,3.7-17.8,5.6-27.5,5.6
			s-18.9-1.9-27.5-5.6c-8.6-3.7-16.1-8.8-22.5-15.2c-6.4-6.4-11.4-13.9-15.2-22.5C1037.6,1765.7,1035.7,1756.5,1035.7,1746.8z
			 M1054.7,1746.8c0,7.1,1.3,13.8,4,20.1c2.7,6.3,6.4,11.8,11.1,16.5c4.7,4.7,10.2,8.4,16.5,11.1c6.3,2.7,13,4,20.1,4
			c7.1,0,13.8-1.3,20.1-4c6.3-2.7,11.7-6.4,16.5-11.1c4.7-4.7,8.4-10.2,11.1-16.5c2.7-6.3,4-13,4-20.1c0-7.1-1.3-13.8-4-20.1
			c-2.7-6.3-6.4-11.7-11.1-16.5c-4.7-4.7-10.2-8.4-16.5-11.1c-6.3-2.7-13-4-20.1-4c-7.1,0-13.8,1.3-20.1,4
			c-6.3,2.7-11.8,6.4-16.5,11.1c-4.7,4.7-8.4,10.2-11.1,16.5C1056,1733,1054.7,1739.7,1054.7,1746.8z M1106.4,1793.3
			c-6.5,0-12.5-1.2-18.1-3.6c-5.6-2.4-10.5-5.8-14.7-10s-7.6-9.2-10-14.7c-2.4-5.6-3.6-11.6-3.6-18.1c0-6.5,1.2-12.5,3.6-18.1
			c2.4-5.6,5.8-10.5,10-14.7s9.2-7.6,14.7-10c5.6-2.4,11.6-3.6,18.1-3.6c6.5,0,12.5,1.2,18.1,3.6c5.6,2.4,10.5,5.8,14.7,10
			c4.2,4.2,7.6,9.2,10,14.7c2.4,5.6,3.6,11.6,3.6,18.1c0,6.5-1.2,12.5-3.6,18.1c-2.4,5.6-5.8,10.5-10,14.7c-4.2,4.2-9.2,7.6-14.7,10
			C1118.9,1792,1112.9,1793.3,1106.4,1793.3z M1078.1,1746.8c0,3.9,0.7,7.6,2.2,11c1.5,3.4,3.5,6.4,6.1,9c2.6,2.6,5.6,4.6,9,6.1
			c3.4,1.5,7.1,2.2,11,2.2c3.9,0,7.6-0.7,11-2.2c3.4-1.5,6.4-3.5,9-6.1c2.6-2.6,4.6-5.6,6.1-9c1.5-3.4,2.2-7.1,2.2-11
			c0-3.9-0.7-7.6-2.2-11c-1.5-3.4-3.5-6.4-6.1-9c-2.6-2.6-5.6-4.6-9-6.1c-3.4-1.5-7.1-2.2-11-2.2c-3.9,0-7.6,0.7-11,2.2
			c-3.4,1.5-6.4,3.5-9,6.1c-2.6,2.6-4.6,5.6-6.1,9C1078.9,1739.2,1078.1,1742.9,1078.1,1746.8z"/>
		<path d="M1243.4,1817.5c-8.5,0-16.2-1.1-23-3.2c-6.9-2.2-12.7-5.4-17.6-9.7c-4.8-4.3-8.6-9.8-11.2-16.4
			c-2.6-6.6-3.9-14.3-3.9-23.2v-85.6h43v83.8c0,4.7,1,8.3,2.9,10.8c1.9,2.5,5.2,3.7,9.8,3.7c4.6,0,7.8-1.2,9.8-3.7
			c2-2.5,2.9-6.1,2.9-10.8v-83.8h43.2v85.6c0,8.9-1.3,16.6-3.9,23.2c-2.6,6.6-6.4,12.1-11.3,16.4c-4.9,4.3-10.8,7.5-17.7,9.7
			C1259.5,1816.4,1251.8,1817.5,1243.4,1817.5z M1243.4,1793.3c-20.2,0-30.3-9.9-30.3-29.7v-68.1h-5.3v68.1c0,11.3,3.1,20,9.2,26
			c6.1,6,14.9,9,26.4,9c11.4,0,20.3-3,26.5-9c6.2-6,9.3-14.6,9.3-26v-68.1h-5.5v68.1C1273.7,1783.4,1263.6,1793.3,1243.4,1793.3z"/>
		<path d="M1312.8,1679.3h35.3l37.2,51.9v-51.9h42.2v134.7H1392l-37-51.7v51.7h-42.2V1679.3z M1336.9,1797.9v-93.3l66.7,93.3h5.3
			v-102.4h-5.3v93.3l-66.7-93.3h-5.3v102.4H1336.9z"/>
		<path d="M1441.7,1814.1v-134.7h37.4c12.7,0,23.9,1.4,33.8,4.2s18.2,7.1,25,12.7c6.8,5.7,12,12.7,15.6,21.1
			c3.6,8.4,5.4,18.1,5.4,29.2c0,11-1.8,20.8-5.4,29.2c-3.6,8.4-8.8,15.5-15.6,21.1c-6.8,5.7-15.2,9.9-25,12.8
			c-9.9,2.9-21.2,4.3-33.8,4.3H1441.7z M1461.9,1797.9h17.2c19.7,0,34.5-4.5,44.5-13.4c10-9,15-21.6,15-37.9c0-16.3-5-28.9-15-37.8
			c-10-8.9-24.9-13.3-44.5-13.3h-17.2V1797.9z M1467.2,1793.1v-92.7h11.9c17.1,0,30.4,3.9,39.9,11.6c9.5,7.7,14.2,19.3,14.2,34.6
			s-4.7,26.9-14.2,34.7c-9.5,7.8-22.8,11.7-39.9,11.7H1467.2z M1484.7,1775.7c10.1,0,17.9-2.4,23.4-7.2c5.5-4.8,8.3-12.1,8.3-21.9
			c0-9.8-2.8-17.1-8.3-21.8c-5.5-4.7-13.3-7.1-23.4-7.1V1775.7z"/>
		<path d="M1566.3,1772.2c3,0.9,6.1,1.7,9.3,2.2c2.7,0.7,5.8,1.2,9.2,1.6s6.9,0.6,10.4,0.6c6.2,0,9.3-2.3,9.3-6.9
			c0-1.7-0.9-3.5-2.8-5.4c-1.9-1.8-4.3-3.8-7.2-6.1c-2.9-2.2-6-4.7-9.3-7.4c-3.3-2.7-6.4-5.8-9.3-9.3c-2.9-3.5-5.3-7.4-7.2-11.8
			c-1.9-4.4-2.8-9.4-2.8-15c0-6.3,1.1-11.9,3.4-16.8c2.3-4.8,5.5-8.9,9.5-12.1c4-3.2,8.8-5.7,14.2-7.4c5.5-1.7,11.3-2.5,17.5-2.5
			c3.2,0,6.5,0.2,9.7,0.5c3.2,0.3,6.1,0.6,8.7,0.9c3,0.4,5.9,0.8,8.7,1.2v37.8c-1.1-0.1-2.3-0.3-3.6-0.4c-1.1-0.1-2.3-0.3-3.6-0.4
			c-1.3-0.1-2.8-0.2-4.2-0.2c-0.8,0-1.8,0-3,0.1c-1.2,0.1-2.4,0.2-3.4,0.5c-1.1,0.3-2,0.7-2.8,1.4c-0.8,0.7-1.2,1.6-1.2,2.8
			c0,1.1,0.9,2.4,2.7,4c1.8,1.6,4,3.5,6.7,5.7c2.6,2.2,5.5,4.6,8.7,7.5s6.1,6.1,8.7,9.7c2.6,3.6,4.8,7.7,6.7,12.3
			c1.8,4.6,2.7,9.7,2.7,15.4c0,5.9-0.9,11.5-2.8,16.7c-1.9,5.2-4.8,9.7-8.8,13.5c-4,3.8-9.1,6.9-15.3,9.1c-6.2,2.2-13.5,3.3-22,3.3
			c-5.1,0-9.9-0.2-14.2-0.7c-4.4-0.5-8.2-1-11.6-1.7c-3.9-0.7-7.5-1.5-10.7-2.4V1772.2z M1583.3,1796.5c1.9,0.4,3.9,0.7,6.1,1
			c1.9,0.3,3.9,0.5,6,0.7c2.1,0.2,4.2,0.3,6.4,0.3c3.8,0,7.4-0.4,11-1.3c3.6-0.9,6.8-2.3,9.6-4.3s5.1-4.6,6.8-7.8
			c1.7-3.2,2.5-7,2.5-11.6c0-3.9-1-7.6-2.9-11.1c-2-3.5-4.4-6.9-7.5-10.1s-6.3-6.3-9.7-9.3c-3.4-3-6.7-6-9.7-9c-3-3-5.5-6.1-7.5-9.1
			c-2-3-2.9-6.2-2.9-9.4c0-4.8,1.5-8.6,4.6-11.2c3.1-2.6,8.1-3.9,14.9-3.9c1.1,0,2.2,0,3.3,0.1c1.1,0.1,2.3,0.2,3.3,0.3
			c1.1,0.1,2.2,0.2,3.2,0.2v-5.3c-0.9,0-2-0.1-3-0.2c-0.9-0.1-2-0.2-3.1-0.3c-1.1-0.1-2.3-0.1-3.5-0.1c-7.3,0-13.3,1.7-18,4.9
			c-4.7,3.3-7.1,8.5-7.1,15.5c0,3.8,1,7.3,2.9,10.6c1.9,3.3,4.4,6.5,7.5,9.7c3,3.2,6.3,6.2,9.7,9.2c3.4,3,6.7,6,9.7,9
			s5.5,6.2,7.5,9.4c1.9,3.2,2.9,6.6,2.9,10.1c0,6.5-2.2,11.4-6.6,14.7c-4.4,3.4-10.4,5.1-18.1,5.1c-4.6,0-8.8-0.3-12.5-1
			c-2-0.3-4-0.6-5.9-1V1796.5z"/>
	</g>
	<g class="st6">
		<path d="M227.3,2042.9v0.8c-1.7,2.5-3.8,3.7-6.2,3.7c-1.9,0-3.5-0.8-4.9-2.5c-1-4-8.5-10.6-22.4-19.7
			c-13.9-9.1-23.1-13.7-27.6-13.7c-0.8,0-1.8,0-3,0c-1.6,0.1-2.6,0.2-3.2,0.2v6.6c0,2.3,0.3,5.2,0.8,8.9c0.6,4.5,1.2,7.3,1.9,8.3
			c2,2.7,3,4.4,3,5.1c0,2-0.8,3.7-2.4,5c-1.6,1.3-3.4,1.9-5.4,1.9c-4.3,0-7.6-1.5-10-4.6c-2.3-2.7-3.4-13.8-3.4-33.4
			c-2.4,0-4.8-0.7-7.4-2.2c-2.9-1.8-4.4-3.7-4.4-5.7c0-4.2,3.8-7.1,11.3-8.9c0.4-3.5,0.8-8.3,1.2-14.3c0.2-6.9,0.5-11.6,0.8-14.3
			c0.7-3.6,1.5-9,2.5-16.2h-1.4c-4.5,0.1-6.8-1.9-6.8-5.9c0-3.5,1.4-5.7,4.1-6.6c1.9-0.6,3.8-1.1,5.7-1.7c2.2-2,4-3.3,5.3-4
			c1.3-0.6,3.3-0.9,6.2-0.9c2,0,3,0.9,3,2.7c0,0.6,1.4,0.8,4.2,0.8c13.2,0,24.4,2.6,33.6,7.9c11.4,6.4,17,15.7,17,27.8
			c0,9.3-2.9,17-8.8,23.1c-3.9,4.2-10.9,8.8-20.9,14c8,5.1,15.9,10.1,23.8,15.2C222.9,2027.2,227.4,2034.7,227.3,2042.9z
			 M204.4,1967.3c0-7.2-3.7-12.7-11-16.4c-5.9-3-12.8-4.6-20.7-4.6c-1,0-3.4,0.2-7.3,0.5c0.1,4-1,11-3.2,20.9
			c-1.2,6-2.1,14.7-2.5,26.2c6.5,2.3,10.6,3.4,12.2,3.4c1.4,0,3.3-0.4,5.9-1.2c7.5-2.2,13.5-5.7,18.3-10.3
			C201.6,1980.6,204.4,1974.4,204.4,1967.3z"/>
		<path d="M294.8,2030.9c0,5.6-3.8,10-11.5,13.2c-6,2.5-12.2,3.7-18.7,3.7c-17.3,0-26-9.8-26-29.5c0-8.1,2-17.1,5.9-27
			c4.8-12.2,10.7-18.2,17.5-18.2c6.2,0,12.9,2.8,20,8.3c7.1,5.5,10.7,11.3,10.7,17.2c0,7.4-3.3,13.3-10,17.7
			c-5.9,3.9-12.8,5.9-20.9,5.9c-1.6,0-4.1-1-7.6-2.9c0.4,10.7,3.6,16,9.5,16c4.9,0,9.8-1.4,14.6-4.2c4.8-2.8,7.8-4.2,9.2-4.2
			C292.4,2026.9,294.8,2028.2,294.8,2030.9z M276.4,1999c0-2.8-0.8-5.5-2.4-8c-1.6-2.5-3.8-3.8-6.5-3.8c-3.7,0-6.6,1.6-8.6,4.9
			c-1.7,2.8-2.5,6.1-2.5,10c0,2.1,0.7,3.9,2.2,5.2c1.5,1.3,3.3,2,5.6,2C272.3,2009.3,276.4,2005.9,276.4,1999z"/>
		<path d="M358.6,2028.7c0,5.3-2.3,9.9-6.8,13.8c-5,4.3-11.6,6.4-19.9,6.4c-3.6,0.1-7.5-0.6-11.6-2.2c-13.5-5.1-20.2-9.2-20.2-12.3
			c0-4.9,3.5-7.4,10.6-7.4c1,0,2.1,0.1,3.2,0.2c0.3,3.4,3,6.1,8.1,8.1c4.4,1.8,8.6,2.5,12.7,2.2c3.3-0.2,4.9-1.4,4.9-3.5
			c0-0.3-0.1-0.8-0.3-1.5c-0.2-0.7-0.3-1.2-0.3-1.6c0-0.4-2.1-1.3-6.4-2.6c-4.8-1.5-7.5-2.3-8.1-2.5c-12.8-7.6-19.2-16.9-19.2-27.7
			c0-6.5,1.9-12.5,5.6-18.1c4.2-6.1,9.3-9.1,15.5-9.1c4.6,0,9.9,1.8,15.8,5.4c5.9,3.6,9.5,7.5,10.9,11.6c0.9,2.9,1.4,5.3,1.4,7.3
			c0,2-0.3,3.7-0.8,5.1c-0.7,1.7-1.4,3.4-2,5.1c-2.1,1.5-4.3,2.2-6.4,2.2c-1.1,0-3-0.7-5.7-2.1c-2.6-1.4-4-2.6-4-3.6
			c0-0.4,0.7-1.9,2-4.4c0.8-1.5,1.2-2.7,1.2-3.7c0-6.8-2.6-10.1-7.9-10.1c-3.2,0-5.6,2-7.3,6.1c-1.2,3.2-1.9,6.5-1.9,10.1
			c0,4.5,3.2,8.6,9.6,12.1c5.8,2.6,11.8,5.2,17.7,7.9C355.4,2022.7,358.6,2025.7,358.6,2028.7z"/>
		<path d="M387.6,1980.8c0,2-0.5,4.9-1.4,8.6c-0.9,3.7-1.4,6.6-1.4,8.6v34.8c0,2.1,0.7,5.5,2,10.1c-1.7,2.6-3.6,3.9-5.6,3.9
			c-7.2,0-11.1-3.5-11.8-10.6c-1.1-13.2-1.7-23.1-1.7-29.7c0-11.1,0.4-20.5,1.3-28c0-0.6,0-1.1,0-1.7c0-2,1.6-3,4.7-3
			c2.8,0,5.6,0.6,8.4,1.7C385.8,1976.7,387.6,1978.5,387.6,1980.8z M389.1,1957.2c0,2.5-0.8,4.5-2.5,6.1c-1.7,1.6-3.8,2.4-6.2,2.4
			c-2.9,0-5.7-1-8.2-3c-2.5-2-3.8-4.5-3.8-7.4c0-2.5,0.9-4.5,2.6-6.1c1.7-1.6,3.9-2.4,6.5-2.4c3,0,5.7,1,8.1,3
			C388,1951.7,389.1,1954.2,389.1,1957.2z"/>
		<path d="M455.6,1943.2c0,2.5-0.3,5.7-1,9.6c-0.9,5.3-1.5,8.4-1.7,9.5c-0.3,3.5-0.9,13.8-1.6,30.9c-0.7,17.1-1.1,26.6-1.1,28.4
			c0,10.8,1.2,18.9,3.5,24.3c-1.9,3.1-4.1,4.7-6.6,4.7c-2.6,0-4.9-1-6.9-3c-2-2-3.2-4.2-3.4-6.8c-5.3,4.8-10.7,7.3-16.2,7.3
			c-8.2,0-14.6-2.9-19.1-8.6c-4.2-5.2-6.2-12-6.2-20.4c0-9.9,2-20,6.1-30.2c5.2-12.9,11.9-19.4,20.2-19.4c4.9,0,10,2.2,15.2,6.6
			c0.6-5.3,0.8-18.8,0.8-40.5c0-2,1.5-3,4.6-3c3.6,0,6.7,0.9,9.4,2.7C454.3,1936.9,455.6,1939.6,455.6,1943.2z M436.1,2000.4
			c0-3.8-0.8-7.3-2.5-10.5c-2.1-3.8-5-5.7-8.4-5.7c-5.1,0-8.9,5-11.6,15c-2,7.2-3,14.3-3,21.3c0,10.5,3,15.7,9.1,15.7
			c6.3,0,10.9-4.7,13.7-14C435.1,2015.9,436.1,2008.6,436.1,2000.4z"/>
		<path d="M519.8,2030.9c0,5.6-3.8,10-11.5,13.2c-6,2.5-12.2,3.7-18.7,3.7c-17.3,0-26-9.8-26-29.5c0-8.1,2-17.1,5.9-27
			c4.8-12.2,10.7-18.2,17.5-18.2c6.2,0,12.9,2.8,20,8.3c7.1,5.5,10.7,11.3,10.7,17.2c0,7.4-3.3,13.3-10,17.7
			c-5.9,3.9-12.8,5.9-20.9,5.9c-1.6,0-4.1-1-7.6-2.9c0.4,10.7,3.6,16,9.5,16c4.9,0,9.8-1.4,14.6-4.2c4.8-2.8,7.8-4.2,9.2-4.2
			C517.3,2026.9,519.8,2028.2,519.8,2030.9z M501.4,1999c0-2.8-0.8-5.5-2.4-8c-1.6-2.5-3.8-3.8-6.5-3.8c-3.7,0-6.6,1.6-8.6,4.9
			c-1.7,2.8-2.5,6.1-2.5,10c0,2.1,0.7,3.9,2.2,5.2c1.5,1.3,3.3,2,5.6,2C497.3,2009.3,501.4,2005.9,501.4,1999z"/>
		<path d="M589.6,2044.6c-1.7,2.6-3.8,3.9-6.2,3.9c-1.9,0-5.1-1.1-9.5-3.4v-2c0-2.5,0.1-6.1,0.2-11c0.1-4.8,0.2-8.4,0.2-10.6
			c0-24.1-3.6-36.1-10.7-36.1c-2,0-4.3,1.6-6.9,4.7c-7.9,9.7-11.9,21.3-11.9,34.9c0,1.9,0.4,4.8,1.1,8.5c0.7,3.8,1.1,6.6,1.1,8.5
			c0,1.6-0.7,2.9-2.2,3.9c-1.5,1-3,1.5-4.7,1.5c-6.8,0-10.1-4.3-10.1-12.8v-35.3c0-0.9,0.1-2.2,0.3-4c0.2-1.7,0.3-3.1,0.3-4
			c0-1.3-0.2-3.3-0.6-5.9c-0.4-2.6-0.6-4.5-0.6-5.7c0-1.8,1-3.5,3.1-5.1c2.1-1.6,4-2.4,5.7-2.4c2.5,0,5,1.4,7.6,4.2l-0.5,6.8
			c4.2-6.6,9.3-10,15.4-10c3.9,0,8.1,1.3,12.5,4s7.6,5.7,9.6,9.1c4.6,8.6,6.9,19.8,6.9,33.8V2044.6z"/>
		<path d="M635.5,1985.4c0,3-4.6,5.2-13.8,6.4c-0.2,2.5-0.3,8.1-0.3,16.9v11.1c0,2.3,0.3,5.6,1,10c0.7,4.4,1,7.7,1,9.8
			c0,1.8-0.9,3.4-2.7,4.8c-1.8,1.4-3.6,2.1-5.4,2.1c-2.8,0-5.2-2.4-7.1-7.3c-1.5-3.7-2.2-7.3-2.2-10.8v-35.8
			c-5.2-0.8-8.2-1.3-8.9-1.5c-2.9-0.9-4.4-2.2-4.4-3.9c0-0.4,0.1-1,0.3-1.5c2.9-4.2,6.2-6.2,9.8-6.2c0.2,0,0.6,0,1,0
			c0.4,0.1,0.8,0.2,1,0.2c2.4,0,3.5-2.8,3.4-8.3v-12.3c-0.6-1.2-0.8-2.3-0.8-3.2c0-1.5,0.9-2.8,2.6-4c1.7-1.2,3.4-1.8,4.9-1.8
			c2.3,0,4.6,1.1,6.7,3.3s3.2,4.5,3.2,7c0,2.7-0.4,5.4-1.3,8c-0.8,2.6-1.2,5.4-1.1,8.2v0.7C631.1,1978.2,635.5,1980.9,635.5,1985.4z
			"/>
		<path d="M662.5,1980.8c0,2-0.5,4.9-1.3,8.6c-0.9,3.7-1.3,6.6-1.3,8.6v34.8c0,2.1,0.7,5.5,2,10.1c-1.7,2.6-3.6,3.9-5.6,3.9
			c-7.2,0-11.1-3.5-11.8-10.6c-1.1-13.2-1.7-23.1-1.7-29.7c0-11.1,0.4-20.5,1.3-28c0-0.6,0-1.1,0-1.7c0-2,1.6-3,4.7-3
			c2.8,0,5.6,0.6,8.4,1.7C660.7,1976.7,662.5,1978.5,662.5,1980.8z M664,1957.2c0,2.5-0.8,4.5-2.5,6.1c-1.7,1.6-3.8,2.4-6.2,2.4
			c-2.9,0-5.7-1-8.2-3c-2.5-2-3.8-4.5-3.8-7.4c0-2.5,0.9-4.5,2.6-6.1c1.7-1.6,3.9-2.4,6.5-2.4c3,0,5.7,1,8.1,3
			C662.8,1951.7,664,1954.2,664,1957.2z"/>
		<path d="M728.7,2017.1c0,14.5-0.5,24.8-1.3,30.7c-0.6,3.5-2.9,5.2-7.1,5.2c-6.3,0-9.1-3.2-8.4-9.4c-5.6,2.7-11.5,4-17.5,4
			c-5.9,0-11.4-1.5-16.7-4.4c-6.3-3.5-9.5-7.9-9.5-13.3c0-5.3,3.6-10.2,10.8-14.9c6.5-4.2,12.7-6.2,18.4-6.2h14.3v-4
			c0.1-11.7-3.4-17.6-10.5-17.6c-8.9,0-13.3,4.1-13.3,12.4c0,2.8-1.6,4.2-4.7,4.2c-1.9,0-3.9-0.9-6-2.6c-2.1-1.7-3.1-3.6-3.1-5.5
			c0-6.3,2.2-11.5,6.8-15.5c4.5-4,9.9-6.1,16.2-6.1C718.1,1974.1,728.7,1988.4,728.7,2017.1z M711.6,2023.2c0-2.2-1.7-3.4-5.1-3.4
			c-14.1,0-21.1,3.3-21.1,10c0,3.6,3.1,5.4,9.3,5.4c3.8,0,7.4-1.1,10.8-3.2C709.6,2029.6,711.6,2026.7,711.6,2023.2z"/>
		<path d="M761.2,2041.2c0,2-0.8,3.7-2.4,5.1c-1.6,1.4-3.5,2.1-5.7,2.1c-7.1,0-10.6-9.3-10.6-27.8c0-8.4,0.1-21.1,0.3-38
			c0.2-16.9,0.3-29.5,0.3-38c0-1.4-0.2-3.3-0.5-5.9c-0.3-2.6-0.5-4.5-0.5-5.7c3.7-2.5,6.6-3.7,8.8-3.7c2.5,0,4.8,0.8,7.1,2.4
			c2.2,1.6,3.4,3.7,3.4,6.2c0,1.2-0.3,2.7-0.8,4.4c-0.8,2.7-1.2,4.2-1.3,4.4c-1.5,7-2.2,16.9-2.2,29.7c0,20.4,0,30.8,0,31.4
			c0.3,14.2,1.5,24.1,3.5,29.7C760.9,2039.1,761.2,2040.3,761.2,2041.2z"/>
		<path d="M874,2029.2c0,6.9-4,12.2-12,15.9c-6.3,3-13.3,4.6-21.1,4.6c-7.1,0-15.4-1.6-25-4.7c-11.8-4-17.7-8.8-17.7-14.2
			c0-2,0.7-3.8,2.2-5.2c1.5-1.5,3.2-2.2,5.2-2.2c3,0,5.8,1.2,8.4,3.7c4.4,3.7,6.8,5.7,7.1,6.1c3.9,2.3,11,3.4,21.3,3.4
			c9.1,0,13.7-2.1,13.7-6.2c0-3.5-4.3-8.3-12.8-14.5c-6-3.8-11.9-7.6-17.9-11.5c-7.7-5.2-13.2-10.1-16.7-14.7
			c-4.6-6.1-6.9-13-6.9-20.9c0-9.9,3-18.7,9.1-26.5c6.5-8.5,14.6-12.8,24.3-12.8c8.3,0,15.4,2.3,21.1,6.8c5.7,4.6,9.4,10.9,11,19.2
			c0.3,3.2,1,7.8,2,14c0.4,1.8,0.7,3.2,0.7,4c0,4-0.7,7.5-2,10.3c-1.7,3.8-4.3,5.7-7.9,5.7c-2,0-4-0.9-5.8-2.8
			c-1.9-1.9-2.8-3.8-2.8-5.8c0-1.5,0.3-3.6,1-6.5c0.7-2.9,1-5.1,1-6.5c0-15.2-5.1-22.9-15.2-22.9c-5.6,0-10.4,2.4-14.2,7.2
			c-3.8,4.8-5.7,10.1-5.7,15.8c0,8.1,4.8,16,14.5,23.7c8.9,6,17.8,11.9,26.8,17.9C869.2,2016.3,874,2022.9,874,2029.2z"/>
		<path d="M943.8,2044.6c-1.7,2.6-3.8,3.9-6.2,3.9c-1.9,0-5.1-1.1-9.5-3.4v-2c0-2.5,0.1-6.1,0.2-11c0.1-4.8,0.2-8.4,0.2-10.6
			c0-24.1-3.6-36.1-10.7-36.1c-2,0-4.3,1.6-6.9,4.7c-7.9,9.7-11.9,21.3-11.9,34.9c0,1.9,0.4,4.8,1.1,8.5c0.7,3.8,1.1,6.6,1.1,8.5
			c0,1.6-0.7,2.9-2.2,3.9c-1.5,1-3,1.5-4.7,1.5c-6.8,0-10.1-4.3-10.1-12.8v-35.3c0-0.9,0.1-2.2,0.3-4c0.2-1.7,0.3-3.1,0.3-4
			c0-1.3-0.2-3.3-0.6-5.9c-0.4-2.6-0.6-4.5-0.6-5.7c0-1.8,1-3.5,3.1-5.1c2.1-1.6,4-2.4,5.7-2.4c2.5,0,5,1.4,7.6,4.2l-0.5,6.8
			c4.2-6.6,9.3-10,15.4-10c3.9,0,8.1,1.3,12.5,4s7.6,5.7,9.6,9.1c4.6,8.6,6.9,19.8,6.9,33.8V2044.6z"/>
		<path d="M1014.9,2012.5c0,10.1-2.5,18.8-7.6,26c-5.9,8.2-13.6,12.3-23.3,12.3c-9.9,0-17.4-3.4-22.4-10.1c-4.6-6-6.9-14.1-6.9-24.3
			c0-10.1,2.5-19.7,7.6-28.7c5.8-10.7,13.4-16,22.8-16c2.9,0,6.6,1.3,11,3.9C1008.6,1983.1,1014.9,1995.4,1014.9,2012.5z
			 M1000,2012.2c0-17.2-4.2-25.8-12.5-25.8c-6,0-10.5,3.7-13.5,11c-2.3,5.5-3.4,11.8-3.4,18.7c0,15,4.4,22.4,13.3,22.4
			c5.7,0,10-3.1,12.8-9.3C998.9,2024.5,1000,2018.8,1000,2012.2z"/>
		<path d="M1108.2,1993.5c0,10.1-1.9,20.6-5.6,31.4c-4.8,14.2-11.2,21.3-19.2,21.3c-7.5,0-13.8-4.7-18.7-14
			c-3.4,9.9-8.7,14.9-16,14.9c-9.3,0-16.1-6.4-20.4-19.2c-2.9-8.8-4.4-19.1-4.4-30.9c0-7.4,0.3-13.4,0.8-18.1
			c1.6-2.5,3.7-3.7,6.2-3.7c2.2,0,4.5,0.7,6.8,2.2c2.3,1.5,3.5,3.2,3.5,5.2c0,1.5-0.3,3.6-1,6.5c-0.7,2.9-1,5-1,6.5
			c0,24.8,2.6,37.1,7.8,37.1c5.4,0,9-6.9,10.6-20.6c0.6-5.2,0.8-14.2,0.8-27.2c0-4.3,2.5-6.4,7.4-6.4c5.5,0,8.3,3.1,8.3,9.3
			c0,0.6-0.1,1.3-0.2,2.4c-0.1,1-0.2,1.7-0.2,2.2v19.1c0,14.2,2.6,21.3,7.8,21.3c4.4,0,7.7-5.2,10-15.5c1.7-7.2,2.5-14.2,2.5-21.1
			c0-5.8-0.3-9.3-0.8-10.3c-0.1-0.2-0.7-0.9-1.9-2c-0.7-0.9-1-1.7-1-2.5c0-2,0.9-3.9,2.7-5.5c1.8-1.6,3.7-2.4,5.7-2.4
			c3,0,5.5,2.7,7.3,8.1C1107.4,1985.5,1108.2,1989.5,1108.2,1993.5z"/>
		<path d="M1229.5,2018.1c0,2.1-0.6,4.7-1.7,7.7c-2.8,7.4-8.1,13.2-15.9,17.5c-7.1,3.8-14.8,5.7-23.3,5.7
			c-13.8,0-24.5-5.2-31.9-15.7c-6.4-9.1-9.6-20.8-9.6-35.2c0-11.9,1.9-23.1,5.6-33.5c4.2-11.9,10.3-21.2,18.4-28
			c6.4-5.3,12.9-7.9,19.6-7.9c9.6,0,16.8,4.2,21.8,12.5c4.1,6.8,6.1,15.2,6.1,25.5c0,4.6-1.2,10.4-3.5,17.4
			c-2.8,8.6-6,12.8-9.4,12.8c-3.9,0-6.9-2.5-8.9-7.4c1.1-0.8,2.7-2.1,4.7-3.9c2.2-2.5,3.4-7.3,3.4-14.5c0-7-0.7-12.9-2.2-17.7
			c-2.3-7.3-6-11-11.1-11c-3.6,0-7.5,2.3-11.8,6.9c-3.3,3.5-6,7.4-8.3,11.6c-5.5,10.8-8.3,24.2-8.3,40.3c0,23.4,8.8,35,26.3,35
			c7.5,0,13.5-2.1,17.9-6.4c1.8-1.9,4.4-5.9,7.9-11.9c2.4-4.4,4.9-6.5,7.6-6.5c1.8,0,3.4,0.7,4.7,2.1
			C1228.8,2014.9,1229.5,2016.4,1229.5,2018.1z"/>
		<path d="M1260.4,2041.2c0,2-0.8,3.7-2.4,5.1c-1.6,1.4-3.5,2.1-5.7,2.1c-7.1,0-10.6-9.3-10.6-27.8c0-8.4,0.1-21.1,0.3-38
			c0.2-16.9,0.3-29.5,0.3-38c0-1.4-0.2-3.3-0.5-5.9c-0.3-2.6-0.5-4.5-0.5-5.7c3.7-2.5,6.6-3.7,8.8-3.7c2.5,0,4.8,0.8,7.1,2.4
			c2.2,1.6,3.4,3.7,3.4,6.2c0,1.2-0.3,2.7-0.8,4.4c-0.8,2.7-1.2,4.2-1.3,4.4c-1.5,7-2.2,16.9-2.2,29.7c0,20.4,0,30.8,0,31.4
			c0.3,14.2,1.5,24.1,3.5,29.7C1260.1,2039.1,1260.4,2040.3,1260.4,2041.2z"/>
		<path d="M1323.7,2030.9c0,5.6-3.8,10-11.5,13.2c-6,2.5-12.2,3.7-18.7,3.7c-17.3,0-26-9.8-26-29.5c0-8.1,2-17.1,5.9-27
			c4.8-12.2,10.7-18.2,17.5-18.2c6.2,0,12.9,2.8,20,8.3c7.1,5.5,10.7,11.3,10.7,17.2c0,7.4-3.3,13.3-10,17.7
			c-5.9,3.9-12.8,5.9-20.9,5.9c-1.6,0-4.1-1-7.6-2.9c0.4,10.7,3.6,16,9.5,16c4.9,0,9.8-1.4,14.6-4.2c4.8-2.8,7.8-4.2,9.2-4.2
			C1321.2,2026.9,1323.7,2028.2,1323.7,2030.9z M1305.3,1999c0-2.8-0.8-5.5-2.4-8c-1.6-2.5-3.8-3.8-6.5-3.8c-3.7,0-6.6,1.6-8.6,4.9
			c-1.7,2.8-2.5,6.1-2.5,10c0,2.1,0.7,3.9,2.2,5.2c1.5,1.3,3.3,2,5.6,2C1301.2,2009.3,1305.3,2005.9,1305.3,1999z"/>
		<path d="M1391.3,2017.1c0,14.5-0.5,24.8-1.3,30.7c-0.6,3.5-2.9,5.2-7.1,5.2c-6.3,0-9.1-3.2-8.4-9.4c-5.6,2.7-11.5,4-17.5,4
			c-5.9,0-11.4-1.5-16.7-4.4c-6.3-3.5-9.5-7.9-9.5-13.3c0-5.3,3.6-10.2,10.8-14.9c6.5-4.2,12.7-6.2,18.4-6.2h14.3v-4
			c0.1-11.7-3.4-17.6-10.5-17.6c-8.9,0-13.3,4.1-13.3,12.4c0,2.8-1.6,4.2-4.7,4.2c-1.9,0-3.9-0.9-6-2.6c-2.1-1.7-3.1-3.6-3.1-5.5
			c0-6.3,2.2-11.5,6.8-15.5c4.5-4,9.9-6.1,16.2-6.1C1380.8,1974.1,1391.3,1988.4,1391.3,2017.1z M1374.3,2023.2
			c0-2.2-1.7-3.4-5.1-3.4c-14.1,0-21.1,3.3-21.1,10c0,3.6,3.1,5.4,9.3,5.4c3.8,0,7.4-1.1,10.8-3.2
			C1372.3,2029.6,1374.3,2026.7,1374.3,2023.2z"/>
		<path d="M1448.9,1987.7c0,0.8-0.1,2-0.3,3.7c-2.4,3.4-4.8,5.1-7.4,5.1c-2.1,0-4.1-1.2-5.7-3.7c-0.2-5.1-2-7.6-5.4-7.6
			c-2,0-4.5,5.3-7.4,16c-1.4,4.7-2,11.3-2,19.7c0,8,0.4,12.8,1.1,14.5c0.8,2.1,1.3,3.6,1.3,4.4c0,1.9-0.9,3.5-2.6,4.6
			c-1.7,1.2-3.6,1.8-5.8,1.8c-6,0-9-2.8-9-8.4c0-0.6,0.1-1.3,0.4-2.4c0.3-1,0.4-1.7,0.4-2.2c0-5.7-0.3-14.3-0.8-25.6
			c-0.6-11.3-0.8-19.8-0.8-25.4c0-5.1,3-7.6,9.1-7.6c3.6,0,6.1,1.1,7.4,3.2c3.1-3.5,6.7-5.2,10.6-5.2c2.7,0,5.3,0.7,7.8,2.2
			c1.7,0.9,3.7,2.8,5.9,5.8C1447.7,1983.7,1448.9,1986.1,1448.9,1987.7z"/>
		<path d="M1477.6,1980.8c0,2-0.5,4.9-1.3,8.6c-0.9,3.7-1.3,6.6-1.3,8.6v34.8c0,2.1,0.7,5.5,2,10.1c-1.7,2.6-3.6,3.9-5.6,3.9
			c-7.2,0-11.1-3.5-11.8-10.6c-1.1-13.2-1.7-23.1-1.7-29.7c0-11.1,0.4-20.5,1.3-28c0-0.6,0-1.1,0-1.7c0-2,1.6-3,4.7-3
			c2.8,0,5.6,0.6,8.4,1.7C1475.8,1976.7,1477.6,1978.5,1477.6,1980.8z M1479.1,1957.2c0,2.5-0.8,4.5-2.5,6.1
			c-1.7,1.6-3.8,2.4-6.2,2.4c-2.9,0-5.7-1-8.2-3c-2.5-2-3.8-4.5-3.8-7.4c0-2.5,0.9-4.5,2.6-6.1c1.7-1.6,3.9-2.4,6.5-2.4
			c3,0,5.7,1,8.1,3C1477.9,1951.7,1479.1,1954.2,1479.1,1957.2z"/>
		<path d="M1547.2,2044.6c-1.7,2.6-3.8,3.9-6.2,3.9c-1.9,0-5.1-1.1-9.5-3.4v-2c0-2.5,0.1-6.1,0.2-11c0.1-4.8,0.2-8.4,0.2-10.6
			c0-24.1-3.6-36.1-10.7-36.1c-2,0-4.3,1.6-6.9,4.7c-7.9,9.7-11.9,21.3-11.9,34.9c0,1.9,0.4,4.8,1.1,8.5c0.7,3.8,1.1,6.6,1.1,8.5
			c0,1.6-0.7,2.9-2.2,3.9c-1.5,1-3,1.5-4.7,1.5c-6.8,0-10.1-4.3-10.1-12.8v-35.3c0-0.9,0.1-2.2,0.3-4c0.2-1.7,0.3-3.1,0.3-4
			c0-1.3-0.2-3.3-0.6-5.9c-0.4-2.6-0.6-4.5-0.6-5.7c0-1.8,1-3.5,3.1-5.1c2.1-1.6,4-2.4,5.7-2.4c2.5,0,5,1.4,7.6,4.2l-0.5,6.8
			c4.2-6.6,9.3-10,15.4-10c3.9,0,8.1,1.3,12.5,4s7.6,5.7,9.6,9.1c4.6,8.6,6.9,19.8,6.9,33.8V2044.6z"/>
		<path d="M1617.1,1995.7c-0.2,2.8-1,7.8-2.2,14.9c-1.1,6.2-1.7,11.1-1.7,14.8c0,3.4,0.2,8.4,0.5,15.2c0.3,6.8,0.5,11.8,0.5,15.2
			c0,7-0.7,12.2-2,15.5c-1.6,4.3-4.6,7.7-8.9,10.4c-4.4,2.6-8.9,4-13.7,4c-5,0-11.1-1.4-18.4-4c-8.8-3.2-13.2-6.6-13.2-10.5
			c0-5,2.3-7.4,6.9-7.4c2.1,0,3.6,0.6,4.4,1.9c1.5,2.2,2.4,3.6,3,4c0.5,0.4,2.3,1,5.5,1.6c3.1,0.6,5.3,0.9,6.6,0.9
			c10.1,0,15.2-6.4,15.2-19.1c0-3.7-0.2-6.9-0.5-9.4c-4.8,4.2-10.6,6.2-17.4,6.2c-2.8,0-6-0.8-9.5-2.4c-3.5-1.6-6.1-3.4-7.9-5.6
			c-3.5-4.1-5.2-10.1-5.2-18.1c0-9.6,2.2-20.1,6.6-31.6c5.4-14.1,12-21.1,19.7-21.1c4.7,0,9.2,2.2,13.5,6.6
			c3.1,4.2,6.3,8.3,9.5,12.3c0.9,1.1,2.3,2.1,4.2,3C1614.9,1994.3,1616.4,1995.1,1617.1,1995.7z M1600.1,2005.8
			c0-1.7-0.8-3.1-2.4-4.2c-0.7-10.3-4.3-15.5-10.8-15.5c-3.7,0-6.8,5.2-9.3,15.7c-1.8,8-2.7,14.9-2.7,20.8c0,11,2.9,16.5,8.6,16.5
			c5.4,0,9.7-4.4,12.8-13.2C1598.8,2019.1,1600.1,2012.4,1600.1,2005.8z"/>
	</g>
</g>
<g id="Layer_2_1_">
	<g id="WjzJxt_2_">
		<g>
			<path class="st0" d="M1239.9,1117.6c-3.7,0-7.4,0.1-11.1,0c-3.4-0.2-5.2,1.6-6.2,4.4c-5.4,14.4-10.8,28.8-16.3,43.1
				c-5.5,14.2-11.2,28.3-16.6,42.5c-4.5,11.8-8.9,23.7-13.3,35.6c-1,2.7-2,5.4-3,8.1c-1.6,4.2-3.8,4.8-7.1,1.9
				c-4.5-4-8.8-8.2-13.3-12.2c-2.7-2.5-4.4-2.2-6.3,0.9c-10.4,16.6-20.8,33.2-31.2,49.9c-7.6,12.1-15,24.3-22.6,36.5
				c-7.4,11.8-14.9,23.6-22.2,35.5c-5.7,9.2-11.3,18.5-17,27.7c-5,8.2-10.1,16.3-15.2,24.4c-2.3,3.7-3.8,3.8-7.2,0.9
				c-5.7-4.9-11.4-9.7-17.4-14.3c-0.9-0.7-3.6-0.6-4.5,0.3c-14.3,13.8-28.4,27.8-42.5,41.7c-30.7,30.3-61.4,60.7-92.1,91
				c-3.1,3.1-4.5,2.9-7.8-0.4c-30.4-30.1-60.8-60.2-91.3-90.3c-14.1-14-28.4-27.8-42.5-41.7c-1.8-1.8-3.4-2-5.4-0.4
				c-6.1,5.2-12.3,10.5-18.5,15.6c-2.5,2-4-0.2-5-1.8c-2.5-3.7-4.7-7.6-7.1-11.5c-5.5-8.9-11-17.9-16.5-26.8
				c-4.6-7.4-9.2-14.7-13.8-22c-4.2-6.8-8.5-13.5-12.7-20.3c-7.5-11.9-14.9-23.9-22.4-35.8c-5.8-9.3-11.8-18.5-17.6-27.7
				c-4.3-6.8-8.4-13.8-12.6-20.7c-2.1-3.4-4.3-6.8-6.4-10.2c-1.7-2.7-3.5-2.9-5.9-0.7c-4.5,4.2-8.9,8.4-13.4,12.6
				c-3.1,2.8-5.4,2.3-7-1.7c-1.1-2.9-2.1-5.8-3.2-8.7c-3.9-10.2-7.9-20.4-11.8-30.6c-4.3-11.2-8.3-22.5-12.6-33.7
				c-3.6-9.5-7.4-18.9-11.1-28.3c-3.4-8.9-6.9-17.9-10.1-26.9c-1.8-5-2.5-5.8-7.6-5.7c-7.2,0.1-14.3,0.4-21.5,0.7
				c-3.7,0.2-5.1-1.4-3.5-4.8c3.2-6.6,6.8-13.1,10.2-19.7c3.7-7.3,7.5-14.6,11-21.9c3.4-7.2,6.5-14.5,9.9-21.6
				c1.2-2.5,3.6-4.6,4.8-7.1c2.9-6,5.4-12.2,8.3-18.2c0.9-1.8,2.4-3.4,3.4-5.2c4.2-7.9,8.3-15.9,12.5-23.8c2.6-4.9,5.1-9.8,7.7-14.6
				c1.2-2.2,1.5-4-1-5.6c-3.9-2.6-7.6-5.6-11.7-8c-3.3-1.9-2.5-4-0.9-6.2c3.8-4.9,7.8-9.8,11.7-14.6c6.5-8.1,13-16.2,19.5-24.3
				c7-8.8,14-17.7,21.1-26.6c7.5-9.4,15-18.8,22.5-28.2c1.6-2.1,1.9-3.9,0-6.2c-7.3-8.8-14.4-17.7-21.8-26.5c-2-2.4-2.9-4.9-2.5-7.9
				c0.9-7.2,1.6-14.5,2.9-21.6c2.7-15.8,5.4-31.7,8.5-47.4c2-10.2,4.3-20.3,7-30.3c3.2-11.3,6.8-22.5,10.7-33.6
				c3.1-8.8,6.4-17.6,10.2-26.1c5-10.9,10.2-21.7,16-32.2c5.3-9.4,11-18.7,17.4-27.4c9-12.3,19-23.9,30.3-34.2
				c1.5-1.3,3.1-2.4,4.4-4c1.9-2.4,3.9-2.1,6-0.5c7.4,6,15.1,11.8,22.2,18.2c12.4,11.3,22.9,24.4,32.8,37.9
				c6.3,8.7,12.6,17.4,18.1,26.6c8,13.3,15.5,27,22.8,40.7c3,5.7,5.3,11.7,7.7,17.7s3.8,6.8,9.9,5.2c3-0.8,6.1-1,9.2-1.5
				c19.9-3.1,39.9-3.6,59.9-2.5c12.2,0.6,24.3,2.8,36.4,4.5c4.4,0.6,5.5,0.5,7.4-3.6c3.4-7.4,6.5-15,10.2-22.3
				c5.3-10.5,10.6-21.1,16.9-31c9.2-14.5,18.7-28.9,29.1-42.5c12.4-16.1,26.2-31.1,42.7-43.4c1.9-1.4,3.8-3,5.8-4.4
				c2.2-1.6,4.2-1.6,6.4,0.5c11.5,10.8,22.3,22.1,31.8,34.8c9.3,12.4,17.5,25.4,24.5,39.3c4.8,9.6,9.9,19.1,13.9,29
				c4.9,12.1,9,24.5,13.1,36.8c2.9,8.7,5.5,17.6,7.9,26.5c1.6,6,2.8,12.1,4.1,18.2c1.1,5.1,2.1,10.2,3.1,15.3
				c1.7,9,3.6,17.9,4.9,26.9c1.6,10.6,2.7,21.3,3.8,32c0.2,1.5-0.6,3.5-1.6,4.8c-7.1,8.9-14.4,17.8-21.7,26.5c-3.1,3.8-3.2,5,0,8.9
				c6,7.3,12,14.7,17.9,22.1c11.5,14.3,22.9,28.7,34.3,43c7.1,8.9,14.2,17.9,21.2,26.9c2.2,2.8,2.1,4.4-0.8,6.5
				c-3.7,2.7-7.5,5.3-11.3,7.9c-2.5,1.7-2.2,3.7-1,6c4.7,9.1,9.3,18.3,14.1,27.4c3.5,6.6,7.6,12.8,11.1,19.4
				c2.4,4.5,3.9,9.3,6.2,13.9c6.4,12.7,12.9,25.3,19.3,37.9c4.7,9.3,9.4,18.5,14.1,27.8c0.9,1.7,2,3.4,2.8,5.2
				c1.6,3.5,0.4,5.4-3.4,5.2c-3.8-0.2-7.6-0.3-11.4-0.5C1239.9,1117.7,1239.9,1117.7,1239.9,1117.6z M1034,977.4
				c1.2-2,1.8-3.6,2.9-4.8c4.9-5.2,10-10.2,15.1-15.4c4.5-4.5,8.9-9.1,13.3-13.7c2.1-2.3,1.7-4.1-1.1-5.4c-0.8-0.4-1.8-0.5-2.6-0.8
				c-6.8-2.5-13.7-4.9-20.5-7.5s-13.5-5.3-20.3-7.9c-6.4-2.4-12.7-4.8-19.1-7.2c-6.9-2.6-13.8-5.1-20.7-7.8c-4.5-1.8-9.1-3.4-13.1-6
				c-4.8-3.1-9.1-7.1-13.5-10.9c-8.9-7.5-17.8-15.1-26.7-22.6c-1.9-1.6-3.7-1.6-5.1,0.9c-1,1.8-2.4,3.4-3.5,5.1
				c-7,10-14.1,20-20.8,30.2c-2.1,3.3-4.1,7.3-4.3,11c-0.5,11,0.4,22-0.2,33c-0.4,7,1.9,12.2,6.1,17.4c6.9,8.5,13.6,17.2,20.4,25.7
				c1.4,1.7,3,2.3,4.9,0.2c6.4-7.1,12.9-14.2,19.4-21.2c9.6-10.3,19.2-20.6,28.9-30.9c0.8-0.9,2.4-1.1,3.6-1.7c0.3,1.1,1,2.3,1,3.4
				c-0.2,3,0.8,4.7,3.8,5.6c5.4,1.6,10.7,3.5,16.1,5.1c5.3,1.6,10.6,3.1,15.9,4.7c5,1.5,10,2.9,14.9,4.4c2,0.6,3.9,1.5,5.9,2.2
				c-1.1,2-2.1,4-3.2,6c-0.1,0.1-0.2,0.2-0.2,0.2c-8.1,9.6-16.3,19.2-24.4,28.8c-1.9,2.3-1,4.5,1.9,4.9c0.8,0.1,1.7,0.1,2.3,0.5
				c0.7,0.4,1.3,1.3,1.4,2.1c0,0.4-1,1.3-1.6,1.4c-3.7,0.7-7.5,1.5-11.2,1.7c-5.9,0.3-11.7-0.3-17.6,0.1c-15.8,1-31.6,2.1-46.8-4
				c-0.6-0.3-1.5,0-3.1,0.1c1.2,2.1,1.8,3.7,2.9,5.1c4.1,5,8.5,9.7,12.5,14.8c3.9,4.9,7.3,10.3,11.2,15.3c5.3,6.8,11,13.4,16.4,20.1
				c0.4,0.5,0.4,1.4,0.6,2.1c-0.8,0.2-1.8,0.8-2.5,0.6c-3-1.1-6.1-2.2-9-3.6c-7.8-3.6-15.6-7.4-23.4-10.9c-3.2-1.4-6.6-2.5-9.9-3.7
				c-7.9-2.9-14.4-8.6-22.7-10.6c-1.7-0.4-4.2-1-5.1-0.2c-1,0.9-0.8,3.4-0.5,5.1c0.3,2.3,1.3,4.4,1.7,6.7c1.4,7,2.6,14.1,3.9,21.1
				c1,5.1,2.1,10.2,3.2,15.2c1.6,7.3,3.3,14.6,4.8,22c1.5,7.1,2.8,14.3,4.1,21.4c0.2,0.9-0.1,1.9-0.1,2.9c-1.2-0.1-2.5,0.1-3.6-0.3
				c-1.3-0.5-2.3-1.6-3.5-2.2c-7-3.3-13.9-6.7-21.1-9.5c-7.8-3.1-16-4.8-24.4-4c-14.9,1.5-28.3,7.4-41,15c-0.9,0.5-1.8,1.2-2.8,1.3
				c-1.8,0.3-2.8,0-2.2-2.4c1.6-6.9,2.5-14.1,4.4-20.9c2.4-8.2,0.7-17.2,5.4-24.9c0.4-0.6,0.3-1.6,0.4-2.4
				c0.9-6.7,1.9-13.4,2.8-20.1c0.1-0.7,0.4-1.3,0.5-2c1.7-6.1,3.5-12.1,5-18.2c0.9-3.6-0.9-5.3-4.3-4.3c-3.6,1.1-7.2,2.6-10.6,4.2
				c-6.8,3.1-13.5,6.3-20.4,9.4s-14,5.9-20.9,9.1c-4.8,2.2-9.4,4.8-14.2,7c-1,0.5-2.5,0-3.8-0.1c0.3-1.1,0.2-2.5,0.9-3.3
				c5.4-6.4,11-12.7,16.4-19.2c1.9-2.3,2.8-5.3,4.6-7.5c6.7-8.1,13.6-15.9,20.3-23.9c0.8-1,1-2.6,1.8-4.6c-4.7,1.1-8.6,1.6-12.2,2.8
				c-10.7,3.7-21.7,2.4-32.6,2.4c-7.6,0-15.2-1.2-22.8-1.8c-1.4-0.1-2.8-0.3-4.2-0.3c-1.9,0.1-3.8,0.4-5.8,0.5c-2.2,0.1-4.3,0-6.9,0
				c1.7-3.6,3.9-5.2,7.3-5.3c1.2,0,2.3-1,3.4-1.5c-0.6-1.3-1.2-2.6-1.9-3.8c-0.6-0.8-1.5-1.4-2.1-2.2c-3.3-4.1-6.4-8.4-9.8-12.5
				c-4.5-5.5-9.1-10.7-13.6-16.2c-2.2-2.7-1.5-4.3,1.8-5.2c3.6-0.9,7.1-2,10.7-3c11.6-3.3,23.3-6.5,34.9-9.9c7-2,7.9-3.1,8-7.7
				c0-1.1,0.5-2.1,0.8-3.1c1.2,0.5,2.7,0.7,3.6,1.6c2,1.9,3.7,4.2,5.6,6.2c7.6,8.2,15.4,16.3,23,24.5c6.5,7,12.9,14.2,19.4,21.2
				c2.2,2.3,3.8,2.1,5.6-0.2c7.6-9.7,15.4-19.3,22.7-29.3c1.8-2.4,3.1-5.8,3.2-8.8c0.4-12.6,0.3-25.2,0.2-37.8
				c0-2.6-0.7-5.4-2.1-7.6c-3.1-5.1-6.8-9.9-10.2-14.8c-5.2-7.5-10.6-14.8-15.7-22.4c-2.7-4-3.7-4.2-7.6-1
				c-11.2,9.5-22.6,18.7-33.6,28.4c-5.3,4.6-11.3,7.4-17.7,9.7c-6.6,2.4-13.2,4.9-19.7,7.3c-7,2.6-14,5.3-21,7.9
				c-6.3,2.3-12.5,4.6-18.8,7c-7.4,2.8-14.8,5.8-22.3,8.4c-4.5,1.6-5.4,3.8-2,7.2c9.1,9.3,18.4,18.5,27.5,27.9
				c1.1,1.1,1.8,2.9,1.9,4.4c0,0.5-2.3,1.5-3.7,1.8c-9.5,2.4-19.1,4.5-28.5,7c-9.8,2.5-19.5,5.4-29.3,8c-4.1,1.1-8.2,2.6-12.4,3
				c-5.2,0.4-8.4,3.2-11.3,7c-5.4,7.4-10.9,14.7-16.6,21.9c-2.7,3.4-6.2,6.3-8.8,9.7c-6.4,8.3-12.5,16.8-18.9,25.2
				c-2.8,3.7-5.8,7.2-8.8,10.6c-2.6,3-5.7,5.7-8.1,8.8c-2.3,3-0.9,5.3,2.9,5.8c6.7,0.9,13.4,1.9,20.1,3.1c3.9,0.7,7.6,2.1,11.5,2.7
				c3.4,0.5,5.2,2,5.5,5.5c0.4,5.8,0.9,11.5,1.2,17.3c1.5,23.8,2.9,47.6,4.4,71.3c0.1,1.2,0.9,2.7,1.9,3.2c0.6,0.3,2.3-0.7,3.1-1.4
				c5.4-5.2,10.8-10.5,16.1-15.8c2-2.1,3.7-2.1,5.4,0.2c2.7,3.8,5.3,7.5,7.8,11.4c6.4,9.9,12.8,20,19.2,29.9
				c7.6,11.7,15.2,23.4,22.8,35.1c1.3,1.9,2.8,3.7,4.2,5.6c0.4-0.1,0.8-0.2,1.2-0.3c0.2-1.6,0.6-3.3,0.4-4.9
				c-0.6-6.3-1.4-12.6-2.1-18.9c-1.1-10.1-2.2-20.2-3.3-30.3c-1.7-16.2-3.3-32.4-4.9-48.7c-0.7-6.4-1.5-12.8-2.1-19.3
				c-0.1-1.4,0.5-2.8,0.8-4.2c0.5,0,0.9,0,1.4,0c0.4,1.3,1,2.6,1.3,4c0.4,1.8,0.5,3.7,1,5.4c2.6,8.7,5.5,17.4,8,26.1
				c2.4,8.2,4.4,16.5,6.8,24.6c3.5,11.8,7.2,23.6,10.8,35.4c3,10,5.9,20.1,8.8,30.2c3.5,12.2,6.8,24.4,10.3,36.6
				c3.8,13.1,7.7,26.1,11.5,39.1c0.8,2.7,2.5,3,4.5,1.9c3.5-2.1,6.8-4.7,10.2-7c2.1-1.4,4.1-1.6,5.8,0.5c2.9,3.7,5.7,7.5,8.6,11.3
				c10.5,13.9,21.1,27.8,31.7,41.6c6.3,8.2,12.9,16.2,19.3,24.5c11.3,14.8,22.4,29.6,33.6,44.4c5.9,7.8,12,15.5,18,23.3
				c1.5,2,3.6,2,5.1,0c3.8-5,7.5-10,11.3-14.9c8.6-11.2,17.3-22.2,25.8-33.4c8-10.5,15.9-21.2,24-31.8c7.7-10.1,15.7-20,23.4-30
				c8.9-11.5,17.7-23.1,26.4-34.7c1.8-2.4,3.9-2.3,6-1c3.3,2.1,6.5,4.4,9.7,6.6c2.7,1.9,4.4,1.3,5.2-1.9c1.2-4.6,2.4-9.2,3.7-13.7
				c2.5-8.4,5.3-16.7,7.8-25.1c2.5-8.6,4.7-17.3,7.2-26c3.9-13.5,7.9-27,11.8-40.5c1.1-3.9,2.3-7.7,3.5-11.6
				c2.6-8.6,5.2-17.2,7.8-25.8c2.7-8.9,5.3-17.9,7.9-26.9c1.4-4.8,2.8-9.5,4.1-14.3c1.4-5.1,2.6-10.3,3.9-15.4
				c0.2-0.7,0.8-1.3,1.3-2.1c2.8,1.6,1.8,4,1.6,6c-1.5,15.1-3.2,30.1-4.8,45.1c-0.4,3.3-0.8,6.7-1.1,10c-1.4,13.5-2.7,26.9-4,40.4
				c-0.1,0.8-0.4,1.6-0.4,2.4c-0.6,6.6-1.3,13.1-1.8,19.7c-0.1,1,0.6,2.1,0.9,3.2c0.3,0.1,0.6,0.1,0.9,0.2c0.2-0.4,0.4-0.8,0.7-1.2
				c4.2-6.3,8.4-12.7,12.6-19c10.3-15.7,20.5-31.5,30.8-47.2c3.2-4.9,6.5-9.8,9.9-14.6c1.7-2.4,3.5-2.1,5.4-0.1
				c5.2,5.3,10.5,10.5,15.8,15.6c0.9,0.9,2.2,1.3,3.3,1.9c0.7-1.4,1.9-2.7,2-4.1c1.7-26.3,3.3-52.6,4.9-79c0.2-3.2,1.2-6.6,0.6-9.6
				c-0.7-3.9,1.2-5.2,4.2-5.7c4.3-0.8,8.7-1,13-1.9c6.8-1.3,13.6-2.8,20.3-4.4c1.8-0.4,3.1-1.8,1.6-3.9c-3-4.2-5.9-8.6-9.2-12.6
				c-8.3-10.2-16.8-20.2-25-30.5c-7.3-9.2-14.6-18.4-21.5-28c-5.1-7-10.1-13.5-19.7-14c-0.6,0-1.1-0.4-1.6-0.5c-5-1.3-10-2.7-15.1-4
				c-9.4-2.3-18.8-4.4-28.2-6.8c-7.5-1.9-14.9-3.9-22.4-5.9C1037.1,978.3,1036,978,1034,977.4z M1097.8,795.5c0.6,1.5,1.4,2.7,1.6,4
				c1.2,7.3,2.1,14.6,3.3,21.9c1.6,10.3,3.4,20.5,5.2,30.7c0.2,1.2,0.8,2.3,1.2,3.4c1.3-0.6,2.9-1,3.8-2c7.7-8.6,14.9-17.7,22.9-26
				c5.2-5.4,5.2-10.9,3.5-17.2c-0.7-2.8-1.4-5.6-1.9-8.4c-1.4-7.1-2.6-14.3-4-21.4c-0.8-4.3-1.8-8.6-2.9-12.8c-1.5-6-3.2-12-4.8-18
				c-2.3-8.6-4.3-17.2-7-25.7c-3.3-10.2-6.9-20.3-10.8-30.3c-4-10.3-8.2-20.5-13.1-30.4c-4.2-8.4-9.2-16.5-14.4-24.3
				c-9.9-14.9-21.2-28.6-36-39c-1.8-1.3-3.4-1.6-5.2,0.1c-2.3,2.1-4.7,4.1-7.1,6c-13.8,11.4-25.4,24.9-35.1,39.9
				c-5.5,8.5-10.3,17.4-15.1,26.3c-3.8,7.1-7.2,14.4-10.6,21.7c-0.6,1.3-0.6,3.4,0,4.6c5,9.2,10.2,18.3,15.4,27.4
				c3.7,6.6,7.6,13.1,11.3,19.8c0.6,1.1,0.7,2.4,1,3.8c-0.8-0.1-1.1,0-1.3-0.1c-10.7-6.1-21.4-12.2-32.1-18.2c-1.4-0.8-3.3-0.7-5-1
				c0.5,1.4,0.8,3,1.6,4.2c6.2,8.1,12.5,16,18.7,24c5.8,7.5,11.5,15,17.3,22.5c4.7,6.2,9.4,12.5,14.2,18.8c1.5,2,4.2,1.9,4.9-0.3
				c1.2-3.6,2.1-7.3,3.1-11c1.4-5.2,2.8-10.5,4.3-15.7c2.4-8.2,5.1-16.3,7.5-24.5c2.5-8.6,4.8-17.3,7.3-26
				c2.8-9.9,5.6-19.7,8.4-29.5c0.7-2.4,1.4-4.6,4.8-5.2c0.4,2.4,0.9,4.6,1.2,6.8c0.4,3.2,0.6,6.5,1.1,9.6c1.6,8.9,3.4,17.7,5,26.5
				c1.8,9.8,3.5,19.5,5.2,29.3c1.2,6.9,2.5,13.9,3.7,20.8c2.1,11.8,4,23.7,6.2,35.5c0.2,0.9,1,2.2,1.6,2.2c1,0.1,2.3-0.6,2.9-1.3
				c1.5-1.7,2.7-3.7,4.2-5.4C1088.3,806.6,1092.8,801.4,1097.8,795.5z M689.9,687.9c0.4-0.2,0.8-0.4,1.2-0.5c1,1.5,2.5,2.9,2.9,4.6
				c2.5,8.6,4.8,17.3,7.1,26c1.1,3.9,2.2,7.8,3.4,11.6c1.8,6.2,3.7,12.3,5.5,18.5c2.2,7.5,4.3,15.1,6.5,22.6
				c2.7,9.2,5.4,18.4,8.1,27.5c0.3,1.1,1.3,2.8,1.8,2.8c1.3-0.1,2.9-0.8,3.7-1.7c1.9-2.2,3.2-4.8,5-7.1c4.3-5.6,8.8-11,13.1-16.5
				c5.8-7.5,11.5-15,17.3-22.5c5-6.5,10.2-12.9,15.1-19.4c0.7-0.9,0.6-2.3,0.9-3.4c-1.2,0-2.5-0.3-3.5,0.2c-2.8,1.4-5.4,3.1-8,4.6
				c-8.8,5-17.5,10-27.3,15.5c0.6-2.1,0.7-3.3,1.2-4.3c1.2-2.3,2.7-4.5,4-6.9c3.4-6.1,6.7-12.3,10.2-18.4
				c4.3-7.5,8.7-14.9,12.9-22.5c0.6-1,0.7-2.6,0.3-3.6c-3-6.8-5.8-13.6-9.3-20.1c-4.3-8-8.7-16-13.7-23.5
				c-6.1-9.2-12.3-18.4-19.6-26.7c-7.1-8.1-15.6-15-23.6-22.4c-4.4-4.1-4.5-4.1-9.4-0.6c-12.6,9-22.3,20.7-31.2,33.2
				c-8.6,12-16,24.8-21.7,38.5c-4.7,11-9.6,22-13.6,33.3c-3.9,11-6.8,22.5-10.1,33.7c-1.2,4.1-2.3,8.2-3.3,12.3
				c-1.7,6.7-3.4,13.4-4.9,20.1c-1.5,6.5-2.8,13.1-4.1,19.6c-1.6,7.9-3.2,15.8-4.8,23.8c-0.8,4.2,0.7,7.3,3.5,10.3
				c6.4,6.9,12.6,13.9,18.7,20.9c1.9,2.2,3.5,4.6,5.5,6.7c0.8,0.8,2.2,1.1,3.4,1.3c0.2,0.1,1-1.2,1.1-1.9c1-5.5,2-10.9,2.8-16.4
				c2-12.9,4-25.8,6.1-38.7c0.2-0.9,1-1.8,1.7-2.8c6,7.2,11.6,14.1,17.3,20.8c0.9,1.1,2.3,1.7,3.6,2.3c0.1,0.1,1.2-1.3,1.4-2.1
				c2.1-11.1,4.1-22.3,6-33.4c1.4-7.9,2.7-15.9,4.1-23.9c1.5-8.5,3.2-17,4.7-25.6c1.1-5.9,2.1-11.8,3-17.7
				c1.3-8.4,2.6-16.9,3.9-25.3C689.2,689.9,689.6,688.9,689.9,687.9z M742.3,978.2c0.3,0.1,0.6,0.2,0.9,0.4
				c-0.1,11.8,8.3,19.4,20,18c3.4-0.4,7-0.3,10.1-1.6c7-2.8,9.2-9.5,9.4-16.1c0.3-6.7-1.9-10.8-8.9-11.1c-2.6-0.1-5.2-0.8-7.9-1.1
				c-5-0.6-10-1.3-15-1.4c-1.5,0-3.7,1.2-4.4,2.5C744.7,971.2,743.6,974.8,742.3,978.2z M999.4,978.8c-0.1-1.7,0.1-3.5-0.4-5.2
				c-1-3.3-2.5-7.3-6.1-7.7c-4.9-0.5-10.1,0.4-15,1.1c-0.9,0.1-2.2,2.1-2.1,3.2c0.1,1.6,0.8,3.9,1.9,4.4c1.2,0.5,3.2-0.6,4.7-1.4
				c2.2-1.2,4.4-0.8,4.7,1.2c0.3,2.3-2.3,6.9-4.5,7.6c-3.3,1-6.7,1.9-9.5-0.9c-2.7-2.7-3.7-5.9-2-9.8c1.2-2.8,0.3-3.9-2.8-3.5
				c-6.8,0.9-9.5,5.3-8.4,13.3c0.9,6.2,3.8,12.2,10,13.9c5.8,1.6,12.2,0.9,18.4,1.2c0.6,0,1.3-0.4,1.9-0.9
				C995.5,991.1,999.8,986.3,999.4,978.8z"/>
			<path class="st7" d="M1034,977.4c2,0.6,3,0.9,4.1,1.2c7.5,2,14.9,4.1,22.4,5.9c9.4,2.3,18.8,4.5,28.2,6.8c5,1.2,10,2.6,15.1,4
				c0.6,0.1,1.1,0.5,1.6,0.5c9.6,0.5,14.6,7,19.7,14c6.9,9.5,14.1,18.8,21.5,28c8.2,10.3,16.8,20.2,25,30.5c3.3,4,6.1,8.4,9.2,12.6
				c1.5,2.1,0.2,3.5-1.6,3.9c-6.7,1.6-13.5,3.1-20.3,4.4c-4.3,0.8-8.7,1.1-13,1.9c-2.9,0.5-4.9,1.8-4.2,5.7c0.6,3.1-0.4,6.4-0.6,9.6
				c-1.6,26.3-3.2,52.6-4.9,79c-0.1,1.4-1.3,2.7-2,4.1c-1.1-0.6-2.4-1-3.3-1.9c-5.3-5.1-10.6-10.4-15.8-15.6c-1.9-2-3.7-2.3-5.4,0.1
				c-3.3,4.8-6.7,9.7-9.9,14.6c-10.3,15.7-20.5,31.5-30.8,47.2c-4.2,6.4-8.4,12.7-12.6,19c-0.3,0.4-0.5,0.8-0.7,1.2
				c-0.3-0.1-0.6-0.1-0.9-0.2c-0.3-1.1-1-2.1-0.9-3.2c0.5-6.6,1.2-13.1,1.8-19.7c0.1-0.8,0.4-1.6,0.4-2.4c1.4-13.5,2.7-26.9,4-40.4
				c0.3-3.3,0.8-6.7,1.1-10c1.6-15,3.3-30.1,4.8-45.1c0.2-2,1.2-4.4-1.6-6c-0.5,0.8-1.1,1.3-1.3,2.1c-1.4,5.1-2.5,10.3-3.9,15.4
				c-1.3,4.8-2.7,9.5-4.1,14.3c-2.6,9-5.2,17.9-7.9,26.9c-2.6,8.6-5.2,17.2-7.8,25.8c-1.2,3.9-2.3,7.7-3.5,11.6
				c-4,13.5-8,27-11.8,40.5c-2.5,8.6-4.6,17.4-7.2,26c-2.5,8.4-5.2,16.7-7.8,25.1c-1.4,4.5-2.5,9.1-3.7,13.7
				c-0.8,3.2-2.5,3.8-5.2,1.9c-3.2-2.3-6.4-4.6-9.7-6.6c-2.1-1.3-4.2-1.5-6,1c-8.8,11.6-17.6,23.2-26.4,34.7
				c-7.8,10.1-15.7,20-23.4,30c-8.1,10.5-15.9,21.2-24,31.8c-8.5,11.2-17.2,22.3-25.8,33.4c-3.8,4.9-7.5,9.9-11.3,14.9
				c-1.5,2-3.6,2-5.1,0c-6-7.8-12.1-15.5-18-23.3c-11.2-14.8-22.3-29.7-33.6-44.4c-6.3-8.2-12.9-16.3-19.3-24.5
				c-10.6-13.8-21.1-27.7-31.7-41.6c-2.9-3.8-5.7-7.6-8.6-11.3c-1.7-2.1-3.7-1.9-5.8-0.5c-3.4,2.3-6.7,4.9-10.2,7
				c-1.9,1.2-3.7,0.8-4.5-1.9c-3.8-13.1-7.8-26.1-11.5-39.1c-3.5-12.2-6.8-24.4-10.3-36.6c-2.9-10.1-5.8-20.2-8.8-30.2
				c-3.5-11.8-7.3-23.5-10.8-35.4c-2.4-8.2-4.4-16.5-6.8-24.6c-2.6-8.7-5.4-17.4-8-26.1c-0.5-1.8-0.6-3.6-1-5.4
				c-0.3-1.4-0.9-2.7-1.3-4c-0.5,0-0.9,0-1.4,0c-0.3,1.4-0.9,2.8-0.8,4.2c0.6,6.4,1.4,12.8,2.1,19.3c1.7,16.2,3.3,32.4,4.9,48.7
				c1,10.1,2.2,20.2,3.3,30.3c0.7,6.3,1.5,12.6,2.1,18.9c0.1,1.6-0.3,3.2-0.4,4.9c-0.4,0.1-0.8,0.2-1.2,0.3c-1.4-1.9-3-3.6-4.2-5.6
				c-7.6-11.7-15.3-23.4-22.8-35.1c-6.4-10-12.7-20-19.2-29.9c-2.5-3.9-5.2-7.6-7.8-11.4c-1.6-2.3-3.3-2.3-5.4-0.2
				c-5.3,5.4-10.7,10.6-16.1,15.8c-0.8,0.8-2.5,1.8-3.1,1.4c-0.9-0.5-1.8-2.1-1.9-3.2c-1.5-23.8-2.9-47.6-4.4-71.3
				c-0.4-5.8-0.9-11.5-1.2-17.3c-0.2-3.5-2.1-5-5.5-5.5c-3.9-0.6-7.6-2-11.5-2.7c-6.7-1.2-13.4-2.2-20.1-3.1
				c-3.8-0.5-5.2-2.8-2.9-5.8c2.4-3.2,5.5-5.8,8.1-8.8c3-3.5,6-7,8.8-10.6c6.4-8.3,12.5-16.9,18.9-25.2c2.7-3.4,6.1-6.3,8.8-9.7
				c5.7-7.2,11.2-14.5,16.6-21.9c2.9-3.9,6.1-6.6,11.3-7c4.2-0.3,8.3-1.9,12.4-3c9.8-2.6,19.5-5.5,29.3-8c9.5-2.5,19-4.6,28.5-7
				c1.4-0.3,3.7-1.3,3.7-1.8c-0.1-1.5-0.9-3.3-1.9-4.4c-9.1-9.4-18.3-18.6-27.5-27.9c-3.3-3.4-2.5-5.6,2-7.2
				c7.5-2.6,14.9-5.6,22.3-8.4c6.3-2.4,12.5-4.7,18.8-7c7-2.6,14-5.3,21-7.9c6.6-2.5,13.1-4.9,19.7-7.3c6.4-2.3,12.4-5.1,17.7-9.7
				c11-9.7,22.4-18.9,33.6-28.4c3.8-3.2,4.9-3,7.6,1c5.1,7.5,10.5,14.9,15.7,22.4c3.4,4.9,7.1,9.7,10.2,14.8c1.3,2.2,2,5,2.1,7.6
				c0.2,12.6,0.2,25.2-0.2,37.8c-0.1,3-1.4,6.4-3.2,8.8c-7.4,9.9-15.1,19.5-22.7,29.3c-1.8,2.4-3.5,2.5-5.6,0.2
				c-6.5-7-12.9-14.2-19.4-21.2c-7.6-8.2-15.3-16.3-23-24.5c-1.9-2-3.6-4.3-5.6-6.2c-0.9-0.8-2.4-1.1-3.6-1.6
				c-0.3,1-0.8,2.1-0.8,3.1c-0.1,4.7-1,5.7-8,7.7c-11.6,3.4-23.3,6.6-34.9,9.9c-3.5,1-7.1,2-10.7,3c-3.3,0.9-4,2.5-1.8,5.2
				c4.4,5.5,9.1,10.8,13.6,16.2c3.3,4.1,6.5,8.3,9.8,12.5c0.6,0.8,1.6,1.4,2.1,2.2c0.8,1.2,1.3,2.5,1.9,3.8
				c-1.1,0.5-2.3,1.5-3.4,1.5c-3.4,0.1-5.6,1.7-7.3,5.3c2.6,0,4.7,0.1,6.9,0c1.9-0.1,3.8-0.4,5.8-0.5c1.4-0.1,2.8,0.2,4.2,0.3
				c7.6,0.7,15.2,1.8,22.8,1.8c10.9,0,21.9,1.3,32.6-2.4c3.6-1.2,7.5-1.8,12.2-2.8c-0.8,2-1,3.6-1.8,4.6c-6.7,8-13.6,15.9-20.3,23.9
				c-1.9,2.2-2.8,5.3-4.6,7.5c-5.3,6.5-11,12.7-16.4,19.2c-0.7,0.8-0.6,2.2-0.9,3.3c1.3,0.1,2.8,0.6,3.8,0.1c4.8-2.2,9.4-4.8,14.2-7
				c6.9-3.2,14-6,20.9-9.1c6.8-3.1,13.5-6.3,20.4-9.4c3.5-1.6,7-3.1,10.6-4.2c3.4-1.1,5.2,0.7,4.3,4.3c-1.5,6.1-3.3,12.1-5,18.2
				c-0.2,0.7-0.5,1.3-0.5,2c-1,6.7-1.9,13.4-2.8,20.1c-0.1,0.8,0,1.7-0.4,2.4c-4.7,7.7-3,16.7-5.4,24.9c-2,6.8-2.8,14-4.4,20.9
				c-0.6,2.4,0.5,2.7,2.2,2.4c1-0.2,1.9-0.8,2.8-1.3c12.7-7.6,26.1-13.5,41-15c8.4-0.8,16.6,0.9,24.4,4c7.2,2.8,14.1,6.3,21.1,9.5
				c1.2,0.6,2.2,1.7,3.5,2.2c1.1,0.4,2.4,0.2,3.6,0.3c0-1,0.3-2,0.1-2.9c-1.3-7.1-2.6-14.3-4.1-21.4c-1.5-7.3-3.2-14.6-4.8-22
				c-1.1-5.1-2.2-10.1-3.2-15.2c-1.4-7-2.6-14.1-3.9-21.1c-0.4-2.2-1.4-4.4-1.7-6.7c-0.2-1.7-0.4-4.2,0.5-5.1
				c0.8-0.8,3.4-0.2,5.1,0.2c8.3,2,14.8,7.7,22.7,10.6c3.3,1.2,6.7,2.2,9.9,3.7c7.9,3.5,15.6,7.3,23.4,10.9c2.9,1.3,5.9,2.5,9,3.6
				c0.7,0.2,1.6-0.3,2.5-0.6c-0.2-0.7-0.2-1.6-0.6-2.1c-5.4-6.7-11.1-13.3-16.4-20.1c-3.9-5-7.3-10.3-11.2-15.3
				c-4-5.1-8.4-9.8-12.5-14.8c-1.1-1.3-1.8-3-2.9-5.1c1.6-0.1,2.4-0.4,3.1-0.1c15.2,6.1,31,5,46.8,4c5.8-0.4,11.7,0.2,17.6-0.1
				c3.8-0.2,7.5-1,11.2-1.7c0.6-0.1,1.7-1,1.6-1.4c-0.1-0.7-0.7-1.6-1.4-2.1c-0.6-0.4-1.5-0.3-2.3-0.5c-2.9-0.5-3.8-2.7-1.9-4.9
				c8.1-9.6,16.3-19.2,24.4-28.8c0.1-0.1,0.2-0.1,0.2-0.2c1.1-2,2.1-4,3.2-6c-2-0.7-3.9-1.6-5.9-2.2c-5-1.5-9.9-3-14.9-4.4
				c-5.3-1.6-10.6-3.1-15.9-4.7c-5.4-1.7-10.7-3.6-16.1-5.1c-3-0.9-4-2.6-3.8-5.6c0.1-1.1-0.6-2.3-1-3.4c-1.2,0.5-2.7,0.8-3.6,1.7
				c-9.7,10.2-19.3,20.5-28.9,30.9c-6.5,7-13,14.1-19.4,21.2c-1.9,2.1-3.5,1.5-4.9-0.2c-6.9-8.5-13.5-17.3-20.4-25.7
				c-4.2-5.1-6.4-10.4-6.1-17.4c0.6-11-0.3-22,0.2-33c0.2-3.8,2.2-7.8,4.3-11c6.7-10.2,13.8-20.2,20.8-30.2c1.2-1.7,2.5-3.3,3.5-5.1
				c1.4-2.4,3.2-2.5,5.1-0.9c8.9,7.5,17.8,15.1,26.7,22.6c4.4,3.7,8.7,7.7,13.5,10.9c4,2.6,8.7,4.2,13.1,6
				c6.8,2.7,13.8,5.2,20.7,7.8c6.4,2.4,12.8,4.7,19.1,7.2c6.8,2.6,13.5,5.3,20.3,7.9c6.8,2.6,13.6,5,20.5,7.5
				c0.9,0.3,1.8,0.4,2.6,0.8c2.8,1.3,3.2,3.2,1.1,5.4c-4.3,4.6-8.8,9.2-13.3,13.7c-5,5.1-10.1,10.2-15.1,15.4
				C1035.9,973.8,1035.2,975.4,1034,977.4z M871.3,1419.6c8.9,0.5,17.7-1.3,26-6c12.4-7,21.2-17.4,28-29.5
				c4.2-7.6,7.5-15.7,10.9-23.8c1.7-4.1,2.9-8.5,4.1-12.8c1.4-5.5,2.5-11,3.9-16.5c1.5-6.1,3.2-12.3,4.8-18.4
				c1.9-7.2,3.7-14.5,5.6-21.7c2.8-10.6,8.5-19.9,14.1-29.2c6.7-11,14.3-21.5,20.5-32.8c6.3-11.6,11.3-23.9,16.7-35.9
				c2.7-5.9,4.8-12,7.9-17.7c4.6-8.3,9.8-16.2,14.7-24.2c3.5-5.6,5.9-11.5,5.3-18.3c-0.4-4.3-2.7-7.1-6.4-7.5
				c-10.1-1.3-15.1,2.9-18.3,11.7c-4.2,11.2-5.6,23.1-6.7,35c-0.6,6.8-1.6,13.6-3.6,20.1c-4.1,13.6-10.6,26.1-19.3,37.3
				c-6,7.8-13.2,14.7-20.4,21.5c-5,4.7-11.3,8.3-18.1,8.9c-16.7,1.3-33.3,0.1-49.1-6.2c-5.4-2.1-9.9-6.5-11.4-12.4
				c-1.4-5.9-1.6-12.1-2.5-18.1c-0.7-4.8,1.7-7.5,5.5-9.7c8.8-5.1,17.4-10.3,26.1-15.5c7.5-4.5,11.3-11.6,12.5-19.8
				c1.1-7.4,1.1-15,1.6-22.5c0.2-2.7-0.6-5.1-3.1-6.6c-3.9-2.4-7.8-5-11.9-7.1c-10.5-5.4-20.9-10.6-33.1-11.1
				c-10.2-0.4-20.1,0.7-29.4,4.9c-7.3,3.3-14.5,7.1-21.5,11.1c-5.3,3.1-6.9,4.2-6.2,11c0.5,4.9,0.9,9.9,1,14.9
				c0.2,13.1,6.6,22.2,17.8,28.4c7.3,4,14.3,8.3,21.6,12.3c4,2.2,6,5.1,5.3,9.9c-0.4,2.4,0.3,4.9-0.2,7.3c-0.9,4.5-1.5,9.3-3.5,13.3
				c-3.7,7.3-10.7,11.1-18.5,12.7c-11.7,2.4-23.5,3.8-35.5,3.7c-5.4-0.1-10.4-1.5-14.9-3.9c-11.6-6.1-20.5-15.4-28.1-25.7
				c-5-6.7-9.1-14.2-12.9-21.6c-3.1-5.9-6.2-12.1-7.5-18.5c-2.7-13.6-4.1-27.4-6.5-41.1c-1.5-8.2-3-16.7-10.7-22.1
				c-3.2-2.3-10.6-3.2-13.8-1.1c-3.9,2.5-3.8,6.5-3.6,10.6c0.4,7.6,4.7,13.4,8.4,19.5c4.4,7.3,9.3,14.4,13,22
				c5.3,11,9.5,22.5,14.6,33.6c3.7,8,7.9,15.9,12.4,23.5c7.3,12.4,15.4,24.3,22.6,36.8c7.1,12.3,11.7,25.5,13.7,39.6
				c0.2,1.6,0.8,3.1,1.2,4.7c1.5,5.9,3,11.8,4.5,17.8c1.3,5.5,2.2,11.1,4,16.4c2.4,7.2,5.3,14.2,8.1,21.3c3.8,9.5,9,18.2,15.6,26
				C838.1,1411.5,852,1420.5,871.3,1419.6z"/>
			<path class="st7" d="M1097.8,795.5c-5,5.9-9.5,11.1-13.9,16.4c-1.5,1.8-2.6,3.8-4.2,5.4c-0.7,0.8-2,1.4-2.9,1.3
				c-0.6,0-1.5-1.4-1.6-2.2c-2.1-11.8-4.1-23.7-6.2-35.5c-1.2-6.9-2.5-13.9-3.7-20.8c-1.7-9.8-3.4-19.5-5.2-29.3
				c-1.6-8.8-3.4-17.7-5-26.5c-0.6-3.2-0.7-6.4-1.1-9.6c-0.3-2.3-0.8-4.5-1.2-6.8c-3.4,0.6-4.1,2.8-4.8,5.2
				c-2.8,9.9-5.6,19.7-8.4,29.5c-2.4,8.6-4.7,17.3-7.3,26c-2.4,8.2-5,16.3-7.5,24.5c-1.5,5.2-2.9,10.5-4.3,15.7c-1,3.7-2,7.4-3.1,11
				c-0.7,2.2-3.4,2.3-4.9,0.3c-4.7-6.3-9.4-12.6-14.2-18.8c-5.7-7.5-11.5-15-17.3-22.5c-6.2-8-12.5-16-18.7-24
				c-0.9-1.1-1.1-2.8-1.6-4.2c1.7,0.3,3.6,0.2,5,1c10.8,6,21.4,12.1,32.1,18.2c0.2,0.1,0.4,0.1,1.3,0.1c-0.4-1.4-0.4-2.7-1-3.8
				c-3.7-6.6-7.5-13.2-11.3-19.8c-5.2-9.1-10.4-18.2-15.4-27.4c-0.7-1.2-0.6-3.3,0-4.6c3.4-7.3,6.8-14.6,10.6-21.7
				c4.8-8.9,9.6-17.8,15.1-26.3c9.7-15,21.2-28.5,35.1-39.9c2.4-2,4.8-3.9,7.1-6c1.8-1.7,3.4-1.4,5.2-0.1c14.8,10.4,26,24.2,36,39
				c5.2,7.8,10.2,15.9,14.4,24.3c4.9,9.9,9.1,20.1,13.1,30.4c3.9,10,7.5,20.1,10.8,30.3c2.7,8.4,4.7,17.1,7,25.7
				c1.6,6,3.3,12,4.8,18c1.1,4.2,2,8.5,2.9,12.8c1.4,7.1,2.7,14.3,4,21.4c0.5,2.8,1.2,5.7,1.9,8.4c1.7,6.3,1.8,11.9-3.5,17.2
				c-8.1,8.2-15.2,17.3-22.9,26c-0.9,1-2.5,1.3-3.8,2c-0.4-1.1-1-2.3-1.2-3.4c-1.8-10.2-3.5-20.5-5.2-30.7
				c-1.2-7.3-2.1-14.6-3.3-21.9C1099.2,798.2,1098.4,797,1097.8,795.5z"/>
			<path class="st7" d="M689.9,687.9c-0.3,1-0.7,1.9-0.9,2.9c-1.3,8.4-2.6,16.9-3.9,25.3c-0.9,5.9-1.9,11.8-3,17.7
				c-1.5,8.5-3.2,17-4.7,25.6c-1.4,7.9-2.7,15.9-4.1,23.9c-2,11.1-4,22.3-6,33.4c-0.1,0.8-1.3,2.1-1.4,2.1c-1.3-0.6-2.7-1.3-3.6-2.3
				c-5.7-6.7-11.3-13.6-17.3-20.8c-0.6,1-1.5,1.8-1.7,2.8c-2.1,12.9-4,25.8-6.1,38.7c-0.9,5.5-1.8,10.9-2.8,16.4
				c-0.1,0.7-0.9,2-1.1,1.9c-1.2-0.2-2.6-0.5-3.4-1.3c-2-2.1-3.6-4.5-5.5-6.7c-6.2-7-12.4-14-18.7-20.9c-2.8-3-4.4-6.1-3.5-10.3
				c1.6-7.9,3.2-15.8,4.8-23.8c1.3-6.5,2.6-13.1,4.1-19.6c1.5-6.7,3.2-13.4,4.9-20.1c1-4.1,2.1-8.2,3.3-12.3
				c3.3-11.3,6.2-22.7,10.1-33.7c4-11.3,9-22.2,13.6-33.3c5.8-13.6,13.1-26.4,21.7-38.5c8.9-12.4,18.6-24.2,31.2-33.2
				c4.9-3.5,5-3.5,9.4,0.6c8,7.4,16.4,14.3,23.6,22.4c7.3,8.3,13.5,17.5,19.6,26.7c5,7.5,9.4,15.5,13.7,23.5
				c3.5,6.5,6.3,13.3,9.3,20.1c0.4,1,0.3,2.7-0.3,3.6c-4.2,7.5-8.7,14.9-12.9,22.5c-3.5,6.1-6.8,12.3-10.2,18.4
				c-1.3,2.3-2.8,4.5-4,6.9c-0.5,1-0.6,2.2-1.2,4.3c9.7-5.5,18.5-10.5,27.3-15.5c2.7-1.5,5.3-3.3,8-4.6c1-0.5,2.3-0.1,3.5-0.2
				c-0.3,1.1-0.2,2.5-0.9,3.4c-5,6.5-10.1,12.9-15.1,19.4c-5.8,7.5-11.5,15-17.3,22.5c-4.3,5.6-8.8,11-13.1,16.5
				c-1.8,2.3-3.1,4.9-5,7.1c-0.8,1-2.4,1.7-3.7,1.7c-0.6,0-1.5-1.7-1.8-2.8c-2.8-9.1-5.5-18.3-8.1-27.5c-2.2-7.5-4.3-15.1-6.5-22.6
				c-1.8-6.2-3.7-12.4-5.5-18.5c-1.1-3.9-2.3-7.7-3.4-11.6c-2.4-8.7-4.6-17.4-7.1-26c-0.5-1.7-1.9-3.1-2.9-4.6
				C690.7,687.6,690.3,687.8,689.9,687.9z"/>
			
				<linearGradient id="SVGID_1_" gradientUnits="userSpaceOnUse" x1="742.2714" y1="-318.8708" x2="782.6721" y2="-318.8708" gradientTransform="matrix(1 0 0 1 0 1300)">
				<stop  offset="0" style="stop-color:#CCE0F4"/>
				<stop  offset="6.410000e-02" style="stop-color:#C3DCF2"/>
				<stop  offset="0.1706" style="stop-color:#A9D2EE"/>
				<stop  offset="0.3066" style="stop-color:#80C2E7"/>
				<stop  offset="0.4649" style="stop-color:#47ACDE"/>
				<stop  offset="0.5674" style="stop-color:#1E9CD7"/>
				<stop  offset="0.8652" style="stop-color:#0075BE"/>
				<stop  offset="0.9944" style="stop-color:#005B97"/>
			</linearGradient>
			<path class="st8" d="M742.3,978.2c1.3-3.5,2.4-7.1,4.1-10.3c0.7-1.3,2.9-2.6,4.4-2.5c5,0.1,10,0.8,15,1.4c2.6,0.3,5.2,1,7.9,1.1
				c7,0.2,9.2,4.4,8.9,11.1c-0.3,6.6-2.4,13.2-9.4,16.1c-3.1,1.3-6.7,1.2-10.1,1.6c-11.6,1.4-20.1-6.3-20-18
				C742.9,978.5,742.6,978.3,742.3,978.2z M759.1,967.9c-1.3,1.8-2.3,2.6-2.7,3.7c-1.7,4.1-0.2,8.8,3,10.3c4.7,2.3,9.7,0.7,12-4.2
				c0.7-1.4,0.3-3.4,0.3-5.1c-1.5,0.3-2.9,0.6-4.4,0.9c-0.4,0.1-0.7,0.6-1.1,0.8c-2.4,1.5-4.5,0.8-5.5-1.9
				C760.4,971.4,760,970.2,759.1,967.9z"/>
			
				<linearGradient id="SVGID_2_" gradientUnits="userSpaceOnUse" x1="959.6014" y1="-319.0224" x2="999.3549" y2="-319.0224" gradientTransform="matrix(1 0 0 1 0 1300)">
				<stop  offset="0" style="stop-color:#CCE0F4"/>
				<stop  offset="6.410000e-02" style="stop-color:#C3DCF2"/>
				<stop  offset="0.1706" style="stop-color:#A9D2EE"/>
				<stop  offset="0.3066" style="stop-color:#80C2E7"/>
				<stop  offset="0.4649" style="stop-color:#47ACDE"/>
				<stop  offset="0.5674" style="stop-color:#1E9CD7"/>
				<stop  offset="0.8652" style="stop-color:#0075BE"/>
				<stop  offset="0.9944" style="stop-color:#005B97"/>
			</linearGradient>
			<path class="st9" d="M999.4,978.8c0.4,7.4-3.9,12.3-9.2,16.5c-0.5,0.4-1.2,0.9-1.9,0.9c-6.1-0.3-12.5,0.4-18.4-1.2
				c-6.3-1.7-9.1-7.7-10-13.9c-1.2-7.9,1.6-12.4,8.4-13.3c3.1-0.4,3.1,0,2.8,3.5c-1.7,3.9-0.7,7.1,2,9.8c2.7,2.8,6.2,1.9,9.5,0.9
				c2.2-0.7,4.8-5.2,4.5-7.6c-0.3-2-2.5-2.4-4.7-1.2c-1.4,0.8-3.5,1.9-4.7,1.4c-7.6-3.3-6.3-1-6.5-6.4c0-1.1,5.8-1.1,6.7-1.2
				c5-0.7,10.1-1.6,15-1.1c3.6,0.4,5.1,4.3,6.1,7.7C999.5,975.3,999.3,977.1,999.4,978.8z"/>
			<path class="st0" d="M871.3,1419.6c-19.3,0.9-33.2-8.1-44.8-21.7c-6.6-7.8-11.8-16.5-15.6-26c-2.8-7-5.7-14.1-8.1-21.3
				c-1.8-5.3-2.7-11-4-16.4c-1.4-5.9-3-11.8-4.5-17.8c-0.4-1.6-1-3.1-1.2-4.7c-2-14.1-6.6-27.4-13.7-39.6
				c-7.2-12.5-15.2-24.4-22.6-36.8c-4.5-7.6-8.7-15.5-12.4-23.5c-5.1-11.1-9.3-22.6-14.6-33.6c-3.7-7.6-8.6-14.7-13-22
				c-3.7-6.1-8-11.9-8.4-19.5c-0.2-4-0.4-8,3.6-10.6c3.2-2.1,10.6-1.2,13.8,1.1c7.7,5.4,9.2,13.9,10.7,22.1
				c2.4,13.6,3.7,27.5,6.5,41.1c1.3,6.4,4.4,12.6,7.5,18.5c3.9,7.4,8,14.9,12.9,21.6c7.6,10.3,16.5,19.7,28.1,25.7
				c4.5,2.4,9.5,3.8,14.9,3.9c12,0.1,23.8-1.3,35.5-3.7c7.8-1.6,14.8-5.4,18.5-12.7c2-4,2.6-8.8,3.5-13.3c0.5-2.3-0.1-4.9,0.2-7.3
				c0.7-4.7-1.3-7.6-5.3-9.9c-7.2-4-14.3-8.3-21.6-12.3c-11.2-6.2-17.5-15.3-17.8-28.4c-0.1-5-0.5-9.9-1-14.9c-0.7-6.9,0.9-8,6.2-11
				c7-4,14.1-7.8,21.5-11.1c9.3-4.2,19.2-5.3,29.4-4.9c12.2,0.5,22.7,5.7,33.1,11.1c4.1,2.1,7.9,4.7,11.9,7.1
				c2.4,1.5,3.2,3.8,3.1,6.6c-0.5,7.5-0.5,15.1-1.6,22.5c-1.2,8.2-5,15.3-12.5,19.8c-8.7,5.2-17.4,10.5-26.1,15.5
				c-3.9,2.2-6.3,4.9-5.5,9.7c0.9,6,1.1,12.2,2.5,18.1s6,10.2,11.4,12.4c15.7,6.3,32.4,7.5,49.1,6.2c6.8-0.5,13.1-4.2,18.1-8.9
				c7.2-6.8,14.4-13.7,20.4-21.5c8.6-11.2,15.2-23.7,19.3-37.3c2-6.5,2.9-13.3,3.6-20.1c1.1-11.9,2.5-23.8,6.7-35
				c3.3-8.7,8.3-13,18.3-11.7c3.7,0.5,6,3.2,6.4,7.5c0.6,6.8-1.8,12.7-5.3,18.3c-5,8-10.2,16-14.7,24.2c-3.1,5.6-5.2,11.8-7.9,17.7
				c-5.5,12-10.5,24.3-16.7,35.9c-6.1,11.3-13.8,21.8-20.5,32.8c-5.6,9.3-11.2,18.6-14.1,29.2c-1.9,7.2-3.7,14.5-5.6,21.7
				c-1.6,6.1-3.3,12.2-4.8,18.4c-1.4,5.5-2.5,11-3.9,16.5c-1.2,4.3-2.3,8.7-4.1,12.8c-3.4,8-6.7,16.2-10.9,23.8
				c-6.7,12.2-15.5,22.6-28,29.5C889,1418.2,880.2,1420,871.3,1419.6z"/>
			<path class="st0" d="M759.1,967.9c0.8,2.3,1.3,3.4,1.7,4.6c1,2.6,3,3.3,5.5,1.9c0.4-0.2,0.7-0.7,1.1-0.8c1.5-0.4,2.9-0.6,4.4-0.9
				c-0.1,1.7,0.3,3.7-0.3,5.1c-2.4,4.9-7.3,6.4-12,4.2c-3.2-1.6-4.6-6.2-3-10.3C756.8,970.6,757.8,969.7,759.1,967.9z"/>
		</g>
		<g>
			<g>
				<path d="M870.9,1305.4c2.6,20.8,1.4,41.7,1.4,62.5c0,2.7,4.2,2.7,4.2,0c0-20.9,1.3-41.8-1.4-62.5
					C874.8,1302.8,870.6,1302.7,870.9,1305.4L870.9,1305.4z"/>
			</g>
		</g>
		<g>
			<g>
				<path d="M861.2,1308.2c0,14.8,0,29.6,0,44.5c0,2.7,4.2,2.7,4.2,0c0-14.8,0-29.6,0-44.5C865.4,1305.5,861.2,1305.5,861.2,1308.2
					L861.2,1308.2z"/>
			</g>
		</g>
		<g id="j1qhMu_2_">
			<g>
				<path class="st10" d="M794.8,1287.1c0-2.5,0-4.9,0-7.4c0.5-1.3,1.2-2.6,1.6-3.9c1.4-4,3.5-5.9,7.6-5c3.8,0.8,7.7,2.2,10.9,4.5
					c5.2,3.7,11.3,5.3,17,7.7c3.5,1.5,7.3,2.4,11,3.5c1.3,0.4,2.8,0.4,4.2,0.6c5,0.8,9.5,2.9,13.9,5.3c2.1,1.1,3.5,2.5,3.7,4.5
					c0.7,5.9,1.3,11.9,1.7,17.8c0.4,6.5,0.3,13.1,0.8,19.6c0.3,4.3,1.2,8.6,1.7,13c0.2,1.9,1.3,2.4,3.4,2.3c0.6-8,1.2-16,1.8-23.9
					c0.7-8.6,1.5-17.1,1.9-25.7c0.4-6.5,4.7-8.9,10-10.7c7.8-2.6,16.2-2.7,23.7-6.6c3.1-1.6,6.7-2.2,9.8-3.7
					c4.6-2.2,8.9-4.9,13.4-7.4c5.2-2.9,9.4-1.4,11.6,4.1c0.8,2,1.3,4.1,1.9,6.2c0,0.9,0,1.9,0,2.9c-0.2,0.7-0.5,1.4-0.6,2.2
					c-0.7,5.4-1.1,10.9-2.1,16.3c-0.7,4.1-2.7,8-3,12.1c-0.7,11.2-5.3,21.3-7.7,32c-1.8,7.9-6,15.3-8.9,23
					c-2.4,6.6-5.8,12.8-10.2,18.2c-4.9,6-10.1,11.6-16.5,16.2c-6.3,4.5-12.7,7.7-20.6,8.6c-16.2,1.9-29.7-3.1-40.8-14.8
					c-4.2-4.3-7.3-9.7-11.3-14.1c-4.5-5-6.6-11.2-9.3-17.1c-1.8-3.8-2.8-8-4.7-11.8c-2-4.1-3.4-8.3-4-12.9c-0.4-3.1-1.6-6.2-2.5-9.3
					c-0.5-1.7-1.3-3.4-1.6-5.1c-1.2-5.9-2.2-11.9-3.4-17.9c-0.9-4.5-2-8.9-2.9-13.3C795.8,1293.8,795.3,1290.4,794.8,1287.1z"/>
			</g>
		</g>
		<circle class="st7" cx="764.2" cy="972.2" r="5.1"/>
		<circle class="st7" cx="978.2" cy="972.2" r="5.1"/>
	</g>
</g>
</svg>
