<?xml version="1.0" encoding="utf-8"?>
<!-- Generator: Adobe Illustrator 16.0.0, SVG Export Plug-In . SVG Version: 6.00 Build 0)  -->
<!DOCTYPE svg PUBLIC "-//W3C//DTD SVG 1.1//EN" "http://www.w3.org/Graphics/SVG/1.1/DTD/svg11.dtd">
<svg version="1.1" xmlns="http://www.w3.org/2000/svg" xmlns:xlink="http://www.w3.org/1999/xlink" x="0px" y="0px"
	 width="2046.206px" height="2112.563px" viewBox="0 0 2046.206 2112.563" enable-background="new 0 0 2046.206 2112.563"
	 xml:space="preserve">
<g id="Layer_1">
	<g id="JGHUlX.tif">
		<g>
			<path fill-rule="evenodd" clip-rule="evenodd" d="M1081.76,392.618c1.629-13.899,11.468-23.181,19.583-33.11
				c82.242-100.689,164.696-201.217,247.208-301.69c33.414-40.689,45.91-41.47,84.513-5.03
				c113.534,107.165,226.998,214.413,340.364,321.762c38.012,35.998,38.081,49.232,0.106,85.731
				c-93.839,90.176-187.8,180.223-281.937,270.091c-34.491,32.93-46.807,32.869-81.604,0.286c-34.176-32-67.389-65.049-102.139-96.4
				c-12.838-11.576-13.362-18.178-0.022-29.628c27.676-23.75,52.808-50.295,72.442-81.25c14.091-22.224,21.446-47.01,0.024-68.022
				c-22.133-21.713-46.178-10.384-67.568,3.819c-28.454,18.885-52.193,43.394-72.456,70.498
				c-15.155,20.286-25.211,18.558-41.938,1.313c-31.661-32.662-65.994-62.714-98.975-94.1
				C1086.852,424.98,1075.447,412.202,1081.76,392.618z"/>
			<path fill-rule="evenodd" clip-rule="evenodd" fill="#42210B" d="M537.992,1320.325
				c-15.541-21.062,227.718-262.039,239.969-274.69c131.935-136.295,263.554-272.897,395.958-408.733
				c32.799-33.648,60.367-71.117,88.795-108.202c14.841-19.362,33.84-35.803,52.287-52.063
				c14.672-12.939,33.405-18.669,49.665-4.648c17.63,15.199,8.039,34.866-1.019,49.914c-9.882,16.434-22.812,32.137-37.554,44.374
				c-147.651,122.539-265.765,273.758-399.349,409.931c-37.277,37.995-73.026,77.504-109.083,116.684
				c-10.53,11.441-243.87,256.614-261.632,250.137C544.005,1342.502,537.234,1331.318,537.992,1320.325z"/>
			<path fill-rule="evenodd" clip-rule="evenodd" fill="#010101" d="M537.992,1320.325c5.087,6.209,10.168,12.419,15.255,18.628
				c14.865,19.066-2.526,28.229-12.898,37.949c-26.543,24.887-39.522,51.034-16.706,85.662c10.25,15.556,6.146,33.229-0.257,49.055
				c-20.898,51.66-61.446,86.049-105.569,116.943c-15.397,10.779-22.966-0.805-32.138-11.538
				c33.668-24.255,66.254-48.037,84.506-85.956c19.335-40.148,13.136-74.42-20-105.765c-30.895-29.233-66.539-34.341-103.578-12.653
				c-23.572,13.801-46.264,29.551-56.144,57.271c1.285,17.271-2.619,30.861-23.129,32.722
				c-20.388-8.259-24.409-21.897-12.298-39.852c23.396-34.678,49.1-67.414,84.072-91.388c25.866-17.729,51.925-27.703,83.47-9.974
				c27.984,15.731,49.245-0.302,68.044-21.092C503.022,1326.619,513.892,1307.203,537.992,1320.325z"/>
			<path fill-rule="evenodd" clip-rule="evenodd" fill="#050505" d="M267.333,1502.643c7.705-10.905,15.416-21.812,23.129-32.722
				c33.528,30.427,67.2,60.687,100.456,91.403c6.848,6.325,20.168,13.627,6.437,24.259c-10.96,8.484-21.858,25.029-39.272,7.222
				C328.27,1562.32,297.625,1532.652,267.333,1502.643z"/>
			<path fill-rule="evenodd" clip-rule="evenodd" fill="#E6E6E6" d="M1398.345,122.407
				c-31.878,95.544-100.299,164.573-170.788,232.123C1280.76,274.593,1340.789,199.625,1398.345,122.407z"/>
			<path fill-rule="evenodd" clip-rule="evenodd" fill="#E6E6E6" d="M1693.873,427.473
				c-60.491,49.831-120.985,99.656-181.482,149.483c-2.767-3.278-5.534-6.562-8.3-9.84
				c54.425-57.319,110.697-112.469,181.989-149.963C1688.68,420.593,1691.277,424.031,1693.873,427.473z"/>
			<path fill-rule="evenodd" clip-rule="evenodd" fill="#E6E6E6" d="M1332.489,353.523c38.246-51.876,76.5-103.75,114.746-155.625
				c3.065,2.315,6.127,4.632,9.193,6.949c-29.999,58.08-69.633,108.9-113.877,156.254
				C1339.197,358.575,1335.842,356.046,1332.489,353.523z"/>
			<path fill-rule="evenodd" clip-rule="evenodd" fill="#E6E6E6" d="M1466.278,485.575c46.808-46.78,94.981-91.881,153.633-124.085
				c2.312,2.785,4.616,5.574,6.923,8.365c-50.786,41.75-101.572,83.507-152.363,125.26
				C1471.737,491.936,1469.007,488.753,1466.278,485.575z"/>
		</g>
	</g>
	<g id="JGHUlX.tif_1_">
		<g>
			<path fill-rule="evenodd" clip-rule="evenodd" d="M968.445,392.618c-1.629-13.899-11.468-23.181-19.582-33.11
				C866.62,258.818,784.166,158.29,701.655,57.817c-33.415-40.689-45.91-41.47-84.513-5.03
				C503.608,159.952,390.143,267.201,276.778,374.55c-38.013,35.998-38.082,49.232-0.107,85.731
				c93.839,90.176,187.801,180.223,281.937,270.091c34.492,32.93,46.808,32.869,81.605,0.286c34.175-32,67.389-65.049,102.138-96.4
				c12.839-11.576,13.363-18.178,0.023-29.629c-27.677-23.749-52.809-50.294-72.443-81.25c-14.091-22.224-21.445-47.01-0.024-68.022
				c22.133-21.713,46.178-10.384,67.569,3.819c28.454,18.885,52.193,43.394,72.456,70.498c15.155,20.286,25.21,18.558,41.937,1.313
				c31.661-32.662,65.995-62.714,98.976-94.1C963.353,424.98,974.759,412.202,968.445,392.618z"/>
			<path fill-rule="evenodd" clip-rule="evenodd" fill="#42210B" d="M1512.213,1320.325
				c15.542-21.062-227.718-262.039-239.968-274.69C1140.311,909.339,1008.691,772.737,876.287,636.9
				c-32.798-33.648-60.366-71.117-88.794-108.201c-14.842-19.362-33.84-35.803-52.288-52.063
				c-14.671-12.939-33.404-18.669-49.665-4.648c-17.63,15.199-8.038,34.866,1.019,49.914c9.882,16.434,22.812,32.137,37.555,44.374
				c147.651,122.539,265.765,273.758,399.348,409.931c37.277,37.995,73.027,77.504,109.084,116.684
				c10.53,11.441,243.869,256.614,261.632,250.137C1506.2,1342.502,1512.971,1331.318,1512.213,1320.325z"/>
			<path fill-rule="evenodd" clip-rule="evenodd" fill="#010101" d="M1512.213,1320.325c-5.087,6.209-10.168,12.419-15.254,18.628
				c-14.865,19.066,2.525,28.229,12.898,37.949c26.542,24.887,39.522,51.034,16.705,85.662
				c-10.249,15.556-6.146,33.229,0.257,49.055c20.899,51.66,61.446,86.049,105.569,116.943
				c15.398,10.779,22.966-0.805,32.139-11.538c-33.669-24.255-66.254-48.037-84.507-85.956c-19.335-40.148-13.136-74.42,20-105.765
				c30.895-29.233,66.54-34.341,103.578-12.653c23.572,13.801,46.265,29.551,56.145,57.271
				c-1.285,17.271,2.619,30.861,23.129,32.722c20.388-8.259,24.408-21.897,12.298-39.852c-23.396-34.678-49.1-67.414-84.072-91.388
				c-25.867-17.729-51.925-27.703-83.47-9.974c-27.984,15.731-49.245-0.302-68.045-21.092
				C1547.183,1326.619,1536.313,1307.203,1512.213,1320.325z"/>
			<path fill-rule="evenodd" clip-rule="evenodd" fill="#050505" d="M1782.873,1502.643c-7.705-10.905-15.417-21.812-23.129-32.722
				c-33.529,30.427-67.2,60.687-100.456,91.403c-6.849,6.325-20.169,13.627-6.438,24.259c10.96,8.484,21.859,25.029,39.273,7.222
				C1721.935,1562.32,1752.582,1532.652,1782.873,1502.643z"/>
			<path fill-rule="evenodd" clip-rule="evenodd" fill="#E6E6E6" d="M651.86,122.407c31.878,95.544,100.299,164.573,170.789,232.123
				C769.445,274.593,709.417,199.625,651.86,122.407z"/>
			<path fill-rule="evenodd" clip-rule="evenodd" fill="#E6E6E6" d="M356.333,427.473c60.491,49.831,120.986,99.656,181.482,149.482
				c2.768-3.277,5.535-6.561,8.301-9.839c-54.426-57.319-110.697-112.47-181.99-149.963
				C361.526,420.593,358.928,424.031,356.333,427.473z"/>
			<path fill-rule="evenodd" clip-rule="evenodd" fill="#E6E6E6" d="M717.716,353.523c-38.246-51.876-76.5-103.75-114.746-155.625
				c-3.065,2.315-6.127,4.632-9.193,6.949c29.999,58.08,69.634,108.9,113.878,156.254
				C711.009,358.575,714.363,356.046,717.716,353.523z"/>
			<path fill-rule="evenodd" clip-rule="evenodd" fill="#E6E6E6" d="M583.927,485.575c-46.807-46.78-94.98-91.881-153.633-124.085
				c-2.312,2.785-4.615,5.574-6.922,8.365c50.785,41.75,101.572,83.507,152.362,125.26
				C578.468,491.936,581.199,488.753,583.927,485.575z"/>
		</g>
	</g>
	<rect x="63.969" y="1679.333" fill-rule="evenodd" clip-rule="evenodd" fill="none" width="1922.268" height="463.662"/>
	<text transform="matrix(1 0 0 1 242.4634 1814.064)"><tspan x="0" y="0" fill="#FFFFFF" font-family="'Phosphate-Inline'" font-size="202">Powder Hounds</tspan><tspan x="30.451" y="254.724" fill="#FFFFFF" font-family="'Noteworthy-Bold'" font-size="135">Residential Snow Clearing</tspan></text>
</g>
<g id="Layer_2">
	<g id="WjzJxt_2_">
		<g>
			<path fill-rule="evenodd" clip-rule="evenodd" d="M1393.833,1117.618c-3.702,0-7.414,0.147-11.107-0.043
				c-3.378-0.175-5.16,1.569-6.235,4.416c-5.428,14.364-10.762,28.765-16.272,43.097c-5.458,14.191-11.166,28.286-16.616,42.479
				c-4.548,11.833-8.88,23.749-13.303,35.628c-1.002,2.694-1.954,5.409-2.985,8.094c-1.623,4.232-3.811,4.846-7.111,1.877
				c-4.474-4.021-8.85-8.15-13.267-12.233c-2.716-2.512-4.362-2.248-6.293,0.851c-10.38,16.641-20.809,33.25-31.181,49.896
				c-7.563,12.141-15.039,24.336-22.602,36.477c-7.378,11.847-14.854,23.629-22.221,35.483c-5.72,9.207-11.316,18.488-17.003,27.715
				c-5.026,8.154-10.08,16.292-15.168,24.408c-2.329,3.715-3.802,3.75-7.177,0.854c-5.696-4.886-11.441-9.728-17.387-14.302
				c-0.927-0.714-3.628-0.55-4.478,0.272c-14.271,13.806-28.396,27.762-42.522,41.72c-30.699,30.333-61.375,60.691-92.082,91.021
				c-3.092,3.054-4.498,2.916-7.822-0.374c-30.424-30.113-60.83-60.244-91.289-90.323c-14.133-13.955-28.394-27.785-42.536-41.732
				c-1.834-1.808-3.397-2.04-5.363-0.362c-6.142,5.246-12.29,10.484-18.507,15.641c-2.469,2.047-3.959-0.206-5.034-1.779
				c-2.538-3.708-4.735-7.648-7.089-11.482c-5.496-8.945-10.981-17.899-16.51-26.825c-4.555-7.351-9.166-14.669-13.752-21.999
				c-4.226-6.754-8.451-13.505-12.676-20.259c-7.462-11.925-14.903-23.863-22.392-35.772c-5.828-9.266-11.767-18.461-17.561-27.747
				c-4.274-6.849-8.376-13.806-12.59-20.69c-2.102-3.436-4.263-6.835-6.435-10.225c-1.734-2.71-3.477-2.886-5.854-0.661
				c-4.475,4.193-8.905,8.431-13.433,12.563c-3.118,2.844-5.408,2.257-6.994-1.721c-1.149-2.888-2.128-5.845-3.247-8.746
				c-3.928-10.204-7.937-20.376-11.812-30.6c-4.251-11.211-8.323-22.49-12.595-33.693c-3.612-9.475-7.446-18.862-11.095-28.324
				c-3.446-8.94-6.859-17.897-10.13-26.904c-1.825-5.03-2.477-5.776-7.638-5.677c-7.173,0.136-14.345,0.388-21.514,0.686
				c-3.731,0.156-5.139-1.424-3.497-4.81c3.219-6.644,6.813-13.104,10.178-19.68c3.728-7.282,7.485-14.555,11.018-21.931
				c3.425-7.152,6.455-14.492,9.919-21.624c1.236-2.545,3.575-4.553,4.816-7.095c2.926-5.993,5.42-12.196,8.252-18.238
				c0.867-1.848,2.416-3.367,3.385-5.179c4.226-7.908,8.347-15.87,12.515-23.81c2.566-4.888,5.113-9.79,7.737-14.649
				c1.187-2.198,1.47-4.006-0.986-5.634c-3.935-2.607-7.603-5.643-11.654-8.042c-3.279-1.945-2.541-4.032-0.86-6.225
				c3.796-4.949,7.756-9.771,11.65-14.643c6.487-8.116,12.991-16.218,19.46-24.35c7.038-8.85,14.025-17.738,21.064-26.587
				c7.48-9.404,14.994-18.783,22.492-28.171c1.646-2.062,1.855-3.944-0.01-6.179c-7.335-8.779-14.447-17.741-21.822-26.482
				c-2.045-2.424-2.917-4.911-2.525-7.947c0.932-7.219,1.648-14.475,2.855-21.646c2.664-15.831,5.388-31.657,8.454-47.415
				c1.983-10.184,4.261-20.342,7.05-30.331c3.166-11.319,6.834-22.513,10.69-33.62c3.062-8.819,6.373-17.589,10.229-26.083
				c4.954-10.914,10.188-21.741,16.008-32.211c5.252-9.444,10.972-18.717,17.361-27.422c9.021-12.292,18.982-23.877,30.339-34.153
				c1.459-1.319,3.144-2.449,4.36-3.958c1.949-2.417,3.946-2.13,5.993-0.476c7.439,6.011,15.115,11.771,22.157,18.221
				c12.396,11.349,22.934,24.415,32.843,37.938c6.34,8.651,12.584,17.429,18.097,26.615c8.009,13.348,15.482,27.029,22.847,40.748
				c3.041,5.662,5.347,11.739,7.733,17.728c2.402,6.029,3.793,6.77,9.932,5.177c2.998-0.78,6.146-0.988,9.224-1.463
				c19.872-3.062,39.901-3.565,59.899-2.506c12.188,0.646,24.31,2.786,36.423,4.532c4.351,0.626,5.513,0.521,7.409-3.569
				c3.433-7.407,6.452-15.017,10.154-22.285c5.338-10.479,10.576-21.078,16.86-30.991c9.191-14.505,18.677-28.904,29.125-42.511
				c12.39-16.134,26.202-31.115,42.662-43.366c1.942-1.445,3.825-2.974,5.802-4.369c2.231-1.573,4.151-1.646,6.422,0.484
				c11.49,10.782,22.316,22.146,31.795,34.759c9.308,12.383,17.549,25.439,24.481,39.291c4.794,9.58,9.884,19.059,13.9,28.964
				c4.892,12.062,8.956,24.476,13.081,36.833c2.915,8.742,5.498,17.605,7.926,26.496c1.641,6.003,2.793,12.141,4.095,18.234
				c1.085,5.076,2.117,10.168,3.088,15.269c1.706,8.971,3.61,17.912,4.945,26.938c1.574,10.632,2.713,21.328,3.813,32.02
				c0.157,1.537-0.565,3.521-1.555,4.761c-7.142,8.928-14.41,17.757-21.735,26.536c-3.134,3.757-3.211,4.975-0.046,8.853
				c5.986,7.339,11.959,14.692,17.878,22.085c11.474,14.33,22.923,28.679,34.344,43.049c7.109,8.946,14.153,17.944,21.218,26.925
				c2.224,2.826,2.082,4.373-0.84,6.5c-3.724,2.71-7.533,5.304-11.333,7.908c-2.462,1.686-2.218,3.672-0.998,6.018
				c4.729,9.104,9.257,18.312,14.101,27.354c3.513,6.558,7.589,12.817,11.071,19.391c2.361,4.464,3.936,9.338,6.199,13.859
				c6.356,12.695,12.897,25.295,19.346,37.941c4.722,9.257,9.4,18.534,14.119,27.788c0.892,1.749,1.983,3.397,2.808,5.173
				c1.634,3.525,0.383,5.373-3.438,5.215c-3.813-0.159-7.63-0.339-11.443-0.51
				C1393.837,1117.71,1393.837,1117.666,1393.833,1117.618z M1187.935,977.399c1.193-1.99,1.825-3.637,2.946-4.815
				c4.946-5.19,10.044-10.235,15.065-15.354c4.455-4.543,8.949-9.052,13.294-13.697c2.118-2.264,1.651-4.079-1.13-5.42
				c-0.822-0.397-1.775-0.518-2.644-0.832c-6.83-2.47-13.676-4.901-20.474-7.455c-6.797-2.553-13.533-5.267-20.318-7.853
				c-6.356-2.423-12.743-4.763-19.109-7.153c-6.897-2.588-13.828-5.092-20.665-7.825c-4.476-1.79-9.13-3.433-13.129-6.026
				c-4.817-3.126-9.065-7.143-13.484-10.863c-8.925-7.507-17.779-15.096-26.706-22.599c-1.922-1.614-3.707-1.588-5.144,0.859
				c-1.045,1.776-2.354,3.399-3.532,5.099c-6.963,10.047-14.099,19.978-20.776,30.212c-2.128,3.257-4.116,7.261-4.292,11.012
				c-0.512,10.968,0.43,22.009-0.194,32.965c-0.397,6.97,1.857,12.242,6.052,17.363c6.941,8.475,13.585,17.195,20.446,25.738
				c1.379,1.717,3.037,2.274,4.916,0.18c6.404-7.138,12.886-14.208,19.411-21.236c9.594-10.335,19.226-20.639,28.932-30.869
				c0.843-0.888,2.355-1.141,3.557-1.688c0.34,1.134,1.032,2.295,0.952,3.399c-0.217,3.001,0.847,4.748,3.821,5.624
				c5.406,1.595,10.721,3.485,16.106,5.146c5.281,1.628,10.605,3.119,15.906,4.683c4.98,1.467,9.967,2.908,14.924,4.446
				c2.01,0.622,3.947,1.466,5.919,2.21c-1.055,1.991-2.108,3.983-3.166,5.973c-0.052,0.097-0.168,0.156-0.241,0.245
				c-8.14,9.592-16.3,19.165-24.396,28.792c-1.906,2.267-0.999,4.459,1.884,4.94c0.794,0.132,1.733,0.062,2.338,0.477
				c0.651,0.445,1.283,1.322,1.351,2.062c0.04,0.433-0.986,1.287-1.631,1.401c-3.728,0.667-7.47,1.488-11.233,1.651
				c-5.854,0.255-11.749-0.307-17.59,0.062c-15.826,1.001-31.611,2.112-46.829-3.958c-0.639-0.255-1.496,0.043-3.081,0.127
				c1.168,2.053,1.843,3.747,2.948,5.087c4.104,4.978,8.503,9.718,12.498,14.78c3.905,4.949,7.301,10.304,11.197,15.262
				c5.341,6.801,10.956,13.383,16.403,20.103c0.426,0.526,0.438,1.388,0.643,2.095c-0.83,0.207-1.793,0.788-2.471,0.553
				c-3.045-1.054-6.06-2.224-8.988-3.564c-7.837-3.585-15.588-7.36-23.449-10.892c-3.214-1.443-6.624-2.452-9.943-3.668
				c-7.869-2.88-14.443-8.559-22.696-10.574c-1.681-0.41-4.21-1.007-5.06-0.185c-0.959,0.924-0.756,3.396-0.52,5.124
				c0.307,2.254,1.283,4.41,1.723,6.657c1.367,7.016,2.576,14.063,3.928,21.081c0.983,5.094,2.062,10.165,3.159,15.235
				c1.583,7.321,3.307,14.615,4.814,21.954c1.462,7.115,2.753,14.267,4.055,21.416c0.168,0.922-0.058,1.915-0.1,2.875
				c-1.201-0.064-2.499,0.136-3.578-0.263c-1.26-0.469-2.251-1.619-3.488-2.193c-7.001-3.253-13.931-6.703-21.1-9.546
				c-7.781-3.085-15.98-4.837-24.404-3.996c-14.904,1.488-28.257,7.421-40.986,14.974c-0.878,0.52-1.791,1.155-2.758,1.315
				c-1.752,0.29-2.799,0.011-2.228-2.438c1.619-6.95,2.468-14.104,4.434-20.942c2.354-8.19,0.696-17.208,5.354-24.879
				c0.386-0.633,0.253-1.578,0.364-2.378c0.932-6.705,1.856-13.408,2.81-20.11c0.098-0.682,0.363-1.337,0.549-2.007
				c1.677-6.057,3.479-12.083,4.982-18.184c0.881-3.577-0.9-5.325-4.33-4.251c-3.627,1.138-7.153,2.646-10.627,4.204
				c-6.816,3.053-13.536,6.325-20.354,9.377c-6.93,3.101-13.977,5.942-20.884,9.096c-4.801,2.19-9.407,4.811-14.204,7.011
				c-1.033,0.475-2.514-0.029-3.789-0.08c0.289-1.121,0.247-2.52,0.918-3.318c5.398-6.439,11.033-12.677,16.365-19.17
				c1.853-2.253,2.75-5.291,4.606-7.537c6.657-8.058,13.574-15.895,20.284-23.908c0.842-1.006,1.033-2.559,1.8-4.584
				c-4.683,1.062-8.556,1.586-12.184,2.83c-10.685,3.664-21.709,2.413-32.6,2.375c-7.589-0.024-15.171-1.196-22.757-1.849
				c-1.384-0.118-2.773-0.324-4.152-0.271c-1.926,0.072-3.838,0.432-5.765,0.516c-2.17,0.097-4.347,0.022-6.9,0.022
				c1.738-3.596,3.934-5.193,7.347-5.314c1.156-0.039,2.281-1,3.418-1.54c-0.635-1.262-1.168-2.589-1.939-3.763
				c-0.552-0.841-1.502-1.409-2.133-2.21c-3.273-4.149-6.418-8.401-9.763-12.493c-4.46-5.457-9.131-10.745-13.577-16.213
				c-2.206-2.712-1.497-4.344,1.805-5.195c3.569-0.918,7.106-1.962,10.656-2.963c11.645-3.285,23.309-6.512,34.928-9.889
				c7.034-2.043,7.884-3.053,8.003-7.717c0.026-1.054,0.542-2.093,0.832-3.138c1.218,0.512,2.7,0.743,3.598,1.593
				c2.011,1.9,3.68,4.153,5.573,6.181c7.648,8.178,15.364,16.288,22.982,24.492c6.527,7.029,12.921,14.185,19.449,21.214
				c2.153,2.322,3.791,2.143,5.63-0.208c7.605-9.73,15.373-19.339,22.729-29.254c1.794-2.416,3.083-5.801,3.175-8.784
				c0.384-12.604,0.34-25.229,0.175-37.842c-0.034-2.553-0.742-5.41-2.057-7.572c-3.104-5.108-6.755-9.889-10.196-14.794
				c-5.237-7.459-10.584-14.843-15.688-22.391c-2.701-3.994-3.742-4.215-7.569-0.975c-11.196,9.47-22.585,18.717-33.615,28.375
				c-5.265,4.608-11.286,7.4-17.698,9.723c-6.595,2.39-13.158,4.87-19.729,7.325c-7.006,2.616-14.003,5.254-21.009,7.873
				c-6.261,2.339-12.534,4.646-18.791,6.997c-7.426,2.79-14.789,5.758-22.277,8.369c-4.526,1.578-5.359,3.776-2.038,7.156
				c9.148,9.309,18.386,18.526,27.472,27.893c1.085,1.12,1.844,2.904,1.947,4.437c0.038,0.53-2.31,1.469-3.671,1.811
				c-9.505,2.373-19.067,4.515-28.55,6.97c-9.812,2.536-19.549,5.364-29.334,8.011c-4.117,1.114-8.227,2.646-12.42,2.991
				c-5.219,0.428-8.411,3.155-11.272,7.036c-5.436,7.38-10.912,14.734-16.588,21.93c-2.704,3.426-6.158,6.262-8.828,9.709
				c-6.422,8.292-12.525,16.831-18.877,25.179c-2.786,3.662-5.801,7.16-8.836,10.626c-2.636,3.01-5.716,5.666-8.103,8.85
				c-2.281,3.045-0.878,5.276,2.922,5.798c6.718,0.925,13.437,1.893,20.111,3.08c3.862,0.686,7.603,2.093,11.472,2.695
				c3.405,0.532,5.242,2.021,5.461,5.51c0.363,5.773,0.861,11.538,1.217,17.311c1.465,23.782,2.874,47.564,4.409,71.342
				c0.075,1.165,0.905,2.697,1.853,3.237c0.585,0.334,2.275-0.659,3.097-1.447c5.431-5.205,10.814-10.462,16.096-15.82
				c2.04-2.071,3.726-2.061,5.355,0.246c2.657,3.762,5.332,7.517,7.835,11.381c6.441,9.947,12.757,19.974,19.186,29.927
				c7.571,11.721,15.19,23.411,22.84,35.082c1.279,1.95,2.826,3.725,4.247,5.579c0.396-0.108,0.791-0.217,1.188-0.326
				c0.163-1.625,0.593-3.275,0.444-4.874c-0.588-6.317-1.37-12.617-2.059-18.925c-1.101-10.113-2.223-20.223-3.267-30.34
				c-1.673-16.218-3.271-32.444-4.938-48.663c-0.659-6.428-1.489-12.839-2.071-19.272c-0.123-1.361,0.493-2.79,0.768-4.188
				c0.466-0.005,0.931-0.011,1.396-0.015c0.445,1.33,0.994,2.638,1.309,4c0.415,1.796,0.457,3.689,0.988,5.444
				c2.635,8.71,5.487,17.355,8.05,26.087c2.401,8.177,4.405,16.47,6.815,24.642c3.485,11.82,7.229,23.563,10.767,35.365
				c3.01,10.048,5.937,20.118,8.806,30.205c3.469,12.191,6.764,24.435,10.278,36.612c3.77,13.07,7.74,26.082,11.55,39.141
				c0.776,2.657,2.532,3.047,4.464,1.875c3.528-2.142,6.829-4.662,10.244-6.994c2.066-1.411,4.132-1.612,5.814,0.537
				c2.915,3.725,5.725,7.529,8.589,11.292c10.55,13.859,21.054,27.754,31.672,41.56c6.331,8.232,12.946,16.248,19.251,24.498
				c11.271,14.752,22.371,29.634,33.608,44.413c5.938,7.811,12.023,15.509,18.016,23.274c1.506,1.953,3.645,1.975,5.143-0.013
				c3.752-4.972,7.482-9.959,11.283-14.893c8.585-11.152,17.258-22.236,25.798-33.423c8.049-10.543,15.902-21.232,23.974-31.759
				c7.723-10.073,15.661-19.979,23.415-30.031c8.878-11.509,17.691-23.066,26.443-34.675c1.844-2.446,3.902-2.293,6.037-0.951
				c3.315,2.081,6.508,4.367,9.693,6.645c2.703,1.931,4.371,1.346,5.219-1.863c1.205-4.573,2.377-9.156,3.746-13.682
				c2.536-8.381,5.327-16.686,7.784-25.089c2.521-8.616,4.678-17.336,7.154-25.967c3.878-13.517,7.884-26.997,11.85-40.49
				c1.136-3.861,2.317-7.709,3.479-11.562c2.597-8.611,5.227-17.215,7.787-25.838c2.657-8.948,5.254-17.913,7.872-26.872
				c1.392-4.764,2.847-9.513,4.14-14.302c1.382-5.111,2.578-10.274,3.929-15.395c0.186-0.707,0.79-1.302,1.267-2.055
				c2.766,1.603,1.811,4.028,1.609,5.999c-1.53,15.051-3.196,30.091-4.829,45.134c-0.361,3.333-0.797,6.657-1.133,9.993
				c-1.358,13.457-2.688,26.916-4.043,40.374c-0.081,0.804-0.362,1.588-0.44,2.391c-0.643,6.551-1.312,13.101-1.828,19.662
				c-0.081,1.022,0.564,2.104,0.875,3.159c0.313,0.051,0.628,0.103,0.942,0.152c0.231-0.402,0.442-0.818,0.698-1.205
				c4.203-6.338,8.442-12.651,12.609-19.015c10.295-15.715,20.536-31.465,30.841-47.174c3.221-4.908,6.546-9.751,9.888-14.579
				c1.678-2.425,3.451-2.082,5.394-0.118c5.209,5.27,10.472,10.485,15.799,15.632c0.888,0.857,2.213,1.26,3.337,1.874
				c0.693-1.361,1.916-2.687,2.007-4.086c1.726-26.314,3.312-52.639,4.945-78.959c0.199-3.228,1.151-6.564,0.596-9.643
				c-0.71-3.934,1.239-5.176,4.186-5.722c4.307-0.8,8.716-1.042,13.016-1.858c6.794-1.291,13.557-2.769,20.283-4.378
				c1.822-0.436,3.128-1.78,1.597-3.904c-3.041-4.213-5.924-8.558-9.188-12.592c-8.265-10.216-16.825-20.192-25.035-30.451
				c-7.349-9.176-14.604-18.442-21.497-27.962c-5.066-6.997-10.141-13.542-19.71-14.042c-0.555-0.028-1.09-0.382-1.646-0.531
				c-5.016-1.335-10.014-2.736-15.056-3.969c-9.401-2.299-18.846-4.42-28.237-6.759c-7.482-1.862-14.913-3.936-22.365-5.925
				C1190.984,978.324,1189.903,977.979,1187.935,977.399z M1251.68,795.5c0.635,1.5,1.425,2.686,1.63,3.969
				c1.167,7.3,2.114,14.633,3.287,21.931c1.649,10.259,3.412,20.499,5.188,30.736c0.206,1.182,0.81,2.296,1.227,3.441
				c1.293-0.641,2.937-0.97,3.823-1.969c7.672-8.633,14.852-17.734,22.91-25.978c5.246-5.368,5.153-10.897,3.468-17.225
				c-0.742-2.783-1.375-5.604-1.921-8.434c-1.38-7.132-2.626-14.289-4.031-21.416c-0.846-4.285-1.789-8.557-2.866-12.791
				c-1.53-6.018-3.23-11.992-4.843-17.988c-2.304-8.557-4.28-17.219-6.972-25.65c-3.26-10.204-6.869-20.316-10.791-30.286
				c-4.041-10.266-8.21-20.525-13.126-30.386c-4.197-8.417-9.205-16.487-14.44-24.317c-9.931-14.854-21.157-28.612-35.979-39.008
				c-1.835-1.287-3.402-1.591-5.22,0.12c-2.26,2.125-4.705,4.054-7.099,6.031c-13.831,11.418-25.355,24.918-35.051,39.914
				c-5.48,8.474-10.294,17.399-15.089,26.295c-3.812,7.071-7.228,14.363-10.596,21.661c-0.589,1.271-0.615,3.354,0.035,4.553
				c5.004,9.21,10.229,18.3,15.413,27.414c3.749,6.598,7.579,13.148,11.275,19.775c0.588,1.059,0.657,2.406,1.016,3.807
				c-0.837-0.091-1.101-0.047-1.282-0.149c-10.703-6.067-21.373-12.201-32.14-18.158c-1.409-0.78-3.314-0.663-4.99-0.96
				c0.528,1.405,0.756,3.039,1.63,4.182c6.164,8.06,12.49,15.996,18.709,24.016c5.795,7.472,11.546,14.979,17.271,22.508
				c4.748,6.241,9.417,12.544,14.151,18.799c1.53,2.021,4.213,1.914,4.926-0.269c1.177-3.615,2.135-7.303,3.149-10.97
				c1.443-5.225,2.759-10.486,4.3-15.682c2.425-8.17,5.079-16.275,7.471-24.455c2.52-8.621,4.825-17.309,7.268-25.953
				c2.785-9.854,5.635-19.692,8.42-29.546c0.672-2.382,1.41-4.621,4.771-5.229c0.438,2.366,0.933,4.591,1.242,6.843
				c0.439,3.207,0.568,6.465,1.135,9.646c1.579,8.853,3.358,17.67,4.973,26.52c1.779,9.761,3.455,19.54,5.194,29.309
				c1.234,6.932,2.526,13.852,3.733,20.786c2.06,11.832,4.047,23.673,6.157,35.494c0.155,0.863,1.032,2.212,1.633,2.243
				c0.974,0.052,2.253-0.562,2.946-1.317c1.537-1.674,2.712-3.675,4.175-5.426C1242.192,806.634,1246.679,801.397,1251.68,795.5z
				 M843.821,687.944c0.405-0.177,0.813-0.354,1.22-0.532c1.006,1.515,2.457,2.901,2.942,4.569
				c2.513,8.631,4.757,17.339,7.136,26.008c1.069,3.888,2.214,7.755,3.359,11.62c1.832,6.186,3.726,12.349,5.539,18.538
				c2.203,7.519,4.334,15.058,6.528,22.578c2.681,9.178,5.366,18.357,8.139,27.507c0.325,1.078,1.26,2.827,1.843,2.8
				c1.275-0.058,2.858-0.764,3.687-1.738c1.858-2.185,3.218-4.783,4.985-7.054c4.321-5.555,8.812-10.977,13.134-16.529
				c5.81-7.469,11.493-15.033,17.286-22.512c5.021-6.479,10.162-12.861,15.13-19.377c0.652-0.858,0.596-2.256,0.868-3.401
				c-1.168,0.039-2.52-0.287-3.472,0.187c-2.768,1.377-5.358,3.103-8.049,4.639c-8.765,5.004-17.542,9.981-27.271,15.514
				c0.56-2.102,0.669-3.32,1.193-4.321c1.222-2.339,2.689-4.547,3.974-6.854c3.416-6.139,6.72-12.342,10.19-18.448
				c4.271-7.509,8.718-14.921,12.945-22.453c0.551-0.982,0.725-2.64,0.286-3.641c-2.956-6.752-5.839-13.562-9.294-20.062
				c-4.253-8.005-8.677-15.964-13.688-23.503c-6.111-9.189-12.315-18.443-19.578-26.703c-7.13-8.11-15.603-15.044-23.553-22.424
				c-4.434-4.119-4.504-4.068-9.402-0.573c-12.604,8.989-22.331,20.745-31.205,33.192c-8.578,12.026-15.955,24.813-21.719,38.454
				c-4.666,11.039-9.634,21.98-13.645,33.258c-3.928,11.043-6.842,22.451-10.143,33.718c-1.195,4.082-2.274,8.203-3.318,12.328
				c-1.69,6.694-3.395,13.388-4.93,20.119c-1.484,6.511-2.787,13.062-4.12,19.603c-1.613,7.918-3.151,15.85-4.767,23.765
				c-0.848,4.155,0.732,7.3,3.524,10.305c6.37,6.854,12.553,13.884,18.749,20.896c1.908,2.158,3.501,4.604,5.479,6.687
				c0.771,0.812,2.188,1.113,3.368,1.348c0.241,0.051,0.968-1.203,1.1-1.924c0.998-5.457,1.963-10.922,2.829-16.399
				c2.033-12.897,3.983-25.805,6.057-38.692c0.151-0.937,1.03-1.756,1.663-2.779c6.007,7.248,11.612,14.094,17.344,20.832
				c0.896,1.056,2.333,1.688,3.616,2.321c0.113,0.057,1.243-1.271,1.388-2.052c2.065-11.126,4.061-22.267,6.034-33.411
				c1.406-7.949,2.72-15.917,4.141-23.864c1.523-8.526,3.162-17.033,4.686-25.558c1.057-5.907,2.051-11.823,2.988-17.749
				c1.335-8.432,2.576-16.875,3.901-25.308C843.077,689.87,843.514,688.917,843.821,687.944z M896.184,978.228
				c0.289,0.117,0.578,0.233,0.868,0.352c-0.07,11.781,8.336,19.397,19.981,18.04c3.4-0.396,7.039-0.346,10.118-1.603
				c6.987-2.85,9.157-9.519,9.412-16.086c0.262-6.684-1.898-10.82-8.931-11.061c-2.637-0.089-5.249-0.766-7.886-1.061
				c-4.985-0.558-9.972-1.264-14.973-1.401c-1.501-0.042-3.733,1.22-4.441,2.526C898.583,971.167,897.522,974.774,896.184,978.228z
				 M1153.296,978.806c-0.122-1.726,0.057-3.542-0.43-5.158c-1-3.326-2.469-7.302-6.062-7.669
				c-4.936-0.505-10.052,0.394-15.038,1.068c-0.881,0.12-2.154,2.11-2.107,3.188c0.067,1.567,0.808,3.91,1.93,4.404
				c1.154,0.51,3.246-0.567,4.686-1.379c2.161-1.219,4.411-0.79,4.673,1.227c0.307,2.345-2.328,6.933-4.543,7.592
				c-3.256,0.967-6.725,1.87-9.464-0.927c-2.667-2.721-3.664-5.946-1.957-9.825c1.246-2.833,0.299-3.899-2.8-3.493
				c-6.772,0.885-9.517,5.341-8.365,13.289c0.892,6.154,3.769,12.179,10.032,13.861c5.806,1.562,12.209,0.936,18.351,1.188
				c0.61,0.026,1.326-0.449,1.856-0.866C1149.419,991.101,1153.653,986.252,1153.296,978.806z"/>
			<path fill-rule="evenodd" clip-rule="evenodd" fill="#FFFFFF" d="M1187.935,977.399c1.968,0.58,3.049,0.925,4.143,1.216
				c7.452,1.989,14.883,4.062,22.365,5.925c9.392,2.339,18.836,4.46,28.237,6.759c5.042,1.232,10.04,2.634,15.056,3.969
				c0.557,0.149,1.092,0.503,1.646,0.531c9.569,0.5,14.644,7.045,19.71,14.042c6.894,9.52,14.148,18.786,21.497,27.962
				c8.21,10.259,16.771,20.235,25.035,30.451c3.264,4.034,6.146,8.379,9.188,12.592c1.531,2.124,0.226,3.469-1.597,3.904
				c-6.727,1.609-13.489,3.087-20.283,4.378c-4.3,0.816-8.709,1.059-13.016,1.858c-2.946,0.546-4.896,1.788-4.186,5.722
				c0.556,3.078-0.396,6.415-0.596,9.643c-1.634,26.32-3.22,52.645-4.945,78.959c-0.091,1.399-1.313,2.725-2.007,4.086
				c-1.124-0.614-2.449-1.017-3.337-1.874c-5.327-5.146-10.59-10.362-15.799-15.632c-1.942-1.964-3.716-2.307-5.394,0.118
				c-3.342,4.828-6.667,9.671-9.888,14.579c-10.305,15.709-20.546,31.459-30.841,47.174c-4.167,6.363-8.406,12.677-12.609,19.015
				c-0.256,0.387-0.467,0.803-0.698,1.205c-0.314-0.05-0.629-0.102-0.942-0.152c-0.311-1.055-0.956-2.137-0.875-3.159
				c0.516-6.562,1.186-13.111,1.828-19.662c0.078-0.803,0.359-1.587,0.44-2.391c1.354-13.458,2.685-26.917,4.043-40.374
				c0.336-3.336,0.771-6.66,1.133-9.993c1.633-15.043,3.299-30.083,4.829-45.134c0.201-1.971,1.156-4.396-1.609-5.999
				c-0.477,0.753-1.081,1.348-1.267,2.055c-1.351,5.12-2.547,10.283-3.929,15.395c-1.293,4.789-2.748,9.538-4.14,14.302
				c-2.618,8.959-5.215,17.924-7.872,26.872c-2.561,8.623-5.19,17.227-7.787,25.838c-1.162,3.853-2.344,7.7-3.479,11.562
				c-3.966,13.493-7.972,26.974-11.85,40.49c-2.477,8.631-4.634,17.351-7.154,25.967c-2.457,8.403-5.248,16.708-7.784,25.089
				c-1.369,4.525-2.541,9.108-3.746,13.682c-0.848,3.209-2.516,3.794-5.219,1.863c-3.186-2.277-6.378-4.563-9.693-6.645
				c-2.135-1.342-4.193-1.495-6.037,0.951c-8.752,11.608-17.565,23.166-26.443,34.675c-7.754,10.053-15.692,19.958-23.415,30.031
				c-8.071,10.526-15.925,21.216-23.974,31.759c-8.54,11.187-17.213,22.271-25.798,33.423c-3.801,4.934-7.531,9.921-11.283,14.893
				c-1.498,1.987-3.637,1.966-5.143,0.013c-5.992-7.766-12.077-15.464-18.016-23.274c-11.237-14.779-22.338-29.661-33.608-44.413
				c-6.305-8.25-12.92-16.266-19.251-24.498c-10.618-13.806-21.122-27.7-31.672-41.56c-2.864-3.763-5.674-7.567-8.589-11.292
				c-1.683-2.149-3.748-1.948-5.814-0.537c-3.415,2.332-6.716,4.853-10.244,6.994c-1.932,1.172-3.688,0.782-4.464-1.875
				c-3.81-13.059-7.78-26.07-11.55-39.141c-3.515-12.178-6.81-24.421-10.278-36.612c-2.869-10.087-5.796-20.157-8.806-30.205
				c-3.537-11.802-7.281-23.545-10.767-35.365c-2.41-8.172-4.414-16.465-6.815-24.642c-2.562-8.731-5.415-17.377-8.05-26.087
				c-0.531-1.755-0.573-3.648-0.988-5.444c-0.314-1.362-0.863-2.67-1.309-4c-0.465,0.004-0.93,0.01-1.396,0.015
				c-0.274,1.397-0.891,2.826-0.768,4.188c0.582,6.434,1.412,12.845,2.071,19.272c1.667,16.219,3.265,32.445,4.938,48.663
				c1.044,10.117,2.166,20.227,3.267,30.34c0.688,6.308,1.471,12.607,2.059,18.925c0.148,1.599-0.281,3.249-0.444,4.874
				c-0.396,0.109-0.791,0.218-1.188,0.326c-1.421-1.854-2.968-3.629-4.247-5.579c-7.649-11.671-15.269-23.361-22.84-35.082
				c-6.429-9.953-12.744-19.979-19.186-29.927c-2.503-3.864-5.178-7.619-7.835-11.381c-1.63-2.307-3.315-2.317-5.355-0.246
				c-5.281,5.358-10.665,10.615-16.096,15.82c-0.821,0.788-2.512,1.781-3.097,1.447c-0.947-0.54-1.777-2.072-1.853-3.237
				c-1.535-23.777-2.944-47.56-4.409-71.342c-0.355-5.772-0.854-11.537-1.217-17.311c-0.219-3.489-2.056-4.978-5.461-5.51
				c-3.869-0.603-7.609-2.01-11.472-2.695c-6.675-1.188-13.394-2.155-20.111-3.08c-3.8-0.521-5.203-2.753-2.922-5.798
				c2.387-3.184,5.467-5.84,8.103-8.85c3.035-3.466,6.05-6.964,8.836-10.626c6.352-8.348,12.455-16.887,18.877-25.179
				c2.67-3.447,6.124-6.283,8.828-9.709c5.676-7.195,11.152-14.55,16.588-21.93c2.861-3.881,6.054-6.608,11.272-7.036
				c4.193-0.345,8.303-1.877,12.42-2.991c9.785-2.646,19.521-5.475,29.334-8.011c9.482-2.455,19.045-4.597,28.55-6.97
				c1.361-0.342,3.709-1.28,3.671-1.811c-0.104-1.532-0.862-3.316-1.947-4.437c-9.086-9.366-18.323-18.584-27.472-27.893
				c-3.321-3.38-2.488-5.578,2.038-7.156c7.488-2.611,14.852-5.579,22.277-8.369c6.257-2.352,12.53-4.658,18.791-6.997
				c7.006-2.619,14.003-5.257,21.009-7.873c6.57-2.455,13.134-4.936,19.729-7.325c6.412-2.322,12.434-5.114,17.698-9.723
				c11.03-9.658,22.419-18.905,33.615-28.375c3.827-3.24,4.868-3.02,7.569,0.975c5.104,7.548,10.45,14.932,15.688,22.391
				c3.441,4.905,7.092,9.686,10.196,14.794c1.314,2.162,2.022,5.02,2.057,7.572c0.165,12.613,0.209,25.238-0.175,37.842
				c-0.092,2.983-1.381,6.368-3.175,8.784c-7.355,9.915-15.123,19.523-22.729,29.254c-1.839,2.351-3.477,2.53-5.63,0.208
				c-6.528-7.029-12.922-14.185-19.449-21.214c-7.618-8.204-15.334-16.314-22.982-24.492c-1.894-2.027-3.562-4.28-5.573-6.181
				c-0.897-0.85-2.38-1.081-3.598-1.593c-0.29,1.045-0.806,2.084-0.832,3.138c-0.119,4.664-0.969,5.674-8.003,7.717
				c-11.619,3.377-23.283,6.604-34.928,9.889c-3.55,1.001-7.087,2.045-10.656,2.963c-3.302,0.852-4.011,2.483-1.805,5.195
				c4.446,5.468,9.117,10.756,13.577,16.213c3.345,4.092,6.489,8.344,9.763,12.493c0.631,0.801,1.581,1.369,2.133,2.21
				c0.771,1.174,1.305,2.501,1.939,3.763c-1.137,0.54-2.262,1.501-3.418,1.54c-3.413,0.121-5.608,1.719-7.347,5.314
				c2.554,0,4.73,0.074,6.9-0.022c1.927-0.084,3.839-0.443,5.765-0.516c1.379-0.053,2.769,0.153,4.152,0.271
				c7.586,0.652,15.168,1.824,22.757,1.849c10.891,0.038,21.915,1.289,32.6-2.375c3.628-1.244,7.501-1.768,12.184-2.83
				c-0.767,2.025-0.958,3.578-1.8,4.584c-6.71,8.014-13.627,15.851-20.284,23.908c-1.856,2.246-2.754,5.284-4.606,7.537
				c-5.332,6.493-10.967,12.73-16.365,19.17c-0.671,0.799-0.629,2.197-0.918,3.318c1.275,0.051,2.756,0.555,3.789,0.08
				c4.797-2.2,9.403-4.82,14.204-7.011c6.907-3.153,13.954-5.995,20.884-9.096c6.817-3.052,13.537-6.324,20.354-9.377
				c3.474-1.559,7-3.066,10.627-4.204c3.43-1.074,5.211,0.674,4.33,4.251c-1.504,6.101-3.306,12.127-4.982,18.184
				c-0.186,0.67-0.451,1.325-0.549,2.007c-0.953,6.702-1.878,13.405-2.81,20.11c-0.111,0.8,0.021,1.745-0.364,2.378
				c-4.657,7.671-2.999,16.688-5.354,24.879c-1.966,6.839-2.814,13.992-4.434,20.942c-0.571,2.449,0.476,2.729,2.228,2.438
				c0.967-0.16,1.88-0.796,2.758-1.315c12.729-7.553,26.082-13.485,40.986-14.974c8.424-0.841,16.623,0.911,24.404,3.996
				c7.169,2.843,14.099,6.293,21.1,9.546c1.237,0.574,2.229,1.725,3.488,2.193c1.079,0.398,2.377,0.198,3.578,0.263
				c0.042-0.96,0.268-1.953,0.1-2.875c-1.302-7.149-2.593-14.301-4.055-21.416c-1.508-7.339-3.231-14.633-4.814-21.954
				c-1.098-5.07-2.176-10.142-3.159-15.235c-1.352-7.018-2.561-14.065-3.928-21.081c-0.439-2.247-1.416-4.403-1.723-6.657
				c-0.236-1.728-0.439-4.2,0.52-5.124c0.85-0.822,3.379-0.226,5.06,0.185c8.253,2.016,14.827,7.694,22.696,10.574
				c3.319,1.216,6.729,2.225,9.943,3.668c7.861,3.531,15.612,7.307,23.449,10.892c2.929,1.341,5.943,2.511,8.988,3.564
				c0.678,0.235,1.641-0.346,2.471-0.553c-0.204-0.707-0.217-1.568-0.643-2.095c-5.447-6.72-11.062-13.302-16.403-20.103
				c-3.896-4.958-7.292-10.312-11.197-15.262c-3.995-5.062-8.394-9.803-12.498-14.78c-1.105-1.34-1.78-3.034-2.948-5.087
				c1.585-0.084,2.442-0.382,3.081-0.127c15.218,6.07,31.003,4.959,46.829,3.958c5.841-0.369,11.736,0.192,17.59-0.062
				c3.764-0.163,7.506-0.984,11.233-1.651c0.645-0.114,1.671-0.969,1.631-1.401c-0.067-0.74-0.699-1.617-1.351-2.062
				c-0.604-0.414-1.544-0.345-2.338-0.477c-2.883-0.481-3.79-2.674-1.884-4.94c8.097-9.627,16.257-19.2,24.396-28.792
				c0.073-0.089,0.189-0.148,0.241-0.245c1.058-1.989,2.111-3.981,3.166-5.973c-1.972-0.744-3.909-1.588-5.919-2.21
				c-4.957-1.538-9.943-2.979-14.924-4.446c-5.301-1.563-10.625-3.055-15.906-4.683c-5.386-1.66-10.7-3.551-16.106-5.146
				c-2.975-0.876-4.038-2.623-3.821-5.624c0.08-1.104-0.612-2.266-0.952-3.399c-1.201,0.547-2.714,0.8-3.557,1.688
				c-9.706,10.23-19.338,20.534-28.932,30.869c-6.525,7.028-13.007,14.099-19.411,21.236c-1.879,2.095-3.537,1.537-4.916-0.18
				c-6.861-8.543-13.505-17.264-20.446-25.738c-4.194-5.121-6.449-10.394-6.052-17.363c0.624-10.956-0.317-21.997,0.194-32.965
				c0.176-3.751,2.164-7.755,4.292-11.012c6.678-10.234,13.813-20.165,20.776-30.212c1.179-1.699,2.487-3.322,3.532-5.099
				c1.437-2.447,3.222-2.474,5.144-0.859c8.927,7.503,17.781,15.092,26.706,22.599c4.419,3.721,8.667,7.737,13.484,10.863
				c3.999,2.594,8.653,4.236,13.129,6.026c6.837,2.733,13.768,5.237,20.665,7.825c6.366,2.391,12.753,4.73,19.109,7.153
				c6.785,2.586,13.521,5.3,20.318,7.853c6.798,2.554,13.644,4.985,20.474,7.455c0.868,0.314,1.821,0.435,2.644,0.832
				c2.781,1.341,3.248,3.156,1.13,5.42c-4.345,4.646-8.839,9.154-13.294,13.697c-5.021,5.118-10.119,10.163-15.065,15.354
				C1189.76,973.762,1189.128,975.409,1187.935,977.399z M1025.207,1419.556c8.876,0.479,17.693-1.348,26.04-6.038
				c12.44-6.989,21.228-17.381,27.955-29.546c4.212-7.615,7.54-15.741,10.938-23.778c1.742-4.117,2.926-8.495,4.077-12.833
				c1.45-5.455,2.544-11.004,3.91-16.483c1.533-6.148,3.211-12.261,4.798-18.396c1.868-7.226,3.654-14.473,5.568-21.685
				c2.816-10.611,8.474-19.904,14.059-29.161c6.657-11.039,14.341-21.495,20.47-32.807c6.286-11.595,11.263-23.9,16.747-35.926
				c2.677-5.869,4.792-12.033,7.897-17.66c4.56-8.263,9.764-16.176,14.728-24.218c3.467-5.618,5.896-11.528,5.306-18.302
				c-0.38-4.344-2.667-7.066-6.363-7.54c-10.068-1.291-15.069,2.936-18.329,11.662c-4.173,11.176-5.559,23.058-6.663,34.951
				c-0.627,6.766-1.606,13.631-3.564,20.108c-4.098,13.555-10.636,26.132-19.271,37.286c-6.025,7.783-13.24,14.724-20.44,21.49
				c-4.987,4.685-11.316,8.329-18.089,8.877c-16.693,1.35-33.335,0.104-49.075-6.17c-5.383-2.146-9.927-6.477-11.376-12.375
				c-1.445-5.878-1.619-12.06-2.54-18.077c-0.736-4.808,1.657-7.5,5.522-9.73c8.775-5.066,17.444-10.316,26.135-15.533
				c7.479-4.49,11.288-11.556,12.488-19.801c1.077-7.422,1.122-14.994,1.604-22.5c0.176-2.731-0.63-5.061-3.065-6.552
				c-3.927-2.404-7.778-4.963-11.857-7.076c-10.452-5.42-20.938-10.647-33.141-11.126c-10.208-0.4-20.116,0.721-29.417,4.91
				c-7.349,3.31-14.523,7.07-21.493,11.119c-5.316,3.086-6.876,4.172-6.193,11.049c0.489,4.949,0.924,9.922,1.014,14.891
				c0.236,13.078,6.579,22.168,17.777,28.363c7.254,4.014,14.347,8.314,21.59,12.35c3.953,2.202,6.002,5.132,5.303,9.851
				c-0.352,2.381,0.257,4.923-0.204,7.27c-0.885,4.506-1.49,9.294-3.53,13.293c-3.743,7.341-10.741,11.148-18.516,12.747
				c-11.666,2.399-23.479,3.773-35.475,3.662c-5.442-0.051-10.351-1.512-14.898-3.898c-11.581-6.067-20.457-15.407-28.088-25.741
				c-4.97-6.731-9.073-14.171-12.945-21.617c-3.064-5.894-6.204-12.07-7.506-18.488c-2.749-13.563-4.058-27.414-6.472-41.055
				c-1.454-8.234-2.988-16.693-10.668-22.109c-3.233-2.284-10.634-3.171-13.826-1.117c-3.918,2.519-3.753,6.541-3.556,10.556
				c0.374,7.553,4.729,13.351,8.415,19.46c4.405,7.302,9.313,14.365,13.006,22.014c5.302,10.977,9.451,22.502,14.563,33.576
				c3.704,8.021,7.871,15.866,12.365,23.473c7.319,12.387,15.387,24.338,22.561,36.803c7.061,12.271,11.724,25.524,13.696,39.639
				c0.222,1.589,0.786,3.131,1.18,4.696c1.49,5.917,3.005,11.827,4.452,17.757c1.34,5.48,2.242,11.098,3.992,16.441
				c2.355,7.195,5.26,14.217,8.07,21.255c3.794,9.5,8.95,18.237,15.551,26.048C991.981,1411.488,1005.92,1420.492,1025.207,1419.556
				z"/>
			<path fill-rule="evenodd" clip-rule="evenodd" fill="#FFFFFF" d="M1251.68,795.5c-5.001,5.897-9.488,11.135-13.909,16.431
				c-1.463,1.751-2.638,3.752-4.175,5.426c-0.693,0.755-1.973,1.369-2.946,1.317c-0.601-0.031-1.478-1.38-1.633-2.243
				c-2.11-11.821-4.098-23.662-6.157-35.494c-1.207-6.935-2.499-13.854-3.733-20.786c-1.739-9.769-3.415-19.548-5.194-29.309
				c-1.614-8.85-3.394-17.667-4.973-26.52c-0.566-3.182-0.695-6.44-1.135-9.646c-0.31-2.252-0.804-4.477-1.242-6.843
				c-3.361,0.608-4.1,2.847-4.771,5.229c-2.785,9.854-5.635,19.692-8.42,29.546c-2.442,8.645-4.748,17.332-7.268,25.953
				c-2.392,8.18-5.046,16.285-7.471,24.455c-1.541,5.195-2.856,10.457-4.3,15.682c-1.015,3.667-1.973,7.354-3.149,10.97
				c-0.713,2.183-3.396,2.29-4.926,0.269c-4.734-6.255-9.403-12.558-14.151-18.799c-5.726-7.528-11.477-15.036-17.271-22.508
				c-6.219-8.02-12.545-15.956-18.709-24.016c-0.874-1.143-1.102-2.776-1.63-4.182c1.676,0.297,3.581,0.18,4.99,0.96
				c10.767,5.957,21.437,12.091,32.14,18.158c0.182,0.103,0.445,0.059,1.282,0.149c-0.358-1.4-0.428-2.748-1.016-3.807
				c-3.696-6.627-7.526-13.178-11.275-19.775c-5.184-9.113-10.409-18.203-15.413-27.414c-0.65-1.199-0.624-3.282-0.035-4.553
				c3.368-7.297,6.783-14.589,10.596-21.661c4.795-8.896,9.608-17.821,15.089-26.295c9.695-14.996,21.22-28.495,35.051-39.914
				c2.394-1.978,4.839-3.907,7.099-6.031c1.817-1.71,3.385-1.406,5.22-0.12c14.822,10.396,26.049,24.153,35.979,39.008
				c5.235,7.83,10.243,15.9,14.44,24.317c4.916,9.861,9.085,20.121,13.126,30.386c3.922,9.97,7.531,20.082,10.791,30.286
				c2.691,8.432,4.668,17.094,6.972,25.65c1.612,5.996,3.312,11.971,4.843,17.988c1.077,4.234,2.021,8.506,2.866,12.791
				c1.405,7.127,2.651,14.284,4.031,21.416c0.546,2.829,1.179,5.65,1.921,8.434c1.686,6.327,1.778,11.856-3.468,17.225
				c-8.059,8.243-15.238,17.345-22.91,25.978c-0.887,0.999-2.53,1.328-3.823,1.969c-0.417-1.146-1.021-2.26-1.227-3.441
				c-1.775-10.237-3.538-20.478-5.188-30.736c-1.173-7.298-2.12-14.631-3.287-21.931C1253.105,798.185,1252.315,797,1251.68,795.5z"
				/>
			<path fill-rule="evenodd" clip-rule="evenodd" fill="#FFFFFF" d="M843.821,687.944c-0.307,0.973-0.744,1.926-0.9,2.921
				c-1.325,8.433-2.566,16.876-3.901,25.308c-0.938,5.926-1.932,11.842-2.988,17.749c-1.523,8.524-3.162,17.031-4.686,25.558
				c-1.421,7.947-2.734,15.915-4.141,23.864c-1.974,11.145-3.969,22.285-6.034,33.411c-0.145,0.781-1.274,2.108-1.388,2.052
				c-1.283-0.634-2.721-1.266-3.616-2.321c-5.731-6.738-11.337-13.584-17.344-20.832c-0.633,1.023-1.512,1.843-1.663,2.779
				c-2.073,12.888-4.023,25.795-6.057,38.692c-0.866,5.478-1.831,10.942-2.829,16.399c-0.132,0.721-0.858,1.975-1.1,1.924
				c-1.181-0.234-2.597-0.536-3.368-1.348c-1.978-2.083-3.57-4.528-5.479-6.687c-6.196-7.013-12.379-14.042-18.749-20.896
				c-2.792-3.005-4.372-6.149-3.524-10.305c1.615-7.915,3.153-15.847,4.767-23.765c1.333-6.541,2.636-13.092,4.12-19.603
				c1.535-6.731,3.239-13.425,4.93-20.119c1.044-4.125,2.123-8.246,3.318-12.328c3.301-11.267,6.215-22.675,10.143-33.718
				c4.011-11.278,8.979-22.219,13.645-33.258c5.764-13.641,13.141-26.428,21.719-38.454c8.874-12.447,18.602-24.203,31.205-33.192
				c4.898-3.495,4.969-3.546,9.402,0.573c7.95,7.38,16.423,14.314,23.553,22.424c7.263,8.26,13.467,17.513,19.578,26.703
				c5.011,7.539,9.435,15.499,13.688,23.503c3.455,6.5,6.338,13.309,9.294,20.062c0.438,1.001,0.265,2.659-0.286,3.641
				c-4.228,7.532-8.675,14.944-12.945,22.453c-3.471,6.106-6.774,12.31-10.19,18.448c-1.284,2.308-2.752,4.516-3.974,6.854
				c-0.524,1.001-0.634,2.22-1.193,4.321c9.729-5.532,18.506-10.51,27.271-15.514c2.69-1.536,5.281-3.262,8.049-4.639
				c0.952-0.474,2.304-0.147,3.472-0.187c-0.272,1.146-0.216,2.543-0.868,3.401c-4.968,6.516-10.109,12.898-15.13,19.377
				c-5.793,7.479-11.477,15.043-17.286,22.512c-4.321,5.553-8.812,10.975-13.134,16.529c-1.768,2.271-3.127,4.869-4.985,7.054
				c-0.828,0.975-2.411,1.681-3.687,1.738c-0.583,0.027-1.518-1.722-1.843-2.8c-2.772-9.149-5.458-18.329-8.139-27.507
				c-2.194-7.521-4.325-15.06-6.528-22.578c-1.813-6.189-3.707-12.353-5.539-18.538c-1.146-3.865-2.29-7.732-3.359-11.62
				c-2.379-8.669-4.623-17.377-7.136-26.008c-0.485-1.667-1.937-3.054-2.942-4.569C844.634,687.59,844.226,687.767,843.821,687.944z
				"/>
			<linearGradient id="SVGID_1_" gradientUnits="userSpaceOnUse" x1="896.1841" y1="981.0913" x2="936.5845" y2="981.0913">
				<stop  offset="0" style="stop-color:#CCE0F4"/>
				<stop  offset="0.0641" style="stop-color:#C3DCF2"/>
				<stop  offset="0.1706" style="stop-color:#A9D2EE"/>
				<stop  offset="0.3066" style="stop-color:#80C2E7"/>
				<stop  offset="0.4649" style="stop-color:#47ACDE"/>
				<stop  offset="0.5674" style="stop-color:#1E9CD7"/>
				<stop  offset="0.8652" style="stop-color:#0075BE"/>
				<stop  offset="0.9944" style="stop-color:#005B97"/>
			</linearGradient>
			<path fill-rule="evenodd" clip-rule="evenodd" fill="url(#SVGID_1_)" d="M896.184,978.228c1.338-3.454,2.399-7.061,4.149-10.293
				c0.708-1.307,2.94-2.568,4.441-2.526c5.001,0.138,9.987,0.844,14.973,1.401c2.637,0.295,5.249,0.972,7.886,1.061
				c7.032,0.24,9.192,4.377,8.931,11.061c-0.255,6.567-2.425,13.236-9.412,16.086c-3.079,1.257-6.718,1.207-10.118,1.603
				c-11.646,1.357-20.052-6.259-19.981-18.04C896.762,978.461,896.473,978.345,896.184,978.228z M913.012,967.941
				c-1.329,1.778-2.272,2.624-2.694,3.679c-1.654,4.114-0.229,8.792,2.994,10.345c4.718,2.274,9.689,0.707,12.045-4.169
				c0.689-1.429,0.259-3.396,0.343-5.118c-1.468,0.297-2.946,0.551-4.396,0.914c-0.414,0.105-0.73,0.556-1.124,0.795
				c-2.421,1.465-4.481,0.761-5.463-1.858C914.285,971.376,913.859,970.221,913.012,967.941z"/>
			<linearGradient id="SVGID_2_" gradientUnits="userSpaceOnUse" x1="1113.563" y1="981.0015" x2="1153.3169" y2="981.0015">
				<stop  offset="0" style="stop-color:#CCE0F4"/>
				<stop  offset="0.0641" style="stop-color:#C3DCF2"/>
				<stop  offset="0.1706" style="stop-color:#A9D2EE"/>
				<stop  offset="0.3066" style="stop-color:#80C2E7"/>
				<stop  offset="0.4649" style="stop-color:#47ACDE"/>
				<stop  offset="0.5674" style="stop-color:#1E9CD7"/>
				<stop  offset="0.8652" style="stop-color:#0075BE"/>
				<stop  offset="0.9944" style="stop-color:#005B97"/>
			</linearGradient>
			<path fill-rule="evenodd" clip-rule="evenodd" fill="url(#SVGID_2_)" d="M1153.296,978.806
				c0.356,7.446-3.877,12.295-9.239,16.499c-0.53,0.417-1.246,0.893-1.856,0.866c-6.142-0.252-12.545,0.374-18.351-1.188
				c-6.264-1.683-9.141-7.707-10.032-13.861c-1.151-7.948,1.593-12.404,8.365-13.289c3.099-0.406,3.135,0.042,2.8,3.493
				c-1.707,3.879-0.71,7.104,1.957,9.825c2.739,2.797,6.208,1.894,9.464,0.927c2.215-0.659,4.85-5.247,4.543-7.592
				c-0.262-2.017-2.512-2.445-4.673-1.227c-1.439,0.812-3.531,1.889-4.686,1.379c-7.563-3.338-6.281-1.043-6.513-6.406
				c-0.047-1.077,5.81-1.065,6.69-1.186c4.986-0.675,10.103-1.573,15.038-1.068c3.594,0.367,5.062,4.343,6.062,7.669
				C1153.353,975.264,1153.174,977.081,1153.296,978.806z"/>
			<path fill-rule="evenodd" clip-rule="evenodd" d="M1025.207,1419.556c-19.286,0.936-33.226-8.068-44.783-21.743
				c-6.601-7.811-11.757-16.548-15.551-26.048c-2.811-7.038-5.715-14.06-8.07-21.255c-1.75-5.344-2.652-10.961-3.992-16.441
				c-1.447-5.93-2.962-11.84-4.452-17.757c-0.394-1.565-0.958-3.107-1.18-4.696c-1.973-14.114-6.636-27.367-13.696-39.639
				c-7.174-12.465-15.241-24.416-22.561-36.803c-4.494-7.606-8.661-15.451-12.365-23.473c-5.112-11.074-9.262-22.6-14.563-33.576
				c-3.692-7.648-8.601-14.712-13.006-22.014c-3.686-6.109-8.041-11.907-8.415-19.46c-0.197-4.015-0.362-8.037,3.556-10.556
				c3.192-2.054,10.593-1.167,13.826,1.117c7.68,5.416,9.214,13.875,10.668,22.109c2.414,13.641,3.723,27.491,6.472,41.055
				c1.302,6.418,4.441,12.595,7.506,18.488c3.872,7.446,7.976,14.886,12.945,21.617c7.631,10.334,16.507,19.674,28.088,25.741
				c4.548,2.387,9.456,3.848,14.898,3.898c11.996,0.111,23.809-1.263,35.475-3.662c7.774-1.599,14.772-5.406,18.516-12.747
				c2.04-3.999,2.646-8.787,3.53-13.293c0.461-2.347-0.147-4.889,0.204-7.27c0.699-4.719-1.35-7.648-5.303-9.851
				c-7.243-4.035-14.336-8.336-21.59-12.35c-11.198-6.195-17.541-15.285-17.777-28.363c-0.09-4.969-0.524-9.941-1.014-14.891
				c-0.683-6.877,0.877-7.963,6.193-11.049c6.97-4.049,14.145-7.81,21.493-11.119c9.301-4.189,19.209-5.311,29.417-4.91
				c12.202,0.479,22.688,5.706,33.141,11.126c4.079,2.113,7.931,4.672,11.857,7.076c2.436,1.491,3.241,3.82,3.065,6.552
				c-0.482,7.506-0.527,15.078-1.604,22.5c-1.2,8.245-5.009,15.311-12.488,19.801c-8.69,5.217-17.359,10.467-26.135,15.533
				c-3.865,2.23-6.259,4.923-5.522,9.73c0.921,6.018,1.095,12.199,2.54,18.077c1.449,5.898,5.993,10.229,11.376,12.375
				c15.74,6.274,32.382,7.52,49.075,6.17c6.772-0.548,13.102-4.192,18.089-8.877c7.2-6.767,14.415-13.707,20.44-21.49
				c8.635-11.154,15.173-23.731,19.271-37.286c1.958-6.478,2.938-13.343,3.564-20.108c1.104-11.894,2.49-23.775,6.663-34.951
				c3.26-8.727,8.261-12.953,18.329-11.662c3.696,0.474,5.983,3.196,6.363,7.54c0.591,6.773-1.839,12.684-5.306,18.302
				c-4.964,8.042-10.168,15.955-14.728,24.218c-3.105,5.627-5.221,11.791-7.897,17.66c-5.484,12.025-10.461,24.331-16.747,35.926
				c-6.129,11.312-13.812,21.768-20.47,32.807c-5.585,9.257-11.242,18.55-14.059,29.161c-1.914,7.212-3.7,14.459-5.568,21.685
				c-1.587,6.135-3.265,12.247-4.798,18.396c-1.366,5.479-2.46,11.028-3.91,16.483c-1.151,4.338-2.335,8.716-4.077,12.833
				c-3.398,8.037-6.727,16.163-10.938,23.778c-6.728,12.165-15.515,22.557-27.955,29.546
				C1042.9,1418.208,1034.083,1420.035,1025.207,1419.556z"/>
			<path fill-rule="evenodd" clip-rule="evenodd" d="M913.012,967.941c0.847,2.28,1.272,3.436,1.704,4.587
				c0.981,2.619,3.042,3.323,5.463,1.858c0.394-0.239,0.71-0.689,1.124-0.795c1.45-0.363,2.929-0.617,4.396-0.914
				c-0.084,1.722,0.347,3.689-0.343,5.118c-2.355,4.876-7.327,6.443-12.045,4.169c-3.223-1.553-4.648-6.23-2.994-10.345
				C910.74,970.565,911.683,969.719,913.012,967.941z"/>
		</g>
		<g>
			<g>
				<path d="M1024.842,1305.395c2.643,20.759,1.431,41.657,1.389,62.513c-0.005,2.688,4.162,2.688,4.168,0
					c0.042-20.855,1.253-41.754-1.389-62.513C1028.675,1302.767,1024.503,1302.734,1024.842,1305.395L1024.842,1305.395z"/>
			</g>
		</g>
		<g>
			<g>
				<path d="M1015.119,1308.174c0,14.817,0,29.636,0,44.453c0,2.688,4.168,2.688,4.168,0c0-14.817,0-29.636,0-44.453
					C1019.287,1305.487,1015.119,1305.487,1015.119,1308.174L1015.119,1308.174z"/>
			</g>
		</g>
		<g id="j1qhMu_2_">
			<g>
				<path fill="#E2404C" d="M948.712,1287.068c0-2.471,0-4.94,0-7.413c0.549-1.3,1.178-2.576,1.631-3.91
					c1.371-4.038,3.508-5.912,7.64-5.004c3.789,0.829,7.749,2.24,10.861,4.472c5.219,3.74,11.271,5.286,16.969,7.735
					c3.521,1.513,7.312,2.422,11.016,3.487c1.348,0.383,2.796,0.41,4.193,0.633c5.027,0.801,9.502,2.913,13.947,5.344
					c2.071,1.135,3.458,2.478,3.714,4.549c0.733,5.913,1.322,11.853,1.687,17.797c0.396,6.531,0.318,13.091,0.755,19.615
					c0.29,4.336,1.169,8.631,1.686,12.954c0.231,1.927,1.327,2.364,3.438,2.304c0.62-8.041,1.225-15.954,1.838-23.87
					c0.66-8.57,1.464-17.134,1.947-25.716c0.363-6.487,4.665-8.908,9.957-10.68c7.771-2.604,16.216-2.691,23.661-6.619
					c3.063-1.618,6.66-2.207,9.789-3.729c4.574-2.23,8.938-4.899,13.406-7.352c5.193-2.853,9.422-1.394,11.581,4.077
					c0.791,2.008,1.298,4.127,1.934,6.196c0,0.949,0,1.898,0,2.851c-0.203,0.717-0.502,1.424-0.597,2.158
					c-0.699,5.436-1.148,10.916-2.098,16.306c-0.72,4.087-2.74,8.021-2.988,12.095c-0.672,11.15-5.277,21.303-7.66,32.009
					c-1.77,7.938-6.042,15.294-8.883,23.024c-2.442,6.64-5.77,12.787-10.17,18.214c-4.866,5.999-10.091,11.623-16.518,16.227
					c-6.334,4.539-12.735,7.683-20.617,8.602c-16.232,1.897-29.749-3.134-40.844-14.75c-4.153-4.349-7.295-9.651-11.346-14.115
					c-4.531-4.988-6.607-11.176-9.328-17.054c-1.779-3.84-2.811-8.034-4.65-11.842c-2.006-4.147-3.401-8.343-3.978-12.936
					c-0.396-3.141-1.585-6.186-2.468-9.259c-0.496-1.728-1.264-3.389-1.616-5.139c-1.197-5.941-2.216-11.919-3.397-17.863
					c-0.886-4.454-1.989-8.864-2.859-13.319C949.69,1293.809,949.25,1290.429,948.712,1287.068z"/>
			</g>
		</g>
		<circle fill-rule="evenodd" clip-rule="evenodd" fill="#FFFFFF" cx="918.122" cy="972.209" r="5.107"/>
		<circle fill-rule="evenodd" clip-rule="evenodd" fill="#FFFFFF" cx="1132.054" cy="972.209" r="5.108"/>
	</g>
</g>
</svg>
