<?xml version="1.0" encoding="utf-8"?>
<!DOCTYPE svg PUBLIC "-//W3C//DTD SVG 1.1//EN" "http://www.w3.org/Graphics/SVG/1.1/DTD/svg11.dtd">
<svg version="1.1" xmlns="http://www.w3.org/2000/svg" xmlns:xlink="http://www.w3.org/1999/xlink" x="0px" y="0px"
	 width="953.971px" height="975.785px" viewBox="0 0 953.971 975.785" enable-background="new 0 0 953.971 975.785"
	 xml:space="preserve">
<g id="Layer_1">
</g>
<g id="Layer_2">
	<g id="WjzJxt_1_">
		<g>
			<path fill-rule="evenodd" clip-rule="evenodd" d="M845.717,552.529c-3.703,0-7.414,0.147-11.107-0.043
				c-3.379-0.175-5.16,1.569-6.236,4.416c-5.428,14.364-10.762,28.765-16.271,43.097c-5.459,14.191-11.166,28.286-16.617,42.479
				c-4.547,11.833-8.879,23.749-13.303,35.628c-1.002,2.694-1.953,5.409-2.984,8.094c-1.623,4.232-3.811,4.846-7.111,1.877
				c-4.475-4.021-8.85-8.15-13.268-12.233c-2.715-2.512-4.361-2.248-6.293,0.851c-10.379,16.641-20.809,33.25-31.18,49.896
				c-7.564,12.141-15.039,24.336-22.602,36.477c-7.379,11.847-14.855,23.629-22.221,35.483
				c-5.721,9.207-11.316,18.488-17.004,27.715c-5.025,8.154-10.08,16.292-15.168,24.408c-2.328,3.715-3.801,3.75-7.176,0.854
				c-5.697-4.886-11.441-9.728-17.387-14.302c-0.928-0.714-3.629-0.55-4.479,0.272c-14.271,13.806-28.396,27.762-42.521,41.72
				c-30.699,30.333-61.375,60.691-92.082,91.021c-3.092,3.054-4.498,2.916-7.822-0.374c-30.424-30.113-60.83-60.244-91.289-90.323
				c-14.133-13.955-28.395-27.785-42.537-41.732c-1.834-1.808-3.396-2.04-5.363-0.362c-6.141,5.246-12.289,10.484-18.506,15.641
				c-2.469,2.047-3.959-0.206-5.035-1.779c-2.537-3.708-4.734-7.648-7.088-11.482c-5.496-8.945-10.982-17.899-16.51-26.825
				c-4.555-7.351-9.166-14.669-13.752-21.999c-4.227-6.754-8.451-13.505-12.676-20.259c-7.463-11.925-14.904-23.863-22.393-35.772
				c-5.828-9.266-11.766-18.461-17.561-27.747c-4.273-6.849-8.375-13.806-12.59-20.69c-2.102-3.436-4.262-6.835-6.434-10.225
				c-1.734-2.71-3.477-2.886-5.854-0.661c-4.475,4.193-8.906,8.431-13.434,12.563c-3.117,2.844-5.408,2.257-6.994-1.721
				c-1.148-2.888-2.127-5.845-3.246-8.746c-3.928-10.204-7.938-20.376-11.812-30.6c-4.252-11.211-8.324-22.49-12.596-33.693
				c-3.611-9.475-7.445-18.862-11.094-28.324c-3.447-8.94-6.859-17.897-10.131-26.904c-1.824-5.03-2.477-5.776-7.637-5.677
				c-7.174,0.136-14.346,0.388-21.514,0.686c-3.732,0.156-5.139-1.424-3.498-4.81c3.219-6.644,6.814-13.104,10.178-19.68
				c3.729-7.282,7.486-14.555,11.018-21.931c3.426-7.152,6.455-14.492,9.92-21.624c1.236-2.545,3.574-4.553,4.816-7.095
				c2.926-5.993,5.42-12.196,8.252-18.238c0.867-1.848,2.416-3.367,3.385-5.179c4.225-7.908,8.346-15.87,12.514-23.81
				c2.566-4.888,5.113-9.79,7.738-14.649c1.186-2.198,1.469-4.006-0.986-5.634c-3.936-2.607-7.604-5.643-11.654-8.042
				c-3.279-1.945-2.541-4.032-0.861-6.225c3.797-4.949,7.756-9.771,11.65-14.643c6.488-8.116,12.992-16.218,19.461-24.35
				c7.037-8.85,14.025-17.738,21.064-26.587c7.48-9.404,14.994-18.783,22.492-28.171c1.645-2.062,1.855-3.944-0.01-6.179
				c-7.336-8.779-14.447-17.741-21.822-26.482c-2.045-2.424-2.918-4.911-2.525-7.947c0.932-7.219,1.648-14.475,2.855-21.646
				c2.664-15.831,5.387-31.657,8.453-47.415c1.984-10.184,4.262-20.342,7.051-30.331c3.166-11.319,6.834-22.513,10.689-33.62
				c3.062-8.818,6.373-17.589,10.23-26.082c4.953-10.914,10.188-21.742,16.008-32.211c5.252-9.445,10.971-18.718,17.361-27.423
				c9.021-12.292,18.982-23.877,30.338-34.153c1.459-1.318,3.145-2.448,4.361-3.958c1.949-2.417,3.945-2.13,5.992-0.476
				c7.439,6.01,15.115,11.771,22.158,18.221c12.395,11.349,22.934,24.414,32.842,37.938c6.34,8.65,12.584,17.428,18.098,26.614
				c8.008,13.349,15.482,27.028,22.846,40.748c3.041,5.662,5.348,11.739,7.734,17.728c2.402,6.029,3.793,6.77,9.932,5.177
				c2.998-0.78,6.145-0.988,9.223-1.463c19.873-3.062,39.902-3.565,59.9-2.506c12.188,0.646,24.309,2.786,36.422,4.532
				c4.352,0.626,5.514,0.521,7.41-3.569c3.432-7.407,6.451-15.017,10.154-22.284c5.338-10.479,10.576-21.078,16.859-30.991
				c9.191-14.505,18.678-28.903,29.125-42.511c12.391-16.134,26.203-31.115,42.662-43.366c1.943-1.445,3.826-2.974,5.803-4.369
				c2.23-1.573,4.15-1.646,6.422,0.483c11.49,10.782,22.316,22.146,31.795,34.76c9.307,12.383,17.549,25.438,24.48,39.29
				c4.795,9.58,9.885,19.06,13.9,28.964c4.893,12.062,8.957,24.477,13.082,36.834c2.914,8.742,5.498,17.605,7.926,26.496
				c1.641,6.003,2.793,12.141,4.094,18.234c1.086,5.076,2.117,10.168,3.088,15.269c1.707,8.971,3.611,17.912,4.945,26.938
				c1.574,10.632,2.713,21.328,3.814,32.02c0.156,1.537-0.566,3.521-1.555,4.761c-7.143,8.928-14.41,17.757-21.736,26.536
				c-3.133,3.757-3.211,4.975-0.045,8.853c5.986,7.339,11.959,14.692,17.877,22.085c11.475,14.33,22.924,28.679,34.344,43.049
				c7.109,8.947,14.154,17.945,21.219,26.925c2.223,2.826,2.082,4.373-0.84,6.5c-3.725,2.71-7.533,5.304-11.334,7.908
				c-2.461,1.686-2.217,3.672-0.998,6.018c4.73,9.104,9.258,18.312,14.102,27.354c3.512,6.558,7.588,12.817,11.07,19.391
				c2.361,4.464,3.936,9.338,6.199,13.859c6.357,12.695,12.898,25.295,19.346,37.941c4.723,9.257,9.4,18.534,14.119,27.788
				c0.893,1.749,1.984,3.397,2.809,5.173c1.633,3.525,0.383,5.373-3.439,5.215c-3.812-0.159-7.629-0.339-11.443-0.51
				C845.721,552.622,845.721,552.577,845.717,552.529z M639.818,412.311c1.193-1.99,1.824-3.637,2.945-4.815
				c4.947-5.19,10.045-10.235,15.066-15.354c4.455-4.543,8.949-9.052,13.293-13.697c2.119-2.264,1.652-4.079-1.129-5.42
				c-0.822-0.397-1.775-0.518-2.645-0.832c-6.83-2.47-13.676-4.902-20.473-7.456c-6.797-2.553-13.533-5.267-20.318-7.853
				c-6.357-2.423-12.744-4.763-19.109-7.153c-6.898-2.588-13.828-5.092-20.666-7.825c-4.475-1.79-9.129-3.433-13.129-6.026
				c-4.816-3.126-9.064-7.143-13.484-10.863c-8.924-7.507-17.779-15.096-26.705-22.599c-1.922-1.614-3.707-1.588-5.145,0.859
				c-1.045,1.776-2.354,3.399-3.531,5.099c-6.963,10.047-14.1,19.978-20.777,30.212c-2.127,3.257-4.115,7.261-4.291,11.012
				c-0.512,10.968,0.43,22.009-0.195,32.965c-0.396,6.97,1.857,12.242,6.053,17.363c6.941,8.475,13.584,17.195,20.445,25.738
				c1.379,1.717,3.037,2.274,4.916,0.18c6.404-7.138,12.887-14.208,19.412-21.236c9.594-10.335,19.225-20.639,28.932-30.869
				c0.842-0.888,2.355-1.141,3.557-1.688c0.34,1.134,1.031,2.295,0.951,3.399c-0.217,3.001,0.848,4.748,3.822,5.624
				c5.406,1.595,10.721,3.485,16.105,5.146c5.281,1.628,10.605,3.119,15.906,4.683c4.98,1.467,9.967,2.908,14.924,4.446
				c2.01,0.622,3.947,1.466,5.92,2.21c-1.055,1.991-2.109,3.983-3.166,5.973c-0.053,0.097-0.168,0.156-0.242,0.245
				c-8.139,9.592-16.299,19.165-24.396,28.792c-1.906,2.267-0.998,4.459,1.885,4.94c0.793,0.132,1.732,0.062,2.338,0.477
				c0.65,0.445,1.283,1.322,1.35,2.062c0.041,0.433-0.986,1.287-1.631,1.401c-3.727,0.667-7.469,1.488-11.232,1.651
				c-5.854,0.255-11.75-0.307-17.59,0.062c-15.826,1.001-31.611,2.112-46.83-3.958c-0.639-0.255-1.496,0.043-3.08,0.127
				c1.168,2.053,1.842,3.747,2.947,5.087c4.105,4.978,8.504,9.718,12.498,14.78c3.906,4.949,7.301,10.304,11.197,15.262
				c5.342,6.801,10.957,13.383,16.404,20.103c0.426,0.526,0.438,1.388,0.643,2.095c-0.83,0.207-1.793,0.788-2.471,0.553
				c-3.045-1.054-6.061-2.224-8.988-3.564c-7.838-3.585-15.588-7.36-23.449-10.892c-3.215-1.443-6.625-2.452-9.943-3.668
				c-7.869-2.88-14.443-8.559-22.697-10.574c-1.68-0.41-4.209-1.007-5.059-0.185c-0.959,0.924-0.756,3.396-0.52,5.124
				c0.307,2.254,1.283,4.41,1.723,6.657c1.367,7.016,2.576,14.063,3.928,21.081c0.982,5.094,2.061,10.165,3.158,15.235
				c1.584,7.321,3.307,14.615,4.814,21.954c1.463,7.115,2.754,14.267,4.055,21.416c0.168,0.922-0.057,1.915-0.1,2.875
				c-1.201-0.064-2.498,0.136-3.578-0.263c-1.26-0.469-2.25-1.619-3.488-2.193c-7-3.253-13.93-6.703-21.1-9.546
				c-7.781-3.085-15.98-4.837-24.404-3.996c-14.904,1.488-28.256,7.421-40.986,14.974c-0.877,0.52-1.791,1.155-2.758,1.315
				c-1.752,0.29-2.799,0.011-2.227-2.438c1.619-6.95,2.467-14.104,4.434-20.942c2.354-8.19,0.695-17.208,5.354-24.879
				c0.385-0.633,0.252-1.578,0.363-2.378c0.932-6.705,1.857-13.408,2.811-20.11c0.098-0.682,0.363-1.337,0.549-2.007
				c1.676-6.057,3.479-12.083,4.982-18.184c0.881-3.577-0.9-5.325-4.33-4.251c-3.627,1.138-7.154,2.646-10.627,4.204
				c-6.816,3.053-13.537,6.325-20.354,9.377c-6.93,3.101-13.977,5.942-20.885,9.096c-4.801,2.19-9.406,4.811-14.203,7.011
				c-1.033,0.475-2.514-0.029-3.789-0.08c0.289-1.121,0.246-2.52,0.918-3.318c5.398-6.439,11.033-12.677,16.365-19.17
				c1.852-2.253,2.75-5.291,4.605-7.537c6.658-8.058,13.574-15.895,20.285-23.908c0.842-1.006,1.033-2.559,1.799-4.584
				c-4.682,1.062-8.555,1.586-12.184,2.83c-10.684,3.664-21.709,2.413-32.6,2.375c-7.588-0.024-15.17-1.196-22.756-1.849
				c-1.385-0.118-2.773-0.324-4.152-0.271c-1.926,0.072-3.838,0.432-5.766,0.516c-2.17,0.097-4.346,0.022-6.9,0.022
				c1.738-3.596,3.934-5.193,7.348-5.314c1.156-0.039,2.281-1,3.418-1.54c-0.635-1.262-1.168-2.589-1.939-3.763
				c-0.553-0.841-1.502-1.409-2.133-2.21c-3.273-4.149-6.418-8.401-9.764-12.493c-4.459-5.457-9.131-10.745-13.576-16.213
				c-2.207-2.712-1.498-4.344,1.805-5.195c3.568-0.918,7.105-1.962,10.656-2.963c11.645-3.285,23.309-6.512,34.928-9.889
				c7.033-2.043,7.883-3.053,8.002-7.717c0.027-1.054,0.543-2.093,0.832-3.138c1.219,0.512,2.701,0.743,3.598,1.593
				c2.012,1.9,3.68,4.153,5.574,6.181c7.648,8.178,15.363,16.288,22.982,24.492c6.527,7.029,12.92,14.185,19.449,21.214
				c2.152,2.322,3.791,2.143,5.629-0.208c7.605-9.73,15.373-19.339,22.729-29.254c1.795-2.416,3.084-5.801,3.176-8.784
				c0.383-12.604,0.34-25.229,0.174-37.842c-0.033-2.553-0.742-5.41-2.057-7.572c-3.104-5.108-6.754-9.889-10.195-14.794
				c-5.238-7.459-10.584-14.843-15.688-22.391c-2.701-3.994-3.742-4.215-7.57-0.975c-11.195,9.47-22.584,18.717-33.615,28.375
				c-5.264,4.608-11.285,7.4-17.697,9.723c-6.596,2.39-13.158,4.87-19.729,7.325c-7.006,2.616-14.004,5.254-21.01,7.873
				c-6.26,2.339-12.533,4.646-18.791,6.997c-7.426,2.79-14.789,5.758-22.277,8.37c-4.525,1.578-5.359,3.776-2.037,7.156
				c9.148,9.309,18.385,18.526,27.471,27.893c1.086,1.12,1.844,2.904,1.947,4.437c0.039,0.53-2.309,1.469-3.67,1.811
				c-9.506,2.373-19.068,4.515-28.551,6.97c-9.812,2.536-19.549,5.364-29.334,8.011c-4.117,1.114-8.227,2.646-12.42,2.991
				c-5.219,0.428-8.41,3.155-11.271,7.036c-5.436,7.38-10.912,14.734-16.588,21.93c-2.705,3.426-6.158,6.262-8.828,9.709
				c-6.422,8.292-12.525,16.831-18.877,25.179c-2.787,3.662-5.801,7.16-8.836,10.626c-2.637,3.01-5.717,5.666-8.104,8.85
				c-2.281,3.045-0.877,5.276,2.922,5.798c6.719,0.925,13.438,1.893,20.111,3.08c3.863,0.686,7.604,2.093,11.473,2.695
				c3.404,0.532,5.242,2.021,5.461,5.51c0.363,5.773,0.861,11.538,1.217,17.311c1.465,23.782,2.873,47.564,4.408,71.342
				c0.076,1.165,0.906,2.697,1.854,3.237c0.584,0.334,2.275-0.659,3.096-1.447c5.432-5.205,10.814-10.462,16.096-15.82
				c2.041-2.071,3.727-2.061,5.355,0.246c2.658,3.762,5.332,7.517,7.836,11.381c6.441,9.947,12.756,19.974,19.186,29.927
				c7.57,11.721,15.189,23.411,22.84,35.082c1.279,1.95,2.826,3.725,4.246,5.579c0.396-0.108,0.791-0.217,1.188-0.326
				c0.164-1.625,0.594-3.275,0.445-4.874c-0.588-6.317-1.371-12.617-2.059-18.925c-1.102-10.113-2.223-20.223-3.268-30.34
				c-1.672-16.218-3.27-32.444-4.938-48.663c-0.658-6.428-1.488-12.839-2.07-19.272c-0.123-1.361,0.492-2.79,0.768-4.188
				c0.465-0.005,0.93-0.011,1.395-0.015c0.445,1.33,0.994,2.638,1.309,4c0.416,1.796,0.457,3.689,0.988,5.444
				c2.635,8.71,5.488,17.355,8.051,26.087c2.4,8.177,4.404,16.47,6.814,24.642c3.486,11.82,7.23,23.563,10.768,35.365
				c3.01,10.048,5.936,20.118,8.805,30.205c3.469,12.191,6.764,24.435,10.279,36.612c3.77,13.07,7.74,26.082,11.549,39.141
				c0.777,2.657,2.533,3.047,4.465,1.875c3.527-2.142,6.828-4.662,10.244-6.994c2.066-1.411,4.131-1.612,5.814,0.537
				c2.914,3.725,5.725,7.529,8.588,11.292c10.551,13.859,21.055,27.754,31.672,41.56c6.332,8.232,12.947,16.248,19.252,24.498
				c11.27,14.752,22.371,29.634,33.607,44.413c5.939,7.811,12.023,15.509,18.016,23.274c1.506,1.953,3.645,1.975,5.143-0.013
				c3.752-4.972,7.482-9.959,11.283-14.893c8.586-11.152,17.258-22.236,25.799-33.423c8.049-10.543,15.902-21.232,23.973-31.759
				c7.723-10.073,15.662-19.979,23.416-30.031c8.877-11.509,17.691-23.066,26.443-34.675c1.844-2.446,3.902-2.293,6.037-0.951
				c3.314,2.081,6.508,4.367,9.693,6.645c2.703,1.931,4.371,1.346,5.219-1.863c1.205-4.573,2.377-9.156,3.746-13.682
				c2.535-8.381,5.326-16.686,7.783-25.089c2.521-8.616,4.678-17.336,7.154-25.967c3.879-13.517,7.885-26.997,11.85-40.49
				c1.137-3.861,2.318-7.709,3.48-11.562c2.596-8.611,5.227-17.215,7.787-25.838c2.656-8.948,5.254-17.913,7.871-26.872
				c1.393-4.764,2.848-9.513,4.141-14.302c1.381-5.111,2.578-10.274,3.928-15.395c0.186-0.707,0.791-1.302,1.268-2.055
				c2.766,1.603,1.811,4.028,1.609,5.999c-1.531,15.051-3.197,30.091-4.83,45.134c-0.361,3.333-0.797,6.657-1.133,9.993
				c-1.357,13.457-2.688,26.916-4.043,40.374c-0.08,0.804-0.361,1.588-0.439,2.391c-0.643,6.551-1.312,13.101-1.828,19.662
				c-0.082,1.022,0.564,2.104,0.875,3.159c0.312,0.051,0.627,0.103,0.941,0.152c0.232-0.402,0.443-0.818,0.699-1.205
				c4.203-6.338,8.441-12.651,12.609-19.015c10.295-15.715,20.535-31.465,30.84-47.174c3.221-4.908,6.547-9.751,9.889-14.579
				c1.678-2.425,3.451-2.082,5.393-0.118c5.209,5.27,10.473,10.485,15.799,15.632c0.889,0.857,2.213,1.26,3.338,1.874
				c0.693-1.361,1.916-2.687,2.006-4.086c1.727-26.314,3.312-52.639,4.945-78.959c0.199-3.228,1.152-6.564,0.596-9.643
				c-0.709-3.934,1.24-5.176,4.186-5.722c4.307-0.8,8.717-1.042,13.016-1.858c6.795-1.291,13.557-2.769,20.283-4.378
				c1.822-0.436,3.129-1.78,1.598-3.904c-3.041-4.213-5.924-8.558-9.188-12.592c-8.266-10.216-16.826-20.192-25.035-30.451
				c-7.35-9.176-14.604-18.442-21.498-27.962c-5.066-6.997-10.141-13.542-19.709-14.042c-0.555-0.028-1.09-0.382-1.646-0.531
				c-5.016-1.335-10.014-2.736-15.057-3.969c-9.4-2.299-18.846-4.42-28.236-6.759c-7.482-1.862-14.914-3.936-22.365-5.925
				C642.867,413.235,641.785,412.891,639.818,412.311z M703.562,230.411c0.635,1.5,1.426,2.686,1.631,3.969
				c1.166,7.3,2.113,14.633,3.287,21.931c1.648,10.259,3.412,20.499,5.188,30.736c0.205,1.182,0.809,2.296,1.227,3.441
				c1.293-0.641,2.936-0.97,3.822-1.969c7.672-8.633,14.852-17.734,22.91-25.978c5.246-5.368,5.154-10.897,3.469-17.225
				c-0.742-2.783-1.375-5.604-1.922-8.434c-1.379-7.132-2.625-14.289-4.031-21.416c-0.846-4.285-1.789-8.557-2.865-12.791
				c-1.531-6.018-3.23-11.992-4.844-17.988c-2.303-8.557-4.279-17.219-6.971-25.65c-3.26-10.204-6.869-20.316-10.791-30.286
				c-4.041-10.266-8.211-20.525-13.127-30.386c-4.197-8.418-9.205-16.488-14.439-24.317c-9.932-14.854-21.158-28.612-35.98-39.008
				c-1.834-1.286-3.402-1.591-5.219,0.12c-2.26,2.124-4.705,4.053-7.1,6.031c-13.83,11.418-25.355,24.918-35.051,39.913
				c-5.48,8.474-10.293,17.399-15.088,26.296c-3.812,7.07-7.229,14.363-10.596,21.66c-0.59,1.271-0.615,3.354,0.035,4.553
				c5.004,9.211,10.229,18.301,15.412,27.414c3.75,6.598,7.58,13.148,11.275,19.775c0.588,1.059,0.658,2.406,1.016,3.807
				c-0.836-0.091-1.1-0.047-1.281-0.149c-10.703-6.067-21.373-12.201-32.141-18.158c-1.408-0.78-3.314-0.663-4.99-0.96
				c0.529,1.405,0.756,3.039,1.631,4.182c6.164,8.06,12.49,15.996,18.709,24.016c5.795,7.472,11.545,14.979,17.271,22.508
				c4.748,6.241,9.416,12.544,14.15,18.799c1.531,2.021,4.213,1.914,4.926-0.269c1.178-3.615,2.135-7.303,3.15-10.97
				c1.443-5.225,2.758-10.486,4.299-15.682c2.426-8.17,5.08-16.275,7.471-24.455c2.52-8.621,4.826-17.309,7.268-25.953
				c2.785-9.854,5.635-19.691,8.42-29.546c0.672-2.382,1.41-4.621,4.771-5.229c0.439,2.367,0.934,4.592,1.242,6.844
				c0.439,3.206,0.568,6.465,1.135,9.646c1.58,8.853,3.359,17.67,4.973,26.52c1.779,9.761,3.455,19.54,5.195,29.309
				c1.234,6.932,2.525,13.852,3.732,20.786c2.061,11.832,4.047,23.673,6.158,35.494c0.154,0.863,1.031,2.212,1.633,2.243
				c0.973,0.052,2.252-0.562,2.945-1.317c1.537-1.674,2.713-3.675,4.176-5.426C694.074,241.545,698.562,236.308,703.562,230.411z
				 M295.703,122.855c0.406-0.177,0.814-0.354,1.221-0.532c1.006,1.516,2.457,2.901,2.941,4.568
				c2.514,8.631,4.758,17.34,7.137,26.009c1.068,3.888,2.213,7.755,3.359,11.62c1.832,6.186,3.725,12.349,5.539,18.538
				c2.203,7.519,4.334,15.058,6.527,22.578c2.682,9.178,5.367,18.357,8.139,27.507c0.326,1.078,1.26,2.827,1.844,2.8
				c1.275-0.058,2.857-0.764,3.686-1.738c1.859-2.185,3.219-4.783,4.986-7.054c4.32-5.555,8.812-10.977,13.133-16.529
				c5.811-7.469,11.494-15.033,17.287-22.512c5.02-6.479,10.162-12.861,15.129-19.377c0.652-0.858,0.596-2.256,0.869-3.401
				c-1.168,0.039-2.52-0.287-3.473,0.187c-2.768,1.377-5.357,3.103-8.049,4.639c-8.764,5.004-17.541,9.981-27.27,15.514
				c0.559-2.102,0.668-3.32,1.193-4.321c1.221-2.339,2.689-4.547,3.973-6.854c3.416-6.139,6.721-12.342,10.191-18.448
				c4.27-7.509,8.717-14.921,12.945-22.453c0.551-0.981,0.725-2.64,0.285-3.642c-2.955-6.752-5.838-13.561-9.293-20.061
				c-4.254-8.006-8.678-15.965-13.688-23.504c-6.111-9.189-12.316-18.443-19.578-26.703c-7.131-8.109-15.604-15.043-23.553-22.424
				c-4.434-4.119-4.504-4.068-9.402-0.572c-12.604,8.988-22.332,20.744-31.205,33.191c-8.578,12.027-15.955,24.813-21.719,38.455
				c-4.666,11.039-9.635,21.98-13.645,33.258c-3.928,11.043-6.842,22.451-10.143,33.718c-1.195,4.082-2.275,8.203-3.318,12.328
				c-1.691,6.694-3.395,13.388-4.93,20.119c-1.484,6.511-2.787,13.062-4.121,19.603c-1.613,7.918-3.15,15.85-4.766,23.765
				c-0.848,4.155,0.732,7.3,3.523,10.305c6.371,6.854,12.553,13.884,18.75,20.896c1.908,2.158,3.5,4.604,5.479,6.687
				c0.771,0.812,2.188,1.113,3.367,1.348c0.242,0.051,0.969-1.203,1.1-1.924c0.998-5.457,1.963-10.922,2.83-16.399
				c2.033-12.897,3.982-25.805,6.057-38.692c0.15-0.937,1.029-1.756,1.662-2.779c6.008,7.248,11.613,14.094,17.344,20.832
				c0.896,1.056,2.334,1.688,3.617,2.321c0.113,0.057,1.242-1.271,1.387-2.052c2.066-11.126,4.061-22.267,6.035-33.411
				c1.406-7.949,2.719-15.917,4.141-23.864c1.523-8.526,3.162-17.033,4.686-25.558c1.057-5.907,2.051-11.823,2.988-17.749
				c1.334-8.432,2.576-16.875,3.9-25.309C294.959,124.781,295.396,123.829,295.703,122.855z M348.066,413.14
				c0.289,0.117,0.578,0.233,0.869,0.352c-0.07,11.781,8.336,19.397,19.98,18.04c3.4-0.396,7.039-0.346,10.119-1.603
				c6.986-2.85,9.156-9.519,9.412-16.086c0.262-6.684-1.898-10.82-8.932-11.061c-2.637-0.089-5.248-0.766-7.885-1.061
				c-4.986-0.558-9.973-1.264-14.973-1.401c-1.502-0.042-3.734,1.22-4.441,2.526C350.467,406.079,349.404,409.686,348.066,413.14z
				 M605.18,413.718c-0.123-1.726,0.057-3.542-0.43-5.158c-1-3.326-2.469-7.302-6.062-7.669c-4.936-0.505-10.053,0.394-15.039,1.068
				c-0.881,0.12-2.154,2.11-2.107,3.188c0.068,1.567,0.809,3.91,1.93,4.404c1.154,0.51,3.246-0.567,4.686-1.379
				c2.162-1.219,4.412-0.79,4.674,1.227c0.307,2.345-2.328,6.933-4.543,7.592c-3.256,0.967-6.725,1.87-9.465-0.927
				c-2.666-2.721-3.664-5.946-1.957-9.825c1.246-2.833,0.299-3.899-2.799-3.493c-6.773,0.885-9.518,5.341-8.365,13.289
				c0.891,6.154,3.768,12.179,10.031,13.861c5.807,1.562,12.209,0.936,18.352,1.188c0.609,0.026,1.326-0.449,1.855-0.866
				C601.303,426.013,605.535,421.164,605.18,413.718z"/>
			<path fill-rule="evenodd" clip-rule="evenodd" fill="#FFFFFF" d="M639.818,412.311c1.967,0.58,3.049,0.925,4.143,1.216
				c7.451,1.989,14.883,4.062,22.365,5.925c9.391,2.339,18.836,4.46,28.236,6.759c5.043,1.232,10.041,2.634,15.057,3.969
				c0.557,0.149,1.092,0.503,1.646,0.531c9.568,0.5,14.643,7.045,19.709,14.042c6.895,9.52,14.148,18.786,21.498,27.962
				c8.209,10.259,16.77,20.235,25.035,30.451c3.264,4.034,6.146,8.379,9.188,12.592c1.531,2.124,0.225,3.469-1.598,3.904
				c-6.727,1.609-13.488,3.087-20.283,4.378c-4.299,0.816-8.709,1.059-13.016,1.858c-2.945,0.546-4.895,1.788-4.186,5.722
				c0.557,3.078-0.396,6.415-0.596,9.643c-1.633,26.32-3.219,52.645-4.945,78.959c-0.09,1.399-1.312,2.725-2.006,4.086
				c-1.125-0.614-2.449-1.017-3.338-1.874c-5.326-5.146-10.59-10.362-15.799-15.632c-1.941-1.964-3.715-2.307-5.393,0.118
				c-3.342,4.828-6.668,9.671-9.889,14.579c-10.305,15.709-20.545,31.459-30.84,47.174c-4.168,6.363-8.406,12.677-12.609,19.015
				c-0.256,0.387-0.467,0.803-0.699,1.205c-0.314-0.05-0.629-0.102-0.941-0.152c-0.311-1.055-0.957-2.137-0.875-3.159
				c0.516-6.562,1.186-13.111,1.828-19.662c0.078-0.803,0.359-1.587,0.439-2.391c1.355-13.458,2.686-26.917,4.043-40.374
				c0.336-3.336,0.771-6.66,1.133-9.993c1.633-15.043,3.299-30.083,4.83-45.134c0.201-1.971,1.156-4.396-1.609-5.999
				c-0.477,0.753-1.082,1.348-1.268,2.055c-1.35,5.12-2.547,10.283-3.928,15.395c-1.293,4.789-2.748,9.538-4.141,14.302
				c-2.617,8.959-5.215,17.924-7.871,26.872c-2.561,8.623-5.191,17.227-7.787,25.838c-1.162,3.853-2.344,7.7-3.48,11.562
				c-3.965,13.493-7.971,26.974-11.85,40.49c-2.477,8.631-4.633,17.351-7.154,25.967c-2.457,8.403-5.248,16.708-7.783,25.089
				c-1.369,4.525-2.541,9.108-3.746,13.682c-0.848,3.209-2.516,3.794-5.219,1.863c-3.186-2.277-6.379-4.563-9.693-6.645
				c-2.135-1.342-4.193-1.495-6.037,0.951c-8.752,11.608-17.566,23.166-26.443,34.675c-7.754,10.053-15.693,19.958-23.416,30.031
				c-8.07,10.526-15.924,21.216-23.973,31.759c-8.541,11.187-17.213,22.271-25.799,33.423c-3.801,4.934-7.531,9.921-11.283,14.893
				c-1.498,1.987-3.637,1.966-5.143,0.013c-5.992-7.766-12.076-15.464-18.016-23.274c-11.236-14.779-22.338-29.661-33.607-44.413
				c-6.305-8.25-12.92-16.266-19.252-24.498c-10.617-13.806-21.121-27.7-31.672-41.56c-2.863-3.763-5.674-7.567-8.588-11.292
				c-1.684-2.149-3.748-1.948-5.814-0.537c-3.416,2.332-6.717,4.853-10.244,6.994c-1.932,1.172-3.688,0.782-4.465-1.875
				c-3.809-13.059-7.779-26.07-11.549-39.141c-3.516-12.178-6.811-24.421-10.279-36.612c-2.869-10.087-5.795-20.157-8.805-30.205
				c-3.537-11.802-7.281-23.545-10.768-35.365c-2.41-8.172-4.414-16.465-6.814-24.642c-2.562-8.731-5.416-17.377-8.051-26.087
				c-0.531-1.755-0.572-3.648-0.988-5.444c-0.314-1.362-0.863-2.67-1.309-4c-0.465,0.004-0.93,0.01-1.395,0.015
				c-0.275,1.397-0.891,2.826-0.768,4.188c0.582,6.434,1.412,12.845,2.07,19.272c1.668,16.219,3.266,32.445,4.938,48.663
				c1.045,10.117,2.166,20.227,3.268,30.34c0.688,6.308,1.471,12.607,2.059,18.925c0.148,1.599-0.281,3.249-0.445,4.874
				c-0.396,0.109-0.791,0.218-1.188,0.326c-1.42-1.854-2.967-3.629-4.246-5.579c-7.65-11.671-15.27-23.361-22.84-35.082
				c-6.43-9.953-12.744-19.979-19.186-29.927c-2.504-3.864-5.178-7.619-7.836-11.381c-1.629-2.307-3.314-2.317-5.355-0.246
				c-5.281,5.358-10.664,10.615-16.096,15.82c-0.82,0.788-2.512,1.781-3.096,1.447c-0.947-0.54-1.777-2.072-1.854-3.237
				c-1.535-23.777-2.943-47.56-4.408-71.342c-0.355-5.772-0.854-11.537-1.217-17.311c-0.219-3.489-2.057-4.978-5.461-5.51
				c-3.869-0.603-7.609-2.01-11.473-2.695c-6.674-1.188-13.393-2.155-20.111-3.08c-3.799-0.521-5.203-2.753-2.922-5.798
				c2.387-3.184,5.467-5.84,8.104-8.85c3.035-3.466,6.049-6.964,8.836-10.626c6.352-8.348,12.455-16.887,18.877-25.179
				c2.67-3.447,6.123-6.283,8.828-9.709c5.676-7.195,11.152-14.55,16.588-21.93c2.861-3.881,6.053-6.608,11.271-7.036
				c4.193-0.345,8.303-1.877,12.42-2.991c9.785-2.646,19.521-5.475,29.334-8.011c9.482-2.455,19.045-4.597,28.551-6.97
				c1.361-0.342,3.709-1.28,3.67-1.811c-0.104-1.532-0.861-3.316-1.947-4.437c-9.086-9.366-18.322-18.584-27.471-27.893
				c-3.322-3.38-2.488-5.578,2.037-7.156c7.488-2.612,14.852-5.58,22.277-8.37c6.258-2.352,12.531-4.658,18.791-6.997
				c7.006-2.619,14.004-5.257,21.01-7.873c6.57-2.455,13.133-4.936,19.729-7.325c6.412-2.322,12.434-5.114,17.697-9.723
				c11.031-9.658,22.42-18.905,33.615-28.375c3.828-3.24,4.869-3.02,7.57,0.975c5.104,7.548,10.449,14.932,15.688,22.391
				c3.441,4.905,7.092,9.686,10.195,14.794c1.314,2.162,2.023,5.02,2.057,7.572c0.166,12.613,0.209,25.239-0.174,37.842
				c-0.092,2.983-1.381,6.368-3.176,8.784c-7.355,9.915-15.123,19.523-22.729,29.254c-1.838,2.351-3.477,2.53-5.629,0.208
				c-6.529-7.029-12.922-14.185-19.449-21.214c-7.619-8.204-15.334-16.314-22.982-24.492c-1.895-2.027-3.562-4.28-5.574-6.181
				c-0.896-0.85-2.379-1.081-3.598-1.593c-0.289,1.045-0.805,2.084-0.832,3.138c-0.119,4.664-0.969,5.674-8.002,7.717
				c-11.619,3.377-23.283,6.604-34.928,9.889c-3.551,1.001-7.088,2.045-10.656,2.963c-3.303,0.852-4.012,2.483-1.805,5.195
				c4.445,5.468,9.117,10.756,13.576,16.213c3.346,4.092,6.49,8.344,9.764,12.493c0.631,0.801,1.58,1.369,2.133,2.21
				c0.771,1.174,1.305,2.501,1.939,3.763c-1.137,0.54-2.262,1.501-3.418,1.54c-3.414,0.121-5.609,1.719-7.348,5.314
				c2.555,0,4.73,0.074,6.9-0.022c1.928-0.084,3.84-0.443,5.766-0.516c1.379-0.053,2.768,0.153,4.152,0.271
				c7.586,0.652,15.168,1.824,22.756,1.849c10.891,0.038,21.916,1.289,32.6-2.375c3.629-1.244,7.502-1.768,12.184-2.83
				c-0.766,2.025-0.957,3.578-1.799,4.584c-6.711,8.014-13.627,15.851-20.285,23.908c-1.855,2.246-2.754,5.284-4.605,7.537
				c-5.332,6.493-10.967,12.73-16.365,19.17c-0.672,0.799-0.629,2.197-0.918,3.318c1.275,0.051,2.756,0.555,3.789,0.08
				c4.797-2.2,9.402-4.82,14.203-7.011c6.908-3.153,13.955-5.995,20.885-9.096c6.816-3.052,13.537-6.324,20.354-9.377
				c3.473-1.559,7-3.066,10.627-4.204c3.43-1.074,5.211,0.674,4.33,4.251c-1.504,6.101-3.307,12.127-4.982,18.184
				c-0.186,0.67-0.451,1.325-0.549,2.007c-0.953,6.702-1.879,13.405-2.811,20.11c-0.111,0.8,0.021,1.745-0.363,2.378
				c-4.658,7.671-3,16.688-5.354,24.879c-1.967,6.839-2.814,13.992-4.434,20.942c-0.572,2.449,0.475,2.729,2.227,2.438
				c0.967-0.16,1.881-0.796,2.758-1.315c12.73-7.553,26.082-13.485,40.986-14.974c8.424-0.841,16.623,0.911,24.404,3.996
				c7.17,2.843,14.1,6.293,21.1,9.546c1.238,0.574,2.229,1.725,3.488,2.193c1.08,0.398,2.377,0.198,3.578,0.263
				c0.043-0.96,0.268-1.953,0.1-2.875c-1.301-7.149-2.592-14.301-4.055-21.416c-1.508-7.339-3.23-14.633-4.814-21.954
				c-1.098-5.07-2.176-10.142-3.158-15.235c-1.352-7.018-2.561-14.065-3.928-21.081c-0.439-2.247-1.416-4.403-1.723-6.657
				c-0.236-1.728-0.439-4.2,0.52-5.124c0.85-0.822,3.379-0.226,5.059,0.185c8.254,2.016,14.828,7.694,22.697,10.574
				c3.318,1.216,6.729,2.225,9.943,3.668c7.861,3.531,15.611,7.307,23.449,10.892c2.928,1.341,5.943,2.511,8.988,3.564
				c0.678,0.235,1.641-0.346,2.471-0.553c-0.205-0.707-0.217-1.568-0.643-2.095c-5.447-6.72-11.062-13.302-16.404-20.103
				c-3.896-4.958-7.291-10.312-11.197-15.262c-3.994-5.062-8.393-9.803-12.498-14.78c-1.105-1.34-1.779-3.034-2.947-5.087
				c1.584-0.084,2.441-0.382,3.08-0.127c15.219,6.07,31.004,4.959,46.83,3.958c5.84-0.369,11.736,0.192,17.59-0.062
				c3.764-0.163,7.506-0.984,11.232-1.651c0.645-0.114,1.672-0.969,1.631-1.401c-0.066-0.74-0.699-1.617-1.35-2.062
				c-0.605-0.414-1.545-0.345-2.338-0.477c-2.883-0.481-3.791-2.674-1.885-4.94c8.098-9.627,16.258-19.2,24.396-28.792
				c0.074-0.089,0.189-0.148,0.242-0.245c1.057-1.989,2.111-3.981,3.166-5.973c-1.973-0.744-3.91-1.588-5.92-2.21
				c-4.957-1.538-9.943-2.979-14.924-4.446c-5.301-1.563-10.625-3.055-15.906-4.683c-5.385-1.66-10.699-3.551-16.105-5.146
				c-2.975-0.876-4.039-2.623-3.822-5.624c0.08-1.104-0.611-2.266-0.951-3.399c-1.201,0.547-2.715,0.8-3.557,1.688
				c-9.707,10.23-19.338,20.534-28.932,30.869c-6.525,7.028-13.008,14.099-19.412,21.236c-1.879,2.095-3.537,1.537-4.916-0.18
				c-6.861-8.543-13.504-17.264-20.445-25.738c-4.195-5.121-6.449-10.394-6.053-17.363c0.625-10.956-0.316-21.998,0.195-32.965
				c0.176-3.751,2.164-7.755,4.291-11.012c6.678-10.234,13.814-20.165,20.777-30.212c1.178-1.699,2.486-3.322,3.531-5.099
				c1.438-2.447,3.223-2.474,5.145-0.859c8.926,7.503,17.781,15.092,26.705,22.599c4.42,3.721,8.668,7.737,13.484,10.863
				c4,2.594,8.654,4.236,13.129,6.026c6.838,2.733,13.768,5.237,20.666,7.825c6.365,2.391,12.752,4.73,19.109,7.153
				c6.785,2.586,13.521,5.3,20.318,7.853c6.797,2.554,13.643,4.985,20.473,7.456c0.869,0.314,1.822,0.435,2.645,0.832
				c2.781,1.341,3.248,3.156,1.129,5.42c-4.344,4.646-8.838,9.154-13.293,13.697c-5.021,5.118-10.119,10.163-15.066,15.354
				C641.643,408.674,641.012,410.32,639.818,412.311z M477.09,854.468c8.875,0.479,17.693-1.348,26.039-6.038
				c12.441-6.989,21.229-17.381,27.955-29.546c4.213-7.615,7.541-15.741,10.939-23.778c1.742-4.117,2.926-8.495,4.076-12.833
				c1.451-5.455,2.545-11.004,3.91-16.483c1.533-6.148,3.211-12.261,4.799-18.396c1.867-7.226,3.654-14.473,5.568-21.685
				c2.816-10.611,8.473-19.904,14.059-29.161c6.656-11.039,14.34-21.495,20.469-32.807c6.287-11.595,11.264-23.9,16.748-35.926
				c2.676-5.869,4.791-12.033,7.896-17.66c4.561-8.263,9.764-16.176,14.729-24.218c3.467-5.618,5.896-11.528,5.305-18.302
				c-0.379-4.344-2.666-7.066-6.363-7.54c-10.068-1.291-15.068,2.936-18.328,11.662c-4.174,11.176-5.559,23.058-6.664,34.951
				c-0.627,6.766-1.605,13.631-3.564,20.108c-4.098,13.555-10.635,26.132-19.27,37.286c-6.025,7.783-13.24,14.724-20.441,21.49
				c-4.986,4.685-11.316,8.329-18.088,8.877c-16.693,1.35-33.336,0.104-49.076-6.17c-5.383-2.146-9.926-6.477-11.375-12.375
				c-1.445-5.878-1.619-12.06-2.541-18.077c-0.736-4.808,1.658-7.5,5.523-9.73c8.775-5.066,17.443-10.316,26.135-15.533
				c7.479-4.49,11.287-11.556,12.488-19.801c1.076-7.422,1.121-14.994,1.604-22.5c0.176-2.731-0.629-5.061-3.064-6.552
				c-3.928-2.404-7.779-4.963-11.857-7.076c-10.453-5.42-20.939-10.647-33.141-11.126c-10.209-0.4-20.117,0.721-29.418,4.91
				c-7.348,3.31-14.523,7.07-21.492,11.119c-5.316,3.086-6.877,4.172-6.193,11.049c0.488,4.949,0.924,9.922,1.014,14.891
				c0.236,13.078,6.578,22.168,17.777,28.363c7.254,4.014,14.346,8.314,21.59,12.35c3.953,2.202,6.002,5.132,5.303,9.851
				c-0.352,2.381,0.256,4.923-0.205,7.27c-0.885,4.506-1.49,9.294-3.529,13.293c-3.744,7.341-10.742,11.148-18.516,12.747
				c-11.666,2.399-23.479,3.773-35.475,3.662c-5.443-0.051-10.352-1.512-14.898-3.898c-11.582-6.067-20.457-15.407-28.088-25.741
				c-4.971-6.731-9.074-14.171-12.945-21.617c-3.064-5.894-6.205-12.07-7.506-18.488c-2.75-13.563-4.059-27.414-6.473-41.055
				c-1.453-8.234-2.988-16.693-10.668-22.109c-3.232-2.284-10.633-3.171-13.826-1.117c-3.918,2.519-3.752,6.541-3.555,10.556
				c0.373,7.553,4.729,13.351,8.414,19.46c4.406,7.302,9.314,14.365,13.006,22.014c5.303,10.977,9.451,22.502,14.564,33.576
				c3.703,8.021,7.871,15.866,12.365,23.473c7.318,12.387,15.387,24.338,22.561,36.803c7.061,12.271,11.723,25.524,13.695,39.639
				c0.223,1.589,0.787,3.131,1.18,4.696c1.49,5.917,3.006,11.827,4.453,17.757c1.34,5.48,2.242,11.098,3.992,16.441
				c2.355,7.195,5.26,14.217,8.07,21.255c3.793,9.5,8.949,18.237,15.551,26.048C443.863,846.399,457.803,855.403,477.09,854.468z"/>
			<path fill-rule="evenodd" clip-rule="evenodd" fill="#FFFFFF" d="M703.562,230.411c-5,5.897-9.488,11.135-13.908,16.431
				c-1.463,1.751-2.639,3.752-4.176,5.426c-0.693,0.755-1.973,1.369-2.945,1.317c-0.602-0.031-1.479-1.38-1.633-2.243
				c-2.111-11.821-4.098-23.662-6.158-35.494c-1.207-6.935-2.498-13.854-3.732-20.786c-1.74-9.769-3.416-19.548-5.195-29.309
				c-1.613-8.85-3.393-17.667-4.973-26.52c-0.566-3.182-0.695-6.44-1.135-9.646c-0.309-2.252-0.803-4.477-1.242-6.844
				c-3.361,0.608-4.1,2.848-4.771,5.229c-2.785,9.854-5.635,19.692-8.42,29.546c-2.441,8.645-4.748,17.332-7.268,25.953
				c-2.391,8.18-5.045,16.285-7.471,24.455c-1.541,5.195-2.855,10.457-4.299,15.682c-1.016,3.667-1.973,7.354-3.15,10.97
				c-0.713,2.183-3.395,2.29-4.926,0.269c-4.734-6.255-9.402-12.558-14.15-18.799c-5.727-7.528-11.477-15.036-17.271-22.508
				c-6.219-8.02-12.545-15.956-18.709-24.016c-0.875-1.143-1.102-2.776-1.631-4.182c1.676,0.297,3.582,0.18,4.99,0.96
				c10.768,5.957,21.438,12.091,32.141,18.158c0.182,0.103,0.445,0.059,1.281,0.149c-0.357-1.4-0.428-2.748-1.016-3.807
				c-3.695-6.627-7.525-13.178-11.275-19.775c-5.184-9.113-10.408-18.203-15.412-27.414c-0.65-1.199-0.625-3.281-0.035-4.553
				c3.367-7.297,6.783-14.59,10.596-21.66c4.795-8.896,9.607-17.822,15.088-26.296c9.695-14.995,21.221-28.495,35.051-39.913
				c2.395-1.979,4.84-3.907,7.1-6.031c1.816-1.711,3.385-1.406,5.219-0.12c14.822,10.396,26.049,24.153,35.98,39.008
				c5.234,7.829,10.242,15.899,14.439,24.317c4.916,9.86,9.086,20.12,13.127,30.386c3.922,9.97,7.531,20.082,10.791,30.286
				c2.691,8.432,4.668,17.094,6.971,25.65c1.613,5.996,3.312,11.971,4.844,17.988c1.076,4.234,2.02,8.506,2.865,12.791
				c1.406,7.127,2.652,14.284,4.031,21.416c0.547,2.829,1.18,5.65,1.922,8.434c1.686,6.327,1.777,11.856-3.469,17.225
				c-8.059,8.243-15.238,17.345-22.91,25.978c-0.887,0.999-2.529,1.328-3.822,1.969c-0.418-1.146-1.021-2.26-1.227-3.441
				c-1.775-10.237-3.539-20.478-5.188-30.736c-1.174-7.298-2.121-14.631-3.287-21.931
				C704.988,233.096,704.197,231.911,703.562,230.411z"/>
			<path fill-rule="evenodd" clip-rule="evenodd" fill="#FFFFFF" d="M295.703,122.855c-0.307,0.974-0.744,1.926-0.9,2.921
				c-1.324,8.434-2.566,16.877-3.9,25.309c-0.938,5.926-1.932,11.842-2.988,17.749c-1.523,8.524-3.162,17.031-4.686,25.558
				c-1.422,7.947-2.734,15.915-4.141,23.864c-1.975,11.145-3.969,22.285-6.035,33.411c-0.145,0.781-1.273,2.108-1.387,2.052
				c-1.283-0.634-2.721-1.266-3.617-2.321c-5.73-6.738-11.336-13.584-17.344-20.832c-0.633,1.023-1.512,1.843-1.662,2.779
				c-2.074,12.888-4.023,25.795-6.057,38.692c-0.867,5.478-1.832,10.942-2.83,16.399c-0.131,0.721-0.857,1.975-1.1,1.924
				c-1.18-0.234-2.596-0.536-3.367-1.348c-1.979-2.083-3.57-4.528-5.479-6.687c-6.197-7.013-12.379-14.042-18.75-20.896
				c-2.791-3.005-4.371-6.149-3.523-10.305c1.615-7.915,3.152-15.847,4.766-23.765c1.334-6.541,2.637-13.092,4.121-19.603
				c1.535-6.731,3.238-13.425,4.93-20.119c1.043-4.125,2.123-8.246,3.318-12.328c3.301-11.267,6.215-22.675,10.143-33.718
				c4.01-11.277,8.979-22.219,13.645-33.258c5.764-13.642,13.141-26.428,21.719-38.455c8.873-12.447,18.602-24.203,31.205-33.191
				c4.898-3.496,4.969-3.547,9.402,0.572c7.949,7.381,16.422,14.314,23.553,22.424c7.262,8.26,13.467,17.514,19.578,26.703
				c5.01,7.539,9.434,15.498,13.688,23.504c3.455,6.5,6.338,13.309,9.293,20.061c0.439,1.002,0.266,2.66-0.285,3.642
				c-4.229,7.532-8.676,14.944-12.945,22.453c-3.471,6.106-6.775,12.31-10.191,18.448c-1.283,2.308-2.752,4.516-3.973,6.854
				c-0.525,1.001-0.635,2.22-1.193,4.321c9.729-5.532,18.506-10.51,27.27-15.514c2.691-1.536,5.281-3.262,8.049-4.639
				c0.953-0.474,2.305-0.147,3.473-0.187c-0.273,1.146-0.217,2.543-0.869,3.401c-4.967,6.516-10.109,12.898-15.129,19.377
				c-5.793,7.479-11.477,15.043-17.287,22.512c-4.32,5.553-8.812,10.975-13.133,16.529c-1.768,2.271-3.127,4.869-4.986,7.054
				c-0.828,0.975-2.41,1.681-3.686,1.738c-0.584,0.027-1.518-1.722-1.844-2.8c-2.771-9.149-5.457-18.329-8.139-27.507
				c-2.193-7.521-4.324-15.06-6.527-22.578c-1.814-6.189-3.707-12.353-5.539-18.538c-1.146-3.865-2.291-7.732-3.359-11.62
				c-2.379-8.669-4.623-17.378-7.137-26.009c-0.484-1.667-1.936-3.053-2.941-4.568C296.518,122.5,296.109,122.678,295.703,122.855z"
				/>
			<linearGradient id="SVGID_1_" gradientUnits="userSpaceOnUse" x1="348.0664" y1="416.0039" x2="388.4678" y2="416.0039">
				<stop  offset="0" style="stop-color:#CCE0F4"/>
				<stop  offset="0.0641" style="stop-color:#C3DCF2"/>
				<stop  offset="0.1706" style="stop-color:#A9D2EE"/>
				<stop  offset="0.3066" style="stop-color:#80C2E7"/>
				<stop  offset="0.4649" style="stop-color:#47ACDE"/>
				<stop  offset="0.5674" style="stop-color:#1E9CD7"/>
				<stop  offset="0.8652" style="stop-color:#0075BE"/>
				<stop  offset="0.9944" style="stop-color:#005B97"/>
			</linearGradient>
			<path fill-rule="evenodd" clip-rule="evenodd" fill="url(#SVGID_1_)" d="M348.066,413.14c1.338-3.454,2.4-7.061,4.15-10.293
				c0.707-1.307,2.939-2.568,4.441-2.526c5,0.138,9.986,0.844,14.973,1.401c2.637,0.295,5.248,0.972,7.885,1.061
				c7.033,0.24,9.193,4.377,8.932,11.061c-0.256,6.567-2.426,13.236-9.412,16.086c-3.08,1.257-6.719,1.207-10.119,1.603
				c-11.645,1.357-20.051-6.259-19.98-18.04C348.645,413.373,348.355,413.257,348.066,413.14z M364.895,402.853
				c-1.328,1.778-2.271,2.624-2.693,3.679c-1.654,4.114-0.229,8.792,2.994,10.345c4.717,2.274,9.689,0.707,12.045-4.169
				c0.689-1.429,0.258-3.396,0.342-5.118c-1.467,0.297-2.945,0.551-4.396,0.914c-0.414,0.105-0.73,0.556-1.123,0.795
				c-2.422,1.465-4.482,0.761-5.463-1.858C366.168,406.288,365.742,405.133,364.895,402.853z"/>
			<linearGradient id="SVGID_2_" gradientUnits="userSpaceOnUse" x1="565.4463" y1="415.9141" x2="605.2002" y2="415.9141">
				<stop  offset="0" style="stop-color:#CCE0F4"/>
				<stop  offset="0.0641" style="stop-color:#C3DCF2"/>
				<stop  offset="0.1706" style="stop-color:#A9D2EE"/>
				<stop  offset="0.3066" style="stop-color:#80C2E7"/>
				<stop  offset="0.4649" style="stop-color:#47ACDE"/>
				<stop  offset="0.5674" style="stop-color:#1E9CD7"/>
				<stop  offset="0.8652" style="stop-color:#0075BE"/>
				<stop  offset="0.9944" style="stop-color:#005B97"/>
			</linearGradient>
			<path fill-rule="evenodd" clip-rule="evenodd" fill="url(#SVGID_2_)" d="M605.18,413.718c0.355,7.446-3.877,12.295-9.24,16.499
				c-0.529,0.417-1.246,0.893-1.855,0.866c-6.143-0.252-12.545,0.374-18.352-1.188c-6.264-1.683-9.141-7.707-10.031-13.861
				c-1.152-7.948,1.592-12.404,8.365-13.289c3.098-0.406,3.135,0.042,2.799,3.493c-1.707,3.879-0.709,7.104,1.957,9.825
				c2.74,2.797,6.209,1.894,9.465,0.927c2.215-0.659,4.85-5.247,4.543-7.592c-0.262-2.017-2.512-2.445-4.674-1.227
				c-1.439,0.812-3.531,1.889-4.686,1.379c-7.562-3.338-6.281-1.043-6.512-6.406c-0.047-1.077,5.809-1.065,6.689-1.186
				c4.986-0.675,10.104-1.573,15.039-1.068c3.594,0.367,5.062,4.343,6.062,7.669C605.236,410.176,605.057,411.992,605.18,413.718z"
				/>
			<path fill-rule="evenodd" clip-rule="evenodd" d="M477.09,854.468c-19.287,0.936-33.227-8.068-44.783-21.743
				c-6.602-7.811-11.758-16.548-15.551-26.048c-2.811-7.038-5.715-14.06-8.07-21.255c-1.75-5.344-2.652-10.961-3.992-16.441
				c-1.447-5.93-2.963-11.84-4.453-17.757c-0.393-1.565-0.957-3.107-1.18-4.696c-1.973-14.114-6.635-27.367-13.695-39.639
				c-7.174-12.465-15.242-24.416-22.561-36.803c-4.494-7.606-8.662-15.451-12.365-23.473c-5.113-11.074-9.262-22.6-14.564-33.576
				c-3.691-7.648-8.6-14.712-13.006-22.014c-3.686-6.109-8.041-11.907-8.414-19.46c-0.197-4.015-0.363-8.037,3.555-10.556
				c3.193-2.054,10.594-1.167,13.826,1.117c7.68,5.416,9.215,13.875,10.668,22.109c2.414,13.641,3.723,27.491,6.473,41.055
				c1.301,6.418,4.441,12.595,7.506,18.488c3.871,7.446,7.975,14.886,12.945,21.617c7.631,10.334,16.506,19.674,28.088,25.741
				c4.547,2.387,9.455,3.848,14.898,3.898c11.996,0.111,23.809-1.263,35.475-3.662c7.773-1.599,14.771-5.406,18.516-12.747
				c2.039-3.999,2.645-8.787,3.529-13.293c0.461-2.347-0.146-4.889,0.205-7.27c0.699-4.719-1.35-7.648-5.303-9.851
				c-7.244-4.035-14.336-8.336-21.59-12.35c-11.199-6.195-17.541-15.285-17.777-28.363c-0.09-4.969-0.525-9.941-1.014-14.891
				c-0.684-6.877,0.877-7.963,6.193-11.049c6.969-4.049,14.145-7.81,21.492-11.119c9.301-4.189,19.209-5.311,29.418-4.91
				c12.201,0.479,22.688,5.706,33.141,11.126c4.078,2.113,7.93,4.672,11.857,7.076c2.436,1.491,3.24,3.82,3.064,6.552
				c-0.482,7.506-0.527,15.078-1.604,22.5c-1.201,8.245-5.01,15.311-12.488,19.801c-8.691,5.217-17.359,10.467-26.135,15.533
				c-3.865,2.23-6.26,4.923-5.523,9.73c0.922,6.018,1.096,12.199,2.541,18.077c1.449,5.898,5.992,10.229,11.375,12.375
				c15.74,6.274,32.383,7.52,49.076,6.17c6.771-0.548,13.102-4.192,18.088-8.877c7.201-6.767,14.416-13.707,20.441-21.49
				c8.635-11.154,15.172-23.731,19.27-37.286c1.959-6.478,2.938-13.343,3.564-20.108c1.105-11.894,2.49-23.775,6.664-34.951
				c3.26-8.727,8.26-12.953,18.328-11.662c3.697,0.474,5.984,3.196,6.363,7.54c0.592,6.773-1.838,12.684-5.305,18.302
				c-4.965,8.042-10.168,15.955-14.729,24.218c-3.105,5.627-5.221,11.791-7.896,17.66c-5.484,12.025-10.461,24.331-16.748,35.926
				c-6.129,11.312-13.812,21.768-20.469,32.807c-5.586,9.257-11.242,18.55-14.059,29.161c-1.914,7.212-3.701,14.459-5.568,21.685
				c-1.588,6.135-3.266,12.247-4.799,18.396c-1.365,5.479-2.459,11.028-3.91,16.483c-1.15,4.338-2.334,8.716-4.076,12.833
				c-3.398,8.037-6.727,16.163-10.939,23.778c-6.727,12.165-15.514,22.557-27.955,29.546
				C494.783,853.12,485.965,854.946,477.09,854.468z"/>
			<path fill-rule="evenodd" clip-rule="evenodd" d="M364.895,402.853c0.848,2.28,1.273,3.436,1.705,4.587
				c0.98,2.619,3.041,3.323,5.463,1.858c0.393-0.239,0.709-0.689,1.123-0.795c1.451-0.363,2.93-0.617,4.396-0.914
				c-0.084,1.722,0.348,3.689-0.342,5.118c-2.355,4.876-7.328,6.443-12.045,4.169c-3.223-1.553-4.648-6.23-2.994-10.345
				C362.623,405.477,363.566,404.631,364.895,402.853z"/>
		</g>
		<g>
			<g>
				<path d="M476.725,740.307c2.644,20.759,1.431,41.657,1.389,62.513c-0.005,2.688,4.162,2.688,4.168,0
					c0.042-20.855,1.254-41.754-1.389-62.513C480.558,737.679,476.386,737.646,476.725,740.307L476.725,740.307z"/>
			</g>
		</g>
		<g>
			<g>
				<path d="M467.002,743.086c0,14.817,0,29.636,0,44.453c0,2.688,4.168,2.688,4.168,0c0-14.817,0-29.636,0-44.453
					C471.17,740.398,467.002,740.398,467.002,743.086L467.002,743.086z"/>
			</g>
		</g>
		<g id="j1qhMu_1_">
			<g>
				<path fill="#E2404C" d="M400.596,721.979c0-2.471,0-4.94,0-7.413c0.549-1.3,1.178-2.576,1.631-3.91
					c1.371-4.038,3.508-5.912,7.639-5.004c3.789,0.829,7.75,2.24,10.861,4.472c5.219,3.74,11.271,5.286,16.969,7.735
					c3.521,1.513,7.312,2.422,11.016,3.487c1.348,0.383,2.797,0.41,4.193,0.633c5.027,0.801,9.502,2.913,13.947,5.344
					c2.072,1.135,3.459,2.478,3.715,4.549c0.732,5.913,1.322,11.853,1.686,17.797c0.396,6.531,0.318,13.091,0.756,19.615
					c0.289,4.336,1.168,8.631,1.686,12.954c0.23,1.927,1.326,2.364,3.438,2.304c0.621-8.041,1.225-15.954,1.838-23.87
					c0.66-8.57,1.465-17.134,1.947-25.716c0.363-6.487,4.666-8.908,9.957-10.68c7.771-2.604,16.217-2.691,23.662-6.619
					c3.062-1.618,6.66-2.207,9.789-3.729c4.574-2.23,8.938-4.899,13.406-7.352c5.193-2.853,9.422-1.394,11.58,4.077
					c0.791,2.008,1.299,4.127,1.934,6.196c0,0.949,0,1.898,0,2.851c-0.203,0.717-0.502,1.424-0.596,2.158
					c-0.699,5.436-1.148,10.916-2.098,16.306c-0.721,4.087-2.74,8.021-2.988,12.095c-0.672,11.15-5.277,21.303-7.66,32.009
					c-1.77,7.938-6.043,15.294-8.883,23.024c-2.443,6.64-5.77,12.787-10.17,18.214c-4.867,5.999-10.092,11.623-16.518,16.227
					c-6.334,4.539-12.736,7.683-20.617,8.602c-16.232,1.897-29.75-3.134-40.844-14.75c-4.154-4.349-7.295-9.651-11.346-14.115
					c-4.531-4.988-6.607-11.176-9.328-17.054c-1.779-3.84-2.811-8.034-4.65-11.842c-2.006-4.147-3.402-8.343-3.979-12.936
					c-0.395-3.141-1.584-6.186-2.467-9.259c-0.496-1.728-1.264-3.389-1.617-5.139c-1.197-5.941-2.215-11.919-3.396-17.863
					c-0.887-4.454-1.99-8.864-2.859-13.319C401.572,728.721,401.133,725.341,400.596,721.979z"/>
			</g>
		</g>
		<circle fill-rule="evenodd" clip-rule="evenodd" fill="#FFFFFF" cx="370.004" cy="407.121" r="5.107"/>
		<circle fill-rule="evenodd" clip-rule="evenodd" fill="#FFFFFF" cx="583.937" cy="407.121" r="5.108"/>
	</g>
</g>
</svg>
